<?xml version="1.0" encoding="UTF-8"?>
<svg width="320px" height="180px" viewBox="0 0 320 180" version="1.1" xmlns="http://www.w3.org/2000/svg" xmlns:xlink="http://www.w3.org/1999/xlink">
    <title>art-direction</title>
    <defs>
        <path d="M3.39663511,8.94804109e-17 L66.3209649,-3.84377467e-15 C67.5020489,2.23334378e-15 67.9303385,0.12297537 68.3621252,0.353897406 C68.7939119,0.584819442 69.1327806,0.923688145 69.3637026,1.35547481 C69.5946246,1.78726148 69.7176,2.21555109 69.7176,3.39663511 L69.7176,96.1289649 C69.7176,97.3100489 69.5946246,97.7383385 69.3637026,98.1701252 C69.1327806,98.6019119 68.7939119,98.9407806 68.3621252,99.1717026 C67.9303385,99.4026246 67.5020489,99.5256 66.3209649,99.5256 L3.39663511,99.5256 C2.21555109,99.5256 1.78726148,99.4026246 1.35547481,99.1717026 C0.923688145,98.9407806 0.584819442,98.6019119 0.353897406,98.1701252 C0.12297537,97.7383385 -7.85685262e-17,97.3100489 1.35223119e-16,96.1289649 L9.1485416e-17,3.39663511 C-5.31556613e-17,2.21555109 0.12297537,1.78726148 0.353897406,1.35547481 C0.584819442,0.923688145 0.923688145,0.584819442 1.35547481,0.353897406 C1.78726148,0.12297537 2.21555109,-5.19906956e-17 3.39663511,8.94804109e-17 Z" id="path-1"></path>
        <path d="M8.3125,6.125 C7.58762627,6.125 7,5.53737373 7,4.8125 C7,4.08762627 7.58762627,3.5 8.3125,3.5 C9.03737373,3.5 9.625,4.08762627 9.625,4.8125 C9.625,5.16059664 9.48671915,5.49443615 9.24057765,5.74057765 C8.99443615,5.98671915 8.66059664,6.125 8.3125,6.125 L8.3125,6.125 Z M8.3125,4.375 C8.07087542,4.375 7.875,4.57087542 7.875,4.8125 C7.875,5.05412458 8.07087542,5.25 8.3125,5.25 C8.55412458,5.25 8.75,5.05412458 8.75,4.8125 C8.75,4.57087542 8.55412458,4.375 8.3125,4.375 Z M11.440625,1.75 L2.559375,1.75 C2.11236953,1.75 1.75,2.11236953 1.75,2.559375 L1.75,11.440625 C1.75,11.6552846 1.83527319,11.8611523 1.98706045,12.0129396 C2.13884771,12.1647268 2.3447154,12.25 2.559375,12.25 L11.440625,12.25 C11.6552846,12.25 11.8611523,12.1647268 12.0129396,12.0129396 C12.1647268,11.8611523 12.25,11.6552846 12.25,11.440625 L12.25,2.559375 C12.25,2.11236953 11.8876305,1.75 11.440625,1.75 Z M11.375,2.625 L11.375,9.331875 L9.73875,7.695625 C9.57462778,7.53132009 9.35192059,7.43899918 9.1196875,7.43899918 C8.88745441,7.43899918 8.66474722,7.53132009 8.500625,7.695625 L7.875,8.334375 L5.46875,5.945625 C5.30462778,5.78132009 5.08192059,5.68899918 4.8496875,5.68899918 C4.61745441,5.68899918 4.39474722,5.78132009 4.230625,5.945625 L2.625,7.55125 L2.625,2.625 L11.375,2.625 Z M2.625,11.375 L2.625,8.785 L4.8475,6.5625 L4.8475,6.5625 L7.240625,8.955625 C7.40474722,9.11992991 7.62745441,9.21225082 7.8596875,9.21225082 C8.09192059,9.21225082 8.31462778,9.11992991 8.47875,8.955625 L9.1175,8.3125 L9.1175,8.3125 L11.375,10.57 L11.375,11.375 L2.625,11.375 Z" id="path-3"></path>
        <path d="M8.3125,6.125 C7.58762627,6.125 7,5.53737373 7,4.8125 C7,4.08762627 7.58762627,3.5 8.3125,3.5 C9.03737373,3.5 9.625,4.08762627 9.625,4.8125 C9.625,5.16059664 9.48671915,5.49443615 9.24057765,5.74057765 C8.99443615,5.98671915 8.66059664,6.125 8.3125,6.125 L8.3125,6.125 Z M8.3125,4.375 C8.07087542,4.375 7.875,4.57087542 7.875,4.8125 C7.875,5.05412458 8.07087542,5.25 8.3125,5.25 C8.55412458,5.25 8.75,5.05412458 8.75,4.8125 C8.75,4.57087542 8.55412458,4.375 8.3125,4.375 Z M11.440625,1.75 L2.559375,1.75 C2.11236953,1.75 1.75,2.11236953 1.75,2.559375 L1.75,11.440625 C1.75,11.6552846 1.83527319,11.8611523 1.98706045,12.0129396 C2.13884771,12.1647268 2.3447154,12.25 2.559375,12.25 L11.440625,12.25 C11.6552846,12.25 11.8611523,12.1647268 12.0129396,12.0129396 C12.1647268,11.8611523 12.25,11.6552846 12.25,11.440625 L12.25,2.559375 C12.25,2.11236953 11.8876305,1.75 11.440625,1.75 Z M11.375,2.625 L11.375,9.331875 L9.73875,7.695625 C9.57462778,7.53132009 9.35192059,7.43899918 9.1196875,7.43899918 C8.88745441,7.43899918 8.66474722,7.53132009 8.500625,7.695625 L7.875,8.334375 L5.46875,5.945625 C5.30462778,5.78132009 5.08192059,5.68899918 4.8496875,5.68899918 C4.61745441,5.68899918 4.39474722,5.78132009 4.230625,5.945625 L2.625,7.55125 L2.625,2.625 L11.375,2.625 Z M2.625,11.375 L2.625,8.785 L4.8475,6.5625 L4.8475,6.5625 L7.240625,8.955625 C7.40474722,9.11992991 7.62745441,9.21225082 7.8596875,9.21225082 C8.09192059,9.21225082 8.31462778,9.11992991 8.47875,8.955625 L9.1175,8.3125 L9.1175,8.3125 L11.375,10.57 L11.375,11.375 L2.625,11.375 Z" id="path-5"></path>
        <path d="M147.623114,92.9616 L147.623114,150.463447 L147.622659,150.625055 L147.62128,150.779823 L147.618955,150.928004 L147.616868,151.023257 L147.614345,151.115771 L147.611379,151.20562 L147.607963,151.292879 L147.604091,151.377625 C147.603407,151.391544 147.602704,151.405361 147.601982,151.419078 L147.601982,151.419078 L147.597414,151.500193 L147.592374,151.578982 L147.586855,151.655519 L147.580851,151.72988 L147.574356,151.802141 L147.567363,151.872375 L147.559865,151.940659 L147.551856,152.007067 L147.54333,152.071675 L147.53428,152.134558 L147.5247,152.19579 L147.514584,152.255447 C147.512852,152.265263 147.511098,152.275017 147.509322,152.284709 L147.509322,152.284709 L147.498388,152.342145 L147.480948,152.425721 L147.46862,152.47983 L147.455723,152.53274 L147.44225,152.584525 L147.428196,152.635261 L147.413553,152.685024 L147.398315,152.733887 L147.374329,152.805662 L147.357576,152.852608 C147.351889,152.868146 147.346099,152.883578 147.340205,152.898917 L147.340205,152.898917 L147.322211,152.944667 L147.284324,153.034783 L147.264419,153.079301 L147.243865,153.123559 L147.217894,153.177516 L147.200434,153.212801 C146.93458,153.745045 146.548149,154.158793 146.051044,154.443441 L146.051044,154.443441 L146.000774,154.471793 L145.965048,154.491385 L145.923908,154.513286 L145.882515,154.534496 C145.875592,154.537974 145.868654,154.541424 145.861702,154.544845 L145.861702,154.544845 L145.819799,154.565032 L145.777468,154.584547 L145.73464,154.603395 C145.727457,154.606481 145.720249,154.60954 145.713017,154.612571 L145.713017,154.612571 L145.669312,154.630432 L145.624933,154.647643 L145.579813,154.664212 L145.533881,154.680144 L145.439299,154.710128 L145.390511,154.724193 C145.38229,154.726486 145.374024,154.728754 145.365711,154.730996 L145.365711,154.730996 L145.315259,154.74415 L145.263609,154.756706 L145.210693,154.768669 L145.15644,154.780047 L145.100781,154.790846 C145.091384,154.792598 145.081925,154.794326 145.072402,154.796031 L145.072402,154.796031 L145.014502,154.805975 L144.955021,154.815358 L144.893889,154.824186 L144.831035,154.832466 L144.76639,154.840205 L144.699885,154.84741 L144.631448,154.854086 L144.561011,154.860242 L144.488502,154.865884 L144.413854,154.871018 L144.336994,154.875652 L144.217407,154.881679 L144.134716,154.885091 L144.006053,154.889316 L143.917092,154.891549 L143.778697,154.894037 L143.634148,154.895946 L122.61208,154.895946 L122.467531,154.894036 L122.329133,154.891547 L122.240169,154.889312 L122.153763,154.886611 L122.069846,154.883435 L121.988348,154.879777 L121.909198,154.875632 C121.896198,154.8749 121.883293,154.874147 121.870481,154.873374 L121.870481,154.873374 L121.794721,154.868483 L121.721135,154.863086 L121.649651,154.857178 L121.580199,154.850749 L121.512709,154.843795 L121.447112,154.836307 L121.383336,154.828279 L121.321312,154.819705 L121.26097,154.810576 L121.202239,154.800886 L121.14505,154.790629 L121.089331,154.779797 L121.089331,154.779797 L121.062001,154.774164 L120.956009,154.750158 C120.947389,154.748058 120.938819,154.745934 120.930299,154.743784 L120.930299,154.743784 L120.879763,154.730585 L120.830346,154.716776 L120.78198,154.702351 L120.734593,154.687303 L120.688116,154.671625 L120.642479,154.65531 L120.59761,154.638351 L120.59761,154.638351 L120.575443,154.629628 L120.531597,154.61169 C120.517084,154.605602 120.502671,154.599402 120.488344,154.593092 L120.488344,154.593092 L120.445616,154.573826 L120.403341,154.553884 L120.31987,154.511949 L120.278534,154.489942 L120.22814,154.462135 L120.195184,154.443441 C119.69808,154.158793 119.311649,153.745045 119.045794,153.212801 L119.045794,153.212801 L119.019314,153.158977 L119.001016,153.120726 L118.990424,153.09812 L118.969754,153.052722 L118.940021,152.984001 L118.940021,152.984001 L118.930446,152.960887 L118.911793,152.914288 L118.893799,152.867126 L118.876457,152.819319 C118.870784,152.803267 118.865218,152.787094 118.859758,152.770786 L118.859758,152.770786 L118.835903,152.696447 L118.835903,152.696447 L118.828266,152.671216 L118.813458,152.620015 L118.799266,152.567763 L118.785683,152.514376 C118.78347,152.50538 118.781282,152.496332 118.779118,152.487233 L118.779118,152.487233 L118.766435,152.431993 L118.754344,152.375416 C118.750411,152.356325 118.746575,152.336997 118.742836,152.31742 L118.742836,152.31742 L118.731906,152.257923 C118.730132,152.247878 118.728382,152.237766 118.726655,152.227587 L118.726655,152.227587 L118.716577,152.165687 L118.707059,152.102083 L118.698093,152.036693 L118.689672,151.969436 L118.68179,151.90023 L118.674438,151.828994 L118.667611,151.755646 L118.661301,151.680105 L118.655501,151.602289 L118.650204,151.522117 L118.645403,151.439507 L118.64109,151.354378 L118.637259,151.266648 L118.633903,151.176236 L118.631015,151.08306 L118.628587,150.987039 L118.626612,150.888091 L118.625084,150.786135 L118.623995,150.681089 L118.623114,92.9616 L147.623114,92.9616 Z" id="path-7"></path>
        <path d="M8.3125,6.125 C7.58762627,6.125 7,5.53737373 7,4.8125 C7,4.08762627 7.58762627,3.5 8.3125,3.5 C9.03737373,3.5 9.625,4.08762627 9.625,4.8125 C9.625,5.16059664 9.48671915,5.49443615 9.24057765,5.74057765 C8.99443615,5.98671915 8.66059664,6.125 8.3125,6.125 L8.3125,6.125 Z M8.3125,4.375 C8.07087542,4.375 7.875,4.57087542 7.875,4.8125 C7.875,5.05412458 8.07087542,5.25 8.3125,5.25 C8.55412458,5.25 8.75,5.05412458 8.75,4.8125 C8.75,4.57087542 8.55412458,4.375 8.3125,4.375 Z M11.440625,1.75 L2.559375,1.75 C2.11236953,1.75 1.75,2.11236953 1.75,2.559375 L1.75,11.440625 C1.75,11.6552846 1.83527319,11.8611523 1.98706045,12.0129396 C2.13884771,12.1647268 2.3447154,12.25 2.559375,12.25 L11.440625,12.25 C11.6552846,12.25 11.8611523,12.1647268 12.0129396,12.0129396 C12.1647268,11.8611523 12.25,11.6552846 12.25,11.440625 L12.25,2.559375 C12.25,2.11236953 11.8876305,1.75 11.440625,1.75 Z M11.375,2.625 L11.375,9.331875 L9.73875,7.695625 C9.57462778,7.53132009 9.35192059,7.43899918 9.1196875,7.43899918 C8.88745441,7.43899918 8.66474722,7.53132009 8.500625,7.695625 L7.875,8.334375 L5.46875,5.945625 C5.30462778,5.78132009 5.08192059,5.68899918 4.8496875,5.68899918 C4.61745441,5.68899918 4.39474722,5.78132009 4.230625,5.945625 L2.625,7.55125 L2.625,2.625 L11.375,2.625 Z M2.625,11.375 L2.625,8.785 L4.8475,6.5625 L4.8475,6.5625 L7.240625,8.955625 C7.40474722,9.11992991 7.62745441,9.21225082 7.8596875,9.21225082 C8.09192059,9.21225082 8.31462778,9.11992991 8.47875,8.955625 L9.1175,8.3125 L9.1175,8.3125 L11.375,10.57 L11.375,11.375 L2.625,11.375 Z" id="path-9"></path>
    </defs>
    <g id="art-direction" stroke="none" stroke-width="1" fill="none" fill-rule="evenodd">
        <rect fill="#FFFFFF" x="0" y="0" width="320" height="180"></rect>
        <path d="M242.559703,25.2673729 L242.778467,114.858994 L101.021629,114.858994 L101.021629,25.4837075 L242.559703,25.2673729 Z" id="Rectangle-Copy-41" stroke="#8D8D8D" stroke-width="2.6496" fill="#FFFFFF"></path>
        <path d="M97.8752286,122.151794 C89.1787397,122.151794 83.7691397,121.389344 81.6464286,119.864444 L81.6464286,119.864444 L81.6464286,117.514994 L263.144029,117.514994 L263.144029,119.864444 C261.021317,121.389344 255.611717,122.151794 246.915229,122.151794 Z" id="Combined-Shape" fill="#8D8D8D"></path>
        <rect id="Rectangle" fill="#FFFFFF" x="103" y="39" width="89" height="74"></rect>
        <g id="Group" transform="translate(56.000000, 39.723861)">
            <g id="tablet-copy-3">
                <g id="Rectangle-Copy-38" transform="translate(1.363521, 0.646047)">
                    <mask id="mask-2" fill="white">
                        <use xlink:href="#path-1"></use>
                    </mask>
                    <use id="Mask" fill="#FFFFFF" xlink:href="#path-1"></use>
                    <path d="M2.484,0.0828 L67.2336,0.0828 C68.5597461,0.0828 69.6348,1.15785386 69.6348,2.484 L69.6348,5.6304 L69.6348,5.6304 L0.0828,5.6304 L0.0828,2.484 C0.0828,1.15785386 1.15785386,0.0828 2.484,0.0828 Z" id="chrome" fill="#8D8D8D" mask="url(#mask-2)"></path>
                </g>
                <g id="system/status-bars/device-with-rounded-corners/02-dark" transform="translate(2.987200, 1.573200)">
                    <g id="battery" transform="translate(65.246400, 0.414000)" fill="#C6C6C6">
                        <path d="M0.828,0.6624 L0.0828,0.6624 C0.0370708227,0.6624 0,0.625329177 0,0.5796 L0,0.0828 C0,0.0370708227 0.0370708227,0 0.0828,0 L0.828,0 C0.873729177,0 0.9108,0.0370708227 0.9108,0.0828 L0.9108,0.1242 L0.9522,0.1242 C0.997929177,0.1242 1.035,0.161270823 1.035,0.207 L1.035,0.4554 C1.035,0.501129177 0.997929177,0.5382 0.9522,0.5382 L0.9108,0.5382 L0.9108,0.5796 C0.9108,0.625329177 0.873729177,0.6624 0.828,0.6624 Z M0.0828,0.0828 L0.0828,0.5796 L0.828,0.5796 L0.828,0.4554 L0.9522,0.4554 L0.9522,0.207 L0.828,0.207 L0.828,0.0828 L0.0828,0.0828 Z M0.7452,0.1656 L0.7452,0.4968 L0.1656,0.4968 L0.1656,0.1656 L0.7452,0.1656 Z" id="Fill"></path>
                    </g>
                    <g id="wifi" transform="translate(63.093600, 0.082800)">
                        <polygon id="background" points="0 1.3248 1.3248 1.3248 1.3248 0 0 0"></polygon>
                        <path d="M0.6624,0.9522 C0.7081056,0.9522 0.7452,0.9892944 0.7452,1.035 C0.7452,1.0807056 0.7081056,1.1178 0.6624,1.1178 C0.6166944,1.1178 0.5796,1.0807056 0.5796,1.035 C0.5796,0.9892944 0.6166944,0.9522 0.6624,0.9522" id="fill-1" fill="#C6C6C6"></path>
                        <path d="M0.43346628,0.79626276 L0.49200588,0.85476096 C0.58726728,0.76405356 0.73692828,0.76384656 0.83239668,0.85434696 L0.89089488,0.79584876 C0.76313448,0.67293216 0.56101968,0.67313916 0.43346628,0.79626276" id="fill-3" fill="#C6C6C6"></path>
                        <path d="M0.2578806,0.62069778 L0.3164202,0.67923738 C0.508599,0.49132278 0.8155386,0.49115718 1.0079658,0.67882338 L1.066464,0.62028378 C0.8417448,0.40028418 0.4823514,0.40044978 0.2578806,0.62069778 Z" id="fill-5" fill="#C6C6C6"></path>
                        <path d="M1.242,0.44468568 C0.9205704,0.12776868 0.4042296,0.12776868 0.0828,0.44468568 L0.0828,0.44559648 L0.1409256,0.50376348 C0.4298976,0.21864168 0.8942814,0.21847608 1.183419,0.50334948 L1.242,0.44476848 L1.242,0.44468568 Z" id="fill-7" fill="#C6C6C6"></path>
                    </g>
                    <g id="signal" transform="translate(61.106400, 0.082800)">
                        <polygon id="background" points="0 1.3248 1.3248 1.3248 1.3248 0 0 0"></polygon>
                        <polygon id="fill-2" fill="#C6C6C6" points="0.1656 1.0764 0.2656 1.0764 0.2656 0.828 0.1656 0.828"></polygon>
                        <polygon id="fill-3" fill="#C6C6C6" points="0.7452 1.0764 0.8452 1.0764 0.8452 0.4554 0.7452 0.4554"></polygon>
                        <polygon id="fill-4" fill="#C6C6C6" points="1.0764 1.0764 1.1764 1.0764 1.1764 0.2484 1.0764 0.2484"></polygon>
                        <polygon id="fill-5" fill="#C6C6C6" points="0.4554 1.0764 0.5554 1.0764 0.5554 0.6624 0.4554 0.6624"></polygon>
                    </g>
                    <text id="time" font-family="IBMPlexSans, IBM Plex Sans" font-size="1.1592" font-weight="normal" line-spacing="1.4904" letter-spacing="0.0132479997" fill="#FFFFFF">
                        <tspan x="0" y="1">19:11</tspan>
                    </text>
                </g>
                <path d="M68.9833649,1.37228124e-16 C70.1644489,-7.97334919e-17 70.5927385,0.12297537 71.0245252,0.353897406 C71.4563119,0.584819442 71.7951806,0.923688145 72.0261026,1.35547481 C72.2570246,1.78726148 72.38,2.21555109 72.38,3.39663511 L72.38,97.7913649 C72.38,98.9724489 72.2570246,99.4007385 72.0261026,99.8325252 C71.7951806,100.264312 71.4563119,100.603181 71.0245252,100.834103 C70.5927385,101.065025 70.1644489,101.188 68.9833649,101.188 L3.39663511,101.188 C2.21555109,101.188 1.78726148,101.065025 1.35547481,100.834103 C0.923688145,100.603181 0.584819442,100.264312 0.353897406,99.8325252 C0.12297537,99.4007385 -7.85685262e-17,98.9724489 1.35223119e-16,97.7913649 L9.1485416e-17,3.39663511 C-5.31556613e-17,2.21555109 0.12297537,1.78726148 0.353897406,1.35547481 C0.584819442,0.923688145 0.923688145,0.584819442 1.35547481,0.353897406 C1.78726148,0.12297537 2.21555109,-5.19906956e-17 3.39663511,8.94804109e-17 L68.9833649,1.37228124e-16 Z M68.1701237,0.6624 L4.20987633,0.6624 C3.32406331,0.6624 3.00284611,0.754631527 2.67900611,0.927823054 C2.35516611,1.10101458 2.10101458,1.35516611 1.92782305,1.67900611 C1.75463153,2.00284611 1.6624,2.32406331 1.6624,3.20987633 L1.6624,3.20987633 L1.6624,96.9781237 C1.6624,97.8639367 1.75463153,98.1851539 1.92782305,98.5089939 C2.10101458,98.8328339 2.35516611,99.0869854 2.67900611,99.2601769 C3.00284611,99.4333685 3.32406331,99.5256 4.20987633,99.5256 L4.20987633,99.5256 L68.1701237,99.5256 C69.0559367,99.5256 69.3771539,99.4333685 69.7009939,99.2601769 C70.0248339,99.0869854 70.2789854,98.8328339 70.4521769,98.5089939 C70.6253685,98.1851539 70.7176,97.8639367 70.7176,96.9781237 L70.7176,96.9781237 L70.7176,3.20987633 C70.7176,2.32406331 70.6253685,2.00284611 70.4521769,1.67900611 C70.2789854,1.35516611 70.0248339,1.10101458 69.7009939,0.927823054 C69.3771539,0.754631527 69.0559367,0.6624 68.1701237,0.6624 L68.1701237,0.6624 Z" id="frame" fill="#8D8D8D"></path>
            </g>
            <g id="Group" transform="translate(25.646429, 76.791134)"></g>
            <g id="Mobile-Copy-6" transform="translate(61.623114, 47.938539)">
                <g id="Screen" transform="translate(0.000000, 5.299200)"></g>
                <g id="status-bar" transform="translate(0.000000, 0.828000)">
                    <g id="icons" transform="translate(24.609785, 0.331200)">
                        <g id="battery" transform="translate(4.140000, 0.331200)"></g>
                        <g id="wifi" transform="translate(1.987200, 0.000000)"></g>
                        <g id="signal"></g>
                    </g>
                    <g id="time"></g>
                </g>
            </g>
        </g>
        <rect id="Rectangle-Copy-50" fill="#C6C6C6" x="138" y="36" width="69.3333333" height="39"></rect>
        <rect id="Rectangle-Copy-51" fill="#C6C6C6" x="61" y="49" width="62.6666667" height="47"></rect>
        <rect id="Rectangle-Copy-4" fill="#C6C6C6" x="139" y="80" width="68" height="2"></rect>
        <rect id="Rectangle-Copy-16" fill="#C6C6C6" x="213" y="37" width="16" height="2"></rect>
        <rect id="Rectangle-Copy-7" fill="#C6C6C6" x="61" y="101" width="59" height="2"></rect>
        <rect id="Rectangle-Copy-5" fill="#C6C6C6" x="139" y="84" width="68" height="2"></rect>
        <rect id="Rectangle-Copy-17" fill="#C6C6C6" x="213" y="41" width="16" height="2"></rect>
        <rect id="Rectangle-Copy-9" fill="#C6C6C6" x="61" y="105" width="59" height="2"></rect>
        <rect id="Rectangle-Copy-6" fill="#C6C6C6" x="139" y="88" width="68" height="2"></rect>
        <rect id="Rectangle-Copy-18" fill="#C6C6C6" x="213" y="45" width="11" height="2"></rect>
        <rect id="Rectangle-Copy-10" fill="#C6C6C6" x="61" y="109" width="59" height="2"></rect>
        <rect id="Rectangle-Copy-8" fill="#C6C6C6" x="139" y="92" width="43.5897436" height="2"></rect>
        <rect id="Rectangle-Copy-11" fill="#C6C6C6" x="61" y="113" width="37.8205128" height="2"></rect>
        <g id="icon/formatting/image/16-copy-2" transform="translate(166.000000, 49.000000)">
            <mask id="mask-4" fill="white">
                <use xlink:href="#path-3"></use>
            </mask>
            <use id="icon-color" fill="#8E8E93" xlink:href="#path-3"></use>
        </g>
        <g id="icon/formatting/image/16-copy-2" transform="translate(86.000000, 64.000000)">
            <mask id="mask-6" fill="white">
                <use xlink:href="#path-5"></use>
            </mask>
            <use id="icon-color" fill="#8E8E93" xlink:href="#path-5"></use>
        </g>
        <path d="M122.280722,87.3312 L144.012135,87.3312 C145.746852,87.3312 146.375903,87.5118201 147.010089,87.8509868 C147.644276,88.1901536 148.141989,88.687867 148.481156,89.3220536 C148.820323,89.9562403 149.000943,90.5852907 149.000943,92.3200078 L149.000943,151.679992 C149.000943,153.414709 148.820323,154.04376 148.481156,154.677946 C148.141989,155.312133 147.644276,155.809846 147.010089,156.149013 C146.375903,156.48818 145.746852,156.6688 144.012135,156.6688 L122.280722,156.6688 C120.546005,156.6688 119.916955,156.48818 119.282768,156.149013 C118.648581,155.809846 118.150868,155.312133 117.811701,154.677946 C117.472534,154.04376 117.291914,153.414709 117.291914,151.679992 L117.291914,92.3200078 C117.291914,90.5852907 117.472534,89.9562403 117.811701,89.3220536 C118.150868,88.687867 118.648581,88.1901536 119.282768,87.8509868 C119.916955,87.5118201 120.546005,87.3312 122.280722,87.3312 Z" id="chrome" fill="#8D8D8D"></path>
        <mask id="mask-8" fill="white">
            <use xlink:href="#path-7"></use>
        </mask>
        <use id="Combined-Shape" fill="#FFFFFF" xlink:href="#path-7"></use>
        <rect id="background" mask="url(#mask-8)" x="117.623114" y="87.6624" width="31.0466286" height="3.9744"></rect>
        <rect id="container" mask="url(#mask-8)" transform="translate(141.095229, 89.484000) scale(-1, 1) translate(-141.095229, -89.484000) " x="133.520714" y="88.4904" width="15.1490286" height="1.9872"></rect>
        <path d="M147.2009,89.8152 L146.4557,89.8152 C146.40997,89.8152 146.3729,89.7781292 146.3729,89.7324 L146.3729,89.2356 C146.3729,89.1898708 146.40997,89.1528 146.4557,89.1528 L147.2009,89.1528 C147.246629,89.1528 147.2837,89.1898708 147.2837,89.2356 L147.2837,89.277 L147.3251,89.277 C147.370829,89.277 147.4079,89.3140708 147.4079,89.3598 L147.4079,89.6082 C147.4079,89.6539292 147.370829,89.691 147.3251,89.691 L147.2837,89.691 L147.2837,89.7324 C147.2837,89.7781292 147.246629,89.8152 147.2009,89.8152 Z M146.4557,89.2356 L146.4557,89.7324 L147.2009,89.7324 L147.2009,89.6082 L147.3251,89.6082 L147.3251,89.3598 L147.2009,89.3598 L147.2009,89.2356 L146.4557,89.2356 Z M147.1181,89.3184 L147.1181,89.6496 L146.5385,89.6496 L146.5385,89.3184 L147.1181,89.3184 Z" id="Fill" fill="#FFFFFF" mask="url(#mask-8)"></path>
        <polygon id="background" mask="url(#mask-8)" points="144.2201 90.1464 145.5449 90.1464 145.5449 88.8216 144.2201 88.8216"></polygon>
        <path d="M144.8825,89.7738 C144.928205,89.7738 144.9653,89.8108944 144.9653,89.8566 C144.9653,89.9023056 144.928205,89.9394 144.8825,89.9394 C144.836794,89.9394 144.7997,89.9023056 144.7997,89.8566 C144.7997,89.8108944 144.836794,89.7738 144.8825,89.7738" id="fill-1" fill="#FFFFFF" mask="url(#mask-8)"></path>
        <path d="M144.653566,89.6178628 L144.712105,89.676361 C144.807367,89.5856536 144.957028,89.5854466 145.052496,89.675947 L145.110994,89.6174488 C144.983234,89.4945322 144.781119,89.4947392 144.653566,89.6178628" id="fill-3" fill="#FFFFFF" mask="url(#mask-8)"></path>
        <path d="M144.47798,89.4422978 L144.53652,89.5008374 C144.728699,89.3129228 145.035638,89.3127572 145.228065,89.5004234 L145.286564,89.4418838 C145.061844,89.2218842 144.702451,89.2220498 144.47798,89.4422978 Z" id="fill-5" fill="#FFFFFF" mask="url(#mask-8)"></path>
        <path d="M145.4621,89.2662857 C145.14067,88.9493687 144.624329,88.9493687 144.3029,89.2662857 L144.3029,89.2671965 L144.361025,89.3253635 C144.649997,89.0402417 145.114381,89.0400761 145.403519,89.3249495 L145.4621,89.2663685 L145.4621,89.2662857 Z" id="fill-7" fill="#FFFFFF" mask="url(#mask-8)"></path>
        <polygon id="background" mask="url(#mask-8)" points="142.2329 90.1464 143.5577 90.1464 143.5577 88.8216 142.2329 88.8216"></polygon>
        <polygon id="fill-2" fill="#FFFFFF" mask="url(#mask-8)" points="142.3985 89.898 142.4985 89.898 142.4985 89.6496 142.3985 89.6496"></polygon>
        <polygon id="fill-3" fill="#FFFFFF" mask="url(#mask-8)" points="142.9781 89.898 143.0781 89.898 143.0781 89.277 142.9781 89.277"></polygon>
        <polygon id="fill-4" fill="#FFFFFF" mask="url(#mask-8)" points="143.3093 89.898 143.4093 89.898 143.4093 89.07 143.3093 89.07"></polygon>
        <polygon id="fill-5" fill="#FFFFFF" mask="url(#mask-8)" points="142.6883 89.898 142.7883 89.898 142.7883 89.484 142.6883 89.484"></polygon>
        <rect id="container" mask="url(#mask-8)" x="117.623114" y="88.4904" width="15.5233143" height="1.9872"></rect>
        <text id="time" mask="url(#mask-8)" font-family="IBMPlexSans, IBM Plex Sans" font-size="1.1592" font-weight="normal" line-spacing="1.4904" letter-spacing="0.0132479997" fill="#FFFFFF">
            <tspan x="119.816968" y="89.7388">19:11</tspan>
        </text>
        <rect id="Rectangle-Copy-49" fill="#C6C6C6" mask="url(#mask-8)" x="121" y="95" width="24" height="24"></rect>
        <rect id="Rectangle-Copy-12" fill="#C6C6C6" mask="url(#mask-8)" x="122" y="122" width="22" height="2"></rect>
        <rect id="Rectangle-Copy-13" fill="#C6C6C6" mask="url(#mask-8)" x="122" y="126" width="22" height="2"></rect>
        <rect id="Rectangle-Copy-14" fill="#C6C6C6" mask="url(#mask-8)" x="122" y="130" width="22" height="2"></rect>
        <rect id="Rectangle-Copy-15" fill="#C6C6C6" mask="url(#mask-8)" x="122" y="134" width="14.1025641" height="2"></rect>
        <g id="Group" mask="url(#mask-8)">
            <g transform="translate(126.000000, 100.000000)" id="icon/formatting/image/16-copy-2">
                <mask id="mask-10" fill="white">
                    <use xlink:href="#path-9"></use>
                </mask>
                <use id="icon-color" fill="#8E8E93" xlink:href="#path-9"></use>
            </g>
        </g>
    </g>
</svg>