<?xml version="1.0" encoding="UTF-8"?>
<svg width="320px" height="180px" viewBox="0 0 320 180" version="1.1" xmlns="http://www.w3.org/2000/svg" xmlns:xlink="http://www.w3.org/1999/xlink">
    <title>article-card</title>
    <defs>
        <path d="M8.125,8.75 L1.875,8.75 C1.52982203,8.75 1.25,8.47017797 1.25,8.125 L1.25,1.875 C1.25,1.52982203 1.52982203,1.25 1.875,1.25 L4.6875,1.25 L4.6875,1.875 L1.875,1.875 L1.875,8.125 L8.125,8.125 L8.125,5.3125 L8.75,5.3125 L8.75,8.125 C8.75,8.47017797 8.47017797,8.75 8.125,8.75 Z M6.5625,0.625 L6.5625,1.25 L8.309375,1.25 L5.625,3.934375 L6.065625,4.375 L8.75,1.690625 L8.75,3.4375 L9.375,3.4375 L9.375,0.625 L6.5625,0.625 L6.5625,0.625 Z" id="path-1"></path>
        <path d="M14.25,10.5 C13.0073593,10.5 12,9.49264069 12,8.25 C12,7.00735931 13.0073593,6 14.25,6 C15.4926407,6 16.5,7.00735931 16.5,8.25 C16.5,8.8467371 16.2629471,9.41903341 15.8409903,9.84099026 C15.4190334,10.2629471 14.8467371,10.5 14.25,10.5 L14.25,10.5 Z M14.25,7.5 C13.8357864,7.5 13.5,7.83578644 13.5,8.25 C13.5,8.66421356 13.8357864,9 14.25,9 C14.6642136,9 15,8.66421356 15,8.25 C15,7.83578644 14.6642136,7.5 14.25,7.5 Z M19.6125,3 L4.3875,3 C3.62120491,3 3,3.62120491 3,4.3875 L3,19.6125 C3,19.9804879 3.14618262,20.3334039 3.40638934,20.5936107 C3.66659607,20.8538174 4.01951212,21 4.3875,21 L19.6125,21 C19.9804879,21 20.3334039,20.8538174 20.5936107,20.5936107 C20.8538174,20.3334039 21,19.9804879 21,19.6125 L21,4.3875 C21,3.62120491 20.3787951,3 19.6125,3 Z M19.5,4.5 L19.5,15.9975 L16.695,13.1925 C16.4136476,12.9108344 16.0318639,12.75257 15.63375,12.75257 C15.2356361,12.75257 14.8538524,12.9108344 14.5725,13.1925 L13.5,14.2875 L9.375,10.1925 C9.09364761,9.91083444 8.71186387,9.75257002 8.31375,9.75257002 C7.91563613,9.75257002 7.53385239,9.91083444 7.2525,10.1925 L4.5,12.945 L4.5,4.5 L19.5,4.5 Z M4.5,19.5 L4.5,15.06 L8.31,11.25 L8.31,11.25 L12.4125,15.3525 C12.6938524,15.6341656 13.0756361,15.79243 13.47375,15.79243 C13.8718639,15.79243 14.2536476,15.6341656 14.535,15.3525 L15.63,14.25 L15.63,14.25 L19.5,18.12 L19.5,19.5 L4.5,19.5 Z" id="path-3"></path>
    </defs>
    <g id="article-card" stroke="none" stroke-width="1" fill="none" fill-rule="evenodd">
        <rect id="Rectangle-Copy-49" fill="#C6C6C6" x="108" y="32" width="103.111111" height="58"></rect>
        <rect id="Rectangle-Copy-50" fill="#F4F4F4" x="108" y="90" width="103.111111" height="58"></rect>
        <g id="icon/action/launch/16-copy" transform="translate(194.000000, 131.000000)">
            <mask id="mask-2" fill="white">
                <use xlink:href="#path-1"></use>
            </mask>
            <use id="icon-color" fill="#000000" xlink:href="#path-1"></use>
        </g>
        <rect id="Rectangle-Copy-192" fill="#C6C6C6" x="115" y="98.7817259" width="32" height="4"></rect>
        <rect id="Rectangle-Copy-194" fill="#C6C6C6" x="115" y="136.781726" width="32" height="4"></rect>
        <rect id="Rectangle-Copy-193" fill="#A8A8A8" x="115" y="106.781726" width="68" height="4"></rect>
        <g id="icon/formatting/image/16-copy" transform="translate(148.000000, 49.000000)">
            <mask id="mask-4" fill="white">
                <use xlink:href="#path-3"></use>
            </mask>
            <use id="icon-color" fill="#8E8E93" xlink:href="#path-3"></use>
        </g>
    </g>
</svg>