<?xml version="1.0" encoding="UTF-8"?>
<svg width="320px" height="180px" viewBox="0 0 320 180" version="1.1" xmlns="http://www.w3.org/2000/svg" xmlns:xlink="http://www.w3.org/1999/xlink">
    <title>aspect-ratio</title>
    <g id="aspect-ratio" stroke="none" stroke-width="1" fill="none" fill-rule="evenodd">
        <rect id="Rectangle" fill="#F6F2FF" x="72" y="40" width="176" height="100"></rect>
        <rect id="Rectangle-Copy-30" stroke="#8A3FFC" x="72" y="40" width="175" height="99"></rect>
        <g id="16:9" transform="translate(193.050000, 109.900000)" fill="#8A3FFC" fill-rule="nonzero">
            <polygon id="Path" points="0.37 7.1 0.37 6.36 2.32 6.36 2.32 0.74 2.25 0.74 0.49 2.38 0 1.85 1.85 0.12 3.16 0.12 3.16 6.36 4.96 6.36 4.96 7.1"></polygon>
            <path d="M8.5,7.22 C8.14,7.22 7.815,7.15833333 7.525,7.035 C7.235,6.91166667 6.98833333,6.735 6.785,6.505 C6.58166667,6.275 6.42666667,5.99333333 6.32,5.66 C6.21333333,5.32666667 6.16,4.95333333 6.16,4.54 C6.16,4.02 6.23666667,3.53166667 6.39,3.075 C6.54333333,2.61833333 6.74166667,2.20166667 6.985,1.825 C7.22833333,1.44833333 7.49666667,1.115 7.79,0.825 C8.08333333,0.535 8.37,0.3 8.65,0.12 L9.73,0.12 C9.35666667,0.393333333 9.02333333,0.66 8.73,0.92 C8.43666667,1.18 8.18,1.45166667 7.96,1.735 C7.74,2.01833333 7.55333333,2.32166667 7.4,2.645 C7.24666667,2.96833333 7.12333333,3.33333333 7.03,3.74 L7.08,3.76 C7.24666667,3.47333333 7.46166667,3.235 7.725,3.045 C7.98833333,2.855 8.33333333,2.76 8.76,2.76 C9.06,2.76 9.33666667,2.81 9.59,2.91 C9.84333333,3.01 10.06,3.15333333 10.24,3.34 C10.42,3.52666667 10.5616667,3.75333333 10.665,4.02 C10.7683333,4.28666667 10.82,4.58333333 10.82,4.91 C10.82,5.25 10.765,5.56166667 10.655,5.845 C10.545,6.12833333 10.3883333,6.37166667 10.185,6.575 C9.98166667,6.77833333 9.73666667,6.93666667 9.45,7.05 C9.16333333,7.16333333 8.84666667,7.22 8.5,7.22 Z M8.49,6.49 C8.95,6.49 9.30833333,6.36333333 9.565,6.11 C9.82166667,5.85666667 9.95,5.49333333 9.95,5.02 L9.95,4.94 C9.95,4.46666667 9.82166667,4.10333333 9.565,3.85 C9.30833333,3.59666667 8.95,3.47 8.49,3.47 C8.03,3.47 7.67166667,3.59666667 7.415,3.85 C7.15833333,4.10333333 7.03,4.46666667 7.03,4.94 L7.03,5.02 C7.03,5.49333333 7.15833333,5.85666667 7.415,6.11 C7.67166667,6.36333333 8.03,6.49 8.49,6.49 Z" id="Shape"></path>
            <path d="M12.95,7.22 C12.7366667,7.22 12.5816667,7.16666667 12.485,7.06 C12.3883333,6.95333333 12.34,6.81333333 12.34,6.64 L12.34,6.51 C12.34,6.33666667 12.3883333,6.19666667 12.485,6.09 C12.5816667,5.98333333 12.7366667,5.93 12.95,5.93 C13.1633333,5.93 13.3183333,5.98333333 13.415,6.09 C13.5116667,6.19666667 13.56,6.33666667 13.56,6.51 L13.56,6.64 C13.56,6.81333333 13.5116667,6.95333333 13.415,7.06 C13.3183333,7.16666667 13.1633333,7.22 12.95,7.22 Z M12.95,3.11 C12.7366667,3.11 12.5816667,3.05666667 12.485,2.95 C12.3883333,2.84333333 12.34,2.70333333 12.34,2.53 L12.34,2.4 C12.34,2.22666667 12.3883333,2.08666667 12.485,1.98 C12.5816667,1.87333333 12.7366667,1.82 12.95,1.82 C13.1633333,1.82 13.3183333,1.87333333 13.415,1.98 C13.5116667,2.08666667 13.56,2.22666667 13.56,2.4 L13.56,2.53 C13.56,2.70333333 13.5116667,2.84333333 13.415,2.95 C13.3183333,3.05666667 13.1633333,3.11 12.95,3.11 Z" id="Shape"></path>
            <path d="M19.74,2.68 C19.74,3.2 19.6633333,3.68833333 19.51,4.145 C19.3566667,4.60166667 19.1583333,5.01833333 18.915,5.395 C18.6716667,5.77166667 18.4033333,6.105 18.11,6.395 C17.8166667,6.685 17.53,6.92 17.25,7.1 L16.17,7.1 C16.5433333,6.82666667 16.8766667,6.56 17.17,6.3 C17.4633333,6.04 17.72,5.76833333 17.94,5.485 C18.16,5.20166667 18.3466667,4.89833333 18.5,4.575 C18.6533333,4.25166667 18.7766667,3.88666667 18.87,3.48 L18.82,3.46 C18.6533333,3.74666667 18.4383333,3.985 18.175,4.175 C17.9116667,4.365 17.5666667,4.46 17.14,4.46 C16.84,4.46 16.5633333,4.41 16.31,4.31 C16.0566667,4.21 15.84,4.06666667 15.66,3.88 C15.48,3.69333333 15.3383333,3.46833333 15.235,3.205 C15.1316667,2.94166667 15.08,2.64333333 15.08,2.31 C15.08,1.97 15.135,1.65833333 15.245,1.375 C15.355,1.09166667 15.5116667,0.848333333 15.715,0.645 C15.9183333,0.441666667 16.1616667,0.283333333 16.445,0.17 C16.7283333,0.0566666667 17.0466667,0 17.4,0 C17.76,0 18.085,0.0616666667 18.375,0.185 C18.665,0.308333333 18.9116667,0.485 19.115,0.715 C19.3183333,0.945 19.4733333,1.22666667 19.58,1.56 C19.6866667,1.89333333 19.74,2.26666667 19.74,2.68 Z M17.41,3.75 C17.87,3.75 18.2283333,3.62333333 18.485,3.37 C18.7416667,3.11666667 18.87,2.75333333 18.87,2.28 L18.87,2.2 C18.87,1.72666667 18.7416667,1.36333333 18.485,1.11 C18.2283333,0.856666667 17.87,0.73 17.41,0.73 C16.95,0.73 16.5916667,0.856666667 16.335,1.11 C16.0783333,1.36333333 15.95,1.72666667 15.95,2.2 L15.95,2.28 C15.95,2.75333333 16.0783333,3.11666667 16.335,3.37 C16.5916667,3.62333333 16.95,3.75 17.41,3.75 Z" id="Shape"></path>
        </g>
        <g id="16:9" transform="translate(106.050000, 109.900000)" fill="#8A3FFC" fill-rule="nonzero">
            <polygon id="Path" points="0.37 7.1 0.37 6.36 2.32 6.36 2.32 0.74 2.25 0.74 0.49 2.38 0 1.85 1.85 0.12 3.16 0.12 3.16 6.36 4.96 6.36 4.96 7.1"></polygon>
            <path d="M8.5,7.22 C8.14,7.22 7.815,7.15833333 7.525,7.035 C7.235,6.91166667 6.98833333,6.735 6.785,6.505 C6.58166667,6.275 6.42666667,5.99333333 6.32,5.66 C6.21333333,5.32666667 6.16,4.95333333 6.16,4.54 C6.16,4.02 6.23666667,3.53166667 6.39,3.075 C6.54333333,2.61833333 6.74166667,2.20166667 6.985,1.825 C7.22833333,1.44833333 7.49666667,1.115 7.79,0.825 C8.08333333,0.535 8.37,0.3 8.65,0.12 L9.73,0.12 C9.35666667,0.393333333 9.02333333,0.66 8.73,0.92 C8.43666667,1.18 8.18,1.45166667 7.96,1.735 C7.74,2.01833333 7.55333333,2.32166667 7.4,2.645 C7.24666667,2.96833333 7.12333333,3.33333333 7.03,3.74 L7.08,3.76 C7.24666667,3.47333333 7.46166667,3.235 7.725,3.045 C7.98833333,2.855 8.33333333,2.76 8.76,2.76 C9.06,2.76 9.33666667,2.81 9.59,2.91 C9.84333333,3.01 10.06,3.15333333 10.24,3.34 C10.42,3.52666667 10.5616667,3.75333333 10.665,4.02 C10.7683333,4.28666667 10.82,4.58333333 10.82,4.91 C10.82,5.25 10.765,5.56166667 10.655,5.845 C10.545,6.12833333 10.3883333,6.37166667 10.185,6.575 C9.98166667,6.77833333 9.73666667,6.93666667 9.45,7.05 C9.16333333,7.16333333 8.84666667,7.22 8.5,7.22 Z M8.49,6.49 C8.95,6.49 9.30833333,6.36333333 9.565,6.11 C9.82166667,5.85666667 9.95,5.49333333 9.95,5.02 L9.95,4.94 C9.95,4.46666667 9.82166667,4.10333333 9.565,3.85 C9.30833333,3.59666667 8.95,3.47 8.49,3.47 C8.03,3.47 7.67166667,3.59666667 7.415,3.85 C7.15833333,4.10333333 7.03,4.46666667 7.03,4.94 L7.03,5.02 C7.03,5.49333333 7.15833333,5.85666667 7.415,6.11 C7.67166667,6.36333333 8.03,6.49 8.49,6.49 Z" id="Shape"></path>
            <path d="M12.95,7.22 C12.7366667,7.22 12.5816667,7.16666667 12.485,7.06 C12.3883333,6.95333333 12.34,6.81333333 12.34,6.64 L12.34,6.51 C12.34,6.33666667 12.3883333,6.19666667 12.485,6.09 C12.5816667,5.98333333 12.7366667,5.93 12.95,5.93 C13.1633333,5.93 13.3183333,5.98333333 13.415,6.09 C13.5116667,6.19666667 13.56,6.33666667 13.56,6.51 L13.56,6.64 C13.56,6.81333333 13.5116667,6.95333333 13.415,7.06 C13.3183333,7.16666667 13.1633333,7.22 12.95,7.22 Z M12.95,3.11 C12.7366667,3.11 12.5816667,3.05666667 12.485,2.95 C12.3883333,2.84333333 12.34,2.70333333 12.34,2.53 L12.34,2.4 C12.34,2.22666667 12.3883333,2.08666667 12.485,1.98 C12.5816667,1.87333333 12.7366667,1.82 12.95,1.82 C13.1633333,1.82 13.3183333,1.87333333 13.415,1.98 C13.5116667,2.08666667 13.56,2.22666667 13.56,2.4 L13.56,2.53 C13.56,2.70333333 13.5116667,2.84333333 13.415,2.95 C13.3183333,3.05666667 13.1633333,3.11 12.95,3.11 Z" id="Shape"></path>
            <path d="M19.74,2.68 C19.74,3.2 19.6633333,3.68833333 19.51,4.145 C19.3566667,4.60166667 19.1583333,5.01833333 18.915,5.395 C18.6716667,5.77166667 18.4033333,6.105 18.11,6.395 C17.8166667,6.685 17.53,6.92 17.25,7.1 L16.17,7.1 C16.5433333,6.82666667 16.8766667,6.56 17.17,6.3 C17.4633333,6.04 17.72,5.76833333 17.94,5.485 C18.16,5.20166667 18.3466667,4.89833333 18.5,4.575 C18.6533333,4.25166667 18.7766667,3.88666667 18.87,3.48 L18.82,3.46 C18.6533333,3.74666667 18.4383333,3.985 18.175,4.175 C17.9116667,4.365 17.5666667,4.46 17.14,4.46 C16.84,4.46 16.5633333,4.41 16.31,4.31 C16.0566667,4.21 15.84,4.06666667 15.66,3.88 C15.48,3.69333333 15.3383333,3.46833333 15.235,3.205 C15.1316667,2.94166667 15.08,2.64333333 15.08,2.31 C15.08,1.97 15.135,1.65833333 15.245,1.375 C15.355,1.09166667 15.5116667,0.848333333 15.715,0.645 C15.9183333,0.441666667 16.1616667,0.283333333 16.445,0.17 C16.7283333,0.0566666667 17.0466667,0 17.4,0 C17.76,0 18.085,0.0616666667 18.375,0.185 C18.665,0.308333333 18.9116667,0.485 19.115,0.715 C19.3183333,0.945 19.4733333,1.22666667 19.58,1.56 C19.6866667,1.89333333 19.74,2.26666667 19.74,2.68 Z M17.41,3.75 C17.87,3.75 18.2283333,3.62333333 18.485,3.37 C18.7416667,3.11666667 18.87,2.75333333 18.87,2.28 L18.87,2.2 C18.87,1.72666667 18.7416667,1.36333333 18.485,1.11 C18.2283333,0.856666667 17.87,0.73 17.41,0.73 C16.95,0.73 16.5916667,0.856666667 16.335,1.11 C16.0783333,1.36333333 15.95,1.72666667 15.95,2.2 L15.95,2.28 C15.95,2.75333333 16.0783333,3.11666667 16.335,3.37 C16.5916667,3.62333333 16.95,3.75 17.41,3.75 Z" id="Shape"></path>
        </g>
        <g id="16:9" transform="translate(193.050000, 61.900000)" fill="#8A3FFC" fill-rule="nonzero">
            <polygon id="Path" points="0.37 7.1 0.37 6.36 2.32 6.36 2.32 0.74 2.25 0.74 0.49 2.38 0 1.85 1.85 0.12 3.16 0.12 3.16 6.36 4.96 6.36 4.96 7.1"></polygon>
            <path d="M8.5,7.22 C8.14,7.22 7.815,7.15833333 7.525,7.035 C7.235,6.91166667 6.98833333,6.735 6.785,6.505 C6.58166667,6.275 6.42666667,5.99333333 6.32,5.66 C6.21333333,5.32666667 6.16,4.95333333 6.16,4.54 C6.16,4.02 6.23666667,3.53166667 6.39,3.075 C6.54333333,2.61833333 6.74166667,2.20166667 6.985,1.825 C7.22833333,1.44833333 7.49666667,1.115 7.79,0.825 C8.08333333,0.535 8.37,0.3 8.65,0.12 L9.73,0.12 C9.35666667,0.393333333 9.02333333,0.66 8.73,0.92 C8.43666667,1.18 8.18,1.45166667 7.96,1.735 C7.74,2.01833333 7.55333333,2.32166667 7.4,2.645 C7.24666667,2.96833333 7.12333333,3.33333333 7.03,3.74 L7.08,3.76 C7.24666667,3.47333333 7.46166667,3.235 7.725,3.045 C7.98833333,2.855 8.33333333,2.76 8.76,2.76 C9.06,2.76 9.33666667,2.81 9.59,2.91 C9.84333333,3.01 10.06,3.15333333 10.24,3.34 C10.42,3.52666667 10.5616667,3.75333333 10.665,4.02 C10.7683333,4.28666667 10.82,4.58333333 10.82,4.91 C10.82,5.25 10.765,5.56166667 10.655,5.845 C10.545,6.12833333 10.3883333,6.37166667 10.185,6.575 C9.98166667,6.77833333 9.73666667,6.93666667 9.45,7.05 C9.16333333,7.16333333 8.84666667,7.22 8.5,7.22 Z M8.49,6.49 C8.95,6.49 9.30833333,6.36333333 9.565,6.11 C9.82166667,5.85666667 9.95,5.49333333 9.95,5.02 L9.95,4.94 C9.95,4.46666667 9.82166667,4.10333333 9.565,3.85 C9.30833333,3.59666667 8.95,3.47 8.49,3.47 C8.03,3.47 7.67166667,3.59666667 7.415,3.85 C7.15833333,4.10333333 7.03,4.46666667 7.03,4.94 L7.03,5.02 C7.03,5.49333333 7.15833333,5.85666667 7.415,6.11 C7.67166667,6.36333333 8.03,6.49 8.49,6.49 Z" id="Shape"></path>
            <path d="M12.95,7.22 C12.7366667,7.22 12.5816667,7.16666667 12.485,7.06 C12.3883333,6.95333333 12.34,6.81333333 12.34,6.64 L12.34,6.51 C12.34,6.33666667 12.3883333,6.19666667 12.485,6.09 C12.5816667,5.98333333 12.7366667,5.93 12.95,5.93 C13.1633333,5.93 13.3183333,5.98333333 13.415,6.09 C13.5116667,6.19666667 13.56,6.33666667 13.56,6.51 L13.56,6.64 C13.56,6.81333333 13.5116667,6.95333333 13.415,7.06 C13.3183333,7.16666667 13.1633333,7.22 12.95,7.22 Z M12.95,3.11 C12.7366667,3.11 12.5816667,3.05666667 12.485,2.95 C12.3883333,2.84333333 12.34,2.70333333 12.34,2.53 L12.34,2.4 C12.34,2.22666667 12.3883333,2.08666667 12.485,1.98 C12.5816667,1.87333333 12.7366667,1.82 12.95,1.82 C13.1633333,1.82 13.3183333,1.87333333 13.415,1.98 C13.5116667,2.08666667 13.56,2.22666667 13.56,2.4 L13.56,2.53 C13.56,2.70333333 13.5116667,2.84333333 13.415,2.95 C13.3183333,3.05666667 13.1633333,3.11 12.95,3.11 Z" id="Shape"></path>
            <path d="M19.74,2.68 C19.74,3.2 19.6633333,3.68833333 19.51,4.145 C19.3566667,4.60166667 19.1583333,5.01833333 18.915,5.395 C18.6716667,5.77166667 18.4033333,6.105 18.11,6.395 C17.8166667,6.685 17.53,6.92 17.25,7.1 L16.17,7.1 C16.5433333,6.82666667 16.8766667,6.56 17.17,6.3 C17.4633333,6.04 17.72,5.76833333 17.94,5.485 C18.16,5.20166667 18.3466667,4.89833333 18.5,4.575 C18.6533333,4.25166667 18.7766667,3.88666667 18.87,3.48 L18.82,3.46 C18.6533333,3.74666667 18.4383333,3.985 18.175,4.175 C17.9116667,4.365 17.5666667,4.46 17.14,4.46 C16.84,4.46 16.5633333,4.41 16.31,4.31 C16.0566667,4.21 15.84,4.06666667 15.66,3.88 C15.48,3.69333333 15.3383333,3.46833333 15.235,3.205 C15.1316667,2.94166667 15.08,2.64333333 15.08,2.31 C15.08,1.97 15.135,1.65833333 15.245,1.375 C15.355,1.09166667 15.5116667,0.848333333 15.715,0.645 C15.9183333,0.441666667 16.1616667,0.283333333 16.445,0.17 C16.7283333,0.0566666667 17.0466667,0 17.4,0 C17.76,0 18.085,0.0616666667 18.375,0.185 C18.665,0.308333333 18.9116667,0.485 19.115,0.715 C19.3183333,0.945 19.4733333,1.22666667 19.58,1.56 C19.6866667,1.89333333 19.74,2.26666667 19.74,2.68 Z M17.41,3.75 C17.87,3.75 18.2283333,3.62333333 18.485,3.37 C18.7416667,3.11666667 18.87,2.75333333 18.87,2.28 L18.87,2.2 C18.87,1.72666667 18.7416667,1.36333333 18.485,1.11 C18.2283333,0.856666667 17.87,0.73 17.41,0.73 C16.95,0.73 16.5916667,0.856666667 16.335,1.11 C16.0783333,1.36333333 15.95,1.72666667 15.95,2.2 L15.95,2.28 C15.95,2.75333333 16.0783333,3.11666667 16.335,3.37 C16.5916667,3.62333333 16.95,3.75 17.41,3.75 Z" id="Shape"></path>
        </g>
        <g id="16:9" transform="translate(106.050000, 61.900000)" fill="#8A3FFC" fill-rule="nonzero">
            <polygon id="Path" points="0.37 7.1 0.37 6.36 2.32 6.36 2.32 0.74 2.25 0.74 0.49 2.38 0 1.85 1.85 0.12 3.16 0.12 3.16 6.36 4.96 6.36 4.96 7.1"></polygon>
            <path d="M8.5,7.22 C8.14,7.22 7.815,7.15833333 7.525,7.035 C7.235,6.91166667 6.98833333,6.735 6.785,6.505 C6.58166667,6.275 6.42666667,5.99333333 6.32,5.66 C6.21333333,5.32666667 6.16,4.95333333 6.16,4.54 C6.16,4.02 6.23666667,3.53166667 6.39,3.075 C6.54333333,2.61833333 6.74166667,2.20166667 6.985,1.825 C7.22833333,1.44833333 7.49666667,1.115 7.79,0.825 C8.08333333,0.535 8.37,0.3 8.65,0.12 L9.73,0.12 C9.35666667,0.393333333 9.02333333,0.66 8.73,0.92 C8.43666667,1.18 8.18,1.45166667 7.96,1.735 C7.74,2.01833333 7.55333333,2.32166667 7.4,2.645 C7.24666667,2.96833333 7.12333333,3.33333333 7.03,3.74 L7.08,3.76 C7.24666667,3.47333333 7.46166667,3.235 7.725,3.045 C7.98833333,2.855 8.33333333,2.76 8.76,2.76 C9.06,2.76 9.33666667,2.81 9.59,2.91 C9.84333333,3.01 10.06,3.15333333 10.24,3.34 C10.42,3.52666667 10.5616667,3.75333333 10.665,4.02 C10.7683333,4.28666667 10.82,4.58333333 10.82,4.91 C10.82,5.25 10.765,5.56166667 10.655,5.845 C10.545,6.12833333 10.3883333,6.37166667 10.185,6.575 C9.98166667,6.77833333 9.73666667,6.93666667 9.45,7.05 C9.16333333,7.16333333 8.84666667,7.22 8.5,7.22 Z M8.49,6.49 C8.95,6.49 9.30833333,6.36333333 9.565,6.11 C9.82166667,5.85666667 9.95,5.49333333 9.95,5.02 L9.95,4.94 C9.95,4.46666667 9.82166667,4.10333333 9.565,3.85 C9.30833333,3.59666667 8.95,3.47 8.49,3.47 C8.03,3.47 7.67166667,3.59666667 7.415,3.85 C7.15833333,4.10333333 7.03,4.46666667 7.03,4.94 L7.03,5.02 C7.03,5.49333333 7.15833333,5.85666667 7.415,6.11 C7.67166667,6.36333333 8.03,6.49 8.49,6.49 Z" id="Shape"></path>
            <path d="M12.95,7.22 C12.7366667,7.22 12.5816667,7.16666667 12.485,7.06 C12.3883333,6.95333333 12.34,6.81333333 12.34,6.64 L12.34,6.51 C12.34,6.33666667 12.3883333,6.19666667 12.485,6.09 C12.5816667,5.98333333 12.7366667,5.93 12.95,5.93 C13.1633333,5.93 13.3183333,5.98333333 13.415,6.09 C13.5116667,6.19666667 13.56,6.33666667 13.56,6.51 L13.56,6.64 C13.56,6.81333333 13.5116667,6.95333333 13.415,7.06 C13.3183333,7.16666667 13.1633333,7.22 12.95,7.22 Z M12.95,3.11 C12.7366667,3.11 12.5816667,3.05666667 12.485,2.95 C12.3883333,2.84333333 12.34,2.70333333 12.34,2.53 L12.34,2.4 C12.34,2.22666667 12.3883333,2.08666667 12.485,1.98 C12.5816667,1.87333333 12.7366667,1.82 12.95,1.82 C13.1633333,1.82 13.3183333,1.87333333 13.415,1.98 C13.5116667,2.08666667 13.56,2.22666667 13.56,2.4 L13.56,2.53 C13.56,2.70333333 13.5116667,2.84333333 13.415,2.95 C13.3183333,3.05666667 13.1633333,3.11 12.95,3.11 Z" id="Shape"></path>
            <path d="M19.74,2.68 C19.74,3.2 19.6633333,3.68833333 19.51,4.145 C19.3566667,4.60166667 19.1583333,5.01833333 18.915,5.395 C18.6716667,5.77166667 18.4033333,6.105 18.11,6.395 C17.8166667,6.685 17.53,6.92 17.25,7.1 L16.17,7.1 C16.5433333,6.82666667 16.8766667,6.56 17.17,6.3 C17.4633333,6.04 17.72,5.76833333 17.94,5.485 C18.16,5.20166667 18.3466667,4.89833333 18.5,4.575 C18.6533333,4.25166667 18.7766667,3.88666667 18.87,3.48 L18.82,3.46 C18.6533333,3.74666667 18.4383333,3.985 18.175,4.175 C17.9116667,4.365 17.5666667,4.46 17.14,4.46 C16.84,4.46 16.5633333,4.41 16.31,4.31 C16.0566667,4.21 15.84,4.06666667 15.66,3.88 C15.48,3.69333333 15.3383333,3.46833333 15.235,3.205 C15.1316667,2.94166667 15.08,2.64333333 15.08,2.31 C15.08,1.97 15.135,1.65833333 15.245,1.375 C15.355,1.09166667 15.5116667,0.848333333 15.715,0.645 C15.9183333,0.441666667 16.1616667,0.283333333 16.445,0.17 C16.7283333,0.0566666667 17.0466667,0 17.4,0 C17.76,0 18.085,0.0616666667 18.375,0.185 C18.665,0.308333333 18.9116667,0.485 19.115,0.715 C19.3183333,0.945 19.4733333,1.22666667 19.58,1.56 C19.6866667,1.89333333 19.74,2.26666667 19.74,2.68 Z M17.41,3.75 C17.87,3.75 18.2283333,3.62333333 18.485,3.37 C18.7416667,3.11666667 18.87,2.75333333 18.87,2.28 L18.87,2.2 C18.87,1.72666667 18.7416667,1.36333333 18.485,1.11 C18.2283333,0.856666667 17.87,0.73 17.41,0.73 C16.95,0.73 16.5916667,0.856666667 16.335,1.11 C16.0783333,1.36333333 15.95,1.72666667 15.95,2.2 L15.95,2.28 C15.95,2.75333333 16.0783333,3.11666667 16.335,3.37 C16.5916667,3.62333333 16.95,3.75 17.41,3.75 Z" id="Shape"></path>
        </g>
        <rect id="Rectangle" fill="#8A3FFC" x="159" y="40" width="1" height="98"></rect>
        <rect id="Rectangle-Copy-2" fill="#8A3FFC" transform="translate(160.000000, 89.500000) rotate(90.000000) translate(-160.000000, -89.500000) " x="159.5" y="1.5" width="1" height="176"></rect>
    </g>
</svg>