<?xml version="1.0" encoding="UTF-8"?>
<svg width="320px" height="180px" viewBox="0 0 320 180" version="1.1" xmlns="http://www.w3.org/2000/svg" xmlns:xlink="http://www.w3.org/1999/xlink">
    <title>breadcrumb</title>
    <g id="breadcrumb" stroke="none" stroke-width="1" fill="none" fill-rule="evenodd">
        <g id="Crumb-3" transform="translate(199.696000, 83.120000)" fill="#171717" fill-rule="nonzero">
            <path d="M3.372,9.024 C2.308,9.024 1.48,8.662 0.888,7.938 C0.296,7.214 0,6.148 0,4.74 C0,3.332 0.296,2.25 0.888,1.494 C1.48,0.738 2.308,0.36 3.372,0.36 C4.076,0.36 4.666,0.52 5.142,0.84 C5.618,1.16 5.988,1.612 6.252,2.196 L5.436,2.688 C5.268,2.256 5.012,1.91 4.668,1.65 C4.324,1.39 3.892,1.26 3.372,1.26 C3.012,1.26 2.69,1.328 2.406,1.464 C2.122,1.6 1.882,1.794 1.686,2.046 C1.49,2.298 1.34,2.598 1.236,2.946 C1.132,3.294 1.08,3.684 1.08,4.116 L1.08,5.364 C1.08,6.228 1.28,6.904 1.68,7.392 C2.08,7.88 2.644,8.124 3.372,8.124 C3.908,8.124 4.356,7.986 4.716,7.71 C5.076,7.434 5.34,7.068 5.508,6.612 L6.312,7.116 C6.048,7.708 5.668,8.174 5.172,8.514 C4.676,8.854 4.076,9.024 3.372,9.024 Z" id="Path"></path>
            <path d="M7.776,8.88 L7.776,2.688 L8.736,2.688 L8.736,3.828 L8.796,3.828 C8.908,3.532 9.108,3.268 9.396,3.036 C9.684,2.804 10.08,2.688 10.584,2.688 L10.956,2.688 L10.956,3.648 L10.392,3.648 C9.872,3.648 9.466,3.746 9.174,3.942 C8.882,4.138 8.736,4.384 8.736,4.68 L8.736,8.88 L7.776,8.88 Z" id="Path"></path>
            <path d="M15.996,7.872 L15.948,7.872 C15.884,8.016 15.806,8.158 15.714,8.298 C15.622,8.438 15.508,8.562 15.372,8.67 C15.236,8.778 15.072,8.864 14.88,8.928 C14.688,8.992 14.464,9.024 14.208,9.024 C13.568,9.024 13.06,8.818 12.684,8.406 C12.308,7.994 12.12,7.412 12.12,6.66 L12.12,2.688 L13.08,2.688 L13.08,6.492 C13.08,7.604 13.552,8.16 14.496,8.16 C14.688,8.16 14.874,8.136 15.054,8.088 C15.234,8.04 15.394,7.968 15.534,7.872 C15.674,7.776 15.786,7.654 15.87,7.506 C15.954,7.358 15.996,7.18 15.996,6.972 L15.996,2.688 L16.956,2.688 L16.956,8.88 L15.996,8.88 L15.996,7.872 Z" id="Path"></path>
            <path d="M18.996,8.88 L18.996,2.688 L19.956,2.688 L19.956,3.696 L20.004,3.696 C20.076,3.536 20.158,3.386 20.25,3.246 C20.342,3.106 20.454,2.984 20.586,2.88 C20.718,2.776 20.872,2.694 21.048,2.634 C21.224,2.574 21.432,2.544 21.672,2.544 C22.08,2.544 22.456,2.642 22.8,2.838 C23.144,3.034 23.4,3.356 23.568,3.804 L23.592,3.804 C23.704,3.468 23.914,3.174 24.222,2.922 C24.53,2.67 24.948,2.544 25.476,2.544 C26.108,2.544 26.602,2.75 26.958,3.162 C27.314,3.574 27.492,4.156 27.492,4.908 L27.492,8.88 L26.532,8.88 L26.532,5.076 C26.532,4.524 26.424,4.108 26.208,3.828 C25.992,3.548 25.648,3.408 25.176,3.408 C24.984,3.408 24.802,3.432 24.63,3.48 C24.458,3.528 24.304,3.6 24.168,3.696 C24.032,3.792 23.924,3.914 23.844,4.062 C23.764,4.21 23.724,4.384 23.724,4.584 L23.724,8.88 L22.764,8.88 L22.764,5.076 C22.764,4.524 22.656,4.108 22.44,3.828 C22.224,3.548 21.888,3.408 21.432,3.408 C21.24,3.408 21.056,3.432 20.88,3.48 C20.704,3.528 20.548,3.6 20.412,3.696 C20.276,3.792 20.166,3.914 20.082,4.062 C19.998,4.21 19.956,4.384 19.956,4.584 L19.956,8.88 L18.996,8.88 Z" id="Path"></path>
            <path d="M29.472,0 L30.432,0 L30.432,3.696 L30.48,3.696 C30.64,3.304 30.874,3.014 31.182,2.826 C31.49,2.638 31.86,2.544 32.292,2.544 C32.676,2.544 33.024,2.62 33.336,2.772 C33.648,2.924 33.914,3.14 34.134,3.42 C34.354,3.7 34.522,4.04 34.638,4.44 C34.754,4.84 34.812,5.288 34.812,5.784 C34.812,6.28 34.754,6.728 34.638,7.128 C34.522,7.528 34.354,7.868 34.134,8.148 C33.914,8.428 33.648,8.644 33.336,8.796 C33.024,8.948 32.676,9.024 32.292,9.024 C31.452,9.024 30.848,8.64 30.48,7.872 L30.432,7.872 L30.432,8.88 L29.472,8.88 L29.472,0 Z M32.028,8.16 C32.572,8.16 33,7.99 33.312,7.65 C33.624,7.31 33.78,6.864 33.78,6.312 L33.78,5.256 C33.78,4.704 33.624,4.258 33.312,3.918 C33,3.578 32.572,3.408 32.028,3.408 C31.812,3.408 31.606,3.438 31.41,3.498 C31.214,3.558 31.044,3.64 30.9,3.744 C30.756,3.848 30.642,3.974 30.558,4.122 C30.474,4.27 30.432,4.428 30.432,4.596 L30.432,6.9 C30.432,7.1 30.474,7.278 30.558,7.434 C30.642,7.59 30.756,7.722 30.9,7.83 C31.044,7.938 31.214,8.02 31.41,8.076 C31.606,8.132 31.812,8.16 32.028,8.16 Z" id="Shape"></path>
            <path d="M41.376,4.056 C41.944,4.056 42.37,3.926 42.654,3.666 C42.938,3.406 43.08,3.072 43.08,2.664 L43.08,2.58 C43.08,2.14 42.942,1.81 42.666,1.59 C42.39,1.37 42.028,1.26 41.58,1.26 C41.148,1.26 40.796,1.354 40.524,1.542 C40.252,1.73 40.028,1.984 39.852,2.304 L39.108,1.728 C39.212,1.56 39.338,1.394 39.486,1.23 C39.634,1.066 39.808,0.92 40.008,0.792 C40.208,0.664 40.44,0.56 40.704,0.48 C40.968,0.4 41.268,0.36 41.604,0.36 C41.956,0.36 42.288,0.406 42.6,0.498 C42.912,0.59 43.182,0.726 43.41,0.906 C43.638,1.086 43.818,1.308 43.95,1.572 C44.082,1.836 44.148,2.136 44.148,2.472 C44.148,2.744 44.106,2.988 44.022,3.204 C43.938,3.42 43.824,3.608 43.68,3.768 C43.536,3.928 43.366,4.064 43.17,4.176 C42.974,4.288 42.764,4.372 42.54,4.428 L42.54,4.476 C42.764,4.524 42.982,4.602 43.194,4.71 C43.406,4.818 43.594,4.958 43.758,5.13 C43.922,5.302 44.054,5.51 44.154,5.754 C44.254,5.998 44.304,6.276 44.304,6.588 C44.304,6.948 44.236,7.278 44.1,7.578 C43.964,7.878 43.772,8.134 43.524,8.346 C43.276,8.558 42.976,8.724 42.624,8.844 C42.272,8.964 41.884,9.024 41.46,9.024 C41.1,9.024 40.78,8.984 40.5,8.904 C40.22,8.824 39.972,8.716 39.756,8.58 C39.54,8.444 39.35,8.292 39.186,8.124 C39.022,7.956 38.876,7.78 38.748,7.596 L39.504,7.02 C39.608,7.188 39.722,7.34 39.846,7.476 C39.97,7.612 40.108,7.728 40.26,7.824 C40.412,7.92 40.584,7.994 40.776,8.046 C40.968,8.098 41.192,8.124 41.448,8.124 C42.04,8.124 42.488,7.99 42.792,7.722 C43.096,7.454 43.248,7.072 43.248,6.576 L43.248,6.48 C43.248,5.984 43.096,5.602 42.792,5.334 C42.488,5.066 42.04,4.932 41.448,4.932 L40.464,4.932 L40.464,4.056 L41.376,4.056 Z" id="Path"></path>
        </g>
        <g id="Crumb-1" transform="translate(65.696000, 83.120000)" fill="#0062FF" fill-rule="nonzero">
            <path d="M3.372,9.024 C2.308,9.024 1.48,8.662 0.888,7.938 C0.296,7.214 0,6.148 0,4.74 C0,3.332 0.296,2.25 0.888,1.494 C1.48,0.738 2.308,0.36 3.372,0.36 C4.076,0.36 4.666,0.52 5.142,0.84 C5.618,1.16 5.988,1.612 6.252,2.196 L5.436,2.688 C5.268,2.256 5.012,1.91 4.668,1.65 C4.324,1.39 3.892,1.26 3.372,1.26 C3.012,1.26 2.69,1.328 2.406,1.464 C2.122,1.6 1.882,1.794 1.686,2.046 C1.49,2.298 1.34,2.598 1.236,2.946 C1.132,3.294 1.08,3.684 1.08,4.116 L1.08,5.364 C1.08,6.228 1.28,6.904 1.68,7.392 C2.08,7.88 2.644,8.124 3.372,8.124 C3.908,8.124 4.356,7.986 4.716,7.71 C5.076,7.434 5.34,7.068 5.508,6.612 L6.312,7.116 C6.048,7.708 5.668,8.174 5.172,8.514 C4.676,8.854 4.076,9.024 3.372,9.024 Z" id="Path"></path>
            <path d="M7.776,8.88 L7.776,2.688 L8.736,2.688 L8.736,3.828 L8.796,3.828 C8.908,3.532 9.108,3.268 9.396,3.036 C9.684,2.804 10.08,2.688 10.584,2.688 L10.956,2.688 L10.956,3.648 L10.392,3.648 C9.872,3.648 9.466,3.746 9.174,3.942 C8.882,4.138 8.736,4.384 8.736,4.68 L8.736,8.88 L7.776,8.88 Z" id="Path"></path>
            <path d="M15.996,7.872 L15.948,7.872 C15.884,8.016 15.806,8.158 15.714,8.298 C15.622,8.438 15.508,8.562 15.372,8.67 C15.236,8.778 15.072,8.864 14.88,8.928 C14.688,8.992 14.464,9.024 14.208,9.024 C13.568,9.024 13.06,8.818 12.684,8.406 C12.308,7.994 12.12,7.412 12.12,6.66 L12.12,2.688 L13.08,2.688 L13.08,6.492 C13.08,7.604 13.552,8.16 14.496,8.16 C14.688,8.16 14.874,8.136 15.054,8.088 C15.234,8.04 15.394,7.968 15.534,7.872 C15.674,7.776 15.786,7.654 15.87,7.506 C15.954,7.358 15.996,7.18 15.996,6.972 L15.996,2.688 L16.956,2.688 L16.956,8.88 L15.996,8.88 L15.996,7.872 Z" id="Path"></path>
            <path d="M18.996,8.88 L18.996,2.688 L19.956,2.688 L19.956,3.696 L20.004,3.696 C20.076,3.536 20.158,3.386 20.25,3.246 C20.342,3.106 20.454,2.984 20.586,2.88 C20.718,2.776 20.872,2.694 21.048,2.634 C21.224,2.574 21.432,2.544 21.672,2.544 C22.08,2.544 22.456,2.642 22.8,2.838 C23.144,3.034 23.4,3.356 23.568,3.804 L23.592,3.804 C23.704,3.468 23.914,3.174 24.222,2.922 C24.53,2.67 24.948,2.544 25.476,2.544 C26.108,2.544 26.602,2.75 26.958,3.162 C27.314,3.574 27.492,4.156 27.492,4.908 L27.492,8.88 L26.532,8.88 L26.532,5.076 C26.532,4.524 26.424,4.108 26.208,3.828 C25.992,3.548 25.648,3.408 25.176,3.408 C24.984,3.408 24.802,3.432 24.63,3.48 C24.458,3.528 24.304,3.6 24.168,3.696 C24.032,3.792 23.924,3.914 23.844,4.062 C23.764,4.21 23.724,4.384 23.724,4.584 L23.724,8.88 L22.764,8.88 L22.764,5.076 C22.764,4.524 22.656,4.108 22.44,3.828 C22.224,3.548 21.888,3.408 21.432,3.408 C21.24,3.408 21.056,3.432 20.88,3.48 C20.704,3.528 20.548,3.6 20.412,3.696 C20.276,3.792 20.166,3.914 20.082,4.062 C19.998,4.21 19.956,4.384 19.956,4.584 L19.956,8.88 L18.996,8.88 Z" id="Path"></path>
            <path d="M29.472,0 L30.432,0 L30.432,3.696 L30.48,3.696 C30.64,3.304 30.874,3.014 31.182,2.826 C31.49,2.638 31.86,2.544 32.292,2.544 C32.676,2.544 33.024,2.62 33.336,2.772 C33.648,2.924 33.914,3.14 34.134,3.42 C34.354,3.7 34.522,4.04 34.638,4.44 C34.754,4.84 34.812,5.288 34.812,5.784 C34.812,6.28 34.754,6.728 34.638,7.128 C34.522,7.528 34.354,7.868 34.134,8.148 C33.914,8.428 33.648,8.644 33.336,8.796 C33.024,8.948 32.676,9.024 32.292,9.024 C31.452,9.024 30.848,8.64 30.48,7.872 L30.432,7.872 L30.432,8.88 L29.472,8.88 L29.472,0 Z M32.028,8.16 C32.572,8.16 33,7.99 33.312,7.65 C33.624,7.31 33.78,6.864 33.78,6.312 L33.78,5.256 C33.78,4.704 33.624,4.258 33.312,3.918 C33,3.578 32.572,3.408 32.028,3.408 C31.812,3.408 31.606,3.438 31.41,3.498 C31.214,3.558 31.044,3.64 30.9,3.744 C30.756,3.848 30.642,3.974 30.558,4.122 C30.474,4.27 30.432,4.428 30.432,4.596 L30.432,6.9 C30.432,7.1 30.474,7.278 30.558,7.434 C30.642,7.59 30.756,7.722 30.9,7.83 C31.044,7.938 31.214,8.02 31.41,8.076 C31.606,8.132 31.812,8.16 32.028,8.16 Z" id="Shape"></path>
            <polygon id="Path" points="39.3 8.88 39.3 7.992 41.64 7.992 41.64 1.248 41.556 1.248 39.444 3.216 38.856 2.58 41.076 0.504 42.648 0.504 42.648 7.992 44.808 7.992 44.808 8.88"></polygon>
        </g>
        <g id="Crumb-1-Copy" transform="translate(132.696000, 83.120000)" fill="#171717" fill-rule="nonzero">
            <path d="M3.372,9.024 C2.308,9.024 1.48,8.662 0.888,7.938 C0.296,7.214 0,6.148 0,4.74 C0,3.332 0.296,2.25 0.888,1.494 C1.48,0.738 2.308,0.36 3.372,0.36 C4.076,0.36 4.666,0.52 5.142,0.84 C5.618,1.16 5.988,1.612 6.252,2.196 L5.436,2.688 C5.268,2.256 5.012,1.91 4.668,1.65 C4.324,1.39 3.892,1.26 3.372,1.26 C3.012,1.26 2.69,1.328 2.406,1.464 C2.122,1.6 1.882,1.794 1.686,2.046 C1.49,2.298 1.34,2.598 1.236,2.946 C1.132,3.294 1.08,3.684 1.08,4.116 L1.08,5.364 C1.08,6.228 1.28,6.904 1.68,7.392 C2.08,7.88 2.644,8.124 3.372,8.124 C3.908,8.124 4.356,7.986 4.716,7.71 C5.076,7.434 5.34,7.068 5.508,6.612 L6.312,7.116 C6.048,7.708 5.668,8.174 5.172,8.514 C4.676,8.854 4.076,9.024 3.372,9.024 Z" id="Path"></path>
            <path d="M7.776,8.88 L7.776,2.688 L8.736,2.688 L8.736,3.828 L8.796,3.828 C8.908,3.532 9.108,3.268 9.396,3.036 C9.684,2.804 10.08,2.688 10.584,2.688 L10.956,2.688 L10.956,3.648 L10.392,3.648 C9.872,3.648 9.466,3.746 9.174,3.942 C8.882,4.138 8.736,4.384 8.736,4.68 L8.736,8.88 L7.776,8.88 Z" id="Path"></path>
            <path d="M15.996,7.872 L15.948,7.872 C15.884,8.016 15.806,8.158 15.714,8.298 C15.622,8.438 15.508,8.562 15.372,8.67 C15.236,8.778 15.072,8.864 14.88,8.928 C14.688,8.992 14.464,9.024 14.208,9.024 C13.568,9.024 13.06,8.818 12.684,8.406 C12.308,7.994 12.12,7.412 12.12,6.66 L12.12,2.688 L13.08,2.688 L13.08,6.492 C13.08,7.604 13.552,8.16 14.496,8.16 C14.688,8.16 14.874,8.136 15.054,8.088 C15.234,8.04 15.394,7.968 15.534,7.872 C15.674,7.776 15.786,7.654 15.87,7.506 C15.954,7.358 15.996,7.18 15.996,6.972 L15.996,2.688 L16.956,2.688 L16.956,8.88 L15.996,8.88 L15.996,7.872 Z" id="Path"></path>
            <path d="M18.996,8.88 L18.996,2.688 L19.956,2.688 L19.956,3.696 L20.004,3.696 C20.076,3.536 20.158,3.386 20.25,3.246 C20.342,3.106 20.454,2.984 20.586,2.88 C20.718,2.776 20.872,2.694 21.048,2.634 C21.224,2.574 21.432,2.544 21.672,2.544 C22.08,2.544 22.456,2.642 22.8,2.838 C23.144,3.034 23.4,3.356 23.568,3.804 L23.592,3.804 C23.704,3.468 23.914,3.174 24.222,2.922 C24.53,2.67 24.948,2.544 25.476,2.544 C26.108,2.544 26.602,2.75 26.958,3.162 C27.314,3.574 27.492,4.156 27.492,4.908 L27.492,8.88 L26.532,8.88 L26.532,5.076 C26.532,4.524 26.424,4.108 26.208,3.828 C25.992,3.548 25.648,3.408 25.176,3.408 C24.984,3.408 24.802,3.432 24.63,3.48 C24.458,3.528 24.304,3.6 24.168,3.696 C24.032,3.792 23.924,3.914 23.844,4.062 C23.764,4.21 23.724,4.384 23.724,4.584 L23.724,8.88 L22.764,8.88 L22.764,5.076 C22.764,4.524 22.656,4.108 22.44,3.828 C22.224,3.548 21.888,3.408 21.432,3.408 C21.24,3.408 21.056,3.432 20.88,3.48 C20.704,3.528 20.548,3.6 20.412,3.696 C20.276,3.792 20.166,3.914 20.082,4.062 C19.998,4.21 19.956,4.384 19.956,4.584 L19.956,8.88 L18.996,8.88 Z" id="Path"></path>
            <path d="M29.472,0 L30.432,0 L30.432,3.696 L30.48,3.696 C30.64,3.304 30.874,3.014 31.182,2.826 C31.49,2.638 31.86,2.544 32.292,2.544 C32.676,2.544 33.024,2.62 33.336,2.772 C33.648,2.924 33.914,3.14 34.134,3.42 C34.354,3.7 34.522,4.04 34.638,4.44 C34.754,4.84 34.812,5.288 34.812,5.784 C34.812,6.28 34.754,6.728 34.638,7.128 C34.522,7.528 34.354,7.868 34.134,8.148 C33.914,8.428 33.648,8.644 33.336,8.796 C33.024,8.948 32.676,9.024 32.292,9.024 C31.452,9.024 30.848,8.64 30.48,7.872 L30.432,7.872 L30.432,8.88 L29.472,8.88 L29.472,0 Z M32.028,8.16 C32.572,8.16 33,7.99 33.312,7.65 C33.624,7.31 33.78,6.864 33.78,6.312 L33.78,5.256 C33.78,4.704 33.624,4.258 33.312,3.918 C33,3.578 32.572,3.408 32.028,3.408 C31.812,3.408 31.606,3.438 31.41,3.498 C31.214,3.558 31.044,3.64 30.9,3.744 C30.756,3.848 30.642,3.974 30.558,4.122 C30.474,4.27 30.432,4.428 30.432,4.596 L30.432,6.9 C30.432,7.1 30.474,7.278 30.558,7.434 C30.642,7.59 30.756,7.722 30.9,7.83 C31.044,7.938 31.214,8.02 31.41,8.076 C31.606,8.132 31.812,8.16 32.028,8.16 Z" id="Shape"></path>
            <polygon id="Path" points="39.3 8.88 39.3 7.992 41.64 7.992 41.64 1.248 41.556 1.248 39.444 3.216 38.856 2.58 41.076 0.504 42.648 0.504 42.648 7.992 44.808 7.992 44.808 8.88"></polygon>
        </g>
        <text id="/-copy-26" font-family="IBMPlexSans, IBM Plex Sans" font-size="12" font-weight="normal" fill="#171717">
            <tspan x="119" y="92">/</tspan>
        </text>
        <text id="/-copy-122" font-family="IBMPlexSans, IBM Plex Sans" font-size="12" font-weight="normal" fill="#171717">
            <tspan x="186" y="92">/</tspan>
        </text>
    </g>
</svg>