<?xml version="1.0" encoding="UTF-8"?>
<svg width="320px" height="180px" viewBox="0 0 320 180" version="1.1" xmlns="http://www.w3.org/2000/svg" xmlns:xlink="http://www.w3.org/1999/xlink">
    <title>charts</title>
    <g id="charts" stroke="none" stroke-width="1" fill="none" fill-rule="evenodd">
        <rect id="Rectangle-9-Copy-3" fill="#9F1853" transform="translate(216.000000, 46.000000) rotate(90.000000) translate(-216.000000, -46.000000) " x="213" y="39.5" width="6" height="13"></rect>
        <rect id="Rectangle-Copy-4" fill="#005D5D" x="67" y="109" width="31" height="6"></rect>
        <rect id="Rectangle-Copy-7" fill="#BE95FF" x="99.5" y="109" width="14.485175" height="6"></rect>
        <rect id="Rectangle-Copy-8" fill="#9F1853" x="115.5" y="109" width="24.485175" height="6"></rect>
        <rect id="Rectangle-9-Copy" fill="#BE95FF" transform="translate(161.000000, 46.000000) rotate(90.000000) translate(-161.000000, -46.000000) " x="158" y="-1" width="6" height="94"></rect>
        <rect id="Rectangle-9-Copy-2" fill="#005D5D" transform="translate(90.000000, 46.000000) rotate(90.000000) translate(-90.000000, -46.000000) " x="87" y="23.5" width="6" height="45"></rect>
        <rect id="Rectangle" fill="#005D5D" x="67" y="65" width="67" height="6"></rect>
        <rect id="Rectangle-Copy-3" fill="#005D5D" x="67" y="87" width="23" height="6"></rect>
        <rect id="Rectangle-Copy-9" fill="#005D5D" x="67" y="131" width="23" height="6"></rect>
        <rect id="Rectangle-Copy-2" fill="#9F1853" x="185.5" y="65" width="67" height="6"></rect>
        <rect id="Rectangle-Copy" fill="#BE95FF" x="135.5" y="65" width="48.5" height="6"></rect>
        <rect id="Rectangle-Copy-5" fill="#BE95FF" x="91.5" y="87" width="22.4851752" height="6"></rect>
        <rect id="Rectangle-Copy-10" fill="#BE95FF" x="91.5" y="131" width="51.485175" height="6"></rect>
        <rect id="Rectangle-Copy-6" fill="#9F1853" x="115.5" y="87" width="54.485175" height="6"></rect>
        <rect id="Rectangle-Copy-11" fill="#9F1853" x="144.5" y="131" width="54.485175" height="6"></rect>
    </g>
</svg>