<?xml version="1.0" encoding="UTF-8"?>
<svg width="320px" height="180px" viewBox="0 0 320 180" version="1.1" xmlns="http://www.w3.org/2000/svg" xmlns:xlink="http://www.w3.org/1999/xlink">
    <title>color-picker</title>
    <defs>
        <rect id="path-1" x="2" y="32" width="174" height="66"></rect>
        <filter x="-5.7%" y="-12.1%" width="111.5%" height="130.3%" filterUnits="objectBoundingBox" id="filter-2">
            <feOffset dx="0" dy="2" in="SourceAlpha" result="shadowOffsetOuter1"></feOffset>
            <feGaussianBlur stdDeviation="3" in="shadowOffsetOuter1" result="shadowBlurOuter1"></feGaussianBlur>
            <feColorMatrix values="0 0 0 0 0.862745106   0 0 0 0 0.862745106   0 0 0 0 0.862745106  0 0 0 1 0" type="matrix" in="shadowBlurOuter1"></feColorMatrix>
        </filter>
        <polygon id="path-3" points="3.75 0 7.5 3.75 6.96975 4.28025 3.75 1.0605 0.53025 4.28025 0 3.75"></polygon>
        <polygon id="path-5" points="3.75 0 7.5 3.75 6.96975 4.28025 3.75 1.0605 0.53025 4.28025 0 3.75"></polygon>
        <rect id="path-7" x="84" y="70" width="16" height="16"></rect>
    </defs>
    <g id="color-picker" stroke="none" stroke-width="1" fill="none" fill-rule="evenodd">
        <g id="Group-25-Copy-3" transform="translate(72.000000, 41.000000)">
            <polygon id="Shape" fill="#FFFFFF" fill-rule="nonzero" points="143.875 15.625 143.875 10 142.625 10 142.625 15.625 137 15.625 137 16.875 142.625 16.875 142.625 22.5 143.875 22.5 143.875 16.875 149.5 16.875 149.5 15.625"></polygon>
            <polygon id="Rectangle-Copy-22" fill="#F3F3F3" points="0 0 176 0 176 24 0 24"></polygon>
            <g id="Rectangle">
                <use fill="black" fill-opacity="1" filter="url(#filter-2)" xlink:href="#path-1"></use>
                <use fill="#D8D8D8" fill-rule="evenodd" xlink:href="#path-1"></use>
            </g>
            <polygon id="Rectangle-Copy-24" fill="#F3F3F3" points="0 24 176 24 176 48 0 48"></polygon>
            <polygon id="Rectangle-Copy-28" fill="#F3F3F3" points="0 47 176 47 176 73 0 73"></polygon>
            <polygon id="Rectangle-Copy-29" fill="#F3F3F3" points="0 70 176 70 176 98 0 98"></polygon>
            <rect id="Rectangle-8-Copy" fill="#C6C6C6" x="1" y="73" width="175" height="1"></rect>
            <g id="Group" transform="translate(152.000000, 80.000000)">
                <g id="chevron--up" transform="translate(2.250000, 3.750000)">
                    <mask id="mask-4" fill="white">
                        <use xlink:href="#path-3"></use>
                    </mask>
                    <use id="Mask" fill="#000000" fill-rule="nonzero" xlink:href="#path-3"></use>
                    <g id="Group" mask="url(#mask-4)">
                        <g transform="translate(-2.250000, -3.750000)" id="icon-color">
                            <rect id="Rectangle" fill="#171717" x="0" y="0" width="30" height="30"></rect>
                        </g>
                    </g>
                </g>
                <polygon id="transparent-rectangle" transform="translate(6.000000, 6.000000) rotate(-90.000000) translate(-6.000000, -6.000000) " points="8.8817842e-16 7.34788079e-16 12 7.34788079e-16 12 12 8.8817842e-16 12"></polygon>
            </g>
            <g id="Group" transform="translate(105.000000, 10.000000)">
                <g id="Group" transform="translate(6.000000, 6.000000) scale(1, -1) translate(-6.000000, -6.000000) ">
                    <g id="chevron--up" transform="translate(2.250000, 3.750000)">
                        <mask id="mask-6" fill="white">
                            <use xlink:href="#path-5"></use>
                        </mask>
                        <use id="Mask" fill="#000000" fill-rule="nonzero" xlink:href="#path-5"></use>
                        <g id="Group" mask="url(#mask-6)">
                            <g transform="translate(-2.250000, -3.750000)" id="icon-color">
                                <rect id="Rectangle" fill="#171717" x="0" y="0" width="30" height="30"></rect>
                            </g>
                        </g>
                    </g>
                    <polygon id="transparent-rectangle" transform="translate(6.000000, 6.000000) rotate(-90.000000) translate(-6.000000, -6.000000) " points="8.8817842e-16 7.34788079e-16 12 7.34788079e-16 12 12 8.8817842e-16 12"></polygon>
                </g>
            </g>
            <rect id="Rectangle-3-Copy-8" fill="#A8A8A8" opacity="0.754768008" x="12" y="84" width="99" height="5"></rect>
            <rect id="Rectangle-3-Copy-9" fill="#A8A8A8" opacity="0.754768008" x="12" y="13" width="88" height="5"></rect>
        </g>
        <g id="Rectangle">
            <use fill="#6929C4" fill-rule="evenodd" xlink:href="#path-7"></use>
            <rect stroke="#0F62FE" stroke-width="1" x="83.5" y="69.5" width="17" height="17"></rect>
            <rect stroke="#FFFFFF" stroke-width="1" stroke-linejoin="square" x="84.5" y="70.5" width="15" height="15"></rect>
        </g>
        <rect id="Rectangle-Copy-8" fill="#EE5396" x="84" y="89" width="16" height="16"></rect>
        <rect id="Rectangle-Copy" fill="#1192E8" x="103" y="70" width="16" height="16"></rect>
        <rect id="Rectangle-Copy-9" fill="#B18601" x="103" y="89" width="16" height="16"></rect>
        <rect id="Rectangle-Copy-2" fill="#007D79" x="122" y="70" width="16" height="16"></rect>
        <rect id="Rectangle-Copy-10" fill="#009D9A" x="122" y="89" width="16" height="16"></rect>
        <rect id="Rectangle-Copy-3" fill="#9F1853" x="141" y="70" width="16" height="16"></rect>
        <rect id="Rectangle-Copy-11" fill="#022B30" x="141" y="89" width="16" height="16"></rect>
        <rect id="Rectangle-Copy-4" fill="#6929C4" x="160" y="70" width="16" height="16"></rect>
        <rect id="Rectangle-Copy-5" fill="#FA4D56" x="179" y="70" width="16" height="16"></rect>
        <rect id="Rectangle-Copy-6" fill="#198038" x="198" y="70" width="16" height="16"></rect>
        <rect id="Rectangle-Copy-7" fill="#002D9C" x="217" y="70" width="16" height="16"></rect>
    </g>
</svg>