<?xml version="1.0" encoding="UTF-8"?>
<svg width="320px" height="180px" viewBox="0 0 320 180" version="1.1" xmlns="http://www.w3.org/2000/svg" xmlns:xlink="http://www.w3.org/1999/xlink">
    <title>empty_states</title>
    <defs>
        <linearGradient x1="37.5022153%" y1="35.2290271%" x2="55.9590468%" y2="57.6519413%" id="linearGradient-1">
            <stop stop-color="#000000" stop-opacity="0.04" offset="0%"></stop>
            <stop stop-color="#000000" stop-opacity="0.04" offset="100%"></stop>
        </linearGradient>
        <linearGradient x1="-63.3869945%" y1="77.587377%" x2="101.341406%" y2="37.4957584%" id="linearGradient-2">
            <stop stop-color="#767676" offset="0%"></stop>
            <stop stop-color="#929292" offset="100%"></stop>
        </linearGradient>
        <linearGradient x1="73.1674054%" y1="91.9661459%" x2="44.2038868%" y2="39.492945%" id="linearGradient-3">
            <stop stop-color="#969696" offset="0%"></stop>
            <stop stop-color="#E8E8E8" offset="100%"></stop>
        </linearGradient>
        <linearGradient x1="-23.1138462%" y1="-12.2573886%" x2="57.3907692%" y2="56.2733296%" id="linearGradient-4">
            <stop stop-color="#393939" offset="0%"></stop>
            <stop stop-color="#525252" offset="99%"></stop>
        </linearGradient>
        <linearGradient x1="5.12945528%" y1="115.200408%" x2="56.5391004%" y2="40.4891304%" id="linearGradient-5">
            <stop stop-color="#9C9C9C" offset="0%"></stop>
            <stop stop-color="#C5C5C5" offset="100%"></stop>
        </linearGradient>
        <linearGradient x1="45.6069188%" y1="38.9218512%" x2="61.2580027%" y2="78.2335989%" id="linearGradient-6">
            <stop stop-color="#8A8A8A" offset="0%"></stop>
            <stop stop-color="#B5B5B5" offset="100%"></stop>
        </linearGradient>
        <linearGradient x1="57.2780481%" y1="31.7271802%" x2="41.4903725%" y2="71.326773%" id="linearGradient-7">
            <stop stop-color="#A4A4A4" offset="0%"></stop>
            <stop stop-color="#BEBEBE" offset="100%"></stop>
        </linearGradient>
        <linearGradient x1="27.5994417%" y1="69.3268895%" x2="45.7955338%" y2="53.626785%" id="linearGradient-8">
            <stop stop-color="#C2C2C2" offset="0%"></stop>
            <stop stop-color="#E8E8E8" offset="100%"></stop>
        </linearGradient>
        <linearGradient x1="62.3564741%" y1="64.9397063%" x2="31.3372196%" y2="27.427047%" id="linearGradient-9">
            <stop stop-color="#C6C6C6" offset="0%"></stop>
            <stop stop-color="#E8E8E8" offset="100%"></stop>
        </linearGradient>
        <linearGradient x1="62.3535772%" y1="115.545969%" x2="43.8096954%" y2="17.1284162%" id="linearGradient-10">
            <stop stop-color="#B7B7B7" offset="0%"></stop>
            <stop stop-color="#EEEEEE" offset="100%"></stop>
        </linearGradient>
    </defs>
    <g id="empty_states" stroke="none" stroke-width="1" fill="none" fill-rule="evenodd">
        <g id="Group" transform="translate(103.000000, 30.000000)">
            <g id="Default-empty" transform="translate(0.000000, 16.000000)" fill-rule="nonzero">
                <g id="Layer0_10_FILL" transform="translate(51.000000, 33.000000)" fill="#A8A8A8">
                    <path d="M0.434482757,0.475862069 C0.463836004,0.505744064 0.499057947,0.529225356 0.537931037,0.544827586 L0.579310347,0.544827586 L0.420689653,0.455172414 C0.420689653,0.455172414 0.420689653,0.475862069 0.434482757,0.475862069 Z" id="Path"></path>
                </g>
                <g id="Layer0_10_MEMBER_0_MEMBER_0_FILL" transform="translate(17.000000, 57.000000)" fill="url(#linearGradient-1)">
                    <polygon id="Path" points="40.9361752 0 0 23.4659773 41.0540055 47 82 23.5729059"></polygon>
                </g>
                <g id="Layer0_10_MEMBER_0_MEMBER_1_FILL" transform="translate(18.000000, 5.000000)" fill="url(#linearGradient-2)">
                    <path d="M0,23.0760096 L0,23.0760096 C0,34.7206199 0,46.3619501 0,58 L40,34.9239905 C40,23.2859405 40,11.6446103 40,0 L0,23.0760096 Z" id="Path"></path>
                </g>
                <g id="Layer0_10_MEMBER_0_MEMBER_2_FILL" transform="translate(0.000000, 1.000000)" fill="url(#linearGradient-3)">
                    <polygon id="Path" points="57 3.57543342 39.3733379 2.40493719e-16 0 23.4245665 17.587794 27"></polygon>
                </g>
                <g id="Layer0_10_MEMBER_0_MEMBER_3_FILL" transform="translate(18.000000, 39.000000)" fill="url(#linearGradient-4)">
                    <polygon id="Path" points="39.4562461 0 0 22.9608677 39.5437539 46 79 23.0880476"></polygon>
                </g>
                <g id="Layer0_10_MEMBER_0_MEMBER_4_FILL" transform="translate(57.000000, 5.000000)" fill="url(#linearGradient-5)">
                    <path d="M40,58 C40,46.3632247 40,34.7297328 40,23.0995245 L0,0 C0,11.6367754 0,23.2702672 0,34.9004755 L40,58 Z" id="Path"></path>
                </g>
                <g id="Layer0_10_MEMBER_0_MEMBER_5_FILL" transform="translate(58.000000, 28.000000)" fill="url(#linearGradient-6)">
                    <path d="M40,34.8943888 C40,23.2662033 40,11.6347403 40,0 L0,23.0957789 C0,34.7305193 0,46.3652596 0,58 L40,34.8943888 Z" id="Path"></path>
                </g>
                <g id="Layer0_10_MEMBER_0_MEMBER_6_FILL" transform="translate(18.000000, 28.000000)" fill="url(#linearGradient-7)">
                    <path d="M40,58 C40,46.3488292 40,34.704219 40,23.0661689 L0,0 C0,11.63805 0,23.2793801 0,34.9239905 L40,58 Z" id="Path"></path>
                </g>
                <g id="Layer0_10_MEMBER_0_MEMBER_7_FILL" transform="translate(58.000000, 0.000000)" fill="url(#linearGradient-8)">
                    <polygon id="Path" points="39.7334264 28 56 22.9578543 16.2665736 0 0 5.04214558"></polygon>
                </g>
                <g id="Layer0_10_MEMBER_0_MEMBER_8_FILL" transform="translate(58.000000, 28.000000)" fill="url(#linearGradient-9)">
                    <polygon id="Path" points="55 14.970292 39.4550432 0 0 23.0395247 15.6032502 38"></polygon>
                </g>
                <g id="Layer0_10_MEMBER_0_MEMBER_9_FILL" transform="translate(4.000000, 27.000000)" fill="url(#linearGradient-10)">
                    <polygon id="Path" points="39.5682105 45 54 23.1979029 14.422058 0 0 21.8512451"></polygon>
                </g>
                <g id="Layer0_10_MEMBER_0_MEMBER_10_FILL" transform="translate(4.000000, 28.000000)" fill="#FFFFFF">
                    <polygon id="Path" points="0 21.5734177 0.0875833476 21.6316456 14.422058 0.203797468 53.8832222 23 54 22.8544303 14.422058 0"></polygon>
                </g>
                <g id="Layer0_10_MEMBER_0_MEMBER_11_FILL" transform="translate(58.000000, 28.000000)" fill="#FFFFFF">
                    <polygon id="Path" points="40 0.265047792 39.7160343 0 0 23.0395247 15.7258261 38 15.8335373 37.9214673 0.421052631 23.19659"></polygon>
                </g>
                <g id="Layer0_10_MEMBER_0_MEMBER_12_FILL" transform="translate(58.000000, 5.000000)" fill="#999999">
                    <polygon id="Path" points="56 17.9364945 55.7752966 17.8099068 39.7334264 22.7662997 0.22470342 0 0 0.0779000846 39.7334264 23"></polygon>
                </g>
                <g id="Layer0_10_MEMBER_0_MEMBER_13_FILL" transform="translate(58.000000, 4.000000)" fill="#FFFFFF">
                    <path d="M39.8724865,23 L40,23 L0.186365864,0.0584745772 C0.186365864,0.0584745772 0.186365864,0.0584745772 0.186365864,0 L0,0.0584745772 L39.8724865,23 Z" id="Path"></path>
                </g>
            </g>
            <rect id="Rectangle" fill="#FFFFFF" x="30" y="0" width="39" height="14"></rect>
        </g>
    </g>
</svg>