<?xml version="1.0" encoding="UTF-8"?>
<svg width="320px" height="180px" viewBox="0 0 320 180" version="1.1" xmlns="http://www.w3.org/2000/svg" xmlns:xlink="http://www.w3.org/1999/xlink">
    <title>expressive-list</title>
    <g id="expressive-list" stroke="none" stroke-width="1" fill="none" fill-rule="evenodd">
        <rect fill="#FFFFFF" x="0" y="0" width="320" height="180"></rect>
        <rect id="Rectangle-Copy-13" fill="#F4F4F4" x="57" y="31" width="207" height="38"></rect>
        <g id="Group" transform="translate(58.000000, 68.000000)" fill="#DCDCDC">
            <g id="color/gray/20-copy-92" transform="translate(102.000000, 0.500000) scale(1, -1) translate(-102.000000, -0.500000) ">
                <rect id="Rectangle" x="0" y="0" width="204" height="1"></rect>
            </g>
        </g>
        <rect id="Rectangle-Copy-14" fill="#F4F4F4" x="57" y="69" width="207" height="38"></rect>
        <g id="Group" transform="translate(58.000000, 106.000000)" fill="#DCDCDC">
            <g id="color/gray/20-copy-92" transform="translate(102.000000, 0.500000) scale(1, -1) translate(-102.000000, -0.500000) ">
                <rect id="Rectangle" x="0" y="0" width="204" height="1"></rect>
            </g>
        </g>
        <rect id="Rectangle-Copy-4" fill="#C6C6C6" fill-rule="nonzero" x="124" y="39.285714" width="125.714286" height="3.28571429"></rect>
        <rect id="Rectangle-Copy-4-Copy-2" fill="#C6C6C6" fill-rule="nonzero" x="124" y="77.285714" width="125.714286" height="3.28571429"></rect>
        <rect id="Rectangle-Copy-4-Copy" fill="#A8A8A8" fill-rule="nonzero" x="65" y="39.285714" width="29.714286" height="5.285714"></rect>
        <rect id="Rectangle-Copy-4-Copy-3" fill="#A8A8A8" fill-rule="nonzero" x="65" y="77.285714" width="29.714286" height="5.285714"></rect>
        <rect id="Rectangle-Copy-5" fill="#C6C6C6" fill-rule="nonzero" x="124" y="45.8571426" width="125.714286" height="3.28571429"></rect>
        <rect id="Rectangle-Copy-5-Copy" fill="#C6C6C6" fill-rule="nonzero" x="124" y="83.8571426" width="125.714286" height="3.28571429"></rect>
        <rect id="Rectangle-Copy-6" fill="#C6C6C6" fill-rule="nonzero" x="124" y="52.4285711" width="67" height="3.28571429"></rect>
        <rect id="Rectangle-Copy-6-Copy" fill="#C6C6C6" fill-rule="nonzero" x="124" y="90.4285711" width="67" height="3.28571429"></rect>
        <rect id="Rectangle-Copy-15" fill="#F4F4F4" x="56.7675277" y="107" width="207" height="38"></rect>
        <rect id="Rectangle-Copy-4-Copy-5" fill="#C6C6C6" fill-rule="nonzero" x="124" y="115.285714" width="125.714286" height="3.28571429"></rect>
        <rect id="Rectangle-Copy-4-Copy-4" fill="#A8A8A8" fill-rule="nonzero" x="65" y="115.285714" width="29.714286" height="5.285714"></rect>
        <rect id="Rectangle-Copy-5-Copy-2" fill="#C6C6C6" fill-rule="nonzero" x="124" y="121.857143" width="125.714286" height="3.28571429"></rect>
        <rect id="Rectangle-Copy-6-Copy-2" fill="#C6C6C6" fill-rule="nonzero" x="124" y="128.428571" width="67" height="3.28571429"></rect>
    </g>
</svg>