<?xml version="1.0" encoding="UTF-8"?>
<svg width="320px" height="180px" viewBox="0 0 320 180" version="1.1" xmlns="http://www.w3.org/2000/svg" xmlns:xlink="http://www.w3.org/1999/xlink">
    <title>floating-palette</title>
    <defs>
        <rect id="path-1" x="0" y="24.0992248" width="155.819653" height="69.0604651"></rect>
        <filter x="-5.5%" y="-9.4%" width="110.9%" height="124.6%" filterUnits="objectBoundingBox" id="filter-2">
            <feOffset dx="0" dy="2" in="SourceAlpha" result="shadowOffsetOuter1"></feOffset>
            <feGaussianBlur stdDeviation="2.5" in="shadowOffsetOuter1" result="shadowBlurOuter1"></feGaussianBlur>
            <feColorMatrix values="0 0 0 0 0.862745106   0 0 0 0 0.862745106   0 0 0 0 0.862745106  0 0 0 1 0" type="matrix" in="shadowBlurOuter1"></feColorMatrix>
        </filter>
    </defs>
    <g id="floating-palette" stroke="none" stroke-width="1" fill="none" fill-rule="evenodd">
        <g id="Group" transform="translate(82.000000, 32.000000)">
            <g id="Group-25" transform="translate(0.000000, 22.480620)">
                <polygon id="Shape" fill="#FFFFFF" fill-rule="nonzero" points="103.789595 8.54263566 103.789595 4.49612403 102.887861 4.49612403 102.887861 8.54263566 98.8300578 8.54263566 98.8300578 9.44186047 102.887861 9.44186047 102.887861 13.4883721 103.789595 13.4883721 103.789595 9.44186047 107.847399 9.44186047 107.847399 8.54263566"></polygon>
                <polygon id="Rectangle-Copy-22" fill="#F3F3F3" points="0 0 155.819653 0 155.819653 24.2790698 0 24.2790698"></polygon>
                <g id="Rectangle">
                    <use fill="black" fill-opacity="1" filter="url(#filter-2)" xlink:href="#path-1"></use>
                    <use fill="#D8D8D8" fill-rule="evenodd" xlink:href="#path-1"></use>
                </g>
                <polygon id="Rectangle-Copy-24" fill="#FFFFFF" points="0 24.2790698 155.819653 24.2790698 155.819653 47.6589147 0 47.6589147"></polygon>
                <polygon id="Rectangle-Copy-28" fill="#FFFFFF" points="0 46.7596899 155.819653 46.7596899 155.819653 70.1395349 0 70.1395349"></polygon>
                <rect id="Rectangle-8" fill="#DCDCDC" x="0" y="46.7596899" width="156" height="1"></rect>
                <polygon id="Rectangle-Copy-29" fill="#FFFFFF" points="0 70.1395349 155.819653 70.1395349 155.819653 93.5193798 0 93.5193798"></polygon>
                <rect id="Rectangle-8-Copy" fill="#DCDCDC" x="0" y="70.1395349" width="156" height="1"></rect>
                <rect id="Rectangle-3-Copy-6" fill="#C6C6C6" x="8.6566474" y="33.0914729" width="95.2231214" height="5.39534884"></rect>
                <rect id="Rectangle-3-Copy-7" fill="#C6C6C6" x="8.6566474" y="56.1116279" width="69.2531792" height="5.39534884"></rect>
                <rect id="Rectangle-3-Copy-8" fill="#C6C6C6" x="8.6566474" y="79.1317829" width="95.2231214" height="5.39534884"></rect>
            </g>
            <rect id="Rectangle" fill="#161616" x="0" y="0" width="156" height="23.379845"></rect>
            <rect id="Rectangle-3-Copy-6" fill="#8D8D8D" x="8.11560694" y="8.99224806" width="95.583815" height="5.39534884"></rect>
            <g transform="translate(136.260116, 5.395349)" fill="#F3F3F3" id="Actions-/-Operations-/-minimize-/-16">
                <path d="M2.19797688,6.5755814 L2.19797688,7.30620155 L3.88309249,7.30620155 L0.73265896,10.4478682 L1.24552023,10.9593023 L4.39595376,7.81763566 L4.39595376,9.49806202 L5.12861272,9.49806202 L5.12861272,6.5755814 L2.19797688,6.5755814 Z M9.52456647,5.11434109 L9.52456647,4.38372093 L7.83945087,4.38372093 L10.9898844,1.24205426 L10.4770231,0.730620155 L7.3265896,3.87228682 L7.3265896,2.19186047 L6.59393064,2.19186047 L6.59393064,5.11434109 L9.52456647,5.11434109 Z" id="Fill"></path>
            </g>
            <rect id="Rectangle" stroke="#0F62FE" stroke-width="1.44" fill="#FFFFFF" x="8.83560694" y="27.2471318" width="137.427052" height="15.6452713"></rect>
            <g transform="translate(14.427746, 30.573643)" fill="#000000" id="Actions-/-Operations-/-search-/-16">
                <path d="M8.45375723,8.03682171 L6.03034682,5.62015504 C7.10115607,4.32751938 6.93208092,2.36046512 5.63583815,1.29263566 C4.33959538,0.224806202 2.36705202,0.393410853 1.29624277,1.68604651 C0.225433526,2.97868217 0.394508671,4.94573643 1.69075145,6.01356589 C2.81791908,6.96899225 4.50867052,6.96899225 5.63583815,6.01356589 L8.05924855,8.43023256 L8.45375723,8.03682171 Z M1.12716763,3.65310078 C1.12716763,2.24806202 2.25433526,1.12403101 3.6632948,1.12403101 C5.07225434,1.12403101 6.19942197,2.24806202 6.19942197,3.65310078 C6.19942197,5.05813953 5.07225434,6.18217054 3.6632948,6.18217054 C2.25433526,6.18217054 1.12716763,5.05813953 1.12716763,3.65310078 Z" id="Fill"></path>
            </g>
        </g>
    </g>
</svg>