<?xml version="1.0" encoding="UTF-8"?>
<svg width="320px" height="180px" viewBox="0 0 320 180" version="1.1" xmlns="http://www.w3.org/2000/svg" xmlns:xlink="http://www.w3.org/1999/xlink">
    <title>icon-button</title>
    <defs>
        <rect id="path-1" x="0" y="0" width="22" height="22"></rect>
        <path d="M5.86465,15.81789 C5.55225,15.42299 5.17275,14.61559 4.49735,13.63549 C4.11455,13.08109 3.16525,12.03719 2.88255,11.50699 C2.63725,11.03839 2.66365,10.82829 2.72195,10.43999 C2.82535,9.74919 3.53375,9.21129 4.28945,9.28389 C4.86035,9.33779 5.34435,9.71509 5.77995,10.07149 C6.04285,10.28599 6.36625,10.70289 6.56095,10.93829 C6.74025,11.15389 6.78425,11.24299 6.97565,11.49819 C7.22865,11.83589 7.30785,12.00309 7.21105,11.63129 C7.13295,11.08569 7.00535,10.15399 6.82055,9.33009 C6.67975,8.70529 6.64565,8.60739 6.51145,8.12779 C6.36955,7.61739 6.29695,7.25989 6.16385,6.71869 C6.07145,6.33589 5.90535,5.55379 5.86025,5.11379 C5.79755,4.51209 5.76455,3.53089 6.15065,3.07989 C6.45315,2.72679 7.14725,2.62009 7.57735,2.83789 C8.14055,3.12279 8.46065,3.94119 8.60695,4.26789 C8.86985,4.85529 9.03265,5.53399 9.17455,6.42499 C9.35495,7.55909 9.68715,9.13319 9.69815,9.46429 C9.72455,9.05839 9.62335,8.20369 9.69375,7.81429 C9.75755,7.46119 10.05455,7.05089 10.42635,6.93979 C10.74095,6.84629 11.10945,6.81219 11.43395,6.87929 C11.77825,6.94969 12.14125,7.19609 12.27655,7.42819 C12.67475,8.11459 12.68245,9.51709 12.69895,9.44229 C12.79355,9.02869 12.77705,8.09039 13.01135,7.69989 C13.16535,7.44249 13.55805,7.21039 13.76705,7.17299 C14.09045,7.11579 14.48755,7.09819 14.82745,7.16419 C15.10135,7.21809 15.47205,7.54369 15.57215,7.69989 C15.81195,8.07829 15.94835,9.14859 15.98905,9.52369 C16.00555,9.67879 16.07045,9.09249 16.31135,8.71409 C16.75795,8.01119 18.33865,7.87479 18.39915,9.41699 C18.42665,10.13639 18.42115,10.10339 18.42115,10.58739 C18.42115,11.15609 18.40795,11.49819 18.37715,11.90959 C18.34305,12.34959 18.24845,13.34399 18.11095,13.82579 C18.01635,14.15689 17.70285,14.90159 17.39375,15.34819 C17.39375,15.34819 16.21235,16.72319 16.08365,17.34249 C15.95385,17.96069 15.99675,17.96509 15.97145,18.40399 C15.94615,18.84179 16.10455,19.41819 16.10455,19.41819 C16.10455,19.41819 15.22235,19.53259 14.74715,19.45669 C14.31705,19.38739 13.78465,18.53159 13.64715,18.26979 C13.45795,17.90899 13.05425,17.97829 12.89695,18.24449 C12.64945,18.66579 12.11705,19.42149 11.74085,19.46879 C11.00605,19.56119 9.48145,19.50289 8.28795,19.49079 C8.28795,19.49079 8.49145,18.37869 8.03825,17.99699 C7.70275,17.71209 7.12525,17.13459 6.77985,16.83099 L5.86465,15.81789 Z" id="path-3"></path>
        <filter x="-31.8%" y="-23.8%" width="163.6%" height="159.5%" filterUnits="objectBoundingBox" id="filter-4">
            <feMorphology radius="0.5" operator="dilate" in="SourceAlpha" result="shadowSpreadOuter1"></feMorphology>
            <feOffset dx="0" dy="1" in="shadowSpreadOuter1" result="shadowOffsetOuter1"></feOffset>
            <feGaussianBlur stdDeviation="1" in="shadowOffsetOuter1" result="shadowBlurOuter1"></feGaussianBlur>
            <feColorMatrix values="0 0 0 0 0   0 0 0 0 0   0 0 0 0 0  0 0 0 0.15 0" type="matrix" in="shadowBlurOuter1"></feColorMatrix>
        </filter>
        <path d="M5.86465,15.81789 C5.55225,15.42299 5.17275,14.61559 4.49735,13.63549 C4.11455,13.08109 3.16525,12.03719 2.88255,11.50699 C2.63725,11.03839 2.66365,10.82829 2.72195,10.43999 C2.82535,9.74919 3.53375,9.21129 4.28945,9.28389 C4.86035,9.33779 5.34435,9.71509 5.77995,10.07149 C6.04285,10.28599 6.36625,10.70289 6.56095,10.93829 C6.74025,11.15389 6.78425,11.24299 6.97565,11.49819 C7.22865,11.83589 7.30785,12.00309 7.21105,11.63129 C7.13295,11.08569 7.00535,10.15399 6.82055,9.33009 C6.67975,8.70529 6.64565,8.60739 6.51145,8.12779 C6.36955,7.61739 6.29695,7.25989 6.16385,6.71869 C6.07145,6.33589 5.90535,5.55379 5.86025,5.11379 C5.79755,4.51209 5.76455,3.53089 6.15065,3.07989 C6.45315,2.72679 7.14725,2.62009 7.57735,2.83789 C8.14055,3.12279 8.46065,3.94119 8.60695,4.26789 C8.86985,4.85529 9.03265,5.53399 9.17455,6.42499 C9.35495,7.55909 9.68715,9.13319 9.69815,9.46429 C9.72455,9.05839 9.62335,8.20369 9.69375,7.81429 C9.75755,7.46119 10.05455,7.05089 10.42635,6.93979 C10.74095,6.84629 11.10945,6.81219 11.43395,6.87929 C11.77825,6.94969 12.14125,7.19609 12.27655,7.42819 C12.67475,8.11459 12.68245,9.51709 12.69895,9.44229 C12.79355,9.02869 12.77705,8.09039 13.01135,7.69989 C13.16535,7.44249 13.55805,7.21039 13.76705,7.17299 C14.09045,7.11579 14.48755,7.09819 14.82745,7.16419 C15.10135,7.21809 15.47205,7.54369 15.57215,7.69989 C15.81195,8.07829 15.94835,9.14859 15.98905,9.52369 C16.00555,9.67879 16.07045,9.09249 16.31135,8.71409 C16.75795,8.01119 18.33865,7.87479 18.39915,9.41699 C18.42665,10.13639 18.42115,10.10339 18.42115,10.58739 C18.42115,11.15609 18.40795,11.49819 18.37715,11.90959 C18.34305,12.34959 18.24845,13.34399 18.11095,13.82579 C18.01635,14.15689 17.70285,14.90159 17.39375,15.34819 C17.39375,15.34819 16.21235,16.72319 16.08365,17.34249 C15.95385,17.96069 15.99675,17.96509 15.97145,18.40399 C15.94615,18.84179 16.10455,19.41819 16.10455,19.41819 C16.10455,19.41819 15.22235,19.53259 14.74715,19.45669 C14.31705,19.38739 13.78465,18.53159 13.64715,18.26979 C13.45795,17.90899 13.05425,17.97829 12.89695,18.24449 C12.64945,18.66579 12.11705,19.42149 11.74085,19.46879 C11.00605,19.56119 9.48145,19.50289 8.28795,19.49079 C8.28795,19.49079 8.49145,18.37869 8.03825,17.99699 C7.70275,17.71209 7.12525,17.13459 6.77985,16.83099 L5.86465,15.81789 Z" id="path-5"></path>
        <filter x="-12.7%" y="-6.0%" width="125.4%" height="123.8%" filterUnits="objectBoundingBox" id="filter-6">
            <feOffset dx="0" dy="1" in="SourceAlpha" result="shadowOffsetOuter1"></feOffset>
            <feGaussianBlur stdDeviation="0.5" in="shadowOffsetOuter1" result="shadowBlurOuter1"></feGaussianBlur>
            <feColorMatrix values="0 0 0 0 0   0 0 0 0 0   0 0 0 0 0  0 0 0 0.2 0" type="matrix" in="shadowBlurOuter1"></feColorMatrix>
        </filter>
    </defs>
    <g id="icon-button" stroke="none" stroke-width="1" fill="none" fill-rule="evenodd">
        <g id="Group-2" transform="translate(67.000000, 62.000000)">
            <g id="Group">
                <rect id="Background" x="0" y="8.8" width="35.2" height="35.2"></rect>
                <g transform="translate(8.800000, 17.600000)" fill="#161616" id="Icon">
                    <path d="M1.1,14.3 L16.5,14.3 L16.5,15.4 L1.1,15.4 L1.1,14.3 Z M13.97,4.95 C14.41,4.51 14.41,3.85 13.97,3.41 L11.99,1.43 C11.55,0.99 10.89,0.99 10.45,1.43 L2.2,9.68 L2.2,13.2 L5.72,13.2 L13.97,4.95 Z M11.22,2.2 L13.2,4.18 L11.55,5.83 L9.57,3.85 L11.22,2.2 Z M3.3,12.1 L3.3,10.12 L8.8,4.62 L10.78,6.6 L5.28,12.1 L3.3,12.1 Z" id="Fill"></path>
                </g>
                <rect id="Background" x="60.6" y="0" width="52.8" height="52.8"></rect>
                <rect id="Focus" stroke="#0F62FE" stroke-width="2.2" x="69.5" y="9.9" width="33" height="33"></rect>
                <g transform="translate(77.200000, 17.600000)" fill="#161616" id="Icon">
                    <path d="M1.1,14.3 L16.5,14.3 L16.5,15.4 L1.1,15.4 L1.1,14.3 Z M13.97,4.95 C14.41,4.51 14.41,3.85 13.97,3.41 L11.99,1.43 C11.55,0.99 10.89,0.99 10.45,1.43 L2.2,9.68 L2.2,13.2 L5.72,13.2 L13.97,4.95 Z M11.22,2.2 L13.2,4.18 L11.55,5.83 L9.57,3.85 L11.22,2.2 Z M3.3,12.1 L3.3,10.12 L8.8,4.62 L10.78,6.6 L5.28,12.1 L3.3,12.1 Z" id="Fill"></path>
                </g>
                <rect id="Background" fill="#E5E5E5" x="139.8" y="8.8" width="35.2" height="35.2"></rect>
                <g transform="translate(148.600000, 17.600000)" fill="#161616" id="Icon">
                    <path d="M1.1,14.3 L16.5,14.3 L16.5,15.4 L1.1,15.4 L1.1,14.3 Z M13.97,4.95 C14.41,4.51 14.41,3.85 13.97,3.41 L11.99,1.43 C11.55,0.99 10.89,0.99 10.45,1.43 L2.2,9.68 L2.2,13.2 L5.72,13.2 L13.97,4.95 Z M11.22,2.2 L13.2,4.18 L11.55,5.83 L9.57,3.85 L11.22,2.2 Z M3.3,12.1 L3.3,10.12 L8.8,4.62 L10.78,6.6 L5.28,12.1 L3.3,12.1 Z" id="Fill"></path>
                </g>
                <g transform="translate(164.000000, 33.000000)" id="Cursor---Pointer">
                    <mask id="mask-2" fill="white">
                        <use xlink:href="#path-1"></use>
                    </mask>
                    <g id="Mask"></g>
                    <g id="soft-shadow" mask="url(#mask-2)" fill="black" fill-opacity="1">
                        <use filter="url(#filter-4)" xlink:href="#path-3"></use>
                    </g>
                    <g id="Hard-shadow" mask="url(#mask-2)" fill="black" fill-opacity="1">
                        <use filter="url(#filter-6)" xlink:href="#path-5"></use>
                    </g>
                    <path d="M16.1965161,8.21855836 C16.5488164,7.90043558 17.0735067,7.74037208 17.5629907,7.81595957 C18.2857686,7.92757295 18.7762379,8.50621652 18.8113489,9.40123316 C18.8276734,9.82827972 18.8325983,9.99572287 18.833776,10.1646613 C18.8341051,10.2264947 18.8341051,10.2765307 18.8338735,10.4088085 C18.8337057,10.48958 18.8337057,10.48958 18.83365,10.58739 C18.83365,11.1450038 18.8214325,11.5004863 18.7884168,11.9414632 C18.7281732,12.7187993 18.6301363,13.5096706 18.5075786,13.9391125 C18.3799177,14.3859258 18.032467,15.150169 17.7066251,15.6170123 C17.6677674,15.6622377 17.5979989,15.7455341 17.5077486,15.8568962 C17.3570883,16.0427997 17.2064825,16.2370762 17.0665548,16.429341 C16.9927617,16.5307348 16.9238931,16.6289466 16.8608923,16.7229956 C16.6493667,17.038766 16.5150566,17.2939208 16.4873475,17.4272521 C16.4228468,17.7344501 16.4029153,17.8753286 16.3970965,18.0236977 C16.3955592,18.0690338 16.3955592,18.0690338 16.3944089,18.1208373 C16.3913974,18.2599967 16.3894631,18.3202291 16.3832629,18.4277882 C16.3796968,18.4894978 16.3808029,18.5608814 16.3864132,18.6397256 C16.3952622,18.7640857 16.4147329,18.9005985 16.4416748,19.0403662 C16.4649146,19.1609285 16.4879614,19.2566921 16.5023041,19.3088835 L16.6279969,19.7662654 L16.1575971,19.8272649 C16.0903386,19.8359867 15.9777385,19.8486787 15.8364168,19.8613057 C15.64901,19.8780504 15.4633046,19.8896169 15.2878262,19.8936535 C15.0524635,19.8990677 14.8493913,19.8907488 14.6815321,19.8639375 C14.1531333,19.7787991 13.6298552,19.1239963 13.2818317,18.4613593 C12.8074189,19.2112592 12.2923995,19.8151908 11.7923159,19.8780668 C11.3244675,19.9368981 10.6725907,19.9429259 9.39626998,19.9209701 C9.27840133,19.9189204 9.27840133,19.9189204 9.16092283,19.9168289 C8.69139057,19.9084607 8.51399502,19.9056029 8.28376819,19.9032688 L7.79403096,19.8983037 L7.8821874,19.4165407 C7.88628986,19.3941213 7.8934498,19.3470626 7.90087356,19.2818241 C7.92233977,19.0931837 7.92850235,18.8974083 7.91079469,18.7218962 C7.88927408,18.5085915 7.8349555,18.3650809 7.77124468,18.3114171 C7.61847412,18.1816874 7.45140802,18.026636 7.11429892,17.7064314 C6.75322389,17.3634336 6.63907603,17.256452 6.47375399,17.1075067 L5.55855399,16.0944067 C5.38325014,15.8742287 4.5146953,14.3876216 4.15790503,13.8698687 C4.02591197,13.6787063 3.9654388,13.6027112 3.41032889,12.918657 C3.38266966,12.8845612 3.38266966,12.8845612 3.35499418,12.8503864 C2.90276198,12.2916609 2.66038258,11.9670576 2.51709413,11.6982967 C2.25671069,11.2008826 2.22948505,10.9417926 2.31399471,10.3789266 C2.45140483,9.46091009 3.36526544,8.78070451 4.32822267,8.87321625 C4.91528051,8.92864175 5.34288616,9.18091717 6.0407234,9.75187542 C6.1365024,9.83002146 6.23738968,9.92799858 6.34713599,10.0464709 C6.40617964,10.1102092 6.46729273,10.1793633 6.53227324,10.255511 C6.54851087,10.2745392 6.5709145,10.3012573 6.59661834,10.3321375 C6.57580412,10.2123647 6.5538574,10.0925112 6.52813887,9.95646283 C6.49230934,9.76692825 6.45567963,9.5881328 6.41814134,9.42077364 C6.34954676,9.1163852 6.30564327,8.93399003 6.26073185,8.76483274 C6.25280515,8.73509147 6.25280515,8.73509147 6.24480059,8.70548401 C6.22073948,8.61677604 6.10777371,8.21594858 6.11402341,8.23828144 C6.05446143,8.02404299 6.00457236,7.82881312 5.94767776,7.59152225 C5.9349204,7.53817642 5.9349204,7.53817642 5.92227345,7.48484386 C5.84873186,7.17131715 5.80863271,7.00158756 5.76286609,6.81547922 C5.63343641,6.27927055 5.49069765,5.55387685 5.44997152,5.15654297 C5.34333026,4.13316109 5.41393213,3.30615369 5.83738778,2.81151894 C6.26378952,2.31379181 7.16337758,2.16588236 7.76354899,2.46980552 C8.10914482,2.64462841 8.38459511,2.95236359 8.62494887,3.36337834 C8.70292893,3.49672743 8.77387377,3.63537302 8.84494479,3.78855259 C8.88598907,3.87701546 8.99876832,4.1335622 8.98345986,4.09937716 C9.2495835,4.69397977 9.42508947,5.37538701 9.58192827,6.3601888 C9.6103593,6.5389229 9.64352011,6.73473211 9.68283575,6.95718745 C9.85636634,6.76466272 10.0726722,6.61495242 10.3088341,6.54438355 C10.7047644,6.42671195 11.1382254,6.39691367 11.5165853,6.47515183 C11.9630932,6.56645058 12.4319948,6.8757716 12.6333555,7.22119706 C12.6647144,7.27525215 12.6941666,7.33251866 12.7218446,7.39290218 C12.9502259,7.09059732 13.3755491,6.8239956 13.6952059,6.76679463 C14.0981545,6.69552482 14.5369456,6.68757691 14.9070972,6.75945233 C15.2669845,6.83027353 15.7377614,7.19380249 15.9205768,7.47908464 C16.031515,7.65414313 16.121994,7.90927678 16.1965161,8.21855836 Z" id="Outline" fill="#000000" mask="url(#mask-2)"></path>
                    <path d="M5.86465,15.81789 C5.55225,15.42299 5.17275,14.61559 4.49735,13.63549 C4.11455,13.08109 3.16525,12.03719 2.88255,11.50699 C2.63725,11.03839 2.66365,10.82829 2.72195,10.43999 C2.82535,9.74919 3.53375,9.21129 4.28945,9.28389 C4.86035,9.33779 5.34435,9.71509 5.77995,10.07149 C6.04285,10.28599 6.36625,10.70289 6.56095,10.93829 C6.74025,11.15389 6.78425,11.24299 6.97565,11.49819 C7.22865,11.83589 7.30785,12.00309 7.21105,11.63129 C7.13295,11.08569 7.00535,10.15399 6.82055,9.33009 C6.67975,8.70529 6.64565,8.60739 6.51145,8.12779 C6.36955,7.61739 6.29695,7.25989 6.16385,6.71869 C6.07145,6.33589 5.90535,5.55379 5.86025,5.11379 C5.79755,4.51209 5.76455,3.53089 6.15065,3.07989 C6.45315,2.72679 7.14725,2.62009 7.57735,2.83789 C8.14055,3.12279 8.46065,3.94119 8.60695,4.26789 C8.86985,4.85529 9.03265,5.53399 9.17455,6.42499 C9.35495,7.55909 9.68715,9.13319 9.69815,9.46429 C9.70915,9.79539 9.62335,8.20369 9.69375,7.81429 C9.75755,7.46119 10.05455,7.05089 10.42635,6.93979 C10.74095,6.84629 11.10945,6.81219 11.43395,6.87929 C11.77825,6.94969 12.14125,7.19609 12.27655,7.42819 C12.67475,8.11459 12.68245,9.51709 12.69895,9.44229 C12.79355,9.02869 12.77705,8.09039 13.01135,7.69989 C13.16535,7.44249 13.55805,7.21039 13.76705,7.17299 C14.09045,7.11579 14.48755,7.09819 14.82745,7.16419 C15.10135,7.21809 15.47205,7.54369 15.57215,7.69989 C15.81195,8.07829 15.94835,9.14859 15.98905,9.52369 C16.00555,9.67879 16.07045,9.09249 16.31135,8.71409 C16.75795,8.01119 18.33865,7.87479 18.39915,9.41699 C18.42665,10.13639 18.42115,10.10339 18.42115,10.58739 C18.42115,11.15609 18.40795,11.49819 18.37715,11.90959 C18.34305,12.34959 18.24845,13.34399 18.11095,13.82579 C18.01635,14.15689 17.70285,14.90159 17.39375,15.34819 C17.39375,15.34819 16.21235,16.72319 16.08365,17.34249 C15.95385,17.96069 15.99675,17.96509 15.97145,18.40399 C15.94615,18.84179 16.10455,19.41819 16.10455,19.41819 C16.10455,19.41819 15.22235,19.53259 14.74715,19.45669 C14.31705,19.38739 13.78465,18.53159 13.64715,18.26979 C13.45795,17.90899 13.05425,17.97829 12.89695,18.24449 C12.64945,18.66579 12.11705,19.42149 11.74085,19.46879 C11.00605,19.56119 9.48145,19.50289 8.28795,19.49079 C8.28795,19.49079 8.49145,18.37869 8.03825,17.99699 C7.70275,17.71209 7.12525,17.13459 6.77985,16.83099 L5.86465,15.81789 Z" id="Fill" stroke="#000000" stroke-width="0.825" fill="#FFFFFF" mask="url(#mask-2)"></path>
                    <line x1="14.92304" y1="16.225" x2="14.92304" y2="12.375" id="Right-Line" stroke="#000000" stroke-width="0.825" stroke-linecap="round" mask="url(#mask-2)"></line>
                    <line x1="12.70588" y1="16.22071" x2="12.6881434" y2="12.3707509" id="Center-Line" stroke="#000000" stroke-width="0.825" stroke-linecap="round" mask="url(#mask-2)"></line>
                    <line x1="10.51017" y1="16.225" x2="10.5337681" y2="12.3750723" id="Left-Line" stroke="#000000" stroke-width="0.825" stroke-linecap="round" mask="url(#mask-2)"></line>
                </g>
            </g>
            <g id="button-/-04-ghost-/-default-/-03-icon-/-01-enabled" transform="translate(64.000000, 3.000000)"></g>
            <g id="button-/-04-ghost-/-default-/-03-icon-/-01-enabled" transform="translate(136.000000, 11.000000)"></g>
        </g>
    </g>
</svg>