<?xml version="1.0" encoding="UTF-8"?>
<svg width="320px" height="180px" viewBox="0 0 320 180" version="1.1" xmlns="http://www.w3.org/2000/svg" xmlns:xlink="http://www.w3.org/1999/xlink">
    <title>icon-content-switcher</title>
    <g id="icon-content-switcher" stroke="none" stroke-width="1" fill="none" fill-rule="evenodd">
        <g id="Group-6" transform="translate(54.000000, 75.000000)">
            <g id="content-switcher2-copy-5">
                <g id="Group-43">
                    <polygon id="Rectangle-5-Copy-113" fill="#F3F3F3" points="106 9.59218815e-13 159 0 159 32 106 32"></polygon>
                    <path d="M4,0 L53,0 L53,0 L53,32 L4,32 C1.790861,32 2.705415e-16,30.209139 0,28 L0,4 C-2.705415e-16,1.790861 1.790861,4.05812251e-16 4,0 Z" id="Rectangle-5-Copy-85" fill="#F3F3F3"></path>
                    <polygon id="Rectangle-5-Copy-97" fill="#171717" points="53 9.59218815e-13 106 0 106 32 53 32"></polygon>
                    <rect id="Rectangle-path" x="72" y="8" width="16" height="16"></rect>
                    <path d="M159,0 L208,0 C210.209139,-4.05812251e-16 212,1.790861 212,4 L212,28 C212,30.209139 210.209139,32 208,32 L159,32 L159,32 L159,0 Z" id="Rectangle-5-Copy-131" fill="#F3F3F3"></path>
                    <line x1="159.333333" y1="8.19512195" x2="159.333333" y2="23.804878" id="Line-4-Copy-45" stroke="#DCDCDC" stroke-linecap="square"></line>
                    <g id="Group" transform="translate(19.000000, 10.500000)" fill="#3D3D3D" fill-rule="nonzero">
                        <polygon id="Shape" points="15 5.5 11.5 9 10.793 8.293 13.586 5.5 10.793 2.707 11.5 2"></polygon>
                        <polygon id="Shape" points="0 5.5 3.5 2 4.207 2.707 1.414 5.5 4.207 8.293 3.5 9"></polygon>
                        <polygon id="Rectangle-path" transform="translate(7.499909, 5.500036) rotate(-75.000100) translate(-7.499909, -5.500036) " points="2.45740857 5.00003648 12.5424086 5.00003648 12.5424086 5.99993648 2.45740857 5.99993648"></polygon>
                    </g>
                </g>
                <g id="Icon" transform="translate(126.000000, 9.000000)"></g>
                <g id="Actions-/-Toggle-/-list-/-16" transform="translate(71.000000, 8.000000)" fill="#FFFFFF">
                    <path d="M5,3 L14,3 L14,4 L5,4 L5,3 Z M5,12 L14,12 L14,13 L5,13 L5,12 Z M5,7.5 L14,7.5 L14,8.5 L5,8.5 L5,7.5 Z M2,7.5 L3,7.5 L3,8.5 L2,8.5 L2,7.5 Z M2,3 L3,3 L3,4 L2,4 L2,3 Z M2,12 L3,12 L3,13 L2,13 L2,12 Z" id="Fill"></path>
                </g>
            </g>
            <g id="view-copy-10" transform="translate(172.000000, 8.000000)">
                <g id="Icon" transform="translate(0.500000, 2.500000)"></g>
                <g id="Transparent_Rectangle" transform="translate(7.000000, 0.000000)"></g>
            </g>
        </g>
        <g id="Fill" transform="translate(179.000000, 83.000000)" fill="#000000">
            <path d="M6,2 L3,2 C2.4,2 2,2.4 2,3 L2,6 C2,6.6 2.4,7 3,7 L6,7 C6.6,7 7,6.6 7,6 L7,3 C7,2.4 6.6,2 6,2 Z M6,6 L3,6 L3,3 L6,3 L6,6 Z M13,2 L10,2 C9.4,2 9,2.4 9,3 L9,6 C9,6.6 9.4,7 10,7 L13,7 C13.6,7 14,6.6 14,6 L14,3 C14,2.4 13.6,2 13,2 Z M13,6 L10,6 L10,3 L13,3 L13,6 Z M6,9 L3,9 C2.4,9 2,9.4 2,10 L2,13 C2,13.6 2.4,14 3,14 L6,14 C6.6,14 7,13.6 7,13 L7,10 C7,9.4 6.6,9 6,9 Z M6,13 L3,13 L3,10 L6,10 L6,13 Z M13,9 L10,9 C9.4,9 9,9.4 9,10 L9,13 C9,13.6 9.4,14 10,14 L13,14 C13.6,14 14,13.6 14,13 L14,10 C14,9.4 13.6,9 13,9 Z M13,13 L10,13 L10,10 L13,10 L13,13 Z"></path>
        </g>
        <g id="Fill" transform="translate(232.000000, 83.000000)" fill="#000000">
            <path d="M2.335,14 L5.53,8 L9.18,11.245 C9.41162785,11.4507837 9.72556067,11.5375769 10.03,11.48 C10.337283,11.4224526 10.5999715,11.2245113 10.74,10.945 L13.5,5.45 L12.59,5 L9.845,10.5 L6.195,7.255 C5.96926902,7.04507491 5.65933677,6.95098834 5.355,7 C5.05454045,7.04984915 4.7931762,7.23390848 4.645,7.5 L2,12.5 L2,1 L1,1 L1,14 C1,14.5522847 1.44771525,15 2,15 L15,15 L15,14 L2.335,14 Z"></path>
        </g>
    </g>
</svg>