<?xml version="1.0" encoding="UTF-8"?>
<svg width="320px" height="180px" viewBox="0 0 320 180" version="1.1" xmlns="http://www.w3.org/2000/svg" xmlns:xlink="http://www.w3.org/1999/xlink">
    <title>icon-tabs</title>
    <g id="icon-tabs" stroke="none" stroke-width="1" fill="none" fill-rule="evenodd">
        <g id="Group" transform="translate(73.000000, 65.000000)">
            <g id="Tab-3" transform="translate(117.600000, 45.600000)" fill="#E0E0E0">
                <rect id="bar" x="0.0544747082" y="0" width="56.4" height="3"></rect>
            </g>
            <g id="Tab-2" transform="translate(58.800000, 45.600000)" fill="#E0E0E0">
                <rect id="bar" x="0" y="0" width="57.6" height="3"></rect>
            </g>
            <g id="Tab-1" transform="translate(0.000000, 45.600000)" fill="#0F62FE">
                <rect id="bar" x="0" y="0" width="57.6" height="3"></rect>
            </g>
            <g transform="translate(92.400000, 0.000000)" id="Spacer">
                <rect id="spacer" x="0" y="0" width="19.2" height="48"></rect>
            </g>
            <g transform="translate(19.200000, 14.400000)" fill="#000000" id="Actions-/-Toggle-/-list-/-16">
                <path d="M6,3.6 L16.8,3.6 L16.8,4.8 L6,4.8 L6,3.6 Z M6,14.4 L16.8,14.4 L16.8,15.6 L6,15.6 L6,14.4 Z M6,9 L16.8,9 L16.8,10.2 L6,10.2 L6,9 Z M2.4,9 L3.6,9 L3.6,10.2 L2.4,10.2 L2.4,9 Z M2.4,3.6 L3.6,3.6 L3.6,4.8 L2.4,4.8 L2.4,3.6 Z M2.4,14.4 L3.6,14.4 L3.6,15.6 L2.4,15.6 L2.4,14.4 Z" id="Fill"></path>
            </g>
            <g transform="translate(78.000000, 14.400000)" fill="#000000" id="Actions-/-Toggle-/-list-/-16">
                <path d="M6.966,17.952 C6.71341579,17.8453829 6.56522855,17.5811156 6.606,17.31 L7.698,10.2 L4.8,10.2 C4.61379204,10.2050099 4.43581853,10.12325 4.31831044,9.97871509 C4.20080235,9.83418014 4.15708929,9.64326548 4.2,9.462 L6,1.662 C6.0652871,1.38529944 6.3158031,1.19240212 6.6,1.2 L12.6,1.2 C12.781553,1.19938268 12.953622,1.28100512 13.068,1.422 C13.1840309,1.56463314 13.2282568,1.7525933 13.188,1.932 L12.15,6.6 L15,6.6 C15.2294371,6.59954084 15.4390479,6.72996539 15.54,6.936 C15.6275289,7.13331163 15.6023256,7.36243237 15.474,7.536 L7.674,17.736 C7.5670835,17.8944912 7.39103664,17.9925427 7.2,18 C7.11971467,17.9985012 7.0403918,17.9822298 6.966,17.952 Z M10.65,7.8 L11.85,2.4 L7.08,2.4 L5.556,9 L9.102,9 L8.148,15.168 L13.8,7.8 L10.65,7.8 Z" id="Fill"></path>
            </g>
            <g transform="translate(136.800000, 14.400000)" fill="#000000" id="Actions-/-Toggle-/-list-/-16">
                <path d="M18.6,9.36 C17.16,5.64 13.56,3.12 9.6,3 C5.64,3.12 2.04,5.64 0.6,9.36 L0.6,9.72 C2.04,13.44 5.52,15.96 9.6,16.08 C13.56,15.96 17.16,13.44 18.6,9.72 L18.6,9.36 Z M9.6,15 C6.36,15 3.12,12.6 1.8,9.6 C3,6.6 6.36,4.2 9.6,4.2 C12.84,4.2 16.08,6.6 17.4,9.6 C16.08,12.6 12.72,15 9.6,15 Z M9.6,6 C7.56,6 6,7.56 6,9.6 C6,11.64 7.56,13.2 9.6,13.2 C11.64,13.2 13.2,11.64 13.2,9.6 C13.2,7.56 11.64,6 9.6,6 Z M9.6,12 C8.28,12 7.2,10.92 7.2,9.6 C7.2,8.28 8.28,7.2 9.6,7.2 C10.92,7.2 12,8.28 12,9.6 C12,10.92 10.92,12 9.6,12 Z" id="Fill"></path>
            </g>
        </g>
    </g>
</svg>