<?xml version="1.0" encoding="UTF-8"?>
<svg width="320px" height="180px" viewBox="0 0 320 180" version="1.1" xmlns="http://www.w3.org/2000/svg" xmlns:xlink="http://www.w3.org/1999/xlink">
    <title>image-card</title>
    <defs>
        <path d="M11.28125,8.3125 C10.2974928,8.3125 9.5,7.51500721 9.5,6.53125 C9.5,5.54749279 10.2974928,4.75 11.28125,4.75 C12.2650072,4.75 13.0625,5.54749279 13.0625,6.53125 C13.0625,7.00366687 12.8748331,7.45673478 12.540784,7.79078395 C12.2067348,8.12483313 11.7536669,8.3125 11.28125,8.3125 L11.28125,8.3125 Z M11.28125,5.9375 C10.9533309,5.9375 10.6875,6.20333093 10.6875,6.53125 C10.6875,6.85916907 10.9533309,7.125 11.28125,7.125 C11.6091691,7.125 11.875,6.85916907 11.875,6.53125 C11.875,6.20333093 11.6091691,5.9375 11.28125,5.9375 Z M15.5265625,2.375 L3.4734375,2.375 C2.86678722,2.375 2.375,2.86678722 2.375,3.4734375 L2.375,15.5265625 C2.375,15.8178862 2.4907279,16.0972781 2.6967249,16.3032751 C2.90272189,16.5092721 3.18211376,16.625 3.4734375,16.625 L15.5265625,16.625 C15.8178862,16.625 16.0972781,16.5092721 16.3032751,16.3032751 C16.5092721,16.0972781 16.625,15.8178862 16.625,15.5265625 L16.625,3.4734375 C16.625,2.86678722 16.1332128,2.375 15.5265625,2.375 Z M15.4375,3.5625 L15.4375,12.6646875 L13.216875,10.4440625 C12.9941377,10.2210773 12.6918922,10.0957846 12.3767187,10.0957846 C12.0615453,10.0957846 11.7592998,10.2210773 11.5365625,10.4440625 L10.6875,11.3109375 L7.421875,8.0690625 C7.19913769,7.84607726 6.89689223,7.7207846 6.58171875,7.7207846 C6.26654527,7.7207846 5.96429981,7.84607726 5.7415625,8.0690625 L3.5625,10.248125 L3.5625,3.5625 L15.4375,3.5625 Z M3.5625,15.4375 L3.5625,11.9225 L6.57875,8.90625 L6.57875,8.90625 L9.8265625,12.1540625 C10.0492998,12.3770477 10.3515453,12.5023404 10.6667188,12.5023404 C10.9818922,12.5023404 11.2841377,12.3770477 11.506875,12.1540625 L12.37375,11.28125 L12.37375,11.28125 L15.4375,14.345 L15.4375,15.4375 L3.5625,15.4375 Z" id="path-1"></path>
        <path d="M11.28125,8.3125 C10.2974928,8.3125 9.5,7.51500721 9.5,6.53125 C9.5,5.54749279 10.2974928,4.75 11.28125,4.75 C12.2650072,4.75 13.0625,5.54749279 13.0625,6.53125 C13.0625,7.00366687 12.8748331,7.45673478 12.540784,7.79078395 C12.2067348,8.12483313 11.7536669,8.3125 11.28125,8.3125 L11.28125,8.3125 Z M11.28125,5.9375 C10.9533309,5.9375 10.6875,6.20333093 10.6875,6.53125 C10.6875,6.85916907 10.9533309,7.125 11.28125,7.125 C11.6091691,7.125 11.875,6.85916907 11.875,6.53125 C11.875,6.20333093 11.6091691,5.9375 11.28125,5.9375 Z M15.5265625,2.375 L3.4734375,2.375 C2.86678722,2.375 2.375,2.86678722 2.375,3.4734375 L2.375,15.5265625 C2.375,15.8178862 2.4907279,16.0972781 2.6967249,16.3032751 C2.90272189,16.5092721 3.18211376,16.625 3.4734375,16.625 L15.5265625,16.625 C15.8178862,16.625 16.0972781,16.5092721 16.3032751,16.3032751 C16.5092721,16.0972781 16.625,15.8178862 16.625,15.5265625 L16.625,3.4734375 C16.625,2.86678722 16.1332128,2.375 15.5265625,2.375 Z M15.4375,3.5625 L15.4375,12.6646875 L13.216875,10.4440625 C12.9941377,10.2210773 12.6918922,10.0957846 12.3767187,10.0957846 C12.0615453,10.0957846 11.7592998,10.2210773 11.5365625,10.4440625 L10.6875,11.3109375 L7.421875,8.0690625 C7.19913769,7.84607726 6.89689223,7.7207846 6.58171875,7.7207846 C6.26654527,7.7207846 5.96429981,7.84607726 5.7415625,8.0690625 L3.5625,10.248125 L3.5625,3.5625 L15.4375,3.5625 Z M3.5625,15.4375 L3.5625,11.9225 L6.57875,8.90625 L6.57875,8.90625 L9.8265625,12.1540625 C10.0492998,12.3770477 10.3515453,12.5023404 10.6667188,12.5023404 C10.9818922,12.5023404 11.2841377,12.3770477 11.506875,12.1540625 L12.37375,11.28125 L12.37375,11.28125 L15.4375,14.345 L15.4375,15.4375 L3.5625,15.4375 Z" id="path-3"></path>
        <path d="M11.28125,8.3125 C10.2974928,8.3125 9.5,7.51500721 9.5,6.53125 C9.5,5.54749279 10.2974928,4.75 11.28125,4.75 C12.2650072,4.75 13.0625,5.54749279 13.0625,6.53125 C13.0625,7.00366687 12.8748331,7.45673478 12.540784,7.79078395 C12.2067348,8.12483313 11.7536669,8.3125 11.28125,8.3125 L11.28125,8.3125 Z M11.28125,5.9375 C10.9533309,5.9375 10.6875,6.20333093 10.6875,6.53125 C10.6875,6.85916907 10.9533309,7.125 11.28125,7.125 C11.6091691,7.125 11.875,6.85916907 11.875,6.53125 C11.875,6.20333093 11.6091691,5.9375 11.28125,5.9375 Z M15.5265625,2.375 L3.4734375,2.375 C2.86678722,2.375 2.375,2.86678722 2.375,3.4734375 L2.375,15.5265625 C2.375,15.8178862 2.4907279,16.0972781 2.6967249,16.3032751 C2.90272189,16.5092721 3.18211376,16.625 3.4734375,16.625 L15.5265625,16.625 C15.8178862,16.625 16.0972781,16.5092721 16.3032751,16.3032751 C16.5092721,16.0972781 16.625,15.8178862 16.625,15.5265625 L16.625,3.4734375 C16.625,2.86678722 16.1332128,2.375 15.5265625,2.375 Z M15.4375,3.5625 L15.4375,12.6646875 L13.216875,10.4440625 C12.9941377,10.2210773 12.6918922,10.0957846 12.3767187,10.0957846 C12.0615453,10.0957846 11.7592998,10.2210773 11.5365625,10.4440625 L10.6875,11.3109375 L7.421875,8.0690625 C7.19913769,7.84607726 6.89689223,7.7207846 6.58171875,7.7207846 C6.26654527,7.7207846 5.96429981,7.84607726 5.7415625,8.0690625 L3.5625,10.248125 L3.5625,3.5625 L15.4375,3.5625 Z M3.5625,15.4375 L3.5625,11.9225 L6.57875,8.90625 L6.57875,8.90625 L9.8265625,12.1540625 C10.0492998,12.3770477 10.3515453,12.5023404 10.6667188,12.5023404 C10.9818922,12.5023404 11.2841377,12.3770477 11.506875,12.1540625 L12.37375,11.28125 L12.37375,11.28125 L15.4375,14.345 L15.4375,15.4375 L3.5625,15.4375 Z" id="path-5"></path>
        <path d="M11.28125,8.3125 C10.2974928,8.3125 9.5,7.51500721 9.5,6.53125 C9.5,5.54749279 10.2974928,4.75 11.28125,4.75 C12.2650072,4.75 13.0625,5.54749279 13.0625,6.53125 C13.0625,7.00366687 12.8748331,7.45673478 12.540784,7.79078395 C12.2067348,8.12483313 11.7536669,8.3125 11.28125,8.3125 L11.28125,8.3125 Z M11.28125,5.9375 C10.9533309,5.9375 10.6875,6.20333093 10.6875,6.53125 C10.6875,6.85916907 10.9533309,7.125 11.28125,7.125 C11.6091691,7.125 11.875,6.85916907 11.875,6.53125 C11.875,6.20333093 11.6091691,5.9375 11.28125,5.9375 Z M15.5265625,2.375 L3.4734375,2.375 C2.86678722,2.375 2.375,2.86678722 2.375,3.4734375 L2.375,15.5265625 C2.375,15.8178862 2.4907279,16.0972781 2.6967249,16.3032751 C2.90272189,16.5092721 3.18211376,16.625 3.4734375,16.625 L15.5265625,16.625 C15.8178862,16.625 16.0972781,16.5092721 16.3032751,16.3032751 C16.5092721,16.0972781 16.625,15.8178862 16.625,15.5265625 L16.625,3.4734375 C16.625,2.86678722 16.1332128,2.375 15.5265625,2.375 Z M15.4375,3.5625 L15.4375,12.6646875 L13.216875,10.4440625 C12.9941377,10.2210773 12.6918922,10.0957846 12.3767187,10.0957846 C12.0615453,10.0957846 11.7592998,10.2210773 11.5365625,10.4440625 L10.6875,11.3109375 L7.421875,8.0690625 C7.19913769,7.84607726 6.89689223,7.7207846 6.58171875,7.7207846 C6.26654527,7.7207846 5.96429981,7.84607726 5.7415625,8.0690625 L3.5625,10.248125 L3.5625,3.5625 L15.4375,3.5625 Z M3.5625,15.4375 L3.5625,11.9225 L6.57875,8.90625 L6.57875,8.90625 L9.8265625,12.1540625 C10.0492998,12.3770477 10.3515453,12.5023404 10.6667188,12.5023404 C10.9818922,12.5023404 11.2841377,12.3770477 11.506875,12.1540625 L12.37375,11.28125 L12.37375,11.28125 L15.4375,14.345 L15.4375,15.4375 L3.5625,15.4375 Z" id="path-7"></path>
        <path d="M11.28125,8.3125 C10.2974928,8.3125 9.5,7.51500721 9.5,6.53125 C9.5,5.54749279 10.2974928,4.75 11.28125,4.75 C12.2650072,4.75 13.0625,5.54749279 13.0625,6.53125 C13.0625,7.00366687 12.8748331,7.45673478 12.540784,7.79078395 C12.2067348,8.12483313 11.7536669,8.3125 11.28125,8.3125 L11.28125,8.3125 Z M11.28125,5.9375 C10.9533309,5.9375 10.6875,6.20333093 10.6875,6.53125 C10.6875,6.85916907 10.9533309,7.125 11.28125,7.125 C11.6091691,7.125 11.875,6.85916907 11.875,6.53125 C11.875,6.20333093 11.6091691,5.9375 11.28125,5.9375 Z M15.5265625,2.375 L3.4734375,2.375 C2.86678722,2.375 2.375,2.86678722 2.375,3.4734375 L2.375,15.5265625 C2.375,15.8178862 2.4907279,16.0972781 2.6967249,16.3032751 C2.90272189,16.5092721 3.18211376,16.625 3.4734375,16.625 L15.5265625,16.625 C15.8178862,16.625 16.0972781,16.5092721 16.3032751,16.3032751 C16.5092721,16.0972781 16.625,15.8178862 16.625,15.5265625 L16.625,3.4734375 C16.625,2.86678722 16.1332128,2.375 15.5265625,2.375 Z M15.4375,3.5625 L15.4375,12.6646875 L13.216875,10.4440625 C12.9941377,10.2210773 12.6918922,10.0957846 12.3767187,10.0957846 C12.0615453,10.0957846 11.7592998,10.2210773 11.5365625,10.4440625 L10.6875,11.3109375 L7.421875,8.0690625 C7.19913769,7.84607726 6.89689223,7.7207846 6.58171875,7.7207846 C6.26654527,7.7207846 5.96429981,7.84607726 5.7415625,8.0690625 L3.5625,10.248125 L3.5625,3.5625 L15.4375,3.5625 Z M3.5625,15.4375 L3.5625,11.9225 L6.57875,8.90625 L6.57875,8.90625 L9.8265625,12.1540625 C10.0492998,12.3770477 10.3515453,12.5023404 10.6667188,12.5023404 C10.9818922,12.5023404 11.2841377,12.3770477 11.506875,12.1540625 L12.37375,11.28125 L12.37375,11.28125 L15.4375,14.345 L15.4375,15.4375 L3.5625,15.4375 Z" id="path-9"></path>
    </defs>
    <g id="image-card" stroke="none" stroke-width="1" fill="none" fill-rule="evenodd">
        <rect fill="#FFFFFF" x="0" y="0" width="320" height="180"></rect>
        <g id="Group-7" transform="translate(76.000000, 32.000000)" fill="#C6C6C6" stroke="#FFFFFF">
            <rect id="Rectangle-Copy-230" x="0" y="0" width="55.311853" height="56"></rect>
            <rect id="Rectangle-Copy-231" x="55.311853" y="55.311853" width="55.311853" height="55.311853"></rect>
            <rect id="Rectangle-Copy-232" x="0" y="55.311853" width="111.910028" height="55.311853"></rect>
            <rect id="Rectangle-Copy-229" x="55" y="0" width="55.311853" height="111.08035"></rect>
            <rect id="Rectangle-Copy-234" x="110" y="56" width="55.311853" height="55.311853"></rect>
            <rect id="Rectangle-Copy-235" x="109.980545" y="0" width="55.311853" height="56"></rect>
        </g>
        <g id="icon/formatting/image/16-copy-4" transform="translate(94.000000, 52.000000)">
            <mask id="mask-2" fill="white">
                <use xlink:href="#path-1"></use>
            </mask>
            <use id="icon-color" fill="#8E8E93" xlink:href="#path-1"></use>
        </g>
        <g id="icon/formatting/image/16-copy-4" transform="translate(203.000000, 52.000000)">
            <mask id="mask-4" fill="white">
                <use xlink:href="#path-3"></use>
            </mask>
            <use id="icon-color" fill="#8E8E93" xlink:href="#path-3"></use>
        </g>
        <g id="icon/formatting/image/16-copy-4" transform="translate(149.000000, 79.000000)">
            <mask id="mask-6" fill="white">
                <use xlink:href="#path-5"></use>
            </mask>
            <use id="icon-color" fill="#8E8E93" xlink:href="#path-5"></use>
        </g>
        <g id="icon/formatting/image/16-copy-4" transform="translate(94.000000, 106.000000)">
            <mask id="mask-8" fill="white">
                <use xlink:href="#path-7"></use>
            </mask>
            <use id="icon-color" fill="#8E8E93" xlink:href="#path-7"></use>
        </g>
        <g id="icon/formatting/image/16-copy-4" transform="translate(203.000000, 106.000000)">
            <mask id="mask-10" fill="white">
                <use xlink:href="#path-9"></use>
            </mask>
            <use id="icon-color" fill="#8E8E93" xlink:href="#path-9"></use>
        </g>
    </g>
</svg>