<?xml version="1.0" encoding="UTF-8"?>
<svg width="320px" height="180px" viewBox="0 0 320 180" version="1.1" xmlns="http://www.w3.org/2000/svg" xmlns:xlink="http://www.w3.org/1999/xlink">
    <title>inline-notification</title>
    <defs>
        <circle id="path-1" cx="5" cy="5" r="4.375"></circle>
        <path d="M5.359375,4.025 L5.359375,6.8375 L6.25625,6.8375 L6.25625,7.540625 L3.75625,7.540625 L3.75625,6.8375 L4.65625,6.8375 L4.65625,4.728125 L4.06875,4.728125 L4.06875,4.025 L5.359375,4.025 Z M5,2.1875 C5.25888348,2.1875 5.46875,2.39736652 5.46875,2.65625 C5.46875,2.91513348 5.25888348,3.125 5,3.125 C4.74111652,3.125 4.53125,2.91513348 4.53125,2.65625 C4.53125,2.39736652 4.74111652,2.1875 5,2.1875 Z" id="path-3"></path>
        <circle id="path-5" cx="5" cy="5" r="4.375"></circle>
        <polygon id="path-7" points="4.375 6.71875 2.8125 5.15625 3.309375 4.6875 4.375 5.734375 6.690625 3.4375 7.1875 3.93125"></polygon>
        <circle id="path-9" cx="5" cy="5" r="4.375"></circle>
        <path d="M5.03125,6.875 C5.30739237,6.875 5.53125,7.08486652 5.53125,7.34375 C5.53125,7.60263348 5.30739237,7.8125 5.03125,7.8125 C4.75510763,7.8125 4.53125,7.60263348 4.53125,7.34375 C4.53125,7.08486652 4.75510763,6.875 5.03125,6.875 Z M5.40791667,2.5 L5.40791667,5.9375 L4.65791667,5.9375 L4.65791667,2.5 L5.40791667,2.5 Z" id="path-11"></path>
    </defs>
    <g id="inline-notification" stroke="none" stroke-width="1" fill="none" fill-rule="evenodd">
        <rect id="Rectangle-2-Copy-27" fill="#EDF5FF" x="87" y="35" width="146" height="32"></rect>
        <g id="icon/status/info-filled/16" transform="translate(96.000000, 43.000000)">
            <mask id="mask-2" fill="white">
                <use xlink:href="#path-1"></use>
            </mask>
            <use id="icon-color" fill="#054ADA" xlink:href="#path-1"></use>
            <mask id="mask-4" fill="white">
                <use xlink:href="#path-3"></use>
            </mask>
            <use id="icon-color" fill="#FFFFFF" xlink:href="#path-3"></use>
        </g>
        <rect id="Rectangle-2-Copy-28" fill="#DEFBE6" x="87" y="74" width="146" height="32"></rect>
        <rect id="Path-Copy-2" fill="#0043CE" x="87" y="35" width="2" height="32"></rect>
        <rect id="Path-Copy-3" fill="#24A148" x="87" y="74" width="2" height="32"></rect>
        <g id="icon/status/checkmark-filled/16" transform="translate(96.000000, 82.000000)">
            <mask id="mask-6" fill="white">
                <use xlink:href="#path-5"></use>
            </mask>
            <use id="icon-color" fill="#24A148" xlink:href="#path-5"></use>
            <mask id="mask-8" fill="white">
                <use xlink:href="#path-7"></use>
            </mask>
            <use id="icon-color" fill="#FFFFFF" xlink:href="#path-7"></use>
        </g>
        <rect id="Rectangle-Copy-14" fill="#A8A8A8" style="mix-blend-mode: multiply;" x="112" y="46" width="59" height="4"></rect>
        <rect id="Rectangle-Copy-15" fill="#A8A8A8" style="mix-blend-mode: multiply;" x="112" y="85" width="59" height="4"></rect>
        <rect id="Rectangle-Copy-24" fill="#C6C6C6" style="mix-blend-mode: multiply;" x="112" y="53" width="102" height="4"></rect>
        <rect id="Rectangle-Copy-25" fill="#C6C6C6" style="mix-blend-mode: multiply;" x="112" y="92" width="102" height="4"></rect>
        <rect id="Rectangle-2-Copy-29" fill="#FEF8E5" x="87" y="113" width="146" height="32"></rect>
        <rect id="Path-Copy-4" fill="#F1C21B" x="87" y="113" width="2" height="32"></rect>
        <g id="icon/status/warning-filled/16" transform="translate(96.000000, 121.000000)">
            <mask id="mask-10" fill="white">
                <use xlink:href="#path-9"></use>
            </mask>
            <use id="icon-color" fill="#FDD13A" xlink:href="#path-9"></use>
            <mask id="mask-12" fill="white">
                <use xlink:href="#path-11"></use>
            </mask>
            <use id="icon-color" fill="#000000" xlink:href="#path-11"></use>
        </g>
        <rect id="Rectangle-Copy-16" fill="#A8A8A8" style="mix-blend-mode: multiply;" x="112" y="124" width="59" height="4"></rect>
        <rect id="Rectangle-Copy-26" fill="#C6C6C6" style="mix-blend-mode: multiply;" x="112" y="131" width="102" height="4"></rect>
    </g>
</svg>