<?xml version="1.0" encoding="UTF-8"?>
<svg width="320px" height="180px" viewBox="0 0 320 180" version="1.1" xmlns="http://www.w3.org/2000/svg" xmlns:xlink="http://www.w3.org/1999/xlink">
    <title>link-with-icon</title>
    <defs>
        <polygon id="path-1" points="7.875 2.625 7.258125 3.241875 10.574375 6.5625 1.3125 6.5625 1.3125 7.4375 10.574375 7.4375 7.258125 10.758125 7.875 11.375 12.25 7"></polygon>
    </defs>
    <g id="link-with-icon" stroke="none" stroke-width="1" fill="none" fill-rule="evenodd">
        <g id="Link-with-icon-Copy" transform="translate(114.116000, 87.120000)" fill="#0F62FE" fill-rule="nonzero">
            <polygon id="Path" points="0 8.88 0 0.504 1.008 0.504 1.008 7.992 4.572 7.992 4.572 8.88"></polygon>
            <path d="M6.396,1.236 C6.188,1.236 6.038,1.186 5.946,1.086 C5.854,0.986 5.808,0.856 5.808,0.696 L5.808,0.54 C5.808,0.38 5.854,0.25 5.946,0.15 C6.038,0.05 6.188,0 6.396,0 C6.604,0 6.754,0.05 6.846,0.15 C6.938,0.25 6.984,0.38 6.984,0.54 L6.984,0.696 C6.984,0.856 6.938,0.986 6.846,1.086 C6.754,1.186 6.604,1.236 6.396,1.236 Z M5.916,2.688 L6.876,2.688 L6.876,8.88 L5.916,8.88 L5.916,2.688 Z" id="Shape"></path>
            <path d="M8.916,8.88 L8.916,2.688 L9.876,2.688 L9.876,3.696 L9.924,3.696 C10.076,3.344 10.29,3.064 10.566,2.856 C10.842,2.648 11.212,2.544 11.676,2.544 C12.316,2.544 12.822,2.75 13.194,3.162 C13.566,3.574 13.752,4.156 13.752,4.908 L13.752,8.88 L12.792,8.88 L12.792,5.076 C12.792,3.964 12.324,3.408 11.388,3.408 C11.196,3.408 11.01,3.432 10.83,3.48 C10.65,3.528 10.488,3.6 10.344,3.696 C10.2,3.792 10.086,3.914 10.002,4.062 C9.918,4.21 9.876,4.384 9.876,4.584 L9.876,8.88 L8.916,8.88 Z" id="Path"></path>
            <polygon id="Path" points="15.732 0 16.692 0 16.692 5.628 16.74 5.628 17.688 4.572 19.44 2.688 20.604 2.688 18.312 5.136 20.832 8.88 19.668 8.88 17.616 5.724 16.692 6.672 16.692 8.88 15.732 8.88"></polygon>
            <polygon id="Path" points="24.24 2.688 25.176 2.688 25.836 5.364 26.496 8.076 26.52 8.076 27.276 5.364 28.056 2.688 28.908 2.688 29.712 5.364 30.48 8.076 30.504 8.076 31.14 5.364 31.812 2.688 32.712 2.688 31.068 8.88 29.88 8.88 29.016 5.904 28.476 4.02 28.452 4.02 27.924 5.904 27.06 8.88 25.896 8.88"></polygon>
            <path d="M34.584,1.236 C34.376,1.236 34.226,1.186 34.134,1.086 C34.042,0.986 33.996,0.856 33.996,0.696 L33.996,0.54 C33.996,0.38 34.042,0.25 34.134,0.15 C34.226,0.05 34.376,0 34.584,0 C34.792,0 34.942,0.05 35.034,0.15 C35.126,0.25 35.172,0.38 35.172,0.54 L35.172,0.696 C35.172,0.856 35.126,0.986 35.034,1.086 C34.942,1.186 34.792,1.236 34.584,1.236 Z M34.104,2.688 L35.064,2.688 L35.064,8.88 L34.104,8.88 L34.104,2.688 Z" id="Shape"></path>
            <path d="M38.472,8.88 C38.136,8.88 37.882,8.786 37.71,8.598 C37.538,8.41 37.452,8.164 37.452,7.86 L37.452,3.528 L36.432,3.528 L36.432,2.688 L37.008,2.688 C37.216,2.688 37.358,2.646 37.434,2.562 C37.51,2.478 37.548,2.332 37.548,2.124 L37.548,0.972 L38.412,0.972 L38.412,2.688 L39.768,2.688 L39.768,3.528 L38.412,3.528 L38.412,8.04 L39.672,8.04 L39.672,8.88 L38.472,8.88 Z" id="Path"></path>
            <path d="M41.316,0 L42.276,0 L42.276,3.696 L42.324,3.696 C42.476,3.344 42.69,3.064 42.966,2.856 C43.242,2.648 43.612,2.544 44.076,2.544 C44.716,2.544 45.222,2.75 45.594,3.162 C45.966,3.574 46.152,4.156 46.152,4.908 L46.152,8.88 L45.192,8.88 L45.192,5.076 C45.192,3.964 44.724,3.408 43.788,3.408 C43.596,3.408 43.41,3.432 43.23,3.48 C43.05,3.528 42.888,3.6 42.744,3.696 C42.6,3.792 42.486,3.914 42.402,4.062 C42.318,4.21 42.276,4.384 42.276,4.584 L42.276,8.88 L41.316,8.88 L41.316,0 Z" id="Path"></path>
            <path d="M51.444,1.236 C51.236,1.236 51.086,1.186 50.994,1.086 C50.902,0.986 50.856,0.856 50.856,0.696 L50.856,0.54 C50.856,0.38 50.902,0.25 50.994,0.15 C51.086,0.05 51.236,0 51.444,0 C51.652,0 51.802,0.05 51.894,0.15 C51.986,0.25 52.032,0.38 52.032,0.54 L52.032,0.696 C52.032,0.856 51.986,0.986 51.894,1.086 C51.802,1.186 51.652,1.236 51.444,1.236 Z M50.964,2.688 L51.924,2.688 L51.924,8.88 L50.964,8.88 L50.964,2.688 Z" id="Shape"></path>
            <path d="M56.268,9.024 C55.836,9.024 55.448,8.948 55.104,8.796 C54.76,8.644 54.47,8.428 54.234,8.148 C53.998,7.868 53.818,7.528 53.694,7.128 C53.57,6.728 53.508,6.28 53.508,5.784 C53.508,5.288 53.57,4.84 53.694,4.44 C53.818,4.04 53.998,3.7 54.234,3.42 C54.47,3.14 54.76,2.924 55.104,2.772 C55.448,2.62 55.836,2.544 56.268,2.544 C56.884,2.544 57.378,2.678 57.75,2.946 C58.122,3.214 58.4,3.564 58.584,3.996 L57.78,4.404 C57.668,4.084 57.484,3.836 57.228,3.66 C56.972,3.484 56.652,3.396 56.268,3.396 C55.98,3.396 55.728,3.442 55.512,3.534 C55.296,3.626 55.116,3.754 54.972,3.918 C54.828,4.082 54.72,4.278 54.648,4.506 C54.576,4.734 54.54,4.984 54.54,5.256 L54.54,6.312 C54.54,6.856 54.686,7.302 54.978,7.65 C55.27,7.998 55.7,8.172 56.268,8.172 C57.044,8.172 57.604,7.812 57.948,7.092 L58.644,7.56 C58.444,8.008 58.146,8.364 57.75,8.628 C57.354,8.892 56.86,9.024 56.268,9.024 Z" id="Path"></path>
            <path d="M62.34,9.024 C61.924,9.024 61.544,8.948 61.2,8.796 C60.856,8.644 60.562,8.426 60.318,8.142 C60.074,7.858 59.884,7.518 59.748,7.122 C59.612,6.726 59.544,6.28 59.544,5.784 C59.544,5.296 59.612,4.852 59.748,4.452 C59.884,4.052 60.074,3.71 60.318,3.426 C60.562,3.142 60.856,2.924 61.2,2.772 C61.544,2.62 61.924,2.544 62.34,2.544 C62.756,2.544 63.134,2.62 63.474,2.772 C63.814,2.924 64.108,3.142 64.356,3.426 C64.604,3.71 64.796,4.052 64.932,4.452 C65.068,4.852 65.136,5.296 65.136,5.784 C65.136,6.28 65.068,6.726 64.932,7.122 C64.796,7.518 64.604,7.858 64.356,8.142 C64.108,8.426 63.814,8.644 63.474,8.796 C63.134,8.948 62.756,9.024 62.34,9.024 Z M62.34,8.172 C62.86,8.172 63.284,8.012 63.612,7.692 C63.94,7.372 64.104,6.884 64.104,6.228 L64.104,5.34 C64.104,4.684 63.94,4.196 63.612,3.876 C63.284,3.556 62.86,3.396 62.34,3.396 C61.82,3.396 61.396,3.556 61.068,3.876 C60.74,4.196 60.576,4.684 60.576,5.34 L60.576,6.228 C60.576,6.884 60.74,7.372 61.068,7.692 C61.396,8.012 61.82,8.172 62.34,8.172 Z" id="Shape"></path>
            <path d="M66.72,8.88 L66.72,2.688 L67.68,2.688 L67.68,3.696 L67.728,3.696 C67.88,3.344 68.094,3.064 68.37,2.856 C68.646,2.648 69.016,2.544 69.48,2.544 C70.12,2.544 70.626,2.75 70.998,3.162 C71.37,3.574 71.556,4.156 71.556,4.908 L71.556,8.88 L70.596,8.88 L70.596,5.076 C70.596,3.964 70.128,3.408 69.192,3.408 C69,3.408 68.814,3.432 68.634,3.48 C68.454,3.528 68.292,3.6 68.148,3.696 C68.004,3.792 67.89,3.914 67.806,4.062 C67.722,4.21 67.68,4.384 67.68,4.584 L67.68,8.88 L66.72,8.88 Z" id="Path"></path>
        </g>
        <g id="icons/arrows/ibm-forward-link-copy" transform="translate(193.000000, 85.000000)">
            <mask id="mask-2" fill="white">
                <use xlink:href="#path-1"></use>
            </mask>
            <use id="icon-color" fill="#0F62FE" xlink:href="#path-1"></use>
        </g>
    </g>
</svg>