<?xml version="1.0" encoding="UTF-8"?>
<svg width="320px" height="180px" viewBox="0 0 320 180" version="1.1" xmlns="http://www.w3.org/2000/svg" xmlns:xlink="http://www.w3.org/1999/xlink">
    <title>link</title>
    <g id="link" stroke="none" stroke-width="1" fill="none" fill-rule="evenodd">
        <g id="Group-36-Copy" transform="translate(133.264000, 86.120000)">
            <g id="Text-link-Copy-8" fill="#0062FF" fill-rule="nonzero">
                <polygon id="Path" points="3.672 1.392 3.672 8.88 2.664 8.88 2.664 1.392 0 1.392 0 0.504 6.336 0.504 6.336 1.392"></polygon>
                <path d="M9.948,9.024 C9.524,9.024 9.142,8.948 8.802,8.796 C8.462,8.644 8.17,8.426 7.926,8.142 C7.682,7.858 7.494,7.518 7.362,7.122 C7.23,6.726 7.164,6.28 7.164,5.784 C7.164,5.296 7.23,4.852 7.362,4.452 C7.494,4.052 7.682,3.71 7.926,3.426 C8.17,3.142 8.462,2.924 8.802,2.772 C9.142,2.62 9.524,2.544 9.948,2.544 C10.364,2.544 10.736,2.62 11.064,2.772 C11.392,2.924 11.672,3.134 11.904,3.402 C12.136,3.67 12.314,3.988 12.438,4.356 C12.562,4.724 12.624,5.128 12.624,5.568 L12.624,6.024 L8.172,6.024 L8.172,6.312 C8.172,6.576 8.214,6.822 8.298,7.05 C8.382,7.278 8.502,7.476 8.658,7.644 C8.814,7.812 9.006,7.944 9.234,8.04 C9.462,8.136 9.72,8.184 10.008,8.184 C10.4,8.184 10.742,8.092 11.034,7.908 C11.326,7.724 11.552,7.46 11.712,7.116 L12.396,7.608 C12.196,8.032 11.884,8.374 11.46,8.634 C11.036,8.894 10.532,9.024 9.948,9.024 Z M9.948,3.348 C9.684,3.348 9.444,3.394 9.228,3.486 C9.012,3.578 8.826,3.708 8.67,3.876 C8.514,4.044 8.392,4.242 8.304,4.47 C8.216,4.698 8.172,4.948 8.172,5.22 L8.172,5.304 L11.592,5.304 L11.592,5.172 C11.592,4.62 11.442,4.178 11.142,3.846 C10.842,3.514 10.444,3.348 9.948,3.348 Z" id="Shape"></path>
                <polygon id="Path" points="13.44 8.88 15.732 5.76 13.536 2.688 14.664 2.688 16.236 4.992 16.272 4.992 17.904 2.688 18.972 2.688 16.788 5.688 19.02 8.88 17.892 8.88 16.284 6.456 16.248 6.456 14.508 8.88"></polygon>
                <path d="M21.66,8.88 C21.324,8.88 21.07,8.786 20.898,8.598 C20.726,8.41 20.64,8.164 20.64,7.86 L20.64,3.528 L19.62,3.528 L19.62,2.688 L20.196,2.688 C20.404,2.688 20.546,2.646 20.622,2.562 C20.698,2.478 20.736,2.332 20.736,2.124 L20.736,0.972 L21.6,0.972 L21.6,2.688 L22.956,2.688 L22.956,3.528 L21.6,3.528 L21.6,8.04 L22.86,8.04 L22.86,8.88 L21.66,8.88 Z" id="Path"></path>
                <path d="M28.356,8.88 C28.02,8.88 27.766,8.786 27.594,8.598 C27.422,8.41 27.336,8.172 27.336,7.884 L27.336,0 L28.296,0 L28.296,8.04 L29.208,8.04 L29.208,8.88 L28.356,8.88 Z" id="Path"></path>
                <path d="M31.08,1.236 C30.872,1.236 30.722,1.186 30.63,1.086 C30.538,0.986 30.492,0.856 30.492,0.696 L30.492,0.54 C30.492,0.38 30.538,0.25 30.63,0.15 C30.722,0.05 30.872,0 31.08,0 C31.288,0 31.438,0.05 31.53,0.15 C31.622,0.25 31.668,0.38 31.668,0.54 L31.668,0.696 C31.668,0.856 31.622,0.986 31.53,1.086 C31.438,1.186 31.288,1.236 31.08,1.236 Z M30.6,2.688 L31.56,2.688 L31.56,8.88 L30.6,8.88 L30.6,2.688 Z" id="Shape"></path>
                <path d="M33.6,8.88 L33.6,2.688 L34.56,2.688 L34.56,3.696 L34.608,3.696 C34.76,3.344 34.974,3.064 35.25,2.856 C35.526,2.648 35.896,2.544 36.36,2.544 C37,2.544 37.506,2.75 37.878,3.162 C38.25,3.574 38.436,4.156 38.436,4.908 L38.436,8.88 L37.476,8.88 L37.476,5.076 C37.476,3.964 37.008,3.408 36.072,3.408 C35.88,3.408 35.694,3.432 35.514,3.48 C35.334,3.528 35.172,3.6 35.028,3.696 C34.884,3.792 34.77,3.914 34.686,4.062 C34.602,4.21 34.56,4.384 34.56,4.584 L34.56,8.88 L33.6,8.88 Z" id="Path"></path>
                <polygon id="Path" points="40.416 0 41.376 0 41.376 5.628 41.424 5.628 42.372 4.572 44.124 2.688 45.288 2.688 42.996 5.136 45.516 8.88 44.352 8.88 42.3 5.724 41.376 6.672 41.376 8.88 40.416 8.88"></polygon>
            </g>
            <line x1="0.736" y1="14.38" x2="46.736" y2="14.38" id="Path-3" stroke="#0062FF"></line>
        </g>
    </g>
</svg>