<?xml version="1.0" encoding="UTF-8"?>
<svg width="320px" height="180px" viewBox="0 0 320 180" version="1.1" xmlns="http://www.w3.org/2000/svg" xmlns:xlink="http://www.w3.org/1999/xlink">
    <title>markdown</title>
    <defs>
        <linearGradient x1="2.74828823%" y1="50%" x2="100%" y2="50%" id="linearGradient-1">
            <stop stop-color="#262626" stop-opacity="0" offset="0%"></stop>
            <stop stop-color="#262626" offset="100%"></stop>
        </linearGradient>
        <path d="M0.625,4.375 L0,4.375 L0,0.625 C0,0.279822031 0.279822031,0 0.625,0 L4.375,0 L4.375,0.625 L0.625,0.625 L0.625,4.375 Z M7.5,2.5 L7.5,7.5 L2.5,7.5 L2.5,2.5 L7.5,2.5 L7.5,2.5 Z M7.5,1.875 L2.5,1.875 C2.15482203,1.875 1.875,2.15482203 1.875,2.5 L1.875,7.5 C1.875,7.84517797 2.15482203,8.125 2.5,8.125 L7.5,8.125 C7.84517797,8.125 8.125,7.84517797 8.125,7.5 L8.125,2.5 C8.125,2.15482203 7.84517797,1.875 7.5,1.875 Z" id="path-2"></path>
    </defs>
    <g id="markdown" stroke="none" stroke-width="1" fill="none" fill-rule="evenodd">
        <g id="Group" transform="translate(82.000000, 49.000000)">
            <g id="Group-25" transform="translate(98.830058, 31.976744)" fill="#FFFFFF" fill-rule="nonzero">
                <polygon id="Shape" points="4.95953757 4.04651163 4.95953757 0 4.05780347 0 4.05780347 4.04651163 0 4.04651163 0 4.94573643 4.05780347 4.94573643 4.05780347 8.99224806 4.95953757 8.99224806 4.95953757 4.94573643 9.01734104 4.94573643 9.01734104 4.04651163"></polygon>
            </g>
            <rect id="Rectangle" fill="#262626" x="0" y="0" width="156" height="33"></rect>
            <rect id="Rectangle-Copy" fill="#262626" x="0" y="20" width="156" height="60"></rect>
            <rect id="Rectangle-3-Copy-20" fill="#C6C6C6" x="20.1156069" y="19.9922481" width="38.583815" height="4"></rect>
            <rect id="Rectangle-3-Copy-24" fill="#C6C6C6" x="20.1156069" y="10.9922481" width="74.583815" height="4"></rect>
            <rect id="Rectangle-3-Copy-22" fill="#C6C6C6" x="31.1156069" y="46.9922481" width="38.583815" height="4"></rect>
            <rect id="Rectangle-3-Copy-76" fill="#C6C6C6" x="31" y="29" width="59.583815" height="4"></rect>
            <rect id="Rectangle-3-Copy-86" fill="#C6C6C6" x="31" y="56" width="59.583815" height="4"></rect>
            <rect id="Rectangle-3-Copy-77" fill="#C6C6C6" x="31" y="38" width="31.583815" height="4"></rect>
            <rect id="Rectangle-3-Copy-87" fill="#C6C6C6" x="31" y="65" width="31.583815" height="4"></rect>
            <rect id="Rectangle-3-Copy-78" fill="#C6C6C6" x="60.1156069" y="37.9922481" width="19.583815" height="4"></rect>
            <rect id="Rectangle-3-Copy-88" fill="#C6C6C6" x="60.1156069" y="64.9922481" width="19.583815" height="4"></rect>
            <rect id="Rectangle-3-Copy-79" fill="#C6C6C6" x="85.1156069" y="37.9922481" width="6.583815" height="4"></rect>
            <rect id="Rectangle-3-Copy-89" fill="#C6C6C6" x="85.1156069" y="64.9922481" width="6.583815" height="4"></rect>
            <rect id="Rectangle-3-Copy-83" fill="#8D8D8D" x="7.11560694" y="19.9922481" width="5.583815" height="4"></rect>
            <rect id="Rectangle-3-Copy-95" fill="#8D8D8D" x="7.11560694" y="10.9922481" width="5.583815" height="4"></rect>
            <rect id="Rectangle-3-Copy-90" fill="#8D8D8D" x="7.11560694" y="46.9922481" width="5.583815" height="4"></rect>
            <rect id="Rectangle-3-Copy-84" fill="#8D8D8D" x="7" y="29" width="5.583815" height="4"></rect>
            <rect id="Rectangle-3-Copy-91" fill="#8D8D8D" x="7" y="56" width="5.583815" height="4"></rect>
            <rect id="Rectangle-3-Copy-85" fill="#8D8D8D" x="7" y="38" width="5.583815" height="4"></rect>
            <rect id="Rectangle-3-Copy-92" fill="#8D8D8D" x="7" y="65" width="5.583815" height="4"></rect>
            <rect id="Rectangle-3-Copy-80" fill="#C6C6C6" x="87.1156069" y="28.9922481" width="22" height="4"></rect>
            <rect id="Rectangle-3-Copy-93" fill="#C6C6C6" x="87.1156069" y="55.9922481" width="22" height="4"></rect>
            <rect id="Rectangle-3-Copy-94" fill="#C6C6C6" x="114.115607" y="55.9922481" width="22" height="4"></rect>
            <rect id="Rectangle-3-Copy-21" fill="#C6C6C6" x="64.1156069" y="19.9922481" width="13.583815" height="4"></rect>
            <rect id="Rectangle-3-Copy-23" fill="#C6C6C6" x="74.1156069" y="46.9922481" width="50.583815" height="4"></rect>
            <rect id="Rectangle-3-Copy-81" fill="#C6C6C6" x="107.115607" y="28.9922481" width="20.583815" height="4"></rect>
            <rect id="Rectangle-3-Copy-82" fill="#C6C6C6" x="133.115607" y="28.9922481" width="17.583815" height="4"></rect>
            <rect id="Rectangle-2-Copy-23" fill="url(#linearGradient-1)" x="105" y="23" width="47" height="54" rx="2"></rect>
        </g>
        <rect id="Rectangle-2-Copy-16" fill="#262626" x="232" y="65" width="6" height="59"></rect>
        <g id="icon/file/copy/20-copy-7" transform="translate(218.000000, 56.000000)">
            <g id="copy" transform="translate(1.250000, 1.250000)">
                <mask id="mask-3" fill="white">
                    <use xlink:href="#path-2"></use>
                </mask>
                <use id="Mask" fill="#000000" fill-rule="nonzero" xlink:href="#path-2"></use>
                <g id="Group" mask="url(#mask-3)">
                    <g transform="translate(-1.250000, -1.250000)" id="icon-color">
                        <rect id="Rectangle-3-Copy" fill="#F3F3F3" x="0" y="0" width="20" height="20"></rect>
                    </g>
                </g>
            </g>
            <rect id="transparent-rectangle" x="0" y="0" width="10" height="10"></rect>
        </g>
    </g>
</svg>