<?xml version="1.0" encoding="UTF-8"?>
<svg width="320px" height="180px" viewBox="0 0 320 180" version="1.1" xmlns="http://www.w3.org/2000/svg" xmlns:xlink="http://www.w3.org/1999/xlink">
    <title>multi-select</title>
    <defs>
        <rect id="path-1" x="2" y="32" width="174" height="66"></rect>
        <filter x="-5.7%" y="-12.1%" width="111.5%" height="130.3%" filterUnits="objectBoundingBox" id="filter-2">
            <feOffset dx="0" dy="2" in="SourceAlpha" result="shadowOffsetOuter1"></feOffset>
            <feGaussianBlur stdDeviation="3" in="shadowOffsetOuter1" result="shadowBlurOuter1"></feGaussianBlur>
            <feColorMatrix values="0 0 0 0 0.862745106   0 0 0 0 0.862745106   0 0 0 0 0.862745106  0 0 0 1 0" type="matrix" in="shadowBlurOuter1"></feColorMatrix>
        </filter>
        <polygon id="path-3" points="3.75 0 7.5 3.75 6.96975 4.28025 3.75 1.0605 0.53025 4.28025 0 3.75"></polygon>
        <rect id="path-5" x="0" y="0" width="9" height="9" rx="2"></rect>
        <polygon id="path-7" points="1.875 3.9375 0 2.0775 0.59625 1.48875 1.875 2.75625 4.65375 0 5.25 0.5925"></polygon>
    </defs>
    <g id="multi-select" stroke="none" stroke-width="1" fill="none" fill-rule="evenodd">
        <g id="Group-25-Copy-2" transform="translate(72.000000, 41.000000)">
            <polygon id="Shape" fill="#FFFFFF" fill-rule="nonzero" points="143.875 15.625 143.875 10 142.625 10 142.625 15.625 137 15.625 137 16.875 142.625 16.875 142.625 22.5 143.875 22.5 143.875 16.875 149.5 16.875 149.5 15.625"></polygon>
            <polygon id="Rectangle-Copy-22" fill="#DCDCDC" points="0 0 176 0 176 24 0 24"></polygon>
            <g id="Rectangle">
                <use fill="black" fill-opacity="1" filter="url(#filter-2)" xlink:href="#path-1"></use>
                <use fill="#D8D8D8" fill-rule="evenodd" xlink:href="#path-1"></use>
            </g>
            <polygon id="Rectangle-Copy-24" fill="#F3F3F3" points="0 24 176 24 176 48 0 48"></polygon>
            <polygon id="Rectangle-Copy-28" fill="#F3F3F3" points="0 47 176 47 176 73 0 73"></polygon>
            <rect id="Rectangle-8" fill="#C6C6C6" x="12" y="48" width="152" height="1"></rect>
            <polygon id="Rectangle-Copy-29" fill="#F3F3F3" points="0 70 176 70 176 98 0 98"></polygon>
            <rect id="Rectangle-8-Copy" fill="#C6C6C6" x="12" y="73" width="152" height="1"></rect>
            <g id="Group" transform="translate(152.000000, 6.000000)">
                <g id="chevron--up" transform="translate(2.250000, 3.750000)">
                    <mask id="mask-4" fill="white">
                        <use xlink:href="#path-3"></use>
                    </mask>
                    <use id="Mask" fill="#000000" fill-rule="nonzero" xlink:href="#path-3"></use>
                    <g id="Group" mask="url(#mask-4)">
                        <g transform="translate(-2.250000, -3.750000)" id="icon-color">
                            <rect id="Rectangle" fill="#171717" x="0" y="0" width="30" height="30"></rect>
                        </g>
                    </g>
                </g>
                <polygon id="transparent-rectangle" transform="translate(6.000000, 6.000000) rotate(-90.000000) translate(-6.000000, -6.000000) " points="8.8817842e-16 7.34788079e-16 12 7.34788079e-16 12 12 8.8817842e-16 12"></polygon>
            </g>
            <rect id="Rectangle-3-Copy-5" fill="#8D8D8D" x="42" y="10" width="66" height="5"></rect>
            <rect id="Rectangle" fill="#161616" x="11" y="6" width="22" height="12" rx="6"></rect>
            <rect id="Rectangle-3-Copy-6" fill="#A8A8A8" opacity="0.754768008" x="31" y="34" width="99" height="5"></rect>
            <rect id="Rectangle-3-Copy-7" fill="#A8A8A8" opacity="0.754768008" x="31" y="59" width="75" height="5"></rect>
            <rect id="Rectangle-3-Copy-8" fill="#A8A8A8" opacity="0.754768008" x="31" y="84" width="99" height="5"></rect>
        </g>
        <g id="Group" transform="translate(83.000000, 121.000000)">
            <g id="checkbox--checked--filled" transform="translate(1.500000, 1.500000)">
                <g id="icon-color-2">
                    <mask id="mask-6" fill="white">
                        <use xlink:href="#path-5"></use>
                    </mask>
                    <use id="Mask" fill="#000000" fill-rule="nonzero" xlink:href="#path-5"></use>
                    <g id="Group" mask="url(#mask-6)">
                        <g transform="translate(-1.500000, -1.500000)" id="icon-color-2">
                            <rect id="Rectangle" fill="#000000" x="0" y="0" width="12" height="12"></rect>
                        </g>
                    </g>
                </g>
                <g id="icon-color-1" transform="translate(1.875000, 2.625000)">
                    <mask id="mask-8" fill="white">
                        <use xlink:href="#path-7"></use>
                    </mask>
                    <use id="Mask" fill="#FFFFFF" fill-rule="nonzero" xlink:href="#path-7"></use>
                    <g id="Group" mask="url(#mask-8)">
                        <g transform="translate(-3.375000, -4.125000)" id="icon-color-1">
                            <rect id="Rectangle" fill="#FFFFFF" x="0" y="0" width="12" height="12"></rect>
                        </g>
                    </g>
                </g>
            </g>
            <rect id="transparent-rectangle" x="0" y="0" width="12" height="12"></rect>
        </g>
        <g id="checkbox" transform="translate(83.000000, 96.000000)" fill="#161616">
            <path d="M9.75,1.5 L2.25,1.5 C1.83578644,1.5 1.5,1.83578644 1.5,2.25 L1.5,9.75 C1.5,10.1642136 1.83578644,10.5 2.25,10.5 L9.75,10.5 C10.1642136,10.5 10.5,10.1642136 10.5,9.75 L10.5,2.25 C10.5,1.83578644 10.1642136,1.5 9.75,1.5 Z M2.25,9.75 L2.25,2.25 L9.75,2.25 L9.75,9.75 L2.25,9.75 Z" id="Fill"></path>
        </g>
        <g id="checkbox" transform="translate(83.000000, 71.000000)" fill="#161616">
            <path d="M9.75,1.5 L2.25,1.5 C1.83578644,1.5 1.5,1.83578644 1.5,2.25 L1.5,9.75 C1.5,10.1642136 1.83578644,10.5 2.25,10.5 L9.75,10.5 C10.1642136,10.5 10.5,10.1642136 10.5,9.75 L10.5,2.25 C10.5,1.83578644 10.1642136,1.5 9.75,1.5 Z M2.25,9.75 L2.25,2.25 L9.75,2.25 L9.75,9.75 L2.25,9.75 Z" id="Fill"></path>
        </g>
    </g>
</svg>