<?xml version="1.0" encoding="UTF-8"?>
<svg width="320px" height="180px" viewBox="0 0 320 180" version="1.1" xmlns="http://www.w3.org/2000/svg" xmlns:xlink="http://www.w3.org/1999/xlink">
    <title>pagination-nav</title>
    <defs>
        <polygon id="path-1" points="5.5 4.5 9.5 8 5.5 11.5"></polygon>
        <polygon id="path-3" points="5.5 4.5 9.5 8 5.5 11.5"></polygon>
    </defs>
    <g id="pagination-nav" stroke="none" stroke-width="1" fill="none" fill-rule="evenodd">
        <g id="Group" transform="translate(56.000000, 70.000000)">
            <g transform="translate(0.000000, 12.000000)" id="icon/navigation/caret/left/16">
                <mask id="mask-2" fill="white">
                    <use xlink:href="#path-1"></use>
                </mask>
                <use id="icon-color" fill="#8C8C8C" transform="translate(7.500000, 8.000000) scale(-1, 1) translate(-7.500000, -8.000000) " xlink:href="#path-1"></use>
            </g>
            <g transform="translate(192.000000, 12.000000)" id="icon/navigation/caret/left/16-copy">
                <g transform="translate(8.000000, 8.000000) scale(-1, 1) translate(-8.000000, -8.000000) ">
                    <mask id="mask-4" fill="white">
                        <use xlink:href="#path-3"></use>
                    </mask>
                    <use id="icon-color" fill="#171717" transform="translate(7.500000, 8.000000) scale(-1, 1) translate(-7.500000, -8.000000) " xlink:href="#path-3"></use>
                </g>
            </g>
            <g id="1" transform="translate(45.480000, 15.624000)" fill="#161616" fill-rule="nonzero">
                <polygon id="Path" points="0.612 8.376 0.612 7.092 2.916 7.092 2.916 1.14 2.808 1.14 0.984 3.3 0 2.472 2.076 0 4.464 0 4.464 7.092 6.384 7.092 6.384 8.376"></polygon>
            </g>
            <g id="2" transform="translate(82.828000, 15.480000)" fill="#161616" fill-rule="nonzero">
                <path d="M5.568,8.52 L0.072,8.52 L0.072,7.488 L2.808,4.968 C3.2,4.608 3.528,4.226 3.792,3.822 C4.056,3.418 4.188,3.012 4.188,2.604 L4.188,2.46 C4.188,1.996 4.06,1.62 3.804,1.332 C3.548,1.044 3.16,0.9 2.64,0.9 C2.384,0.9 2.16,0.936 1.968,1.008 C1.776,1.08 1.61,1.18 1.47,1.308 C1.33,1.436 1.214,1.586 1.122,1.758 C1.03,1.93 0.956,2.116 0.9,2.316 L0,1.968 C0.08,1.72 0.19,1.478 0.33,1.242 C0.47,1.006 0.646,0.796 0.858,0.612 C1.07,0.428 1.326,0.28 1.626,0.168 C1.926,0.056 2.28,0 2.688,0 C3.096,0 3.46,0.06 3.78,0.18 C4.1,0.3 4.368,0.468 4.584,0.684 C4.8,0.9 4.966,1.156 5.082,1.452 C5.198,1.748 5.256,2.076 5.256,2.436 C5.256,2.764 5.21,3.068 5.118,3.348 C5.026,3.628 4.9,3.894 4.74,4.146 C4.58,4.398 4.386,4.644 4.158,4.884 C3.93,5.124 3.684,5.364 3.42,5.604 L1.164,7.632 L5.568,7.632 L5.568,8.52 Z" id="Path"></path>
            </g>
            <g id="3" transform="translate(119.504000, 15.480000)" fill="#161616" fill-rule="nonzero">
                <path d="M2.628,3.696 C3.196,3.696 3.622,3.566 3.906,3.306 C4.19,3.046 4.332,2.712 4.332,2.304 L4.332,2.22 C4.332,1.78 4.194,1.45 3.918,1.23 C3.642,1.01 3.28,0.9 2.832,0.9 C2.4,0.9 2.048,0.994 1.776,1.182 C1.504,1.37 1.28,1.624 1.104,1.944 L0.36,1.368 C0.464,1.2 0.59,1.034 0.738,0.87 C0.886,0.706 1.06,0.56 1.26,0.432 C1.46,0.304 1.692,0.2 1.956,0.12 C2.22,0.04 2.52,0 2.856,0 C3.208,0 3.54,0.046 3.852,0.138 C4.164,0.23 4.434,0.366 4.662,0.546 C4.89,0.726 5.07,0.948 5.202,1.212 C5.334,1.476 5.4,1.776 5.4,2.112 C5.4,2.384 5.358,2.628 5.274,2.844 C5.19,3.06 5.076,3.248 4.932,3.408 C4.788,3.568 4.618,3.704 4.422,3.816 C4.226,3.928 4.016,4.012 3.792,4.068 L3.792,4.116 C4.016,4.164 4.234,4.242 4.446,4.35 C4.658,4.458 4.846,4.598 5.01,4.77 C5.174,4.942 5.306,5.15 5.406,5.394 C5.506,5.638 5.556,5.916 5.556,6.228 C5.556,6.588 5.488,6.918 5.352,7.218 C5.216,7.518 5.024,7.774 4.776,7.986 C4.528,8.198 4.228,8.364 3.876,8.484 C3.524,8.604 3.136,8.664 2.712,8.664 C2.352,8.664 2.032,8.624 1.752,8.544 C1.472,8.464 1.224,8.356 1.008,8.22 C0.792,8.084 0.602,7.932 0.438,7.764 C0.274,7.596 0.128,7.42 0,7.236 L0.756,6.66 C0.86,6.828 0.974,6.98 1.098,7.116 C1.222,7.252 1.36,7.368 1.512,7.464 C1.664,7.56 1.836,7.634 2.028,7.686 C2.22,7.738 2.444,7.764 2.7,7.764 C3.292,7.764 3.74,7.63 4.044,7.362 C4.348,7.094 4.5,6.712 4.5,6.216 L4.5,6.12 C4.5,5.624 4.348,5.242 4.044,4.974 C3.74,4.706 3.292,4.572 2.7,4.572 L1.716,4.572 L1.716,3.696 L2.628,3.696 Z" id="Path"></path>
            </g>
            <g id="4" transform="translate(156.456000, 15.624000)" fill="#161616" fill-rule="nonzero">
                <path d="M4.044,8.376 L4.044,6.732 L0,6.732 L0,5.844 L3.504,0 L5.004,0 L5.004,5.892 L6.216,5.892 L6.216,6.732 L5.004,6.732 L5.004,8.376 L4.044,8.376 Z M0.948,5.892 L4.044,5.892 L4.044,0.78 L3.984,0.78 L0.948,5.892 Z" id="Shape"></path>
            </g>
            <rect id="Rectangle" fill="#0F62FE" x="41" y="35" width="16" height="4"></rect>
            <rect id="Rectangle-Copy" x="41" y="0" width="16" height="4"></rect>
        </g>
    </g>
</svg>