<?xml version="1.0" encoding="UTF-8"?>
<svg width="320px" height="180px" viewBox="0 0 320 180" version="1.1" xmlns="http://www.w3.org/2000/svg" xmlns:xlink="http://www.w3.org/1999/xlink">
    <title>password-input</title>
    <defs>
        <polygon id="path-1" points="4.707 4 8 0.707 7.293 0 4 3.293 0.707 0 0 0.707 3.293 4 0 7.293 0.707 8 4 4.707 7.293 8 8 7.293"></polygon>
    </defs>
    <g id="password-input" stroke="none" stroke-width="1" fill="none" fill-rule="evenodd">
        <g id="Group-20" transform="translate(56.000000, 75.000000)">
            <g id="Group-18-Copy">
                <rect id="Rectangle-2-Copy-61" fill="#F3F3F3" x="0" y="0" width="209" height="30"></rect>
                <line x1="0" y1="29" x2="208" y2="29" id="Path-4" stroke="#979797"></line>
            </g>
            <rect id="Rectangle-Copy-13" fill="#78A9FF" x="126" y="11" width="48" height="7"></rect>
        </g>
        <g id="Group" transform="translate(240.000000, 82.000000)">
            <g id="close" transform="translate(4.000000, 4.000000)">
                <mask id="mask-2" fill="white">
                    <use xlink:href="#path-1"></use>
                </mask>
                <use id="Mask" fill="#000000" fill-rule="nonzero" xlink:href="#path-1"></use>
                <g id="Group" mask="url(#mask-2)">
                    <g transform="translate(-4.000000, -4.000000)" id="icon-color">
                        <rect id="Rectangle" fill="#171717" x="0" y="0" width="32" height="32"></rect>
                    </g>
                </g>
            </g>
            <rect id="transparent-rectangle" x="0" y="0" width="16" height="16"></rect>
        </g>
        <circle id="Oval" fill="#A8A8A8" cx="70" cy="90" r="2"></circle>
        <circle id="Oval" fill="#A8A8A8" cx="78" cy="90" r="2"></circle>
        <circle id="Oval" fill="#A8A8A8" cx="86" cy="90" r="2"></circle>
        <circle id="Oval" fill="#A8A8A8" cx="94" cy="90" r="2"></circle>
        <circle id="Oval" fill="#A8A8A8" cx="102" cy="90" r="2"></circle>
        <circle id="Oval" fill="#A8A8A8" cx="110" cy="90" r="2"></circle>
        <circle id="Oval" fill="#A8A8A8" cx="118" cy="90" r="2"></circle>
        <circle id="Oval" fill="#A8A8A8" cx="126" cy="90" r="2"></circle>
    </g>
</svg>