<?xml version="1.0" encoding="UTF-8"?>
<svg width="320px" height="180px" viewBox="0 0 320 180" version="1.1" xmlns="http://www.w3.org/2000/svg" xmlns:xlink="http://www.w3.org/1999/xlink">
    <title>progress-bar</title>
    <g id="progress-bar" stroke="none" stroke-width="1" fill="none" fill-rule="evenodd">
        <g id="Group" transform="translate(56.000000, 72.120000)">
            <rect id="Rectangle" fill="#E0E0E0" x="0" y="18.88" width="208" height="8"></rect>
            <rect id="Rectangle" fill="#0F62FE" x="0" y="18.88" width="156" height="8"></rect>
            <g id="Progress-bar" transform="translate(1.116000, 0.000000)" fill="#161616" fill-rule="nonzero">
                <path d="M0,8.88 L0,0.504 L3.336,0.504 C4.088,0.504 4.666,0.718 5.07,1.146 C5.474,1.574 5.676,2.16 5.676,2.904 C5.676,3.648 5.474,4.234 5.07,4.662 C4.666,5.09 4.088,5.304 3.336,5.304 L1.008,5.304 L1.008,8.88 L0,8.88 Z M1.008,4.416 L3.336,4.416 C3.736,4.416 4.046,4.312 4.266,4.104 C4.486,3.896 4.596,3.6 4.596,3.216 L4.596,2.592 C4.596,2.208 4.486,1.912 4.266,1.704 C4.046,1.496 3.736,1.392 3.336,1.392 L1.008,1.392 L1.008,4.416 Z" id="Shape"></path>
                <path d="M7.19314285,8.88 L7.19314285,2.688 L8.15314285,2.688 L8.15314285,3.828 L8.21314285,3.828 C8.32514285,3.532 8.52514285,3.268 8.81314285,3.036 C9.10114285,2.804 9.49714285,2.688 10.0011429,2.688 L10.3731429,2.688 L10.3731429,3.648 L9.80914285,3.648 C9.28914285,3.648 8.88314285,3.746 8.59114285,3.942 C8.29914285,4.138 8.15314285,4.384 8.15314285,4.68 L8.15314285,8.88 L7.19314285,8.88 Z" id="Path"></path>
                <path d="M14.0142857,9.024 C13.5982857,9.024 13.2182857,8.948 12.8742857,8.796 C12.5302857,8.644 12.2362857,8.426 11.9922857,8.142 C11.7482857,7.858 11.5582857,7.518 11.4222857,7.122 C11.2862857,6.726 11.2182857,6.28 11.2182857,5.784 C11.2182857,5.296 11.2862857,4.852 11.4222857,4.452 C11.5582857,4.052 11.7482857,3.71 11.9922857,3.426 C12.2362857,3.142 12.5302857,2.924 12.8742857,2.772 C13.2182857,2.62 13.5982857,2.544 14.0142857,2.544 C14.4302857,2.544 14.8082857,2.62 15.1482857,2.772 C15.4882857,2.924 15.7822857,3.142 16.0302857,3.426 C16.2782857,3.71 16.4702857,4.052 16.6062857,4.452 C16.7422857,4.852 16.8102857,5.296 16.8102857,5.784 C16.8102857,6.28 16.7422857,6.726 16.6062857,7.122 C16.4702857,7.518 16.2782857,7.858 16.0302857,8.142 C15.7822857,8.426 15.4882857,8.644 15.1482857,8.796 C14.8082857,8.948 14.4302857,9.024 14.0142857,9.024 Z M14.0142857,8.172 C14.5342857,8.172 14.9582857,8.012 15.2862857,7.692 C15.6142857,7.372 15.7782857,6.884 15.7782857,6.228 L15.7782857,5.34 C15.7782857,4.684 15.6142857,4.196 15.2862857,3.876 C14.9582857,3.556 14.5342857,3.396 14.0142857,3.396 C13.4942857,3.396 13.0702857,3.556 12.7422857,3.876 C12.4142857,4.196 12.2502857,4.684 12.2502857,5.34 L12.2502857,6.228 C12.2502857,6.884 12.4142857,7.372 12.7422857,7.692 C13.0702857,8.012 13.4942857,8.172 14.0142857,8.172 Z" id="Shape"></path>
                <path d="M23.7514286,9.564 C23.7514286,10.204 23.5014286,10.674 23.0014286,10.974 C22.5014286,11.274 21.7514286,11.424 20.7514286,11.424 C19.7834286,11.424 19.0874286,11.292 18.6634286,11.028 C18.2394286,10.764 18.0274286,10.388 18.0274286,9.9 C18.0274286,9.564 18.1154286,9.302 18.2914286,9.114 C18.4674286,8.926 18.7074286,8.788 19.0114286,8.7 L19.0114286,8.568 C18.6434286,8.392 18.4594286,8.104 18.4594286,7.704 C18.4594286,7.392 18.5594286,7.154 18.7594286,6.99 C18.9594286,6.826 19.2154286,6.704 19.5274286,6.624 L19.5274286,6.576 C19.1594286,6.4 18.8734286,6.148 18.6694286,5.82 C18.4654286,5.492 18.3634286,5.112 18.3634286,4.68 C18.3634286,4.368 18.4194286,4.08 18.5314286,3.816 C18.6434286,3.552 18.8014286,3.326 19.0054286,3.138 C19.2094286,2.95 19.4534286,2.804 19.7374286,2.7 C20.0214286,2.596 20.3394286,2.544 20.6914286,2.544 C21.1314286,2.544 21.5234286,2.624 21.8674286,2.784 L21.8674286,2.676 C21.8674286,2.436 21.9234286,2.238 22.0354286,2.082 C22.1474286,1.926 22.3314286,1.848 22.5874286,1.848 L23.5114286,1.848 L23.5114286,2.688 L22.3354286,2.688 L22.3354286,3.084 C22.5594286,3.276 22.7334286,3.506 22.8574286,3.774 C22.9814286,4.042 23.0434286,4.344 23.0434286,4.68 C23.0434286,4.992 22.9874286,5.28 22.8754286,5.544 C22.7634286,5.808 22.6054286,6.034 22.4014286,6.222 C22.1974286,6.41 21.9514286,6.556 21.6634286,6.66 C21.3754286,6.764 21.0554286,6.816 20.7034286,6.816 C20.5034286,6.816 20.3034286,6.796 20.1034286,6.756 C19.8954286,6.812 19.7074286,6.894 19.5394286,7.002 C19.3714286,7.11 19.2874286,7.26 19.2874286,7.452 C19.2874286,7.636 19.3754286,7.76 19.5514286,7.824 C19.7274286,7.888 19.9554286,7.92 20.2354286,7.92 L21.5554286,7.92 C22.3234286,7.92 22.8814286,8.066 23.2294286,8.358 C23.5774286,8.65 23.7514286,9.052 23.7514286,9.564 Z M22.8514286,9.636 C22.8514286,9.388 22.7574286,9.19 22.5694286,9.042 C22.3814286,8.894 22.0474286,8.82 21.5674286,8.82 L19.5034286,8.82 C19.1194286,8.996 18.9274286,9.276 18.9274286,9.66 C18.9274286,9.932 19.0294286,10.164 19.2334286,10.356 C19.4374286,10.548 19.7834286,10.644 20.2714286,10.644 L21.1594286,10.644 C21.6954286,10.644 22.1114286,10.56 22.4074286,10.392 C22.7034286,10.224 22.8514286,9.972 22.8514286,9.636 Z M20.7034286,6.048 C21.1114286,6.048 21.4354286,5.95 21.6754286,5.754 C21.9154286,5.558 22.0354286,5.256 22.0354286,4.848 L22.0354286,4.512 C22.0354286,4.104 21.9154286,3.802 21.6754286,3.606 C21.4354286,3.41 21.1114286,3.312 20.7034286,3.312 C20.2954286,3.312 19.9714286,3.41 19.7314286,3.606 C19.4914286,3.802 19.3714286,4.104 19.3714286,4.512 L19.3714286,4.848 C19.3714286,5.256 19.4914286,5.558 19.7314286,5.754 C19.9714286,5.95 20.2954286,6.048 20.7034286,6.048 Z" id="Shape"></path>
                <path d="M25.0045714,8.88 L25.0045714,2.688 L25.9645714,2.688 L25.9645714,3.828 L26.0245714,3.828 C26.1365714,3.532 26.3365714,3.268 26.6245714,3.036 C26.9125714,2.804 27.3085714,2.688 27.8125714,2.688 L28.1845714,2.688 L28.1845714,3.648 L27.6205714,3.648 C27.1005714,3.648 26.6945714,3.746 26.4025714,3.942 C26.1105714,4.138 25.9645714,4.384 25.9645714,4.68 L25.9645714,8.88 L25.0045714,8.88 Z" id="Path"></path>
                <path d="M31.8137143,9.024 C31.3897143,9.024 31.0077143,8.948 30.6677143,8.796 C30.3277143,8.644 30.0357143,8.426 29.7917143,8.142 C29.5477143,7.858 29.3597143,7.518 29.2277143,7.122 C29.0957143,6.726 29.0297143,6.28 29.0297143,5.784 C29.0297143,5.296 29.0957143,4.852 29.2277143,4.452 C29.3597143,4.052 29.5477143,3.71 29.7917143,3.426 C30.0357143,3.142 30.3277143,2.924 30.6677143,2.772 C31.0077143,2.62 31.3897143,2.544 31.8137143,2.544 C32.2297143,2.544 32.6017143,2.62 32.9297143,2.772 C33.2577143,2.924 33.5377143,3.134 33.7697143,3.402 C34.0017143,3.67 34.1797143,3.988 34.3037143,4.356 C34.4277143,4.724 34.4897143,5.128 34.4897143,5.568 L34.4897143,6.024 L30.0377143,6.024 L30.0377143,6.312 C30.0377143,6.576 30.0797143,6.822 30.1637143,7.05 C30.2477143,7.278 30.3677143,7.476 30.5237143,7.644 C30.6797143,7.812 30.8717143,7.944 31.0997143,8.04 C31.3277143,8.136 31.5857143,8.184 31.8737143,8.184 C32.2657143,8.184 32.6077143,8.092 32.8997143,7.908 C33.1917143,7.724 33.4177143,7.46 33.5777143,7.116 L34.2617143,7.608 C34.0617143,8.032 33.7497143,8.374 33.3257143,8.634 C32.9017143,8.894 32.3977143,9.024 31.8137143,9.024 Z M31.8137143,3.348 C31.5497143,3.348 31.3097143,3.394 31.0937143,3.486 C30.8777143,3.578 30.6917143,3.708 30.5357143,3.876 C30.3797143,4.044 30.2577143,4.242 30.1697143,4.47 C30.0817143,4.698 30.0377143,4.948 30.0377143,5.22 L30.0377143,5.304 L33.4577143,5.304 L33.4577143,5.172 C33.4577143,4.62 33.3077143,4.178 33.0077143,3.846 C32.7077143,3.514 32.3097143,3.348 31.8137143,3.348 Z" id="Shape"></path>
                <path d="M38.0708571,9.024 C37.4948571,9.024 37.0128571,8.914 36.6248571,8.694 C36.2368571,8.474 35.9028571,8.18 35.6228571,7.812 L36.3068571,7.26 C36.5468571,7.564 36.8148571,7.798 37.1108571,7.962 C37.4068571,8.126 37.7508571,8.208 38.1428571,8.208 C38.5508571,8.208 38.8688571,8.12 39.0968571,7.944 C39.3248571,7.768 39.4388571,7.52 39.4388571,7.2 C39.4388571,6.96 39.3608571,6.754 39.2048571,6.582 C39.0488571,6.41 38.7668571,6.292 38.3588571,6.228 L37.8668571,6.156 C37.5788571,6.116 37.3148571,6.054 37.0748571,5.97 C36.8348571,5.886 36.6248571,5.774 36.4448571,5.634 C36.2648571,5.494 36.1248571,5.32 36.0248571,5.112 C35.9248571,4.904 35.8748571,4.656 35.8748571,4.368 C35.8748571,4.064 35.9308571,3.798 36.0428571,3.57 C36.1548571,3.342 36.3088571,3.152 36.5048571,3 C36.7008571,2.848 36.9348571,2.734 37.2068571,2.658 C37.4788571,2.582 37.7708571,2.544 38.0828571,2.544 C38.5868571,2.544 39.0088571,2.632 39.3488571,2.808 C39.6888571,2.984 39.9868571,3.228 40.2428571,3.54 L39.6068571,4.116 C39.4708571,3.924 39.2708571,3.75 39.0068571,3.594 C38.7428571,3.438 38.4108571,3.36 38.0108571,3.36 C37.6108571,3.36 37.3088571,3.446 37.1048571,3.618 C36.9008571,3.79 36.7988571,4.024 36.7988571,4.32 C36.7988571,4.624 36.9008571,4.844 37.1048571,4.98 C37.3088571,5.116 37.6028571,5.216 37.9868571,5.28 L38.4668571,5.352 C39.1548571,5.456 39.6428571,5.654 39.9308571,5.946 C40.2188571,6.238 40.3628571,6.62 40.3628571,7.092 C40.3628571,7.692 40.1588571,8.164 39.7508571,8.508 C39.3428571,8.852 38.7828571,9.024 38.0708571,9.024 Z" id="Path"></path>
                <path d="M43.98,9.024 C43.404,9.024 42.922,8.914 42.534,8.694 C42.146,8.474 41.812,8.18 41.532,7.812 L42.216,7.26 C42.456,7.564 42.724,7.798 43.02,7.962 C43.316,8.126 43.66,8.208 44.052,8.208 C44.46,8.208 44.778,8.12 45.006,7.944 C45.234,7.768 45.348,7.52 45.348,7.2 C45.348,6.96 45.27,6.754 45.114,6.582 C44.958,6.41 44.676,6.292 44.268,6.228 L43.776,6.156 C43.488,6.116 43.224,6.054 42.984,5.97 C42.744,5.886 42.534,5.774 42.354,5.634 C42.174,5.494 42.034,5.32 41.934,5.112 C41.834,4.904 41.784,4.656 41.784,4.368 C41.784,4.064 41.84,3.798 41.952,3.57 C42.064,3.342 42.218,3.152 42.414,3 C42.61,2.848 42.844,2.734 43.116,2.658 C43.388,2.582 43.68,2.544 43.992,2.544 C44.496,2.544 44.918,2.632 45.258,2.808 C45.598,2.984 45.896,3.228 46.152,3.54 L45.516,4.116 C45.38,3.924 45.18,3.75 44.916,3.594 C44.652,3.438 44.32,3.36 43.92,3.36 C43.52,3.36 43.218,3.446 43.014,3.618 C42.81,3.79 42.708,4.024 42.708,4.32 C42.708,4.624 42.81,4.844 43.014,4.98 C43.218,5.116 43.512,5.216 43.896,5.28 L44.376,5.352 C45.064,5.456 45.552,5.654 45.84,5.946 C46.128,6.238 46.272,6.62 46.272,7.092 C46.272,7.692 46.068,8.164 45.66,8.508 C45.252,8.852 44.692,9.024 43.98,9.024 Z" id="Path"></path>
                <path d="M51.0702857,0 L52.0302857,0 L52.0302857,3.696 L52.0782857,3.696 C52.2382857,3.304 52.4722857,3.014 52.7802857,2.826 C53.0882857,2.638 53.4582857,2.544 53.8902857,2.544 C54.2742857,2.544 54.6222857,2.62 54.9342857,2.772 C55.2462857,2.924 55.5122857,3.14 55.7322857,3.42 C55.9522857,3.7 56.1202857,4.04 56.2362857,4.44 C56.3522857,4.84 56.4102857,5.288 56.4102857,5.784 C56.4102857,6.28 56.3522857,6.728 56.2362857,7.128 C56.1202857,7.528 55.9522857,7.868 55.7322857,8.148 C55.5122857,8.428 55.2462857,8.644 54.9342857,8.796 C54.6222857,8.948 54.2742857,9.024 53.8902857,9.024 C53.0502857,9.024 52.4462857,8.64 52.0782857,7.872 L52.0302857,7.872 L52.0302857,8.88 L51.0702857,8.88 L51.0702857,0 Z M53.6262857,8.16 C54.1702857,8.16 54.5982857,7.99 54.9102857,7.65 C55.2222857,7.31 55.3782857,6.864 55.3782857,6.312 L55.3782857,5.256 C55.3782857,4.704 55.2222857,4.258 54.9102857,3.918 C54.5982857,3.578 54.1702857,3.408 53.6262857,3.408 C53.4102857,3.408 53.2042857,3.438 53.0082857,3.498 C52.8122857,3.558 52.6422857,3.64 52.4982857,3.744 C52.3542857,3.848 52.2402857,3.974 52.1562857,4.122 C52.0722857,4.27 52.0302857,4.428 52.0302857,4.596 L52.0302857,6.9 C52.0302857,7.1 52.0722857,7.278 52.1562857,7.434 C52.2402857,7.59 52.3542857,7.722 52.4982857,7.83 C52.6422857,7.938 52.8122857,8.02 53.0082857,8.076 C53.2042857,8.132 53.4102857,8.16 53.6262857,8.16 Z" id="Shape"></path>
                <path d="M62.6674285,8.88 C62.3074285,8.88 62.0494285,8.784 61.8934285,8.592 C61.7374285,8.4 61.6394285,8.16 61.5994285,7.872 L61.5394285,7.872 C61.4034285,8.256 61.1794285,8.544 60.8674285,8.736 C60.5554285,8.928 60.1834285,9.024 59.7514285,9.024 C59.0954285,9.024 58.5854285,8.856 58.2214285,8.52 C57.8574285,8.184 57.6754285,7.728 57.6754285,7.152 C57.6754285,6.568 57.8894285,6.12 58.3174285,5.808 C58.7454285,5.496 59.4114285,5.34 60.3154285,5.34 L61.5394285,5.34 L61.5394285,4.728 C61.5394285,4.288 61.4194285,3.952 61.1794285,3.72 C60.9394285,3.488 60.5714285,3.372 60.0754285,3.372 C59.6994285,3.372 59.3854285,3.456 59.1334285,3.624 C58.8814285,3.792 58.6714285,4.016 58.5034285,4.296 L57.9274285,3.756 C58.0954285,3.42 58.3634285,3.134 58.7314285,2.898 C59.0994285,2.662 59.5634285,2.544 60.1234285,2.544 C60.8754285,2.544 61.4594285,2.728 61.8754285,3.096 C62.2914285,3.464 62.4994285,3.976 62.4994285,4.632 L62.4994285,8.04 L63.2074285,8.04 L63.2074285,8.88 L62.6674285,8.88 Z M59.9074285,8.208 C60.1474285,8.208 60.3674285,8.18 60.5674285,8.124 C60.7674285,8.068 60.9394285,7.988 61.0834285,7.884 C61.2274285,7.78 61.3394285,7.66 61.4194285,7.524 C61.4994285,7.388 61.5394285,7.24 61.5394285,7.08 L61.5394285,6.06 L60.2674285,6.06 C59.7154285,6.06 59.3134285,6.14 59.0614285,6.3 C58.8094285,6.46 58.6834285,6.692 58.6834285,6.996 L58.6834285,7.248 C58.6834285,7.552 58.7934285,7.788 59.0134285,7.956 C59.2334285,8.124 59.5314285,8.208 59.9074285,8.208 Z" id="Shape"></path>
                <path d="M64.7125714,8.88 L64.7125714,2.688 L65.6725714,2.688 L65.6725714,3.828 L65.7325714,3.828 C65.8445714,3.532 66.0445714,3.268 66.3325714,3.036 C66.6205714,2.804 67.0165714,2.688 67.5205714,2.688 L67.8925714,2.688 L67.8925714,3.648 L67.3285714,3.648 C66.8085714,3.648 66.4025714,3.746 66.1105714,3.942 C65.8185714,4.138 65.6725714,4.384 65.6725714,4.68 L65.6725714,8.88 L64.7125714,8.88 Z" id="Path"></path>
            </g>
        </g>
        <rect id="Rectangle" x="59" y="101" width="44" height="9"></rect>
    </g>
</svg>