<?xml version="1.0" encoding="UTF-8"?>
<svg width="320px" height="180px" viewBox="0 0 320 180" version="1.1" xmlns="http://www.w3.org/2000/svg" xmlns:xlink="http://www.w3.org/1999/xlink">
    <title>rule-builder</title>
    <g id="rule-builder" stroke="none" stroke-width="1" fill="none" fill-rule="evenodd">
        <g id="rule-builder-/-key-/-01-enabled" transform="translate(40.000000, 71.000000)">
            <path d="M120,0 L120,11 L128,19 L120,27 L120,38 L0,38 L0,0 L120,0 Z" id="Field-color" fill="#E0E0E0"></path>
            <g id="icon/navigation/chevron/down/16" transform="translate(92.000000, 12.000000)" fill="#161616">
                <polygon id="Fill" points="8 11 3 6 3.7 5.3 8 9.6 12.3 5.3 13 6"></polygon>
            </g>
            <text id="Field-text" font-family="IBMPlexSans, IBM Plex Sans" font-size="14" font-weight="normal" line-spacing="18" letter-spacing="0.159999996"></text>
            <g id="utilities-/-spacer-/-component-/-horizontal-/-spacing-05-(16px)-/-off" transform="translate(76.000000, 0.000000)">
                <rect id="spacer" x="0" y="0" width="16" height="38"></rect>
            </g>
        </g>
        <g id="rule-builder-/-condition-/-end-/-01-enabled" transform="translate(160.000000, 71.000000)">
            <path d="M119,1 L119,37 L1,37 L1,27.4142136 L9.41421356,19 L1,10.5857864 L1,1 L119,1 Z" id="Field-color" stroke="#DCDCDC" stroke-width="2"></path>
            <g id="utilities-/-spacer-/-component-/-horizontal-/-spacing-05-(16px)-/-off" transform="translate(76.000000, 0.000000)">
                <rect id="spacer" x="0" y="0" width="16" height="38"></rect>
            </g>
            <text id="Field-text" font-family="IBMPlexSans, IBM Plex Sans" font-size="14" font-weight="normal" line-spacing="18" letter-spacing="0.159999996"></text>
            <g id="icon/navigation/chevron/down/16" transform="translate(92.000000, 12.000000)" fill="#000000">
                <polygon id="Fill" points="8 11 3 6 3.7 5.3 8 9.6 12.3 5.3 13 6"></polygon>
            </g>
            <g id="utilities-/-spacer-/-component-/-horizontal-/-spacing-05-(16px)-/-off" transform="translate(76.000000, 0.000000)">
                <rect id="spacer" x="0" y="0" width="16" height="38"></rect>
            </g>
        </g>
        <rect id="Rectangle-3-Copy-33" fill="#8D8D8D" x="54" y="86.4" width="59" height="7"></rect>
        <rect id="Rectangle-3-Copy-32" fill="#C6C6C6" x="178" y="86.4" width="59" height="7"></rect>
    </g>
</svg>