<?xml version="1.0" encoding="UTF-8"?>
<svg width="320px" height="180px" viewBox="0 0 320 180" version="1.1" xmlns="http://www.w3.org/2000/svg" xmlns:xlink="http://www.w3.org/1999/xlink">
    <title>square-card</title>
    <defs>
        <polygon id="path-1" points="5.625 1.875 5.184375 2.315625 7.553125 4.6875 0.9375 4.6875 0.9375 5.3125 7.553125 5.3125 5.184375 7.684375 5.625 8.125 8.75 5"></polygon>
        <polygon id="path-3" points="5.625 1.875 5.184375 2.315625 7.553125 4.6875 0.9375 4.6875 0.9375 5.3125 7.553125 5.3125 5.184375 7.684375 5.625 8.125 8.75 5"></polygon>
        <polygon id="path-5" points="5.625 1.875 5.184375 2.315625 7.553125 4.6875 0.9375 4.6875 0.9375 5.3125 7.553125 5.3125 5.184375 7.684375 5.625 8.125 8.75 5"></polygon>
        <polygon id="path-7" points="5.625 1.875 5.184375 2.315625 7.553125 4.6875 0.9375 4.6875 0.9375 5.3125 7.553125 5.3125 5.184375 7.684375 5.625 8.125 8.75 5"></polygon>
        <polygon id="path-9" points="5.625 1.875 5.184375 2.315625 7.553125 4.6875 0.9375 4.6875 0.9375 5.3125 7.553125 5.3125 5.184375 7.684375 5.625 8.125 8.75 5"></polygon>
    </defs>
    <g id="square-card" stroke="none" stroke-width="1" fill="none" fill-rule="evenodd">
        <rect fill="#FFFFFF" x="0" y="0" width="320" height="180"></rect>
        <rect id="Rectangle-Copy-51" fill="#E0E0E0" x="76" y="34" width="110" height="110"></rect>
        <rect id="Rectangle-Copy-52" fill="#E0E0E0" x="153" y="33" width="69" height="56"></rect>
        <rect id="Rectangle-Copy-238" fill="#F4F4F4" x="75" y="33" width="56" height="56"></rect>
        <g id="icon/navigation/arrow/right/16" transform="translate(81.000000, 73.000000)">
            <mask id="mask-2" fill="white">
                <use xlink:href="#path-1"></use>
            </mask>
            <use id="icon-color" fill="#000000" xlink:href="#path-1"></use>
        </g>
        <rect id="Rectangle-Copy-241" fill="#F4F4F4" x="75" y="90" width="56" height="56"></rect>
        <rect id="Rectangle-Copy-239" fill="#F4F4F4" x="132" y="33" width="56" height="56"></rect>
        <g id="icon/navigation/arrow/right/16" transform="translate(138.000000, 73.000000)">
            <mask id="mask-4" fill="white">
                <use xlink:href="#path-3"></use>
            </mask>
            <use id="icon-color" fill="#000000" xlink:href="#path-3"></use>
        </g>
        <rect id="Rectangle-Copy-242" fill="#F4F4F4" x="132" y="90" width="56" height="56"></rect>
        <g id="icon/navigation/arrow/right/16" transform="translate(81.000000, 130.000000)">
            <mask id="mask-6" fill="white">
                <use xlink:href="#path-5"></use>
            </mask>
            <use id="icon-color" fill="#000000" xlink:href="#path-5"></use>
        </g>
        <g id="icon/navigation/arrow/right/16" transform="translate(138.000000, 130.000000)">
            <mask id="mask-8" fill="white">
                <use xlink:href="#path-7"></use>
            </mask>
            <use id="icon-color" fill="#000000" xlink:href="#path-7"></use>
        </g>
        <rect id="Rectangle-Copy-240" fill="#F4F4F4" x="189" y="33" width="56" height="56"></rect>
        <g id="icon/navigation/arrow/right/16" transform="translate(194.000000, 73.000000)">
            <mask id="mask-10" fill="white">
                <use xlink:href="#path-9"></use>
            </mask>
            <use id="icon-color" fill="#000000" xlink:href="#path-9"></use>
        </g>
        <rect id="Rectangle-3-Copy-29" fill="#A8A8A8" x="82.1156069" y="40.9922481" width="38.583815" height="3"></rect>
        <rect id="Rectangle-3-Copy-32" fill="#A8A8A8" x="82.1156069" y="96.9922481" width="38.583815" height="3"></rect>
        <rect id="Rectangle-3-Copy-34" fill="#A8A8A8" x="82.1156069" y="45.9922481" width="28.583815" height="3"></rect>
        <rect id="Rectangle-3-Copy-37" fill="#A8A8A8" x="82.1156069" y="101.992248" width="28.583815" height="3"></rect>
        <rect id="Rectangle-3-Copy-30" fill="#A8A8A8" x="139.115607" y="40.9922481" width="38.583815" height="3"></rect>
        <rect id="Rectangle-3-Copy-33" fill="#A8A8A8" x="139.115607" y="96.9922481" width="38.583815" height="3"></rect>
        <rect id="Rectangle-3-Copy-35" fill="#A8A8A8" x="139.115607" y="45.9922481" width="28.583815" height="3"></rect>
        <rect id="Rectangle-3-Copy-38" fill="#A8A8A8" x="139.115607" y="101.992248" width="28.583815" height="3"></rect>
        <rect id="Rectangle-3-Copy-31" fill="#A8A8A8" x="196.115607" y="40.9922481" width="38.583815" height="3"></rect>
        <rect id="Rectangle-3-Copy-36" fill="#A8A8A8" x="196.115607" y="45.9922481" width="28.583815" height="3"></rect>
    </g>
</svg>