<?xml version="1.0" encoding="UTF-8"?>
<svg width="320px" height="180px" viewBox="0 0 320 180" version="1.1" xmlns="http://www.w3.org/2000/svg" xmlns:xlink="http://www.w3.org/1999/xlink">
    <title>status-icons</title>
    <g id="status-icons" stroke="none" stroke-width="1" fill="none" fill-rule="evenodd">
        <g id="Group" transform="translate(56.000000, 78.000000)">
            <g>
                <path d="M3.75,1 L20.25,1 C21.7687831,1 23,2.23121694 23,3.75 L23,20.25 C23,21.7687831 21.7687831,23 20.25,23 L3.75,23 C2.23121694,23 1,21.7687831 1,20.25 L1,3.75 C1,2.23121694 2.23121694,1 3.75,1 Z" id="outline-color" fill="#FFFFFF"></path>
                <path d="M3.42857143,2 L20.5714286,2 C21.3604068,2 22,2.63959321 22,3.42857143 L22,20.5714286 C22,21.3604068 21.3604068,22 20.5714286,22 L3.42857143,22 C2.63959321,22 2,21.3604068 2,20.5714286 L2,3.42857143 C2,2.63959321 2.63959321,2 3.42857143,2 Z" id="background-color" fill="#0F62FE"></path>
                <path d="M12.8475,9.66 L12.8475,16.41 L15,16.41 L15,18.0975 L9,18.0975 L9,16.41 L11.16,16.41 L11.16,11.3475 L9.75,11.3475 L9.75,9.66 L12.8475,9.66 Z M11.985,5.25 C12.6063203,5.25 13.11,5.75367966 13.11,6.375 C13.11,6.99632034 12.6063203,7.5 11.985,7.5 C11.3636797,7.5 10.86,6.99632034 10.86,6.375 C10.86,5.75367966 11.3636797,5.25 11.985,5.25 Z" id="symbol-color" fill="#FFFFFF"></path>
            </g>
            <g transform="translate(38.000000, 0.000000)">
                <path d="M12,23 C5.92486775,23 1,18.0751322 1,12 C1,5.92486775 5.92486775,1 12,1 C18.0751322,1 23,5.92486775 23,12 C23,18.0751322 18.0751322,23 12,23 Z" id="outline-color" fill="#FFFFFF"></path>
                <circle id="background-color" fill="#24A148" cx="12" cy="12" r="10"></circle>
                <polygon id="icon" fill="#FFFFFF" points="17.25 9.05 16.2 8 10.5 13.7 7.8 11 6.75 12.05 10.5 15.8"></polygon>
            </g>
            <g transform="translate(76.000000, 0.000000)">
                <path d="M13.4521648,20.6267199 C13.1679771,21.1624294 12.6118691,21.5 12.0040582,21.5 C11.3962473,21.5 10.8401394,21.1624294 10.5552598,20.6254179 L2.20337788,4.93764425 C1.92788303,4.45288552 1.92788303,3.8288235 2.21635091,3.32046833 C2.53197584,2.79201379 3.08500948,2.48509798 3.67756499,2.50055741 L20.356632,2.50021726 C20.940834,2.50032091 21.4790779,2.81234335 21.773189,3.31704768 C22.0640033,3.81272896 22.0763599,4.428466 21.8044991,4.93809414 L13.4521648,20.6267199 Z" id="outline-color" fill="#FFFFFF"></path>
                <path d="M20.922037,4.46770865 L12.5694632,20.1567843 C12.457304,20.3682097 12.240196,20.5 12.0040582,20.5 C11.7679205,20.5 11.5508125,20.3682097 11.4386532,20.1567843 L3.08607944,4.46770865 C2.97130685,4.26544962 2.97130685,4.01625621 3.08607944,3.81399717 C3.20569788,3.61390849 3.42137916,3.49421234 3.65148443,3.50021566 L20.356632,3.50021566 C20.5834798,3.50025591 20.7934946,3.62200246 20.9091869,3.82053428 C21.0255121,4.01880926 21.0303967,4.26481542 20.922037,4.46770865 Z" id="background-color" fill="#F1C21B"></path>
                <path d="M12,13 C12.5522847,13 13,13.4477153 13,14 C13,14.5522847 12.5522847,15 12,15 C11.4477153,15 11,14.5522847 11,14 C11,13.4477153 11.4477153,13 12,13 Z M12.75,6 L12.75,11 L11.25,11 L11.25,6 L12.75,6 Z" id="symbol-color" fill="#161616"></path>
            </g>
            <g transform="translate(114.000000, 0.000000)" id="icon-/-status-/-04-warning-/-fill-/-24">
                <path d="M13.4521648,3.37328174 C13.1679771,2.83757221 12.6118691,2.5 12.0040582,2.5 C11.3962473,2.5 10.8401394,2.83757221 10.5552598,3.37458375 L2.20337788,19.0623574 C1.92788303,19.5471161 1.92788303,20.1711781 2.21635091,20.6795333 C2.53197584,21.2079878 3.08500948,21.5149036 3.67756499,21.4994442 L20.356632,21.4997843 C20.940834,21.4996807 21.4790779,21.1876583 21.773189,20.6829539 C22.0640033,20.1872726 22.0763599,19.5715356 21.8044991,19.0619075 L13.4521648,3.37328174 Z" id="outline-color" fill="#FFFFFF"></path>
                <path d="M20.922037,19.5322913 L12.5694632,3.84321573 C12.457304,3.63179027 12.240196,3.5 12.0040582,3.5 C11.7679205,3.5 11.5508125,3.63179027 11.4386532,3.84321573 L3.08607944,19.5322913 C2.97130685,19.7345504 2.97130685,19.9837438 3.08607944,20.1860028 C3.20569788,20.3860915 3.42137916,20.5057877 3.65148443,20.4997843 L20.356632,20.4997843 C20.5834798,20.4997441 20.7934946,20.3779975 20.9091869,20.1794657 C21.0255121,19.9811907 21.0303967,19.7351846 20.922037,19.5322913 Z" id="background-color" fill="#FF832B"></path>
                <path d="M12,16 C12.5522847,16 13,16.4477153 13,17 C13,17.5522847 12.5522847,18 12,18 C11.4477153,18 11,17.5522847 11,17 C11,16.4477153 11.4477153,16 12,16 Z M12.75,9 L12.75,14 L11.25,14 L11.25,9 L12.75,9 Z" id="symbol-color" fill="#161616"></path>
            </g>
            <g transform="translate(152.000000, 0.000000)">
                <path d="M22.5136775,10.8259137 C23.1621075,11.4743436 23.1621075,12.5256564 22.5136775,13.1740863 L13.1740863,22.5136775 C12.5256564,23.1621075 11.4743436,23.1621075 10.8259137,22.5136775 L1.48632249,13.1740863 C0.837892505,12.5256564 0.837892505,11.4743436 1.48632249,10.8259137 L10.8259137,1.48632249 C11.4743436,0.837892505 12.5256564,0.837892505 13.1740863,1.48632249 L22.5136775,10.8259137 Z" id="outline-color" fill="#FFFFFF"></path>
                <path d="M12.4669796,2.19342927 L21.8065707,11.5330204 C22.0644764,11.7909261 22.0644764,12.2090739 21.8065707,12.4669796 L12.4669796,21.8065707 C12.2090739,22.0644764 11.7909261,22.0644764 11.5330204,21.8065707 L2.19342927,12.4669796 C1.93552358,12.2090739 1.93552358,11.7909261 2.19342927,11.5330204 L11.5330204,2.19342927 C11.7909261,1.93552358 12.2090739,1.93552358 12.4669796,2.19342927 Z" id="background-color" fill="#DA1E28"></path>
                <path d="M12,16 C12.5522847,16 13,16.4477153 13,17 C13,17.5522847 12.5522847,18 12,18 C11.4477153,18 11,17.5522847 11,17 C11,16.4477153 11.4477153,16 12,16 Z M12.75,6 L12.75,14 L11.25,14 L11.25,6 L12.75,6 Z" id="symbol-color" fill="#FFFFFF"></path>
            </g>
            <g transform="translate(190.000000, 0.000000)">
                <path d="M17.1659308,1.6083755 C16.7768116,1.21928863 16.2432919,0.998247025 15.692452,0.998247025 L8.30587699,0.998247025 C7.75503711,0.998247025 7.22151737,1.21928863 6.83222892,1.60854474 L1.61121607,6.82912378 C1.221595,7.21710623 1,7.75127168 1,8.30360008 L1,15.6903945 C1,16.2412456 1.22107841,16.7747655 1.61038284,17.1640376 L6.83211611,22.3870033 C7.22342119,22.7766692 7.75618606,22.998247 8.30587699,22.998247 L15.6916188,22.998247 C16.2461466,22.998247 16.7728948,22.7794556 17.1652668,22.3871162 L22.3919431,17.1633736 C22.784465,16.7660873 23,16.2420383 23,15.6903945 L23,8.30360008 C23.0015883,7.74917855 22.7826093,7.22087512 22.3880775,6.82758908 L17.1659308,1.6083755 Z" id="outline-color" fill="#FFFFFF"></path>
                <path d="M21.681702,7.53542678 L16.4590227,2.31568089 C16.2573812,2.11405623 15.9782495,1.99824703 15.692452,1.99824703 L8.30587699,1.99824703 C8.02007945,1.99824703 7.74094774,2.11405623 7.53930632,2.31568089 L2.31829347,7.53625994 C2.11581883,7.7378846 2,8.01699312 2,8.30360008 L2,15.6903945 C2,15.9761683 2.11581883,16.2552768 2.31746025,16.4569015 L7.53930632,21.67998 C7.74178097,21.8816047 8.02091268,21.998247 8.30587699,21.998247 L15.6916188,21.998247 C15.9807492,21.998247 16.2532151,21.8849373 16.4581894,21.67998 L21.6850349,16.4560683 C21.8883428,16.2502779 22,15.9786678 22,15.6903945 L22,8.30360008 C22.0008287,8.01282732 21.8875095,7.74038408 21.681702,7.53542678 Z" id="background-color" fill="#DA1E28"></path>
                <polygon id="icon-color" fill="#FFFFFF" points="15.8642857 17 12 13.1357143 8.13571429 17 7 15.8642857 10.8642857 12 7 8.13571429 8.13571429 7 12 10.8642857 15.8642857 7 17 8.13571429 13.1357143 12 17 15.8642857"></polygon>
            </g>
        </g>
    </g>
</svg>