<?xml version="1.0" encoding="UTF-8"?>
<svg width="320px" height="180px" viewBox="0 0 320 180" version="1.1" xmlns="http://www.w3.org/2000/svg" xmlns:xlink="http://www.w3.org/1999/xlink">
    <title>video</title>
    <defs>
        <path d="M3.49999602,14 C3.22385763,14 2.99999602,13.7761424 2.99999602,13.5 L2.99999602,2.5 C2.99928777,2.32101235 3.09430587,2.15529687 3.249137,2.06549482 C3.40396812,1.97569277 3.59499174,1.97550405 3.75,2.065 L13.25,7.565 C13.4042011,7.65444944 13.4991141,7.81923285 13.4991141,7.9975 C13.4991141,8.17576715 13.4042011,8.34055056 13.25,8.43 L3.75,13.93 C3.6742836,13.9749383 3.5880431,13.9990856 3.49999602,14 Z M4,3.365 L4,12.635 L12,8 L4,3.365 Z" id="path-1"></path>
    </defs>
    <g id="video" stroke="none" stroke-width="1" fill="none" fill-rule="evenodd">
        <rect fill="#FFFFFF" x="0" y="0" width="320" height="180"></rect>
        <rect id="Rectangle-Copy-2" fill="#C6C6C6" x="60" y="40" width="200" height="100"></rect>
        <g id="Group" transform="translate(146.000000, 76.000000)">
            <circle id="Oval" fill="#0F62FE" cx="14" cy="14" r="14"></circle>
            <g transform="translate(7.000000, 6.000000)" id="icon/controls/start/16">
                <mask id="mask-2" fill="white">
                    <use xlink:href="#path-1"></use>
                </mask>
                <use id="icon-color" fill="#FFFFFF" xlink:href="#path-1"></use>
            </g>
        </g>
    </g>
</svg>