<?xml version="1.0" encoding="UTF-8"?>
<svg width="320px" height="180px" viewBox="0 0 320 180" version="1.1" xmlns="http://www.w3.org/2000/svg" xmlns:xlink="http://www.w3.org/1999/xlink">
    <title>workflow-status</title>
    <defs>
        <rect id="path-1" x="225" y="108" width="8" height="8" rx="4"></rect>
        <mask id="mask-2" maskContentUnits="userSpaceOnUse" maskUnits="objectBoundingBox" x="0" y="0" width="8" height="8" fill="white">
            <use xlink:href="#path-1"></use>
        </mask>
        <rect id="path-3" x="140" y="108" width="8" height="8" rx="4"></rect>
        <mask id="mask-4" maskContentUnits="userSpaceOnUse" maskUnits="objectBoundingBox" x="0" y="0" width="8" height="8" fill="white">
            <use xlink:href="#path-3"></use>
        </mask>
        <rect id="path-5" x="0" y="0" width="6" height="13"></rect>
    </defs>
    <g id="workflow-status" stroke="none" stroke-width="1" fill="none" fill-rule="evenodd">
        <rect id="Rectangle-Copy-2" fill="#A8A8A8" x="97" y="84" width="40" height="1"></rect>
        <line x1="187.5" y1="84.5" x2="229.5" y2="84.5" id="Line-6" stroke="#979797" stroke-linecap="square" stroke-dasharray="3"></line>
        <g id="contract-(1)" transform="translate(59.000000, 65.000000)">
            <path d="M26.094449,31 L7.79494615,31 C7.60328293,31 7.44821872,30.842311 7.44821872,30.6474035 L7.44821872,29.0411305 L5.86868268,29.0411305 C5.67701947,29.0411305 5.52195526,28.8834415 5.52195526,28.688534 L5.52195526,27.082261 L4.90555095,27.082261 C4.71388774,27.082261 4.55882353,26.924572 4.55882353,26.7296645 L4.55882353,3.2232307 C4.55882353,3.02832318 4.71388774,2.87063419 4.90555095,2.87063419 L9.37448219,2.87063419 L9.37448219,2.24379596 C9.37448219,2.04888844 9.5295464,1.89119945 9.72120961,1.89119945 L11.3007457,1.89119945 L11.3007457,1.26436121 C11.3007457,1.0694537 11.4558099,0.911764706 11.6474731,0.911764706 L15.5,0.911764706 C15.6916632,0.911764706 15.8467274,1.0694537 15.8467274,1.26436121 L15.8467274,1.89119945 L17.4262635,1.89119945 C17.6179267,1.89119945 17.7729909,2.04888844 17.7729909,2.24379596 L17.7729909,2.87063419 L22.2419221,2.87063419 C22.4335853,2.87063419 22.5886495,3.02832318 22.5886495,3.2232307 L22.5886495,4.82950368 L24.1681856,4.82950368 C24.3598488,4.82950368 24.514913,4.98719267 24.514913,5.18210018 L24.514913,6.78837316 L26.094449,6.78837316 C26.2861123,6.78837316 26.4411765,6.94606216 26.4411765,7.14096967 L26.4411765,30.6474035 C26.4411765,30.842311 26.2861123,31 26.094449,31 Z M8.14167357,30.294807 L25.7477216,30.294807 L25.7477216,7.49356618 L24.514913,7.49356618 L24.514913,28.688534 C24.514913,28.8834415 24.3598488,29.0411305 24.1681856,29.0411305 L8.14167357,29.0411305 L8.14167357,30.294807 Z M6.21541011,28.3359375 L23.8214582,28.3359375 L23.8214582,5.53469669 L22.5886495,5.53469669 L22.5886495,26.7296645 C22.5886495,26.924572 22.4335853,27.082261 22.2419221,27.082261 L6.21541011,27.082261 L6.21541011,28.3359375 Z M5.25227838,26.377068 L21.8951947,26.377068 L21.8951947,3.57582721 L17.7729909,3.57582721 L17.7729909,4.20266544 C17.7729909,4.39757295 17.6179267,4.55526195 17.4262635,4.55526195 L9.72120961,4.55526195 C9.5295464,4.55526195 9.37448219,4.39757295 9.37448219,4.20266544 L9.37448219,3.57582721 L5.25227838,3.57582721 L5.25227838,26.377068 Z M10.067937,3.85006893 L17.079536,3.85006893 L17.079536,2.59639246 L15.5,2.59639246 C15.3083368,2.59639246 15.1532726,2.43870347 15.1532726,2.24379596 L15.1532726,1.61695772 L11.9942005,1.61695772 L11.9942005,2.24379596 C11.9942005,2.43870347 11.8391363,2.59639246 11.6474731,2.59639246 L10.067937,2.59639246 C10.067937,2.59639246 10.067937,3.85006893 10.067937,3.85006893 Z M19.8340928,21.2056526 L7.31338028,21.2056526 L7.31338028,20.5004596 L19.8340928,20.5004596 L19.8340928,21.2056526 Z M19.8340928,17.2879136 L7.31338028,17.2879136 L7.31338028,16.5827206 L19.8340928,16.5827206 L19.8340928,17.2879136 Z M19.8340928,13.3701746 L7.31338028,13.3701746 L7.31338028,12.6649816 L19.8340928,12.6649816 L19.8340928,13.3701746 Z M19.8340928,9.45243566 L7.31338028,9.45243566 L7.31338028,8.74724265 L19.8340928,8.74724265 L19.8340928,9.45243566 Z" id="contract" fill="#000000" fill-rule="nonzero"></path>
            <rect id="_Transparent_Rectangle" x="0" y="0" width="31" height="31"></rect>
        </g>
        <circle id="Oval" stroke="#161616" stroke-width="0.72" cx="236.75" cy="94.75" r="1.75"></circle>
        <polyline id="Line-4" stroke="#161616" stroke-width="0.72" stroke-linecap="square" points="237.5 92.5 237.5 70.5 233 68"></polyline>
        <polyline id="Line" stroke="#161616" stroke-width="0.72" stroke-linecap="square" points="239.5 94.5 254 94.5 258.5 94.5"></polyline>
        <line x1="249.5" y1="87.5" x2="254.5" y2="87.5" id="Line-Copy-9" stroke="#161616" stroke-width="0.72" stroke-linecap="square"></line>
        <rect id="Rectangle" stroke="#161616" stroke-width="0.72" x="239.1" y="75.9" width="18" height="17"></rect>
        <line x1="249.5" y1="89" x2="252.5" y2="89" id="Line-Copy-11" stroke="#161616" stroke-width="0.72" stroke-linecap="square"></line>
        <rect id="Rectangle-Copy-106" stroke="#161616" stroke-width="0.72" x="241.5" y="87" width="6" height="3"></rect>
        <path d="M245.5,75.5 C245.833333,79.8333333 246,82 246,82 C246,82 246.666667,81.3333333 248,80 L250,82 L250,75.5 L245.5,75.5 Z" id="Line" stroke="#161616" stroke-width="0.72" stroke-linecap="square"></path>
        <g id="Group" transform="translate(147.000000, 67.000000)" fill="#000000">
            <g id="pictograms/manufacture/truck" transform="translate(15.500000, 15.500000) scale(-1, 1) translate(-15.500000, -15.500000) ">
                <path d="M28.9399531,24.21875 L27.7871406,24.21875 C27.6098594,22.5893125 26.2429531,21.3125 24.5670156,21.3125 C22.8920469,21.3125 21.5241719,22.5893125 21.3478594,24.21875 L12.3220156,24.21875 L12.3220156,9.0675 L12.3220156,4.6015625 L28.9399531,4.57346875 L28.9399531,24.21875 Z M24.5670156,27.125 C23.1574844,27.125 22.0095156,25.9770312 22.0095156,24.5675 C22.0095156,23.157 23.1574844,22.01 24.5670156,22.01 C25.9775156,22.01 27.1245156,23.157 27.1245156,24.5675 C27.1245156,25.9770312 25.9775156,27.125 24.5670156,27.125 L24.5670156,27.125 Z M9.41576563,15.5 L11.6245156,15.5 L11.6245156,9.41625 L9.41576563,9.41625 L9.41576563,15.5 Z M11.6245156,24.21875 L9.38089062,24.21875 C9.20360937,22.5893125 7.83670313,21.3125 6.16076563,21.3125 C4.48579687,21.3125 3.11792187,22.5893125 2.94160938,24.21875 L2.28576563,24.21875 C1.41001563,24.21875 0.697015625,23.50575 0.697015625,22.63 L0.697015625,16.1975 L11.6245156,16.1975 L11.6245156,24.21875 Z M6.16076563,27.125 C4.75123438,27.125 3.60326563,25.9770312 3.60326563,24.5675 C3.60326563,23.157 4.75123438,22.01 6.16076563,22.01 C7.57126563,22.01 8.71826563,23.157 8.71826563,24.5675 C8.71826563,25.9770312 7.57126563,27.125 6.16076563,27.125 L6.16076563,27.125 Z M4.46448438,9.41625 L8.71826563,9.41625 L8.71826563,15.5 L0.952765625,15.5 L4.46448438,9.41625 Z M29.5347656,3.97671875 C29.4698594,3.9118125 29.3807344,3.875 29.2887031,3.875 L29.2877344,3.875 L11.9732656,3.90503125 C11.7804844,3.90503125 11.6245156,4.061 11.6245156,4.25378125 L11.6245156,8.71875 L4.26395312,8.71875 C4.24942187,8.71875 4.23585937,8.72553125 4.22132812,8.72746875 C4.19710938,8.730375 4.17482813,8.73328125 4.15157812,8.74103125 C4.13026563,8.74878125 4.11185937,8.7594375 4.09248437,8.77009375 C4.07310938,8.78171875 4.05470313,8.792375 4.03726563,8.80690625 C4.01885937,8.82240625 4.00529687,8.8408125 3.99076562,8.8601875 C3.98204687,8.8718125 3.96945313,8.88053125 3.96170313,8.893125 L0.046015625,15.674375 C0.042140625,15.6811563 0.042140625,15.6879375 0.039234375,15.6956875 C0.029546875,15.7150625 0.023734375,15.736375 0.018890625,15.7576875 C0.012109375,15.7819063 0.005328125,15.8041875 0.004359375,15.8284063 C0.003390625,15.8361563 -0.000484375,15.8419688 -0.000484375,15.84875 L-0.000484375,22.63 C-0.000484375,23.8903438 1.02542187,24.91625 2.28576563,24.91625 L2.94160938,24.91625 C3.11792187,26.5447188 4.48579687,27.8225 6.16076563,27.8225 C7.83670313,27.8225 9.20360937,26.5447188 9.38089062,24.91625 L11.9732656,24.91625 L21.3478594,24.91625 C21.5241719,26.5447188 22.8920469,27.8225 24.5670156,27.8225 C26.2429531,27.8225 27.6098594,26.5447188 27.7871406,24.91625 L29.2887031,24.91625 C29.4814844,24.91625 29.6374531,24.7602813 29.6374531,24.5675 L29.6374531,4.22375 C29.6374531,4.13075 29.6006406,4.04259375 29.5347656,3.97671875 L29.5347656,3.97671875 Z M13.9111531,7.44862187 L27.4736531,7.44862187 C27.6664344,7.44862187 27.8224031,7.29265312 27.8224031,7.09987187 C27.8224031,6.90709062 27.6664344,6.75112187 27.4736531,6.75112187 L13.9111531,6.75112187 C13.7183719,6.75112187 13.5624031,6.90709062 13.5624031,7.09987187 C13.5624031,7.29265312 13.7183719,7.44862187 13.9111531,7.44862187 M27.4736531,9.6875 L15.8486531,9.6875 C15.6558719,9.6875 15.4999031,9.84346875 15.4999031,10.03625 C15.4999031,10.2290312 15.6558719,10.385 15.8486531,10.385 L27.4736531,10.385 C27.6664344,10.385 27.8224031,10.2290312 27.8224031,10.03625 C27.8224031,9.84346875 27.6664344,9.6875 27.4736531,9.6875 M27.4736531,12.59375 L17.7861531,12.59375 C17.5933719,12.59375 17.4374031,12.7497187 17.4374031,12.9425 C17.4374031,13.1352812 17.5933719,13.29125 17.7861531,13.29125 L27.4736531,13.29125 C27.6664344,13.29125 27.8224031,13.1352812 27.8224031,12.9425 C27.8224031,12.7497187 27.6664344,12.59375 27.4736531,12.59375 M27.4736531,15.5 L19.7236531,15.5 C19.5308719,15.5 19.3749031,15.6559687 19.3749031,15.84875 C19.3749031,16.0415312 19.5308719,16.1975 19.7236531,16.1975 L27.4736531,16.1975 C27.6664344,16.1975 27.8224031,16.0415312 27.8224031,15.84875 C27.8224031,15.6559687 27.6664344,15.5 27.4736531,15.5 M8.09865312,18.1347094 L10.0361531,18.1347094 C10.2289344,18.1347094 10.3849031,17.9787406 10.3849031,17.7859594 C10.3849031,17.5931781 10.2289344,17.4372094 10.0361531,17.4372094 L8.09865312,17.4372094 C7.90587187,17.4372094 7.74990312,17.5931781 7.74990312,17.7859594 C7.74990312,17.9787406 7.90587187,18.1347094 8.09865312,18.1347094" id="Fill-1"></path>
            </g>
        </g>
        <rect id="Rectangle" fill="#0F62FE" x="54" y="108" width="8" height="8" rx="4"></rect>
        <rect id="Rectangle-3-Copy-55" fill="#A8A8A8" x="67" y="111" width="28" height="3"></rect>
        <rect id="Rectangle-3-Copy-56" fill="#A8A8A8" x="153" y="111" width="28" height="3"></rect>
        <use id="Rectangle-Copy-4" stroke="#0F62FE" mask="url(#mask-2)" stroke-width="2" stroke-dasharray="1" xlink:href="#path-1"></use>
        <use id="Rectangle-Copy-5" stroke="#0F62FE" mask="url(#mask-4)" stroke-width="2" stroke-dasharray="1" xlink:href="#path-3"></use>
        <g id="Rectangle-Copy" transform="translate(138.000000, 105.000000)">
            <mask id="mask-6" fill="white">
                <use xlink:href="#path-5"></use>
            </mask>
            <g id="Mask"></g>
            <rect fill="#0F62FE" mask="url(#mask-6)" x="2" y="3" width="8" height="8" rx="4"></rect>
        </g>
        <rect id="Rectangle-3-Copy-57" fill="#A8A8A8" x="238" y="111" width="28" height="3"></rect>
    </g>
</svg>