<?xml version="1.0" encoding="UTF-8"?>
<svg width="14px" height="14px" viewBox="0 0 14 14" version="1.1" xmlns="http://www.w3.org/2000/svg" xmlns:xlink="http://www.w3.org/1999/xlink">
    <title>14-license</title>
    <g id="Page-1" stroke="none" stroke-width="1" fill="none" fill-rule="evenodd">
        <path d="M9,7 C9,8.38071187 10.1192881,9.5 11.5,9.5 C12.8807119,9.5 14,8.38071187 14,7 C14,6.92236576 13.9819578,6.84579383 13.94725,6.77635 L11.948,2.7781 C11.9411515,2.7641127 11.9335744,2.75049401 11.9253,2.7373 C11.8342416,2.58983602 11.6733126,2.50004426 11.5,2.5 L8.41090001,2.5 C8.25804976,2.07653299 7.92396061,1.74352581 7.5,1.59205 L7.5,0 L6.5,0 L6.5,1.59205 C6.07603942,1.74352581 5.74195027,2.07653299 5.58910001,2.5 L2.5,2.5 C2.31061049,2.49997803 2.13746395,2.60696304 2.05275001,2.77635 L0.0527500135,6.77635 C0.0180422281,6.84579383 0,6.92236576 0,7 C0,8.38071187 1.11928814,9.5 2.5,9.5 C3.88071189,9.5 5,8.38071187 5,7 C5.00001802,6.92236576 4.9819578,6.84579383 4.94725001,6.77635 L3.30910001,3.5 L5.58910001,3.5 C5.74196408,3.92340282 6.07606186,4.25632691 6.5,4.4077 L6.5,13 L2,13 L2,14 L12,14 L12,13 L7.5,13 L7.5,4.40795 C7.92396061,4.25647419 8.25804976,3.92346701 8.41090001,3.5 L10.6909,3.5 L9.05275001,6.77635 C9.01804223,6.84579383 8.999982,6.92236576 9,7 Z M2.50000001,8.5 C1.86655372,8.49783016 1.30295425,8.09743269 1.09240001,7.5 L3.90740001,7.5 C3.69689538,8.0973826 3.13338238,8.49777553 2.50000001,8.5 L2.50000001,8.5 Z M3.69105001,6.5 L1.30895001,6.5 L2.50000001,4.11815 L3.69105001,6.5 Z M7.00000001,3.5 C6.72385764,3.5 6.50000001,3.27614237 6.50000001,3 C6.50000001,2.72385763 6.72385764,2.5 7.00000001,2.5 C7.27614239,2.5 7.50000001,2.72385763 7.50000001,3 C7.49975191,3.27603954 7.27603956,3.4997519 7.00000001,3.5 Z M11.5,8.5 C10.8665537,8.49783016 10.3029543,8.09743269 10.0924,7.5 L12.9074,7.5 C12.6968954,8.0973826 12.1333824,8.49777553 11.5,8.5 L11.5,8.5 Z M11.5,4.11815 L12.69105,6.5 L10.30895,6.5 L11.5,4.11815 Z" id="Shape-Copy-24" fill="#000000" fill-rule="nonzero"></path>
    </g>
</svg>