<?xml version="1.0" encoding="utf-8"?>
<!-- Generator: Adobe Illustrator 25.0.0, SVG Export Plug-In . SVG Version: 6.00 Build 0)  -->
<svg version="1.1" id="Layer_1" xmlns="http://www.w3.org/2000/svg" xmlns:xlink="http://www.w3.org/1999/xlink" x="0px" y="0px"
	 viewBox="0 0 40.5 550.5" style="enable-background:new 0 0 40.5 550.5;" xml:space="preserve">
<style type="text/css">
	.st0{fill:#161616;}
	.st1{fill:#8A3FFC;}
	.st2{fill:#FFFFFF;}
</style>
<g id="Base">
	<polyline class="st0" points="40.5,553.7 0,553.7 0,-2.7 40.5,-2.7 	"/>
</g>
<g id="Dot_Grid">
	<circle class="st1" cx="1.2" cy="118.6" r="0.7"/>
	<path class="st1" d="M1.2,118.3c0.2,0,0.3,0.1,0.3,0.3c0,0.2-0.1,0.3-0.3,0.3s-0.3-0.1-0.3-0.3l0,0C0.9,118.4,1,118.3,1.2,118.3
		 M1.2,117.5c-0.6,0-1.1,0.4-1.1,1s0.4,1.1,1,1.1s1.1-0.4,1.1-1c0,0,0,0,0-0.1C2.2,118,1.7,117.6,1.2,117.5z"/>
	<circle class="st1" cx="20.8" cy="118.6" r="0.7"/>
	<path class="st1" d="M20.8,118.3c0.2,0,0.3,0.1,0.3,0.3c0,0.2-0.1,0.3-0.3,0.3c-0.2,0-0.3-0.1-0.3-0.3l0,0
		C20.5,118.4,20.6,118.3,20.8,118.3 M20.8,117.5c-0.6,0-1.1,0.5-1.1,1.1s0.5,1.1,1.1,1.1s1.1-0.5,1.1-1.1l0,0
		C21.8,118,21.3,117.5,20.8,117.5z"/>
	<path class="st1" d="M1.2,138.9c-0.4,0-0.7-0.3-0.7-0.7s0.3-0.7,0.7-0.7s0.7,0.3,0.7,0.7l0,0C1.8,138.6,1.5,138.9,1.2,138.9z"/>
	<path class="st1" d="M1.2,137.9c0.2,0,0.3,0.1,0.3,0.3s-0.1,0.3-0.3,0.3s-0.3-0.1-0.3-0.3l0,0C0.9,138,1,137.9,1.2,137.9
		 M1.2,137.2c-0.6,0-1.1,0.4-1.1,1s0.4,1.1,1,1.1s1.1-0.4,1.1-1c0,0,0,0,0-0.1C2.2,137.7,1.7,137.2,1.2,137.2z"/>
	<path class="st1" d="M20.8,138.9c-0.4,0-0.7-0.3-0.7-0.7s0.3-0.7,0.7-0.7c0.4,0,0.7,0.3,0.7,0.7l0,0
		C21.4,138.6,21.1,138.9,20.8,138.9z"/>
	<path class="st1" d="M20.8,137.9c0.2,0,0.3,0.1,0.3,0.3s-0.1,0.3-0.3,0.3c-0.2,0-0.3-0.1-0.3-0.3l0,0
		C20.5,138,20.6,137.9,20.8,137.9 M20.8,137.2c-0.6,0-1.1,0.5-1.1,1.1s0.5,1.1,1.1,1.1s1.1-0.5,1.1-1.1l0,0
		C21.8,137.6,21.3,137.2,20.8,137.2z"/>
	<path class="st1" d="M1.2,158.5c-0.4,0-0.7-0.3-0.7-0.7s0.3-0.7,0.7-0.7s0.7,0.3,0.7,0.7C1.8,158.2,1.5,158.5,1.2,158.5z"/>
	<path class="st1" d="M1.2,157.5c0.2,0,0.3,0.1,0.3,0.3s-0.1,0.3-0.3,0.3s-0.3-0.1-0.3-0.3l0,0C0.9,157.6,1,157.5,1.2,157.5
		 M1.2,156.8c-0.6,0-1.1,0.4-1.1,1s0.4,1.1,1,1.1s1.1-0.4,1.1-1c0,0,0,0,0-0.1C2.2,157.3,1.7,156.8,1.2,156.8z"/>
	<path class="st1" d="M20.8,158.5c-0.4,0-0.7-0.3-0.7-0.7s0.3-0.7,0.7-0.7c0.4,0,0.7,0.3,0.7,0.7l0,0
		C21.4,158.2,21.2,158.5,20.8,158.5L20.8,158.5z"/>
	<path class="st1" d="M20.8,157.5c0.2,0,0.3,0.1,0.3,0.3s-0.1,0.3-0.3,0.3c-0.2,0-0.3-0.1-0.3-0.3l0,0
		C20.5,157.6,20.6,157.5,20.8,157.5 M20.8,156.8c-0.6,0-1.1,0.5-1.1,1.1s0.5,1.1,1.1,1.1s1.1-0.5,1.1-1.1l0,0
		C21.8,157.2,21.3,156.8,20.8,156.8z"/>
	<path class="st1" d="M1.2,178.1c-0.4,0-0.7-0.3-0.7-0.7s0.3-0.7,0.7-0.7s0.7,0.3,0.7,0.7C1.8,177.8,1.5,178.1,1.2,178.1z"/>
	<path class="st1" d="M1.2,177.1c0.2,0,0.3,0.1,0.3,0.3s-0.2,0.3-0.4,0.2c-0.1,0-0.2-0.1-0.2-0.2C0.9,177.3,1,177.1,1.2,177.1
		 M1.2,176.4c-0.6,0-1.1,0.4-1.1,1s0.4,1.1,1,1.1s1.1-0.4,1.1-1c0,0,0,0,0-0.1C2.2,176.9,1.7,176.4,1.2,176.4z"/>
	<path class="st1" d="M20.8,178.1c-0.4,0-0.7-0.3-0.7-0.7s0.3-0.7,0.7-0.7c0.4,0,0.7,0.3,0.7,0.7l0,0
		C21.4,177.8,21.1,178.1,20.8,178.1z"/>
	<path class="st1" d="M20.8,177.1c0.2,0,0.3,0.1,0.3,0.3s-0.1,0.3-0.3,0.3c-0.2,0-0.3-0.1-0.3-0.3C20.5,177.3,20.6,177.1,20.8,177.1
		 M20.8,176.4c-0.6,0-1.1,0.5-1.1,1.1s0.5,1.1,1.1,1.1s1.1-0.5,1.1-1.1l0,0C21.8,176.8,21.3,176.4,20.8,176.4z"/>
	<path class="st1" d="M1.2,197.7c-0.4,0-0.7-0.3-0.7-0.7s0.3-0.7,0.7-0.7s0.7,0.3,0.7,0.7C1.8,197.4,1.5,197.7,1.2,197.7z"/>
	<path class="st1" d="M1.2,196.7c0.2,0,0.3,0.1,0.3,0.3l0,0c0,0.2-0.1,0.3-0.2,0.4s-0.3-0.1-0.4-0.2v-0.1
		C0.9,196.9,1,196.7,1.2,196.7L1.2,196.7 M1.2,196c-0.6,0-1.1,0.4-1.1,1s0.4,1.1,1,1.1s1.1-0.4,1.1-1c0,0,0,0,0-0.1
		C2.2,196.5,1.7,196,1.2,196z"/>
	<path class="st1" d="M20.8,197.7c-0.4,0-0.7-0.3-0.7-0.7s0.3-0.7,0.7-0.7c0.4,0,0.7,0.3,0.7,0.7l0,0
		C21.4,197.4,21.2,197.7,20.8,197.7L20.8,197.7z"/>
	<path class="st1" d="M20.8,196.7c0.2,0,0.3,0.1,0.3,0.3l0,0c0,0.2-0.1,0.3-0.3,0.3c-0.2,0-0.3-0.1-0.3-0.3l0,0
		C20.5,196.9,20.6,196.7,20.8,196.7L20.8,196.7 M20.8,196c-0.6,0-1.1,0.5-1.1,1.1s0.5,1.1,1.1,1.1s1.1-0.5,1.1-1.1l0,0
		C21.8,196.4,21.3,196,20.8,196z"/>
	<path class="st1" d="M1.2,217.3c-0.4,0-0.7-0.3-0.7-0.7s0.3-0.7,0.7-0.7s0.7,0.3,0.7,0.7C1.8,217,1.5,217.3,1.2,217.3z"/>
	<path class="st1" d="M1.2,216.3c0.2,0,0.3,0.1,0.3,0.3s-0.2,0.3-0.4,0.2c-0.1,0-0.2-0.1-0.2-0.2C0.9,216.5,1,216.3,1.2,216.3
		 M1.2,215.6c-0.6,0-1.1,0.4-1.1,1s0.4,1.1,1,1.1s1.1-0.4,1.1-1c0,0,0,0,0-0.1C2.2,216.1,1.7,215.6,1.2,215.6z"/>
	<path class="st1" d="M20.8,217.3c-0.4,0-0.7-0.3-0.7-0.7s0.3-0.7,0.7-0.7c0.4,0,0.7,0.3,0.7,0.7l0,0
		C21.4,217,21.1,217.3,20.8,217.3z"/>
	<path class="st1" d="M20.8,216.3c0.2,0,0.3,0.1,0.3,0.3s-0.1,0.3-0.3,0.3c-0.2,0-0.3-0.1-0.3-0.3C20.5,216.5,20.6,216.3,20.8,216.3
		 M20.8,215.6c-0.6,0-1.1,0.5-1.1,1.1s0.5,1.1,1.1,1.1s1.1-0.5,1.1-1.1l0,0C21.8,216,21.3,215.6,20.8,215.6z"/>
	<path class="st1" d="M1.2,236.9c-0.4,0-0.7-0.3-0.7-0.7s0.3-0.7,0.7-0.7s0.7,0.3,0.7,0.7C1.8,236.6,1.5,236.9,1.2,236.9z"/>
	<path class="st1" d="M1.2,235.9c0.2,0,0.3,0.1,0.3,0.3l0,0c0,0.2-0.1,0.3-0.2,0.4s-0.3-0.1-0.4-0.2v-0.1
		C0.9,236.1,1,235.9,1.2,235.9L1.2,235.9 M1.2,235.2c-0.6,0-1.1,0.4-1.1,1s0.4,1.1,1,1.1s1.1-0.4,1.1-1c0,0,0,0,0-0.1
		C2.2,235.7,1.7,235.2,1.2,235.2z"/>
	<path class="st1" d="M20.8,236.9c-0.4,0-0.7-0.3-0.7-0.7s0.3-0.7,0.7-0.7c0.4,0,0.7,0.3,0.7,0.7l0,0
		C21.4,236.6,21.2,236.9,20.8,236.9L20.8,236.9z"/>
	<path class="st1" d="M20.8,235.9c0.2,0,0.3,0.1,0.3,0.3l0,0c0,0.2-0.1,0.3-0.3,0.3c-0.2,0-0.3-0.1-0.3-0.3l0,0
		C20.5,236.1,20.6,235.9,20.8,235.9L20.8,235.9 M20.8,235.2c-0.6,0-1.1,0.5-1.1,1.1s0.5,1.1,1.1,1.1s1-0.5,1.1-1
		C21.8,235.7,21.3,235.2,20.8,235.2L20.8,235.2z"/>
	<path class="st1" d="M1.2,256.5c-0.4,0-0.7-0.3-0.7-0.7c0-0.4,0.3-0.7,0.7-0.7s0.7,0.3,0.7,0.7C1.8,256.2,1.5,256.5,1.2,256.5z"/>
	<path class="st1" d="M1.2,255.5c0.2,0,0.3,0.1,0.3,0.3s-0.2,0.3-0.4,0.2c-0.1,0-0.2-0.1-0.2-0.2C0.9,255.7,1,255.5,1.2,255.5
		 M1.2,254.8c-0.6-0.1-1.1,0.4-1.2,1c-0.1,0.6,0.4,1.1,1,1.2c0.1,0,0.1,0,0.2,0c0.6-0.1,1-0.6,1-1.2C2.1,255.2,1.7,254.8,1.2,254.8z
		"/>
	<path class="st1" d="M20.8,256.5c-0.4,0-0.7-0.3-0.7-0.7s0.3-0.7,0.7-0.7c0.4,0,0.7,0.3,0.7,0.7l0,0
		C21.4,256.2,21.1,256.5,20.8,256.5z"/>
	<path class="st1" d="M20.8,255.5c0.2,0,0.3,0.1,0.3,0.3s-0.1,0.3-0.3,0.3c-0.2,0-0.3-0.1-0.3-0.3l0,0
		C20.5,255.7,20.6,255.5,20.8,255.5 M20.8,254.8c-0.6,0-1.1,0.5-1.1,1.1c0,0.6,0.5,1.1,1.1,1.1s1.1-0.5,1.1-1.1l0,0
		C21.8,255.3,21.3,254.8,20.8,254.8z"/>
	<path class="st1" d="M1.2,276.1c-0.4,0-0.7-0.3-0.7-0.7c0-0.4,0.3-0.7,0.7-0.7l0,0c0.4,0,0.7,0.3,0.7,0.7
		C1.8,275.8,1.5,276.1,1.2,276.1L1.2,276.1z"/>
	<path class="st1" d="M1.2,275.1c0.2,0,0.3,0.1,0.3,0.3c0,0.2-0.1,0.3-0.2,0.4c-0.2,0-0.3-0.1-0.4-0.2v-0.1
		C0.9,275.3,1,275.1,1.2,275.1L1.2,275.1 M1.2,274.4c-0.6,0-1.1,0.4-1.1,1s0.4,1.1,1,1.1s1.1-0.4,1.1-1c0,0,0,0,0-0.1
		C2.2,274.9,1.7,274.4,1.2,274.4z"/>
	<path class="st1" d="M20.8,276.1c-0.4,0-0.7-0.3-0.7-0.7s0.3-0.7,0.7-0.7c0.4,0,0.7,0.3,0.7,0.7l0,0
		C21.4,275.8,21.2,276.1,20.8,276.1L20.8,276.1z"/>
	<path class="st1" d="M20.8,275.1c0.2,0,0.3,0.1,0.3,0.3l0,0c0,0.2-0.1,0.3-0.3,0.3c-0.2,0-0.3-0.1-0.3-0.3
		C20.5,275.3,20.6,275.1,20.8,275.1L20.8,275.1 M20.8,274.4c-0.6,0-1.1,0.5-1.1,1.1s0.5,1.1,1.1,1.1s1.1-0.5,1.1-1.1l0,0
		C21.8,274.9,21.3,274.4,20.8,274.4z"/>
	<circle class="st1" cx="1.2" cy="295.1" r="0.7"/>
	<path class="st1" d="M1.2,294.7c0.2,0,0.3,0.1,0.3,0.3s-0.1,0.3-0.3,0.3s-0.3-0.1-0.3-0.3l0,0C0.9,294.9,1,294.7,1.2,294.7
		 M1.2,294c-0.6,0-1.1,0.4-1.1,1s0.4,1.1,1,1.1s1.1-0.4,1.1-1c0,0,0,0,0-0.1C2.2,294.5,1.7,294,1.2,294z"/>
	<circle class="st1" cx="20.8" cy="295.1" r="0.7"/>
	<path class="st1" d="M20.8,294.7c0.2,0,0.3,0.1,0.3,0.3c0,0.2-0.1,0.3-0.3,0.3c-0.2,0-0.3-0.1-0.3-0.3l0,0
		C20.5,294.9,20.6,294.7,20.8,294.7 M20.8,294c-0.6,0-1.1,0.5-1.1,1.1s0.5,1.1,1.1,1.1s1.1-0.5,1.1-1.1l0,0
		C21.8,294.5,21.3,294,20.8,294z"/>
	<circle class="st1" cx="1.2" cy="314.7" r="0.7"/>
	<path class="st1" d="M1.2,314.4c0.2,0,0.3,0.2,0.2,0.4c0,0.1-0.1,0.2-0.2,0.2c-0.2,0-0.3-0.1-0.4-0.2c0-0.2,0.1-0.3,0.2-0.4
		C1.1,314.3,1.1,314.3,1.2,314.4 M1.2,313.6c-0.6,0-1.1,0.4-1.1,1s0.4,1.1,1,1.1s1.1-0.4,1.1-1c0,0,0,0,0-0.1
		C2.2,314.1,1.7,313.6,1.2,313.6z"/>
	<circle class="st1" cx="20.8" cy="314.7" r="0.7"/>
	<path class="st1" d="M20.8,314.4c0.2,0,0.3,0.1,0.3,0.3c0,0.2-0.1,0.3-0.3,0.3s-0.3-0.1-0.3-0.3l0,0
		C20.5,314.5,20.6,314.4,20.8,314.4 M20.8,313.6c-0.6,0-1.1,0.5-1.1,1.1s0.5,1.1,1.1,1.1s1.1-0.5,1.1-1.1l0,0
		C21.8,314.1,21.3,313.6,20.8,313.6z"/>
	<circle class="st1" cx="1.2" cy="334.3" r="0.7"/>
	<path class="st1" d="M1.2,334c0.2,0,0.3,0.1,0.3,0.3s-0.1,0.3-0.3,0.3s-0.3-0.1-0.3-0.3l0,0C0.9,334.1,1,334,1.2,334 M1.2,333.2
		c-0.6,0-1.1,0.4-1.1,1s0.4,1.1,1,1.1s1.1-0.4,1.1-1c0,0,0,0,0-0.1C2.2,333.7,1.7,333.2,1.2,333.2z"/>
	<circle class="st1" cx="20.8" cy="334.3" r="0.7"/>
	<path class="st1" d="M20.8,334c0.2,0,0.3,0.1,0.3,0.3c0,0.2-0.1,0.3-0.3,0.3c-0.2,0-0.3-0.1-0.3-0.3l0,0
		C20.5,334.1,20.6,334,20.8,334 M20.8,333.2c-0.6,0-1.1,0.5-1.1,1.1s0.5,1.1,1.1,1.1s1.1-0.5,1.1-1
		C21.8,333.7,21.3,333.2,20.8,333.2L20.8,333.2z"/>
	<circle class="st1" cx="1.2" cy="353.9" r="0.7"/>
	<path class="st1" d="M1.2,353.6c0.2,0,0.3,0.2,0.2,0.4c0,0.1-0.1,0.2-0.2,0.2c-0.2,0-0.3-0.1-0.4-0.2c0-0.2,0.1-0.3,0.2-0.4
		C1.1,353.6,1.1,353.6,1.2,353.6 M1.2,352.8c-0.6,0-1.1,0.4-1.1,1s0.4,1.1,1,1.1s1.1-0.4,1.1-1v-0.1C2.1,353.3,1.7,352.8,1.2,352.8z
		"/>
	<circle class="st1" cx="20.8" cy="353.9" r="0.7"/>
	<path class="st1" d="M20.8,353.6c0.2,0,0.3,0.1,0.3,0.3c0,0.2-0.1,0.3-0.3,0.3s-0.3-0.1-0.3-0.3l0,0
		C20.5,353.7,20.6,353.6,20.8,353.6 M20.8,352.8c-0.6,0-1.1,0.5-1.1,1.1s0.5,1.1,1.1,1.1s1.1-0.5,1.1-1.1c0,0,0,0,0-0.1
		C21.8,353.3,21.3,352.8,20.8,352.8z"/>
	<circle class="st1" cx="1.2" cy="373.5" r="0.7"/>
	<path class="st1" d="M1.2,373.2c0.2,0,0.3,0.1,0.3,0.3s-0.1,0.3-0.3,0.3s-0.3-0.1-0.3-0.3l0,0C0.9,373.3,1,373.2,1.2,373.2
		 M1.2,372.4c-0.6,0-1.1,0.4-1.1,1s0.4,1.1,1,1.1s1.1-0.4,1.1-1c0,0,0,0,0-0.1C2.2,372.9,1.7,372.4,1.2,372.4z"/>
	<circle class="st1" cx="20.8" cy="373.5" r="0.7"/>
	<path class="st1" d="M20.8,373.2c0.2,0,0.3,0.1,0.3,0.3c0,0.2-0.1,0.3-0.3,0.3c-0.2,0-0.3-0.1-0.3-0.3l0,0
		C20.5,373.3,20.6,373.2,20.8,373.2 M20.8,372.4c-0.6,0-1.1,0.5-1.1,1.1s0.5,1.1,1.1,1.1s1.1-0.5,1.1-1.1l0,0
		C21.8,372.9,21.3,372.4,20.8,372.4z"/>
	<path class="st1" d="M1.2,393.8c-0.4,0-0.7-0.3-0.7-0.7s0.3-0.7,0.7-0.7s0.7,0.3,0.7,0.7l0,0C1.8,393.5,1.5,393.8,1.2,393.8z"/>
	<path class="st1" d="M1.2,392.8c0.2,0,0.3,0.1,0.3,0.3s-0.1,0.3-0.3,0.3s-0.3-0.1-0.3-0.3l0,0C0.9,392.9,1,392.8,1.2,392.8
		 M1.2,392c-0.6,0-1.1,0.4-1.1,1s0.4,1.1,1,1.1s1.1-0.4,1.1-1c0,0,0,0,0-0.1C2.2,392.5,1.7,392.1,1.2,392z"/>
	<path class="st1" d="M20.8,393.8c-0.4,0-0.7-0.3-0.7-0.7c0-0.4,0.3-0.7,0.7-0.7c0.4,0,0.7,0.3,0.7,0.7l0,0
		C21.4,393.5,21.1,393.8,20.8,393.8z"/>
	<path class="st1" d="M20.8,392.8c0.2,0,0.3,0.1,0.3,0.3c0,0.2-0.1,0.3-0.3,0.3c-0.2,0-0.3-0.1-0.3-0.3l0,0
		C20.5,392.9,20.6,392.8,20.8,392.8 M20.8,392c-0.6,0-1.1,0.5-1.1,1.1s0.5,1.1,1.1,1.1s1.1-0.5,1.1-1.1l0,0
		C21.8,392.5,21.3,392,20.8,392z"/>
	<path class="st1" d="M1.2,413.4c-0.4,0-0.7-0.3-0.7-0.7c0-0.4,0.3-0.7,0.7-0.7l0,0c0.4,0,0.7,0.3,0.7,0.7
		C1.8,413.1,1.5,413.4,1.2,413.4L1.2,413.4z"/>
	<path class="st1" d="M1.2,412.4c0.2,0,0.3,0.1,0.3,0.3S1.3,413,1.2,413s-0.3-0.1-0.3-0.3l0,0C0.9,412.5,1,412.4,1.2,412.4
		 M1.2,411.6c-0.6,0-1.1,0.4-1.1,1s0.4,1.1,1,1.1s1.1-0.4,1.1-1c0,0,0,0,0-0.1C2.2,412.1,1.7,411.7,1.2,411.6z"/>
	<path class="st1" d="M20.8,413.4c-0.4,0-0.7-0.3-0.7-0.7s0.3-0.7,0.7-0.7c0.4,0,0.7,0.3,0.7,0.7l0,0
		C21.4,413.1,21.2,413.4,20.8,413.4L20.8,413.4z"/>
	<path class="st1" d="M20.8,412.4c0.2,0,0.3,0.1,0.3,0.3c0,0.2-0.1,0.3-0.3,0.3c-0.2,0-0.3-0.1-0.3-0.3l0,0
		C20.5,412.5,20.6,412.4,20.8,412.4 M20.8,411.6c-0.6,0-1.1,0.5-1.1,1.1s0.5,1.1,1.1,1.1s1.1-0.5,1.1-1.1l0,0
		C21.8,412.1,21.3,411.6,20.8,411.6z"/>
	<path class="st1" d="M1.2,433c-0.4,0-0.7-0.3-0.7-0.7c0-0.4,0.3-0.7,0.7-0.7s0.7,0.3,0.7,0.7C1.8,432.7,1.5,433,1.2,433z"/>
	<path class="st1" d="M1.2,432c0.2,0,0.3,0.1,0.3,0.3c0,0.2-0.2,0.3-0.4,0.2c-0.1,0-0.2-0.1-0.2-0.2C0.9,432.1,1,432,1.2,432
		 M1.2,431.2c-0.6,0-1.1,0.4-1.1,1s0.4,1.1,1,1.1s1.1-0.4,1.1-1c0,0,0,0,0-0.1C2.2,431.7,1.7,431.3,1.2,431.2z"/>
	<path class="st1" d="M20.8,433c-0.4,0-0.7-0.3-0.7-0.7s0.3-0.7,0.7-0.7c0.4,0,0.7,0.3,0.7,0.7l0,0C21.4,432.7,21.1,433,20.8,433z"
		/>
	<path class="st1" d="M20.8,432c0.2,0,0.3,0.1,0.3,0.3c0,0.2-0.1,0.3-0.3,0.3c-0.2,0-0.3-0.1-0.3-0.3l0,0
		C20.5,432.1,20.6,432,20.8,432 M20.8,431.2c-0.6,0-1.1,0.5-1.1,1.1s0.5,1.1,1.1,1.1s1.1-0.5,1.1-1.1l0,0
		C21.8,431.7,21.3,431.3,20.8,431.2L20.8,431.2z"/>
	<circle class="st1" cx="20.8" cy="118.6" r="0.7"/>
	<path class="st1" d="M20.8,118.3c0.2,0,0.3,0.1,0.3,0.3c0,0.2-0.1,0.3-0.3,0.3c-0.2,0-0.3-0.1-0.3-0.3l0,0
		C20.5,118.4,20.6,118.3,20.8,118.3 M20.8,117.5c-0.6,0-1.1,0.5-1.1,1.1s0.5,1.1,1.1,1.1s1.1-0.5,1.1-1.1l0,0
		C21.8,118,21.3,117.5,20.8,117.5z"/>
	<path class="st1" d="M20.8,433c-0.4,0-0.7-0.3-0.7-0.7s0.3-0.7,0.7-0.7c0.4,0,0.7,0.3,0.7,0.7l0,0C21.4,432.7,21.1,433,20.8,433z"
		/>
	<path class="st1" d="M20.8,432c0.2,0,0.3,0.1,0.3,0.3c0,0.2-0.1,0.3-0.3,0.3c-0.2,0-0.3-0.1-0.3-0.3l0,0
		C20.5,432.1,20.6,432,20.8,432 M20.8,431.2c-0.6,0-1.1,0.5-1.1,1.1s0.5,1.1,1.1,1.1s1.1-0.5,1.1-1.1l0,0
		C21.8,431.7,21.3,431.3,20.8,431.2L20.8,431.2z"/>
	<path class="st1" d="M20.8,452.1c-0.4,0-0.7-0.3-0.7-0.7c0-0.4,0.3-0.7,0.7-0.7c0.4,0,0.7,0.3,0.7,0.7l0,0
		C21.4,451.8,21.1,452.1,20.8,452.1L20.8,452.1z"/>
	<path class="st1" d="M20.8,451.1c0.2,0,0.3,0.1,0.3,0.3c0,0.2-0.1,0.3-0.3,0.3c-0.2,0-0.3-0.1-0.3-0.3l0,0
		C20.5,451.3,20.6,451.1,20.8,451.1 M20.8,450.4c-0.6,0-1.1,0.5-1.1,1.1s0.5,1.1,1.1,1.1s1.1-0.5,1.1-1.1l0,0
		C21.8,450.8,21.3,450.4,20.8,450.4z"/>
	<path class="st1" d="M20.8,471.7c-0.4,0-0.7-0.3-0.7-0.7s0.3-0.7,0.7-0.7c0.4,0,0.7,0.3,0.7,0.7l0,0
		C21.4,471.4,21.2,471.7,20.8,471.7L20.8,471.7z"/>
	<path class="st1" d="M20.8,470.7c0.2,0,0.3,0.1,0.3,0.3c0,0.2-0.1,0.3-0.3,0.3c-0.2,0-0.3-0.1-0.3-0.3l0,0
		C20.5,470.9,20.6,470.7,20.8,470.7 M20.8,470c-0.6,0-1.1,0.5-1.1,1.1s0.5,1.1,1.1,1.1s1.1-0.5,1.1-1.1l0,0
		C21.8,470.4,21.3,470,20.8,470z"/>
	<path class="st1" d="M20.8,491.3c-0.4,0-0.7-0.3-0.7-0.7s0.3-0.7,0.7-0.7c0.4,0,0.7,0.3,0.7,0.7l0,0
		C21.4,491,21.1,491.3,20.8,491.3z"/>
	<path class="st1" d="M20.8,490.3c0.2,0,0.3,0.1,0.3,0.3c0,0.2-0.1,0.3-0.3,0.3c-0.2,0-0.3-0.1-0.3-0.3l0,0
		C20.5,490.5,20.6,490.3,20.8,490.3 M20.8,489.6c-0.6,0-1.1,0.5-1.1,1.1s0.5,1.1,1.1,1.1s1.1-0.5,1.1-1.1l0,0
		C21.8,490,21.3,489.6,20.8,489.6z"/>
	<path class="st1" d="M20.8,510.9c-0.4,0-0.7-0.3-0.7-0.7s0.3-0.7,0.7-0.7c0.4,0,0.7,0.3,0.7,0.7l0,0
		C21.4,510.6,21.2,510.9,20.8,510.9L20.8,510.9z"/>
	<path class="st1" d="M20.8,509.9c0.2,0,0.3,0.1,0.3,0.3l0,0c0,0.2-0.1,0.3-0.3,0.3c-0.2,0-0.3-0.1-0.3-0.3l0,0
		C20.5,510.1,20.6,509.9,20.8,509.9L20.8,509.9 M20.8,509.2c-0.6,0-1.1,0.5-1.1,1.1s0.5,1.1,1.1,1.1s1-0.5,1.1-1
		C21.8,509.7,21.3,509.2,20.8,509.2L20.8,509.2z"/>
	<circle class="st1" cx="20.8" cy="529.8" r="0.7"/>
	<path class="st1" d="M20.8,529.5c0.2,0,0.3,0.1,0.3,0.3s-0.1,0.3-0.3,0.3c-0.2,0-0.3-0.1-0.3-0.3C20.5,529.7,20.6,529.5,20.8,529.5
		 M20.8,528.8c-0.6,0-1.1,0.5-1.1,1.1s0.5,1.1,1.1,1.1s1.1-0.5,1.1-1.1l0,0C21.8,529.3,21.3,528.8,20.8,528.8z"/>
	<circle class="st1" cx="20.8" cy="549.4" r="0.7"/>
	<path class="st1" d="M20.8,549.1c0.2,0,0.3,0.1,0.3,0.3l0,0c0,0.2-0.1,0.3-0.3,0.3c-0.2,0-0.3-0.1-0.3-0.3
		C20.5,549.3,20.6,549.1,20.8,549.1L20.8,549.1 M20.8,548.4c-0.6,0-1.1,0.5-1.1,1.1s0.5,1.1,1.1,1.1s1.1-0.5,1.1-1.1c0,0,0,0,0-0.1
		C21.8,548.8,21.3,548.4,20.8,548.4z"/>
	<path class="st1" d="M20.8,452.1c-0.4,0-0.7-0.3-0.7-0.7c0-0.4,0.3-0.7,0.7-0.7c0.4,0,0.7,0.3,0.7,0.7l0,0
		C21.4,451.8,21.1,452.1,20.8,452.1L20.8,452.1z"/>
	<path class="st1" d="M20.8,451.1c0.2,0,0.3,0.1,0.3,0.3c0,0.2-0.1,0.3-0.3,0.3c-0.2,0-0.3-0.1-0.3-0.3l0,0
		C20.5,451.3,20.6,451.1,20.8,451.1 M20.8,450.4c-0.6,0-1.1,0.5-1.1,1.1s0.5,1.1,1.1,1.1s1.1-0.5,1.1-1.1l0,0
		C21.8,450.8,21.3,450.4,20.8,450.4z"/>
	<path class="st1" d="M1.2,1.7C0.8,1.7,0.5,1.4,0.5,1s0.3-0.7,0.7-0.7S1.9,0.6,1.9,1l0,0C1.8,1.4,1.5,1.7,1.2,1.7z"/>
	<path class="st1" d="M1.2,0.8c0.2,0,0.3,0.1,0.3,0.3l0,0c0,0.2-0.1,0.3-0.2,0.4S0.9,1.3,0.9,1.2V1.1C0.9,0.9,1,0.8,1.2,0.8L1.2,0.8
		 M1.2,0C0.6,0,0.1,0.4,0,1c0,0.6,0.4,1.1,1,1.1s1.1-0.4,1.1-1V1C2.1,0.5,1.7,0,1.2,0z"/>
	<path class="st1" d="M20.8,1.7c-0.4,0-0.7-0.3-0.7-0.7s0.3-0.7,0.7-0.7c0.4,0,0.7,0.3,0.7,0.7l0,0C21.4,1.4,21.1,1.7,20.8,1.7
		L20.8,1.7z"/>
	<path class="st1" d="M20.8,0.8c0.2,0,0.3,0.1,0.3,0.3l0,0c0,0.2-0.1,0.3-0.3,0.3c-0.2,0-0.3-0.1-0.3-0.3l0,0
		C20.5,0.9,20.6,0.8,20.8,0.8L20.8,0.8 M20.8,0c-0.6,0-1.1,0.5-1.1,1.1s0.5,1.1,1.1,1.1s1.1-0.5,1.1-1.1c0,0,0,0,0-0.1
		C21.8,0.4,21.3,0,20.8,0z"/>
	<path class="st1" d="M1.2,21.3c-0.4,0-0.7-0.3-0.7-0.7S0.8,20,1.2,20s0.7,0.3,0.7,0.7C1.8,21,1.5,21.3,1.2,21.3z"/>
	<path class="st1" d="M1.2,20.4c0.2,0,0.3,0.1,0.3,0.3c0,0.2-0.1,0.3-0.3,0.3s-0.3-0.1-0.3-0.3l0,0C0.9,20.5,1,20.4,1.2,20.4
		 M1.2,19.6c-0.6,0-1.1,0.4-1.1,1s0.4,1.1,1,1.1s1.1-0.4,1.1-1c0,0,0,0,0-0.1C2.2,20.1,1.7,19.6,1.2,19.6z"/>
	<path class="st1" d="M20.8,21.3c-0.4,0-0.7-0.3-0.7-0.7s0.3-0.7,0.7-0.7s0.7,0.3,0.7,0.7S21.1,21.3,20.8,21.3L20.8,21.3z"/>
	<path class="st1" d="M20.8,20.4c0.2,0,0.3,0.1,0.3,0.3c0,0.2-0.1,0.3-0.3,0.3c-0.2,0-0.3-0.1-0.3-0.3l0,0
		C20.5,20.5,20.6,20.4,20.8,20.4 M20.8,19.6c-0.6,0-1.1,0.5-1.1,1.1s0.5,1.1,1.1,1.1s1.1-0.5,1.1-1.1l0,0
		C21.8,20.1,21.3,19.6,20.8,19.6z"/>
	<path class="st1" d="M1.2,41c-0.4,0-0.7-0.3-0.7-0.7s0.3-0.7,0.7-0.7s0.7,0.3,0.7,0.7l0,0C1.8,40.7,1.5,41,1.2,41z"/>
	<path class="st1" d="M1.2,40c0.2,0,0.3,0.2,0.2,0.4c0,0.1-0.1,0.2-0.2,0.2c-0.2,0-0.3-0.1-0.4-0.2c0-0.2,0.1-0.3,0.2-0.4
		C1.1,40,1.1,40,1.2,40 M1.2,39.2c-0.6,0-1.1,0.4-1.1,1s0.4,1.1,1,1.1s1.1-0.4,1.1-1c0,0,0,0,0-0.1C2.2,39.7,1.7,39.2,1.2,39.2z"/>
	<path class="st1" d="M20.8,41c-0.4,0-0.7-0.3-0.7-0.7s0.3-0.7,0.7-0.7c0.4,0,0.7,0.3,0.7,0.7l0,0C21.4,40.7,21.1,41,20.8,41
		L20.8,41z"/>
	<path class="st1" d="M20.8,40c0.2,0,0.3,0.1,0.3,0.3s-0.1,0.3-0.3,0.3c-0.2,0-0.3-0.1-0.3-0.3l0,0C20.5,40.1,20.6,40,20.8,40
		 M20.8,39.2c-0.6,0-1.1,0.5-1.1,1.1s0.5,1.1,1.1,1.1s1.1-0.5,1.1-1.1C21.8,39.7,21.3,39.2,20.8,39.2L20.8,39.2z"/>
	<path class="st1" d="M1.2,60.6c-0.4,0-0.7-0.3-0.7-0.7s0.3-0.7,0.7-0.7s0.7,0.3,0.7,0.7C1.8,60.3,1.5,60.6,1.2,60.6L1.2,60.6z"/>
	<path class="st1" d="M1.2,59.6c0.2,0,0.3,0.1,0.3,0.3s-0.1,0.3-0.3,0.3s-0.3-0.1-0.3-0.3S1,59.6,1.2,59.6L1.2,59.6 M1.2,58.8
		c-0.6,0-1.1,0.4-1.1,1s0.4,1.1,1,1.1s1.1-0.4,1.1-1c0,0,0,0,0-0.1C2.2,59.3,1.7,58.8,1.2,58.8z"/>
	<path class="st1" d="M20.8,60.6c-0.4,0-0.7-0.3-0.7-0.7s0.3-0.7,0.7-0.7s0.7,0.3,0.7,0.7C21.4,60.2,21.2,60.5,20.8,60.6L20.8,60.6z
		"/>
	<path class="st1" d="M20.8,59.6c0.2,0,0.3,0.1,0.3,0.3s-0.1,0.3-0.3,0.3c-0.2,0-0.3-0.1-0.3-0.3S20.6,59.6,20.8,59.6L20.8,59.6
		 M20.8,58.8c-0.6,0-1.1,0.5-1.1,1.1s0.5,1.1,1.1,1.1s1.1-0.5,1.1-1.1C21.8,59.3,21.3,58.8,20.8,58.8z"/>
	<path class="st1" d="M1.2,80.2c-0.4,0-0.7-0.3-0.7-0.7c0-0.4,0.3-0.7,0.7-0.7s0.7,0.3,0.7,0.7l0,0C1.8,79.9,1.5,80.2,1.2,80.2z"/>
	<path class="st1" d="M1.2,79.2c0.2,0,0.3,0.1,0.3,0.3c0,0.2-0.1,0.3-0.3,0.3s-0.3-0.1-0.3-0.3l0,0C0.9,79.3,1,79.2,1.2,79.2
		 M1.2,78.4c-0.6,0-1.1,0.4-1.1,1s0.4,1.1,1,1.1s1.1-0.4,1.1-1c0,0,0,0,0-0.1C2.2,78.9,1.7,78.5,1.2,78.4z"/>
	<path class="st1" d="M20.8,80.2c-0.4,0-0.7-0.3-0.7-0.7c0-0.4,0.3-0.7,0.7-0.7c0.4,0,0.7,0.3,0.7,0.7l0,0
		C21.4,79.9,21.1,80.2,20.8,80.2L20.8,80.2z"/>
	<path class="st1" d="M20.8,79.2c0.2,0,0.3,0.1,0.3,0.3c0,0.2-0.1,0.3-0.3,0.3c-0.2,0-0.3-0.1-0.3-0.3l0,0
		C20.5,79.3,20.6,79.2,20.8,79.2 M20.8,78.4c-0.6,0-1.1,0.5-1.1,1.1s0.5,1.1,1.1,1.1s1.1-0.5,1.1-1.1l0,0
		C21.8,78.9,21.3,78.4,20.8,78.4z"/>
	<path class="st1" d="M1.2,99.8c-0.4,0-0.7-0.3-0.7-0.7s0.3-0.7,0.7-0.7s0.7,0.3,0.7,0.7S1.5,99.8,1.2,99.8z"/>
	<path class="st1" d="M1.2,98.8c0.2,0,0.3,0.1,0.3,0.3c0,0.2-0.1,0.3-0.3,0.3s-0.3-0.1-0.3-0.3l0,0C0.9,98.9,1,98.8,1.2,98.8
		 M1.2,98c-0.6,0-1.1,0.4-1.1,1s0.4,1.1,1,1.1s1.1-0.4,1.1-1c0,0,0,0,0-0.1C2.2,98.5,1.7,98.1,1.2,98z"/>
	<path class="st1" d="M20.8,99.8c-0.4,0-0.7-0.3-0.7-0.7s0.3-0.7,0.7-0.7s0.7,0.3,0.7,0.7C21.4,99.5,21.2,99.8,20.8,99.8L20.8,99.8z
		"/>
	<path class="st1" d="M20.8,98.8c0.2,0,0.3,0.1,0.3,0.3c0,0.2-0.1,0.3-0.3,0.3c-0.2,0-0.3-0.1-0.3-0.3l0,0
		C20.5,98.9,20.6,98.8,20.8,98.8 M20.8,98c-0.6,0-1.1,0.5-1.1,1.1s0.5,1.1,1.1,1.1s1.1-0.5,1.1-1.1l0,0C21.8,98.5,21.3,98,20.8,98z"
		/>
	<path class="st1" d="M20.8,99.8c-0.4,0-0.7-0.3-0.7-0.7s0.3-0.7,0.7-0.7s0.7,0.3,0.7,0.7C21.4,99.5,21.2,99.8,20.8,99.8L20.8,99.8z
		"/>
	<path class="st1" d="M20.8,98.8c0.2,0,0.3,0.1,0.3,0.3c0,0.2-0.1,0.3-0.3,0.3c-0.2,0-0.3-0.1-0.3-0.3l0,0
		C20.5,98.9,20.6,98.8,20.8,98.8 M20.8,98c-0.6,0-1.1,0.5-1.1,1.1s0.5,1.1,1.1,1.1s1.1-0.5,1.1-1.1l0,0C21.8,98.5,21.3,98,20.8,98z"
		/>
	<path class="st2" d="M1.9,452.1c-0.4,0-0.7-0.3-0.7-0.7s0.3-0.7,0.7-0.7s0.7,0.3,0.7,0.7l0,0C2.5,451.8,2.2,452.1,1.9,452.1
		L1.9,452.1z"/>
	<path class="st2" d="M1.9,451.1c0.2,0,0.3,0.2,0.2,0.4c0,0.1-0.1,0.2-0.2,0.2c-0.2,0-0.3-0.1-0.4-0.2c0-0.2,0.1-0.3,0.2-0.4
		C1.8,451.1,1.8,451.1,1.9,451.1 M1.9,450.4c-0.6,0-1.1,0.4-1.1,1s0.4,1.1,1,1.1s1.1-0.4,1.1-1c0,0,0,0,0-0.1
		C2.9,450.9,2.4,450.4,1.9,450.4z"/>
	<path class="st1" d="M1.9,471.7c-0.4,0-0.7-0.3-0.7-0.7c0-0.4,0.3-0.7,0.7-0.7s0.7,0.3,0.7,0.7l0,0C2.5,471.4,2.2,471.7,1.9,471.7
		L1.9,471.7z"/>
	<path class="st1" d="M1.9,470.7c0.2,0,0.3,0.1,0.3,0.3c0,0.2-0.1,0.3-0.3,0.3s-0.3-0.1-0.3-0.3S1.7,470.7,1.9,470.7L1.9,470.7
		 M1.9,470c-0.6,0-1.1,0.4-1.1,1s0.4,1.1,1,1.1s1.1-0.4,1.1-1c0,0,0,0,0-0.1C2.9,470.5,2.4,470,1.9,470z"/>
	<path class="st1" d="M1.9,491.3c-0.4,0-0.7-0.3-0.7-0.7s0.3-0.7,0.7-0.7s0.7,0.3,0.7,0.7l0,0C2.5,491,2.2,491.3,1.9,491.3
		L1.9,491.3z"/>
	<path class="st1" d="M1.9,490.3c0.2,0,0.3,0.2,0.2,0.4c0,0.1-0.1,0.2-0.2,0.2c-0.2,0-0.3-0.1-0.4-0.2c0-0.2,0.1-0.3,0.2-0.4
		C1.8,490.3,1.8,490.3,1.9,490.3 M1.9,489.6c-0.6,0-1.1,0.4-1.1,1s0.4,1.1,1,1.1s1.1-0.4,1.1-1c0,0,0,0,0-0.1
		C2.9,490.1,2.4,489.6,1.9,489.6z"/>
	<path class="st1" d="M1.9,510.9c-0.4,0-0.7-0.3-0.7-0.7c0-0.4,0.3-0.7,0.7-0.7l0,0c0.4,0,0.7,0.3,0.7,0.7
		C2.5,510.6,2.2,510.9,1.9,510.9L1.9,510.9z"/>
	<path class="st1" d="M1.9,509.9c0.2,0,0.3,0.1,0.3,0.3c0,0.2-0.1,0.3-0.3,0.3s-0.3-0.1-0.3-0.3S1.7,509.9,1.9,509.9L1.9,509.9
		 M1.9,509.2c-0.6,0-1.1,0.4-1.1,1s0.4,1.1,1,1.1s1.1-0.4,1.1-1c0,0,0,0,0-0.1C2.9,509.7,2.4,509.2,1.9,509.2z"/>
	<path class="st1" d="M1.9,530.5c-0.4,0-0.7-0.3-0.7-0.7s0.3-0.7,0.7-0.7s0.7,0.3,0.7,0.7l0,0C2.5,530.2,2.2,530.5,1.9,530.5z"/>
	<path class="st1" d="M1.9,529.5c0.2,0,0.3,0.1,0.3,0.3l0,0c0,0.2-0.1,0.3-0.3,0.3l0,0c-0.2,0-0.3-0.1-0.3-0.3l0,0
		C1.5,529.7,1.7,529.5,1.9,529.5 M1.9,528.8c-0.6,0-1.1,0.4-1.1,1s0.4,1.1,1,1.1s1.1-0.4,1.1-1c0,0,0,0,0-0.1
		C2.9,529.3,2.4,528.8,1.9,528.8z"/>
	<path class="st1" d="M1.9,550.1c-0.4,0-0.7-0.3-0.7-0.7s0.3-0.7,0.7-0.7l0,0c0.4,0,0.7,0.3,0.7,0.7C2.5,549.8,2.2,550.1,1.9,550.1z
		"/>
	<path class="st1" d="M1.9,549.1c0.2,0,0.3,0.1,0.3,0.3s-0.1,0.3-0.3,0.3s-0.3-0.1-0.3-0.3S1.7,549.1,1.9,549.1L1.9,549.1
		 M1.9,548.4c-0.6,0-1.1,0.4-1.1,1s0.4,1.1,1,1.1s1.1-0.4,1.1-1c0,0,0,0,0-0.1C2.9,548.9,2.4,548.4,1.9,548.4z"/>
	<path class="st1" d="M1.9,452.1c-0.4,0-0.7-0.3-0.7-0.7s0.3-0.7,0.7-0.7s0.7,0.3,0.7,0.7l0,0C2.5,451.8,2.2,452.1,1.9,452.1
		L1.9,452.1z"/>
	<path class="st1" d="M1.9,451.1c0.2,0,0.3,0.2,0.2,0.4c0,0.1-0.1,0.2-0.2,0.2c-0.2,0-0.3-0.1-0.4-0.2c0-0.2,0.1-0.3,0.2-0.4
		C1.8,451.1,1.8,451.1,1.9,451.1 M1.9,450.4c-0.6,0-1.1,0.4-1.1,1s0.4,1.1,1,1.1s1.1-0.4,1.1-1c0,0,0,0,0-0.1
		C2.9,450.9,2.4,450.4,1.9,450.4z"/>
</g>
</svg>
