<svg width="16" height="16" viewBox="0 0 16 16" fill="none" xmlns="http://www.w3.org/2000/svg">
<path d="M13.1665 0.2005H2.83301C1.26501 0.2005 -0.000488281 1.466 -0.000488281 3.034V12.966C-0.000488281 14.534 1.26501 15.7995 2.83301 15.7995H13.1665C14.7345 15.7995 16 14.534 16 12.966V3.034C16 1.466 14.7345 0.2005 13.1665 0.2005ZM15.3255 12.706C15.3335 14.044 14.25 15.1325 12.914 15.1325H3.08601C1.75251 15.1325 0.666512 14.0465 0.666512 12.713V3.2865C0.666512 1.953 1.75251 0.867 3.08601 0.867H12.906C14.242 0.867 15.3255 1.9505 15.3255 3.2865V12.706ZM6.32551 7.5L8.19301 11.086C8.22701 11.1405 8.20651 11.1925 8.15351 11.1925H6.99201C6.91951 11.1925 6.88551 11.1745 6.85401 11.1065C6.42751 10.2265 5.99201 9.3465 5.54651 8.401H5.53401C5.13251 9.2935 4.69251 10.2345 4.26551 11.1145C4.23501 11.1665 4.20101 11.187 4.14601 11.187H3.04651C2.97901 11.187 2.97401 11.1325 3.00801 11.0935L4.83351 7.614L3.06801 4.0935C3.02601 4.039 3.06801 3.9995 3.10651 3.9995H4.25251C4.32001 3.9995 4.34651 4.013 4.37251 4.072C4.79401 4.9525 5.21851 5.8585 5.62001 6.7465H5.63251C6.02051 5.8665 6.44801 4.9525 6.85901 4.08C6.89301 4.0255 6.91351 3.9915 6.97901 3.9915H8.05151C8.10601 3.9915 8.12701 4.0335 8.09351 4.0855L6.32551 7.5ZM8.52051 8.586C8.52051 7.034 9.55201 5.82 11.1925 5.82C11.333 5.82 11.406 5.82 11.539 5.8335V4.068C11.539 4.026 11.5725 4 11.6065 4H12.6585C12.713 4 12.7265 4.0205 12.7265 4.052V10.1745C12.7265 10.354 12.7265 10.5805 12.7605 10.825C12.7605 10.867 12.747 10.8795 12.706 10.901C12.146 11.1665 11.56 11.2865 11 11.2865C9.55201 11.294 8.52051 10.401 8.52051 8.586ZM11.5395 6.88C11.448 6.8415 11.313 6.8125 11.1535 6.8125C10.313 6.8125 9.72701 7.4605 9.72701 8.534C9.72701 9.7605 10.3255 10.2525 11.081 10.2525C11.2395 10.2525 11.4145 10.2345 11.5395 10.18V6.88Z" fill="#000000"/>
</svg>
