<svg width="16" height="16" viewBox="0 0 16 16" fill="none" xmlns="http://www.w3.org/2000/svg">
<path fill-rule="evenodd" clip-rule="evenodd" d="M13.4657 1.37059C13.3566 1.13852 13.1226 1.00018 12.8398 1.00018H11.7471C11.4298 1.00018 11.1925 1.12799 11.0676 1.35809L9.44812 3.72424L10.8658 5.66304L13.3411 2.11247C13.6128 1.78241 13.5187 1.48358 13.4657 1.37059" fill="#000000"/>
<path fill-rule="evenodd" clip-rule="evenodd" d="M4.92808 1.33114L4.92665 1.32899C4.67977 1 4.35131 1 4.24331 1H3.17457C2.90074 1 2.67653 1.12585 2.55943 1.34488C2.43894 1.56927 2.46446 1.83882 2.63119 2.08855L6.59036 7.57702L2.03765 13.927C1.87859 14.1658 1.85628 14.4313 1.97642 14.6555C2.09423 14.8745 2.31862 15 2.59192 15H3.6844C3.96537 15 4.21243 14.8542 4.33596 14.6244L9.43188 7.60237L4.92808 1.33114Z" fill="#000000"/>
<path fill-rule="evenodd" clip-rule="evenodd" d="M14.0092 13.9825L10.8328 9.62328L9.43564 11.5494L11.9476 14.902L12.013 14.9306C12.1126 14.9754 12.2205 14.9989 12.3298 14.9998H13.3982C13.6563 14.9998 13.8754 14.8852 13.9994 14.6849C14.1265 14.4796 14.1301 14.2238 14.0092 13.9825" fill="#000000"/>
</svg>
