<svg width="16" height="16" viewBox="0 0 16 16" fill="none" xmlns="http://www.w3.org/2000/svg">
<g clip-path="url(#clip0_38_15)">
<g clip-path="url(#clip1_38_15)">
<path d="M14 4.5H11V11.5H12V9H14C14.2652 9 14.5196 8.89464 14.7071 8.70711C14.8946 8.51957 15 8.26522 15 8V5.5C15 5.23478 14.8946 4.98043 14.7071 4.79289C14.5196 4.60536 14.2652 4.5 14 4.5ZM14 8H12V5.5H14V8Z" fill="#000000"/>
<path d="M6 4.5V5.5H7.5V10.5H6V11.5H10V10.5H8.5V5.5H10V4.5H6Z" fill="#000000"/>
<path d="M5 4.5H1V5.5H4L1 10.5V11.5H5V10.5H2L5 5.5V4.5Z" fill="#000000"/>
</g>
</g>
</svg>
