<svg width="16" height="16" viewBox="0 0 16 16" fill="none" xmlns="http://www.w3.org/2000/svg">
<g clip-path="url(#clip0_44_4)">
<rect width="16" height="16" fill="white"/>
<path d="M1 12.8404H2.76113L4.69348 9.2766H4.73017L6.68699 12.8404H8.57042L5.78196 8.07979L8.44812 3.55851H6.68699L4.85247 6.85638H4.81578L3.00573 3.55851H1.1223L3.764 8.07979L1 12.8404Z" fill="#525252"/>
<path d="M13.4345 12.8404H15V3H13.4345V7.04255H13.3734C13.1533 6.24468 12.4561 5.73936 11.6123 5.73936C10.0101 5.73936 9.11733 7.04255 9.11733 9.35638C9.11733 11.6835 10.0101 13 11.6123 13C12.4561 13 13.141 12.4681 13.3734 11.6835H13.4345V12.8404ZM12.1137 11.5904C11.3065 11.5904 10.7562 10.9521 10.7562 9.96809V8.77128C10.7562 7.78723 11.3065 7.13564 12.1137 7.13564C12.8597 7.13564 13.4345 7.57447 13.4345 8.25266V10.4601C13.4345 11.1782 12.8597 11.5904 12.1137 11.5904Z" fill="#525252"/>
</g>
<defs>
<clipPath id="clip0_44_4">
<rect width="16" height="16" fill="white"/>
</clipPath>
</defs>
</svg>
