<?xml version="1.0" encoding="UTF-8"?>
<svg width="16px" height="16px" viewBox="0 0 16 16" version="1.1" xmlns="http://www.w3.org/2000/svg" xmlns:xlink="http://www.w3.org/1999/xlink">
    <title>16-adobe-xd</title>
    <g id="Page-1" stroke="none" stroke-width="1" fill="none" fill-rule="evenodd">
        <g id="16-adobe-xd" transform="translate(1.000000, 1.000000)" fill="#525252" fill-rule="nonzero">
            <path d="M11.5207632,9.71415501e-17 L2.47923534,9.71415501e-17 C1.1072772,9.71415501e-17 -1.81191759e-17,1.10727871 -1.81191759e-17,2.47923684 L-1.81191759e-17,11.1694716 C-1.81191759e-17,12.5414298 1.1072772,13.6487085 2.47923534,13.6487085 L11.5207632,13.6487085 C12.8927213,13.6487085 14,12.5414298 14,11.1694716 L14,2.47923684 C14,1.10727871 12.8927213,9.71415501e-17 11.5207632,9.71415501e-17 Z M13.409869,10.9419786 C13.4168303,12.1126929 12.4687967,13.0651013 11.2998324,13.0651013 L2.70060358,13.0651013 C1.53382669,13.0651013 0.583607436,12.1148803 0.583607436,10.9481034 L0.583607436,2.7001676 C0.583607436,1.5333907 1.53382669,0.583169703 2.70060358,0.583169703 L11.2928326,0.583169703 C12.4617969,0.583169703 13.409869,1.53120327 13.409869,2.7001676 L13.409869,10.9419786 Z M5.53507958,6.38686759 L7.16909221,9.52452183 C7.1988413,9.57220788 7.18090435,9.61770649 7.13453077,9.61770649 L6.11824928,9.61770649 C6.05481372,9.61770649 6.02506463,9.60195697 5.99750297,9.54245879 C5.62432686,8.77248229 5.24327598,8.00250578 4.85347538,7.17521853 L4.84253821,7.17521853 C4.49123643,7.9561322 4.10624818,8.77948207 3.73263458,9.54945857 C3.7059479,9.59495719 3.67619881,9.61289414 3.62807528,9.61289414 L2.66604213,9.61289414 C2.60698144,9.61289414 2.60260657,9.56520809 2.63235566,9.53108413 L4.22961942,6.48661454 L2.68485406,3.40627105 C2.64810518,3.358585 2.68485406,3.32402356 2.71854053,3.32402356 L3.72125993,3.32402356 C3.78032063,3.32402356 3.80350742,3.3358357 3.82625673,3.38745912 C4.19505797,4.15787311 4.56648414,4.95059892 4.91778592,5.72757521 L4.92872308,5.72757521 C5.26821272,4.95759871 5.64226381,4.15787311 6.00187783,3.39445891 C6.03162693,3.34677286 6.04956388,3.31702377 6.10687463,3.31702377 L7.04528349,3.31702377 C7.09296954,3.31702377 7.11134397,3.35377265 7.08203237,3.39927126 L5.53507958,6.38686759 Z M7.45564597,7.33708859 C7.45564597,5.97913003 8.35818092,4.91691245 9.79356587,4.91691245 C9.91649962,4.91691245 9.98037267,4.91691245 10.0967441,4.92872459 L10.0967441,3.38395923 C10.0967441,3.34721035 10.1260557,3.32446105 10.1558048,3.32446105 L11.0762767,3.32446105 C11.1239628,3.32446105 11.1357749,3.342398 11.1357749,3.36995966 L11.1357749,8.72698367 C11.1357749,8.88404138 11.1357749,9.08222283 11.165524,9.2961538 C11.165524,9.33290268 11.1537119,9.34383985 11.117838,9.36265177 C10.6278529,9.59495719 10.1151186,9.69999497 9.62513351,9.69999497 C8.35818092,9.70651628 7.45564597,8.92516513 7.45564597,7.33708859 Z M10.0971816,5.84438414 C10.0171215,5.81069767 9.89900015,5.78532345 9.75944191,5.78532345 C9.02402685,5.78532345 8.51130125,6.35230614 8.51130125,7.29158998 C8.51130125,8.36474473 9.03496402,8.79523159 9.69600635,8.79523159 C9.83468962,8.79523159 9.98780994,8.77948207 10.0971816,8.73179603 L10.0971816,5.84438414 Z" id="Shape"></path>
        </g>
    </g>
</svg>