<?xml version="1.0" encoding="UTF-8"?>
<svg width="16px" height="16px" viewBox="0 0 16 16" version="1.1" xmlns="http://www.w3.org/2000/svg" xmlns:xlink="http://www.w3.org/1999/xlink">
    <title>16-carbon</title>
    <g id="Page-1" stroke="none" stroke-width="1" fill="none" fill-rule="evenodd">
        <g id="Planning-/-Travel-/-earth--filled-/-20-Copy-91" fill="#000000">
            <path d="M6.75,15.4075 C6.66360028,15.4075 6.57867898,15.3850797 6.5035,15.3425 L2.2535,12.935 C2.09683481,12.846226 2,12.6800689 2,12.5 L2,7.5 C2,7.31993113 2.09683481,7.15377395 2.2535,7.065 L6.5035,4.6575 C6.65643805,4.57095234 6.84356195,4.57095234 6.9965,4.6575 L11.2465,7.065 C11.4031652,7.15377395 11.5,7.31993113 11.5,7.5 L11.5,12.5 C11.5,12.6800689 11.4031652,12.846226 11.2465,12.935 L6.9965,15.3425 C6.92132102,15.3850797 6.83639972,15.4075 6.75,15.4075 Z M3,12.2085 L6.75,14.3325 L10.5,12.2085 L10.5,7.7915 L6.75,5.6675 L3,7.791 L3,12.2085 Z M14,8.5 L13,8.5 L13,3.7915 L9.25,1.6675 L5.2465,3.935 L4.7535,3.065 L9.0035,0.6575 C9.15643805,0.570952341 9.34356195,0.570952341 9.4965,0.6575 L13.7465,3.065 C13.9031652,3.15377395 14,3.31993113 14,3.5 L14,8.5 Z" id="Fill"></path>
        </g>
    </g>
</svg>