<svg width="16" height="16" viewBox="0 0 16 16" fill="#000000" xmlns="http://www.w3.org/2000/svg">
<path d="M5.33328 15.4667C4.15515 15.4667 3.19995 14.5115 3.19995 13.3333C3.19995 12.1552 4.15515 11.2 5.33328 11.2H6.85702C7.19355 11.2 7.46662 11.4731 7.46662 11.8096V13.3333C7.46662 14.5115 6.51142 15.4667 5.33328 15.4667ZM10.6666 4.79999H9.14288C8.80635 4.79999 8.53328 4.52693 8.53328 4.19039V1.14293C8.53328 0.806392 8.80635 0.533325 9.14288 0.533325H10.6666C11.8448 0.533325 12.8 1.48853 12.8 2.66666C12.8 3.84479 11.8448 4.79999 10.6666 4.79999ZM5.33328 0.533325H6.85702C7.19355 0.533325 7.46662 0.806392 7.46662 1.14293V4.19039C7.46662 4.52693 7.19355 4.79999 6.85702 4.79999H5.33328C4.15515 4.79999 3.19995 3.84479 3.19995 2.66666C3.19995 1.48853 4.15515 0.533325 5.33328 0.533325ZM5.33328 5.86666H6.85702C7.19355 5.86666 7.46662 6.13973 7.46662 6.47626V9.52373C7.46662 9.86026 7.19355 10.1333 6.85702 10.1333H5.33328C4.15515 10.1333 3.19995 9.17813 3.19995 7.99999C3.19995 6.82186 4.15515 5.86666 5.33328 5.86666ZM10.6666 5.86666C10.1008 5.86666 9.5582 6.09142 9.15812 6.4915C8.75805 6.89158 8.53328 7.4342 8.53328 7.99999C8.53328 8.56579 8.75805 9.10841 9.15812 9.50849C9.5582 9.90856 10.1008 10.1333 10.6666 10.1333C11.2324 10.1333 11.775 9.90856 12.1751 9.50849C12.5752 9.10841 12.8 8.56579 12.8 7.99999C12.8 7.4342 12.5752 6.89158 12.1751 6.4915C11.775 6.09142 11.2324 5.86666 10.6666 5.86666Z" fill="#000000"/>
</svg>
