<svg width="16" height="16" viewBox="0 0 16 16" fill="none" xmlns="http://www.w3.org/2000/svg">
<g clip-path="url(#clip0_38_10)">
<rect width="16" height="16" fill="none"/>
<path d="M15 1H1V15H15V1Z" fill="none"/>
<path d="M5.76096 5.49995C5.90881 5.49779 6.05272 5.45197 6.17461 5.36826C6.2965 5.28454 6.39092 5.16667 6.44601 5.02944C6.5011 4.89222 6.51439 4.74177 6.48423 4.59701C6.45406 4.45225 6.38178 4.31964 6.27647 4.21584C6.17116 4.11204 6.03751 4.04169 5.89233 4.01363C5.74715 3.98557 5.59692 4.00105 5.46051 4.05812C5.32411 4.1152 5.20761 4.21132 5.12568 4.33441C5.04374 4.4575 5.00002 4.60207 5 4.74994C5.00034 4.84926 5.02033 4.94753 5.05883 5.03909C5.09733 5.13065 5.15357 5.21369 5.2243 5.28341C5.29504 5.35313 5.37888 5.40816 5.47099 5.44532C5.56309 5.48249 5.66165 5.50106 5.76096 5.49995V5.49995Z" fill="#525252"/>
<path d="M3.85061 9.70058C3.80208 9.90052 3.77671 10.105 3.77498 10.3104C3.77498 11.0253 4.17719 11.5 5.03203 11.5C5.74088 11.5 6.31605 11.0942 6.7294 10.4387L6.4767 11.4164H7.88385L8.68885 8.30806C8.88996 7.52024 9.27927 7.11164 9.87027 7.11164C10.3352 7.11164 10.6243 7.39026 10.6243 7.85085C10.6266 7.99852 10.6054 8.14565 10.5615 8.28715L10.147 9.7164C10.0877 9.91323 10.0581 10.1173 10.0591 10.3222C10.0591 11.0004 10.4736 11.4977 11.3407 11.4977C12.0824 11.4977 12.6734 11.0377 13 9.93511L12.4471 9.72883C12.1704 10.468 11.9317 10.6014 11.7435 10.6014C11.5553 10.6014 11.4539 10.4805 11.4539 10.238C11.4593 10.1108 11.4804 9.98465 11.5166 9.86221L11.9194 8.46912C12.0099 8.18273 12.0565 7.88516 12.0578 7.5858C12.0578 6.54367 11.4041 6 10.612 6C9.87027 6 9.11627 6.64483 8.73928 7.32357L9.01543 6.10512H6.8666L6.56465 7.1789H7.57076L6.95161 9.56607C6.46498 10.6082 5.57144 10.6252 5.45945 10.6009C5.27535 10.5607 5.15809 10.4935 5.15809 10.2618C5.16346 10.0742 5.193 9.88793 5.24604 9.70736L6.18882 6.10229H3.80136L3.5 7.17607H4.49263L3.85061 9.70058Z" fill="#525252"/>
</g>
<defs>
<clipPath id="clip0_38_10">
<rect width="16" height="16" fill="none"/>
</clipPath>
</defs>
</svg>
