<?xml version="1.0" encoding="UTF-8"?>
<svg width="16px" height="16px" viewBox="0 0 16 16" version="1.1" xmlns="http://www.w3.org/2000/svg" xmlns:xlink="http://www.w3.org/1999/xlink">
    <title>16-javascript</title>
    <g id="Page-1" stroke="none" stroke-width="1" fill="none" fill-rule="evenodd">
        <g id="16-javascript" transform="translate(0.500000, 3.000000)" fill="#000000" fill-rule="nonzero">
            <path d="M6.41021289,6.89111473 C6.41021289,8.98111761 5.10175739,10 3.20764615,10 C1.49690154,10 0.503877273,9.16419055 0,8.15537238 L0,8.15537238 L1.74122106,7.16093166 C2.07696993,7.72309019 2.33195621,8.19850474 3.06491478,8.19850474 C3.67444374,8.19850474 4.17527337,7.93923129 4.17527337,6.93041311 L4.17527337,0.181635196 L6.41021289,0.181635196 L6.41021289,6.89111473 Z M11.4566047,9.95207515 C9.47106414,9.95207515 8.18800568,9.10668072 7.56171468,7.93923129 L7.56171468,7.93923129 L9.30547544,6.98696444 C9.76262216,7.69337679 10.3594526,8.16399885 11.4134298,8.16399885 C12.2992785,8.16399885 12.8138225,7.79401898 12.8138225,7.21748299 C12.8138225,6.52592735 12.2840403,6.28103134 11.3062543,5.87558708 L10.7719005,5.65896674 C9.22877638,5.03977763 8.20578361,4.261478 8.20578361,2.61813476 C8.20578361,1.10514713 9.42738124,0 11.3367307,0 C12.6964882,0 13.6732584,0.398734784 14.3767564,1.56618422 L12.7086788,2.57787789 C12.3419455,1.95820953 11.9467676,1.71523052 11.334191,1.71523052 C10.7079,1.71523052 10.3106903,2.09000288 10.3106903,2.57787789 C10.3106903,3.18316879 10.7079,3.42806479 11.6242252,3.80283715 L12.1585789,4.01897824 C13.976499,4.7541455 14.9999999,5.50464871 14.9999999,7.18968657 C15.0005077,9.00603853 13.4883679,9.95207515 11.4566047,9.95207515 Z" id="Shape"></path>
        </g>
    </g>
</svg>