<?xml version="1.0" encoding="UTF-8"?>
<svg width="16px" height="16px" viewBox="0 0 16 16" version="1.1" xmlns="http://www.w3.org/2000/svg" xmlns:xlink="http://www.w3.org/1999/xlink">
    <title>16-javascript</title>
    <g id="Page-1" stroke="none" stroke-width="1" fill="none" fill-rule="evenodd">
        <g id="16-javascript" transform="translate(1.000000, 3.000000)" fill="#000000" fill-rule="nonzero">
            <path d="M5.98286536,6.20200326 C5.98286536,8.08300585 4.76164023,9 2.99380307,9 C1.3971081,9 0.470285455,8.24777149 0,7.33983514 L0,7.33983514 L1.62513966,6.44483849 C1.93850527,6.95078118 2.17649246,7.37865427 2.86058713,7.37865427 C3.42948083,7.37865427 3.89692181,7.14530816 3.89692181,6.2373718 L3.89692181,0.163471676 L5.98286536,0.163471676 L5.98286536,6.20200326 Z M10.6928311,8.95686763 C8.83965987,8.95686763 7.64213864,8.19601265 7.05760037,7.14530816 L7.05760037,7.14530816 L8.68511041,6.288268 C9.11178069,6.92403911 9.66882243,7.34759896 10.6525344,7.34759896 C11.4793266,7.34759896 11.9595677,7.01461708 11.9595677,6.49573469 C11.9595677,5.87333461 11.4651043,5.65292821 10.552504,5.28802837 L10.0537738,5.09307007 C8.61352462,4.53579987 7.65873137,3.8353302 7.65873137,2.35632129 C7.65873137,0.994632416 8.79888915,0 10.5809487,0 C11.8500557,0 12.7617078,0.358861305 13.418306,1.4095658 L11.8614335,2.3200901 C11.5191492,1.76238857 11.1503164,1.54370747 10.5785783,1.54370747 C9.99403999,1.54370747 9.62331093,1.88100259 9.62331093,2.3200901 C9.62331093,2.86485191 9.99403999,3.08525831 10.8492768,3.42255344 L11.348007,3.61708042 C13.0447324,4.27873095 13.9999999,4.95418384 13.9999999,6.47071791 C14.0004738,8.10543468 12.5891434,8.95686763 10.6928311,8.95686763 Z" id="Shape"></path>
        </g>
    </g>
</svg>