<?xml version="1.0" encoding="UTF-8"?>
<svg width="16px" height="16px" viewBox="0 0 16 16" version="1.1" xmlns="http://www.w3.org/2000/svg" xmlns:xlink="http://www.w3.org/1999/xlink">
    <title>16-javascript</title>
    <g id="Page-1" stroke="none" stroke-width="1" fill="none" fill-rule="evenodd">
        <g id="16-javascript" fill="#000000" fill-rule="nonzero">
            <path d="M0,0 L0,16 L16,16 L16,0 L0,0 Z M8.57142857,12.4285714 C8.57142857,13.9860714 7.65142857,14.7453571 6.31964286,14.7453571 C5.11678571,14.7453571 4.41857143,14.1225 4.06428571,13.3707143 L4.06428571,13.3707143 L5.28857143,12.6296429 C5.52464286,13.0485714 5.70392857,13.4028571 6.21928571,13.4028571 C6.64785714,13.4028571 7,13.2096429 7,12.4578571 L7,7.42857143 L8.57142857,7.42857143 L8.57142857,12.4285714 Z M12.1196429,14.7096429 C10.7235714,14.7096429 9.82142857,14.0796429 9.38107143,13.2096429 L9.38107143,13.2096429 L10.6071429,12.5 C10.9285714,13.0264286 11.3482143,13.3771429 12.0892857,13.3771429 C12.7121429,13.3771429 13.0739286,13.1014286 13.0739286,12.6717857 C13.0739286,12.1564286 12.7014286,11.9739286 12.0139286,11.6717857 L11.6382143,11.5103571 C10.5532143,11.0489286 9.83392857,10.4689286 9.83392857,9.24428571 C9.83392857,8.11678571 10.6928571,7.29321429 12.0353571,7.29321429 C12.9914286,7.29321429 13.6782143,7.59035714 14.1728571,8.46035714 L13,9.21428571 C12.7421429,8.7525 12.4642857,8.57142857 12.0335714,8.57142857 C11.5932143,8.57142857 11.3139286,8.85071429 11.3139286,9.21428571 C11.3139286,9.66535714 11.5932143,9.84785714 12.2375,10.1271429 L12.6132143,10.2882143 C13.8914286,10.8360714 14.6110715,11.3953571 14.6110715,12.6510714 C14.6114286,14.0046429 13.5482143,14.7096429 12.1196429,14.7096429 Z" id="Shape"></path>
        </g>
    </g>
</svg>