<?xml version="1.0" encoding="UTF-8"?>
<svg width="16px" height="16px" viewBox="0 0 16 16" version="1.1" xmlns="http://www.w3.org/2000/svg" xmlns:xlink="http://www.w3.org/1999/xlink">
    <title>16-react</title>
    <g id="Page-1" stroke="none" stroke-width="1" fill="none" fill-rule="evenodd">
        <g id="16-react" transform="translate(1.000000, 2.000000)" fill="#000000" fill-rule="nonzero">
            <path d="M11.5104371,3.88936755 L11.5104371,3.88936755 C11.3613044,3.84039572 11.2111023,3.79478836 11.0598308,3.75254549 C11.0849131,3.65441491 11.1080511,3.55572359 11.1292446,3.45647152 C11.4704804,1.86114873 11.2473647,0.575918554 10.4858548,0.152835585 C9.75671847,-0.253144627 8.56093496,0.169938342 7.35465189,1.1815244 C7.23604572,1.28133721 7.11987001,1.38414067 7.00612474,1.48993478 C6.93029457,1.41965459 6.85252003,1.35086973 6.77280113,1.28358019 C5.50847881,0.201900873 4.24123995,-0.253705373 3.48060497,0.170779462 C2.75146869,0.577600793 2.53476938,1.78572837 2.84188159,3.29778036 C2.87260253,3.44731267 2.90711498,3.59619077 2.94541894,3.74441467 C2.76605141,3.79347996 2.59280863,3.84590972 2.42714887,3.90142359 C0.946710554,4.3990858 0,5.17936406 0,5.98852076 C0,6.82459326 1.01612433,7.66290876 2.55985167,8.17122514 C2.68506868,8.21215961 2.8114523,8.25019689 2.93900254,8.28533698 C2.8975876,8.44402814 2.86093635,8.604495 2.82904879,8.76673755 C2.53739428,10.2527148 2.7648848,11.4322444 3.49256281,11.8365423 C4.24415649,12.2540179 5.50497896,11.825047 6.73401108,10.7904704 C6.83122925,10.7086015 6.92844743,10.6221531 7.0256656,10.5311253 C7.14854937,10.6453306 7.27493299,10.7561714 7.40481647,10.8636478 C8.59476688,11.8500003 9.76984292,12.2484104 10.4963543,11.8429909 C11.2473647,11.4241136 11.4914795,10.1568273 11.1744511,8.61505572 C11.1501465,8.49729903 11.1221477,8.37711244 11.0904546,8.25449594 C11.1791175,8.22926237 11.2659334,8.20318767 11.350902,8.17627186 C12.9550019,7.66403025 14,6.83580819 14,5.98936188 C13.9994167,5.17627996 13.0223741,4.39095498 11.5104371,3.88936755 Z M7.74809383,1.61610266 C8.78142577,0.749469487 9.74738553,0.407414336 10.1877838,0.651899657 L10.1877838,0.651899657 C10.6564726,0.912366244 10.8387567,1.96264378 10.5441857,3.3401167 C10.524742,3.42983608 10.5037429,3.51927509 10.4811883,3.60843373 C9.86452115,3.47359424 9.23918807,3.37843017 8.60934961,3.32357468 C8.2487279,2.82419544 7.85341316,2.34881462 7.42610725,1.90068133 C7.530714,1.8031115 7.63784842,1.70825194 7.74751052,1.61610266 L7.74809383,1.61610266 Z M4.13361943,6.67992076 C4.26019749,6.91543414 4.39251142,7.14805033 4.53056123,7.37776934 C4.6711387,7.61216123 4.81764649,7.84309519 4.97008458,8.07057121 C4.53670631,8.02527631 4.10604259,7.95855258 3.67980501,7.87066521 C3.80346652,7.48599335 3.95571018,7.08646172 4.13361943,6.67992076 Z M4.13361943,5.32487769 C3.95862672,4.9270283 3.81046623,4.53562748 3.6888463,4.15768458 C4.08841298,4.07161005 4.51422857,4.0012364 4.95812674,3.94796552 C4.80938294,4.17114249 4.66627779,4.39759047 4.5288113,4.62730948 C4.39134481,4.85702849 4.25932253,5.08955122 4.13274447,5.32487769 L4.13361943,5.32487769 Z M4.45152285,6.00253941 C4.63584851,5.6330077 4.83436801,5.27057877 5.04708137,4.91525263 L5.04708137,4.91525263 C5.25960029,4.5601134 5.48582698,4.21310499 5.72576143,3.8742274 C6.14224407,3.84394711 6.56922628,3.82796584 7.00058331,3.82796584 C7.43194034,3.82796584 7.86154744,3.84394711 8.27773843,3.87450778 C8.5151452,4.2126377 8.74001083,4.55843116 8.95233532,4.91188815 C9.16465981,5.26534514 9.3658042,5.62609183 9.55576851,5.99412822 C9.36833188,6.36496834 9.16767357,6.72889259 8.95379359,7.08590097 L8.95379359,7.08590097 C8.74166354,7.4410402 8.51806175,7.78907664 8.28298821,8.1300103 C7.86738053,8.15804761 7.43719012,8.17346813 6.99970835,8.17346813 C6.56222657,8.17346813 6.14020249,8.16029059 5.73217783,8.13477664 C5.49049345,7.79477756 5.26241962,7.44627383 5.04795634,7.08926545 C4.83349305,6.73225707 4.63439023,6.37001505 4.45064789,6.00253941 L4.45152285,6.00253941 Z M9.47148035,7.37384412 C9.6124467,7.13870457 9.7477744,6.90048091 9.87746344,6.65917315 L9.87746344,6.65917315 C10.0552424,7.0466736 10.2121655,7.44270998 10.3476105,7.845712 C9.91636043,7.93906396 9.480324,8.01065699 9.04128995,8.0601974 C9.18945044,7.83421671 9.33284724,7.60543228 9.47148035,7.37384412 Z M9.87163035,5.32515806 C9.74252462,5.0887101 9.60826632,4.85506587 9.46885546,4.62422538 L9.46885546,4.62422538 C9.33275002,4.39656244 9.19090871,4.17170323 9.04333153,3.94964776 C9.48985459,4.00404014 9.91829507,4.07637639 10.3199033,4.16469391 C10.1907796,4.55848476 10.0411669,4.94579387 9.87163035,5.32515806 L9.87163035,5.32515806 Z M7.0064164,2.31254938 L7.0064164,2.31254938 C7.2976474,2.61846455 7.57263825,2.93830947 7.8303404,3.27086455 C7.27911337,3.24563097 6.72749747,3.24563097 6.17549269,3.27086455 C6.44760635,2.92488417 6.72613641,2.603857 7.0064164,2.31254938 Z M3.78159243,0.669002415 C4.24998958,0.40769471 5.28565476,0.781151645 6.37731761,1.71395286 C6.44702304,1.77367233 6.51731178,1.83619552 6.58730886,1.9009617 C6.1578073,2.3490311 5.75969974,2.82399792 5.39560852,3.32273356 C4.76716609,3.3771664 4.14307011,3.47082163 3.5272697,3.60310664 C3.49168785,3.46553692 3.45960585,3.32703262 3.43102371,3.18759374 L3.43102371,3.18759374 C3.16707637,1.89142902 3.34177743,0.914328855 3.78159243,0.669002415 Z M3.09882922,7.7301983 C2.98216741,7.69823576 2.86696388,7.66356296 2.75321862,7.62617988 C2.07074705,7.40188142 1.50697888,7.10917194 1.11995334,6.79038775 C0.773467772,6.50468759 0.597891755,6.21954817 0.597891755,5.98852076 C0.597891755,5.4975875 1.35794342,4.87123405 2.62547394,4.44646885 C2.7847173,4.39319796 2.94532172,4.34450651 3.1072872,4.30039448 C3.29553549,4.88197024 3.52352186,5.45096322 3.78975876,6.0036609 C3.52034859,6.56399964 3.28954126,7.14075524 3.09882922,7.7301983 L3.09882922,7.7301983 Z M6.33998583,10.3564529 C5.79663347,10.8140217 5.25240615,11.1384134 4.77263447,11.3018709 L4.77263447,11.3018709 C4.3415691,11.448506 3.99829174,11.4527116 3.79092538,11.3374783 C3.34936044,11.0921518 3.1656181,10.1447712 3.41614933,8.87412044 C3.44589809,8.72458813 3.47992445,8.57505583 3.51822841,8.42552352 C4.14019254,8.55432018 4.77055306,8.64228014 5.40494146,8.68879384 C5.7725874,9.19012833 6.17398484,9.66778423 6.60655806,10.1186965 C6.51964501,10.2008458 6.43069039,10.279911 6.33998583,10.3564529 Z M7.02304071,9.7054266 C6.73955252,9.4107545 6.45664764,9.08468062 6.18074247,8.73421427 C6.44887019,8.74430771 6.72185881,8.74935442 6.99970835,8.74935442 C7.28494646,8.74935442 7.56726803,8.74346659 7.84550644,8.73141054 C7.58873921,9.06930158 7.31422802,9.39439513 7.02304071,9.7054266 L7.02304071,9.7054266 Z M10.6547227,10.5070132 C10.5713095,10.9399093 10.4036082,11.2286935 10.1962418,11.3442072 C9.75496854,11.5903748 8.81146619,11.2704691 7.79417524,10.4268265 C7.67751344,10.3303782 7.56085163,10.2269205 7.44214824,10.1184161 C7.86629765,9.66574553 8.25829124,9.18615954 8.61547436,8.682906 C9.25337465,8.63095012 9.88679288,8.53680217 10.5112287,8.40113106 C10.5398108,8.5121588 10.5650876,8.62094355 10.5870589,8.72748532 L10.5870589,8.72748532 C10.7273447,9.40879189 10.7474689,10.0250519 10.6547227,10.5070132 L10.6547227,10.5070132 Z M11.1622016,7.62926399 L11.1622016,7.62926399 C11.0857881,7.65365645 11.0070414,7.67720778 10.927128,7.70019838 C10.7313269,7.11588438 10.4944437,6.54503797 10.2181159,5.99160486 C10.4840784,5.44555307 10.7116897,4.88298665 10.8994209,4.30768418 C11.0426232,4.34777752 11.1817424,4.38983349 11.3156118,4.4344128 C12.6111412,4.86394435 13.4015249,5.49983049 13.4015249,5.98852076 C13.4015249,6.51001467 12.5478522,7.18683528 11.1622016,7.62926399 L11.1622016,7.62926399 Z" id="Shape"></path>
            <path d="M6.99970835,7.19300992 C7.50731858,7.19459225 7.96586587,6.90186567 8.16126613,6.45149034 C8.3566664,6.00111501 8.2503799,5.48192065 7.8920291,5.1363059 C7.53367831,4.79069116 6.99394248,4.6868233 6.52481056,4.8731956 C6.05567864,5.0595679 5.74967434,5.49942123 5.74967434,5.98739926 C5.74898028,6.30667036 5.88032542,6.61311475 6.11478537,6.83924181 C6.34924532,7.06536888 6.66759015,7.19263216 6.99970835,7.19300992 Z" id="Path"></path>
        </g>
    </g>
</svg>