<?xml version="1.0" encoding="UTF-8"?>
<svg width="16px" height="16px" viewBox="0 0 16 16" version="1.1" xmlns="http://www.w3.org/2000/svg" xmlns:xlink="http://www.w3.org/1999/xlink">
    <title>16-react</title>
    <g id="Page-1" stroke="none" stroke-width="1" fill="none" fill-rule="evenodd">
        <g id="16-react" transform="translate(0.000000, 1.000000)" fill="#000000" fill-rule="nonzero">
            <path d="M13.1547852,4.53759547 L13.1547852,4.53759547 C12.9843479,4.48046167 12.8126884,4.42725309 12.6398067,4.37796974 C12.6684721,4.26348406 12.6949155,4.14834419 12.7191367,4.03255011 C13.1091205,2.17134018 12.8541311,0.67190498 11.983834,0.178308182 C11.1505354,-0.295335398 9.78392567,0.198261399 8.40531645,1.37844513 C8.26976654,1.49489341 8.13699429,1.61483078 8.00699971,1.73825724 C7.92033665,1.65626369 7.83145147,1.57601469 7.74034415,1.49751023 C6.29540436,0.235551018 4.84713137,-0.295989602 3.97783426,0.199242705 C3.14453564,0.673867591 2.8968793,2.08334977 3.24786467,3.84741042 C3.28297432,4.02186478 3.32241712,4.1955559 3.36619308,4.36848378 C3.16120162,4.42572662 2.96320987,4.48689468 2.77388442,4.55166086 C1.08195492,5.13226676 0,6.04259141 0,6.98660755 C0,7.96202548 1.16128495,8.94006022 2.92554477,9.533096 C3.06864992,9.58085288 3.21308834,9.62522971 3.35886005,9.66622648 C3.31152869,9.85136617 3.26964154,10.0385775 3.23319862,10.2278605 C2.89987917,11.9615007 3.15986834,13.3376184 3.99150035,13.8092994 C4.85046456,14.2963542 6.29140452,13.7958882 7.69601267,12.5888821 C7.80711915,12.4933684 7.91822563,12.392512 8.02933211,12.2863129 C8.1697707,12.4195524 8.31420913,12.5488667 8.46264739,12.6742557 C9.82259073,13.8250003 11.1655348,14.2898121 11.9958335,13.8168227 C12.8541311,13.3281325 13.1331195,11.8496318 12.7708012,10.0508983 C12.7430246,9.91351553 12.7110259,9.77329784 12.6748052,9.63024527 C12.7761343,9.6008061 12.8753524,9.57038562 12.9724595,9.53898383 C14.8057164,8.94136862 16,7.97510955 16,6.98758886 C15.9993334,6.03899329 14.8827132,5.12278081 13.1547852,4.53759547 Z M8.85496438,1.8854531 C10.0359152,0.874381068 11.1398692,0.475316726 11.6431815,0.7605496 L11.6431815,0.7605496 C12.1788259,1.06442728 12.3871505,2.28975108 12.0504979,3.89680281 C12.0282766,4.00147543 12.0042776,4.10582094 11.9785009,4.20983935 C11.2737385,4.05252662 10.5590721,3.94150187 9.8392567,3.8775038 C9.4271176,3.29489468 8.97532933,2.74028373 8.48697971,2.21746155 C8.60653028,2.10363008 8.72896963,1.9929606 8.85429774,1.8854531 L8.85496438,1.8854531 Z M4.72413649,7.79324088 C4.86879713,8.0680065 5.02001306,8.33939206 5.17778426,8.60739756 C5.33844423,8.88085477 5.5058817,9.15027772 5.68009666,9.41566641 C5.18480722,9.36282236 4.69262011,9.28497801 4.20549144,9.18244274 C4.34681888,8.73365891 4.52081163,8.26753867 4.72413649,7.79324088 Z M4.72413649,6.2123573 C4.52414483,5.74819968 4.35481855,5.2915654 4.21582434,4.85063201 C4.67247198,4.75021172 5.15911837,4.66810914 5.66643057,4.60595977 C5.49643765,4.8663329 5.33288891,5.13052222 5.17578434,5.39852773 C5.01867978,5.66653323 4.86779718,5.93780976 4.72313654,6.2123573 L4.72413649,6.2123573 Z M5.08745469,7.00296265 C5.29811258,6.57184231 5.52499201,6.14900857 5.768093,5.7344614 L5.768093,5.7344614 C6.01097177,5.3201323 6.26951655,4.91528916 6.54372734,4.51993197 C7.01970751,4.48460496 7.50768718,4.46596015 8.00066664,4.46596015 C8.4936461,4.46596015 8.98462564,4.48460496 9.46027249,4.52025907 C9.73159452,4.91474399 9.98858381,5.31816969 10.2312404,5.73053618 C10.4738969,6.14290266 10.7037762,6.5637738 10.9208783,6.99314959 C10.706665,7.42579639 10.4773412,7.85037469 10.232907,8.26688446 L10.232907,8.26688446 C9.99047262,8.68121356 9.73492771,9.08725608 9.46627224,9.48501202 C8.99129203,9.51772221 8.49964585,9.53571281 7.99966668,9.53571281 C7.49968751,9.53571281 7.01737428,9.52033902 6.55106037,9.49057275 C6.27484966,9.09390715 6.01419385,8.68731947 5.76909295,8.27080969 C5.52399206,7.85429991 5.29644598,7.43168423 5.08645473,7.00296265 L5.08745469,7.00296265 Z M10.824549,8.60281814 C10.9856534,8.32848866 11.1403136,8.05056106 11.2885296,7.76903534 L11.2885296,7.76903534 C11.4917056,8.2211192 11.6710463,8.68316165 11.8258406,9.15333067 C11.3329834,9.26224128 10.834656,9.34576649 10.3329028,9.40356364 C10.5022291,9.13991949 10.6661111,8.87300432 10.824549,8.60281814 Z M11.2818633,6.21268441 C11.1343138,5.93682845 10.9808758,5.66424352 10.8215491,5.39492961 L10.8215491,5.39492961 C10.666,5.12932285 10.5038957,4.86698711 10.335236,4.60792239 C10.8455481,4.67138016 11.3351944,4.75577245 11.7941752,4.85880956 C11.6466053,5.31823222 11.4756193,5.77009284 11.2818633,6.21268441 L11.2818633,6.21268441 Z M8.00733303,2.69797427 L8.00733303,2.69797427 C8.34016846,3.05487531 8.65444372,3.42802772 8.94896046,3.81600864 C8.31898671,3.78656946 7.68856853,3.78656946 7.05770593,3.81600864 C7.36869297,3.41236487 7.68701304,3.03783317 8.00733303,2.69797427 Z M4.32181992,0.780502817 C4.85713095,0.475643828 6.0407483,0.911343585 7.28836298,1.99961167 C7.36802633,2.06928438 7.44835632,2.14222811 7.52835299,2.21778865 C7.03749406,2.74053628 6.58251399,3.29466424 6.16640973,3.87652249 C5.44818982,3.94002746 4.73493726,4.0492919 4.03116537,4.20362441 C3.9905004,4.0431264 3.95383526,3.88153805 3.92116995,3.71885937 L3.92116995,3.71885937 C3.61951585,2.20666719 3.8191742,1.066717 4.32181992,0.780502817 Z M3.5415191,9.01856468 C3.40819133,8.98127506 3.27653014,8.94082345 3.14653556,8.89720987 C2.36656806,8.63552833 1.72226157,8.29403392 1.27994667,7.92211904 C0.883963168,7.58880218 0.683304862,7.25613953 0.683304862,6.98660755 C0.683304862,6.41385209 1.55193534,5.6831064 3.00054164,5.18754699 C3.18253406,5.12539762 3.36608197,5.06859092 3.55118537,5.01712689 C3.76632627,5.69563195 4.02688212,6.35945709 4.33115287,7.00427105 C4.02325553,7.65799958 3.75947573,8.33088112 3.5415191,9.01856468 L3.5415191,9.01856468 Z M7.2456981,12.0825284 C6.62472397,12.6163587 6.00274989,12.9948156 5.4544394,13.185516 L5.4544394,13.185516 C4.96179326,13.3565903 4.56947627,13.3614969 4.33248615,13.227058 C3.82784051,12.9408438 3.61784926,11.8355664 3.90417066,10.3531405 C3.93816924,10.1786862 3.97705651,10.0042318 4.02083247,9.82977744 C4.73164862,9.9800402 5.45206064,10.0826602 6.17707596,10.1369261 C6.59724275,10.7218164 7.05598267,11.2790816 7.55035207,11.8051459 C7.45102287,11.9009868 7.34936044,11.9932295 7.2456981,12.0825284 Z M8.02633224,11.3229977 C7.70234574,10.9792136 7.37902587,10.5987941 7.06370568,10.1899167 C7.37013736,10.2016923 7.68212436,10.2075802 7.99966668,10.2075802 C8.3256531,10.2075802 8.64830632,10.200711 8.96629307,10.1866456 C8.67284481,10.5808518 8.35911774,10.9601276 8.02633224,11.3229977 L8.02633224,11.3229977 Z M12.176826,12.2581821 C12.0814966,12.7632275 11.8898379,13.1001424 11.6528478,13.2349084 C11.1485355,13.5221039 10.0702471,13.1488806 8.90762885,12.1646309 C8.77430107,12.0521079 8.64097329,11.9314073 8.50531228,11.8048188 C8.99005446,11.2767031 9.43804713,10.7171861 9.84625641,10.130057 C10.5752853,10.0694418 11.2991919,9.95960253 12.0128328,9.80131957 C12.0454981,9.93085193 12.0743858,10.0577675 12.0994959,10.1820662 L12.0994959,10.1820662 C12.2598225,10.9769239 12.2828215,11.6958939 12.176826,12.2581821 L12.176826,12.2581821 Z M12.7568018,8.90080799 L12.7568018,8.90080799 C12.6694721,8.92926585 12.5794759,8.95674241 12.4881463,8.98356477 C12.2643736,8.30186511 11.99365,7.63587763 11.6778468,6.99020567 C11.9818039,6.35314524 12.2419311,5.69681775 12.456481,5.02563154 C12.6201408,5.07240711 12.7791342,5.1214724 12.9321278,5.17348161 C14.4127328,5.67460175 15.3160285,6.4164689 15.3160285,6.98660755 C15.3160285,7.59501712 14.3404025,8.38464116 12.7568018,8.90080799 L12.7568018,8.90080799 Z" id="Shape"></path>
            <path d="M7.99966668,8.39184491 C8.57979266,8.39369096 9.1038467,8.05217661 9.32716129,7.52673873 C9.55047588,7.00130085 9.4290056,6.39557409 9.01946183,5.99235689 C8.60991807,5.58913969 7.99307712,5.46796052 7.45692635,5.68539487 C6.92077558,5.90282921 6.57105639,6.41599144 6.57105639,6.98529914 C6.57026318,7.35778209 6.72037191,7.71530054 6.98832614,7.97911545 C7.25628036,8.24293036 7.62010303,8.39140419 7.99966668,8.39184491 Z" id="Path"></path>
        </g>
    </g>
</svg>