<?xml version="1.0" encoding="UTF-8"?>
<svg width="16px" height="16px" viewBox="0 0 16 16" version="1.1" xmlns="http://www.w3.org/2000/svg" xmlns:xlink="http://www.w3.org/1999/xlink">
    <title>16-svelte</title>
    <g id="Page-1" stroke="none" stroke-width="1" fill="none" fill-rule="evenodd">
        <g id="16-svelte" transform="translate(3.000000, 1.000000)" fill="#000000" fill-rule="nonzero">
            <path d="M4.89391808,0.623010669 C6.64687447,-0.559776913 9.07127381,-0.00827687459 10.2988178,1.85236075 C10.8873469,2.72468192 11.119118,3.81131811 10.9418265,4.86682346 C10.856824,5.36577432 10.6771655,5.84128934 10.4137112,6.26462356 C10.7980994,7.04099817 10.9270768,7.93094033 10.7802393,8.79366124 C10.6048407,9.82931061 10.025594,10.7387976 9.18459736,11.2990114 L9.18459736,11.2990114 L6.10597611,13.3769741 C4.3532912,14.5596991 1.92888006,14.0084366 0.701076421,12.147624 C0.112701441,11.2752521 -0.119059438,10.1886637 0.0581148588,9.13316126 C0.143197417,8.6341768 0.322931516,8.15864259 0.586454503,7.73529866 C0.201876555,6.95901402 0.0727978834,6.06905456 0.219654923,5.20632349 C0.395132702,4.17070813 0.974359599,3.26125207 1.81529683,2.70097331 L1.81529683,2.70097331 Z M9.03154387,2.70763581 C8.44712925,1.81543992 7.39921186,1.40407499 6.40687783,1.67731074 C6.18553943,1.73993752 5.97456707,1.83810543 5.78130253,1.96839826 L5.78130253,1.96839826 L2.70287014,4.04629841 C2.19712345,4.3830989 1.84876322,4.92996152 1.74326125,5.55271101 C1.63668232,6.18747043 1.7760939,6.8409344 2.13000842,7.36551114 C2.7144194,8.25771984 3.76234583,8.66909146 4.75468627,8.39584871 C4.97584423,8.3332351 5.18666602,8.23519046 5.37984844,8.10511119 L5.37984844,8.10511119 L6.55465523,7.31199863 C6.61299996,7.2726488 6.67668845,7.24298867 6.74350815,7.22404863 C7.0424914,7.14196604 7.35808722,7.26603878 7.53407007,7.53484865 C7.64054176,7.69305835 7.68253863,7.88993165 7.65062773,8.08124869 C7.61866154,8.26883929 7.51369099,8.43355219 7.36137588,8.53512372 L7.36137588,8.53512372 L4.28267201,10.6128489 C4.22425234,10.6522411 4.16047902,10.6819229 4.09357122,10.7008614 C3.79471085,10.7830105 3.4791939,10.6589905 3.30331619,10.3902363 C3.20915353,10.2492558 3.16516425,10.0775217 3.17914539,9.90547381 L3.17914539,9.90547381 L3.18968575,9.78453631 L3.07526448,9.7477738 C2.64251459,9.60949878 2.23523291,9.3939944 1.87097303,9.11054876 L1.87097303,9.11054876 L1.71324544,8.98786125 L1.65526759,9.17508626 C1.62414238,9.27465518 1.59956033,9.37638566 1.58169758,9.47954879 C1.47513441,10.1143118 1.61454448,10.7677732 1.96844475,11.2923614 C2.55286628,12.1845777 3.6008092,12.5959453 4.59315801,12.3226865 C4.81444919,12.2600597 5.02542155,12.1618918 5.21868609,12.031599 L5.21868609,12.031599 L8.29713029,9.95387382 C8.80283292,9.61691502 9.15116806,9.07000557 9.25673918,8.44722371 C9.36331811,7.81246429 9.22390652,7.15900033 8.86999201,6.63442359 C8.28558102,5.74221488 7.23765459,5.33084327 6.24531415,5.60408602 C6.02413396,5.66667879 5.8133216,5.76481025 5.6202228,5.89506104 L5.6202228,5.89506104 L4.44556945,6.68787359 C4.38713568,6.72722947 4.32337168,6.75690878 4.25648047,6.7758861 C3.9574974,6.85796486 3.64190362,6.73389291 3.46591855,6.46508608 C3.35940308,6.30687547 3.31747678,6.10993159 3.34958515,5.91862354 C3.38140706,5.73106765 3.48631848,5.56636517 3.63861274,5.46487351 L3.63861274,5.46487351 L6.71731661,3.38706086 C6.77573628,3.34766862 6.8395096,3.31798682 6.9064174,3.29904836 C7.20527777,3.21689923 7.52079472,3.34091927 7.69667243,3.60967338 C7.79072576,3.75070372 7.83470415,3.92239083 7.82084323,4.09442341 L7.82084323,4.09442341 L7.81030287,4.21536092 L7.92472414,4.25213592 C8.3575432,4.39042489 8.76486397,4.60602818 9.12909821,4.88963597 L9.12909821,4.88963597 L9.28674318,5.01213597 L9.34472103,4.82491096 C9.37577055,4.72531857 9.40035125,4.62359365 9.41829104,4.52044844 C9.52485421,3.88568545 9.38544414,3.23222407 9.03154387,2.70763581 Z" id="Combined-Shape"></path>
        </g>
    </g>
</svg>