<?xml version="1.0" encoding="UTF-8"?>
<svg width="16px" height="16px" viewBox="0 0 16 16" version="1.1" xmlns="http://www.w3.org/2000/svg" xmlns:xlink="http://www.w3.org/1999/xlink">
    <title>16-svelte</title>
    <g id="Page-1" stroke="none" stroke-width="1" fill="none" fill-rule="evenodd">
        <g id="16-svelte" transform="translate(2.000000, 0.000000)" fill="#000000" fill-rule="nonzero">
            <path d="M5.78372111,0.712012193 C7.85539675,-0.639745043 10.7205958,-0.00945928524 12.1713295,2.11698372 C12.8668639,3.1139222 13.1407752,4.35579213 12.931249,5.56208396 C12.8307915,6.1323135 12.6184677,6.67575924 12.3071126,7.15956978 C12.7613896,8.04685505 12.9138175,9.0639318 12.7402822,10.0498986 C12.5329929,11.2334978 11.8484288,12.2729116 10.8545237,12.9131559 L10.8545237,12.9131559 L7.21615326,15.2879703 C5.14479845,16.6396562 2.27958542,16.0096418 0.828544823,13.8829988 C0.133192605,12.8860024 -0.140706603,11.6441871 0.0686811937,10.4378986 C0.169233303,9.86763062 0.38164632,9.32416296 0.693082563,8.84034133 C0.238581373,7.95315888 0.0860338583,6.93606235 0.25959217,5.95008399 C0.466974991,4.76652358 1.15151584,3.72714523 2.1453507,3.08682664 L2.1453507,3.08682664 Z M10.6736423,3.09444093 C9.98297048,2.07478848 8.7445227,1.60465713 7.57176436,1.91692656 C7.31018263,1.98850002 7.06085167,2.10069192 6.83244814,2.24959801 L6.83244814,2.24959801 L3.19430093,4.62434104 C2.59660032,5.00925588 2.18490189,5.63424174 2.06021774,6.34595544 C1.93426083,7.07139478 2.09901997,7.81821074 2.51728256,8.41772701 C3.20795005,9.4373941 4.44640851,9.9075331 5.61917443,9.59525567 C5.88054292,9.52369726 6.12969593,9.41164624 6.35800242,9.26298422 L6.35800242,9.26298422 L7.74641038,8.35656987 C7.81536324,8.31159863 7.89063145,8.27770133 7.96960018,8.25605558 C8.322944,8.1622469 8.69592087,8.30404432 8.90390059,8.6112556 C9.02973076,8.79206669 9.07936342,9.01706474 9.04165054,9.23571279 C9.00387232,9.45010204 8.87981623,9.63834535 8.69980746,9.75442711 L8.69980746,9.75442711 L5.06133942,12.1289701 C4.99229799,12.1739898 4.91692952,12.2079119 4.83785668,12.2295559 C4.48465807,12.3234406 4.11177442,12.1817034 3.90391895,11.8745558 C3.79263581,11.7134352 3.74064848,11.5171677 3.75717166,11.3205415 L3.75717166,11.3205415 L3.76962844,11.1823272 L3.63440332,11.1403129 C3.12297164,10.9822843 2.64163877,10.7359936 2.21114985,10.4120557 L2.21114985,10.4120557 L2.02474452,10.2718414 L1.95622525,10.4858129 C1.9194409,10.5996059 1.89038939,10.7158693 1.86927887,10.83377 C1.74334059,11.5592135 1.90809794,12.3060265 2.32634368,12.9055559 C3.01702365,13.9252317 4.25550159,14.395366 5.4282774,14.0830703 C5.68980333,14.0114968 5.93913429,13.8993049 6.16753782,13.7503988 L6.16753782,13.7503988 L9.80569898,11.3758558 C10.4033475,10.99076 10.8150163,10.3657207 10.9397822,9.65396996 C11.0657391,8.92853062 10.9009799,8.18171466 10.4827173,7.58219839 C9.79204985,6.5625313 8.5535914,6.0923923 7.38082548,6.40466973 C7.11943071,6.47620433 6.87028884,6.58835458 6.64208119,6.73721261 L6.64208119,6.73721261 L5.25385457,7.6432841 C5.18479648,7.68826225 5.10943902,7.72218146 5.03038578,7.74386983 C4.67704217,7.83767413 4.30406771,7.69587762 4.09608537,7.3886698 C3.97020346,7.20785768 3.9206542,6.98277896 3.95860045,6.76414119 C3.99620816,6.5497916 4.12019438,6.3615602 4.30017849,6.24556972 L4.30017849,6.24556972 L7.93864654,3.8709267 C8.00768797,3.82590699 8.08305644,3.79198494 8.16212928,3.77034098 C8.51532789,3.67645626 8.88821154,3.81819345 9.09606701,4.125341 C9.20722093,4.28651853 9.25919539,4.48273238 9.2428143,4.67934104 L9.2428143,4.67934104 L9.23035752,4.81755534 L9.36558264,4.85958391 C9.87709606,5.01762845 10.3584751,5.2640322 10.7889338,5.58815539 L10.7889338,5.58815539 L10.9752414,5.7281554 L11.0437607,5.51418396 C11.0804556,5.40036408 11.1095055,5.28410703 11.1307071,5.16622679 C11.2566454,4.44078337 11.091888,3.69397036 10.6736423,3.09444093 Z" id="Combined-Shape"></path>
        </g>
    </g>
</svg>