<svg width="16" height="16" viewBox="0 0 16 16" fill="none" xmlns="http://www.w3.org/2000/svg">
<g clip-path="url(#clip0_3_1698)">
<path d="M15.168 6.49599C15.168 6.47999 15.168 6.47999 15.168 6.49599C15.184 6.46399 15.184 6.44799 15.2 6.41599V6.38399V6.30399V6.28799C15.2 6.27199 15.184 6.23999 15.184 6.22399V6.20799V6.19199C15.168 6.17599 15.168 6.15999 15.152 6.14399L12.176 2.20799L12.16 2.19199L12.128 2.15999L12.112 2.14399L12.096 2.12799H12.08C12.08 2.12799 12.064 2.12799 12.064 2.11199C12.048 2.11199 12.032 2.09599 12.032 2.09599H12.016H12C11.984 2.09599 11.968 2.07999 11.952 2.07999L8.03205 1.56799H7.95205L4.03205 2.07999C4.01605 2.07999 4.00005 2.07999 3.98405 2.09599H3.96805C3.95205 2.09599 3.93605 2.11199 3.93605 2.11199C3.93605 2.11199 3.92005 2.11199 3.92005 2.12799H3.90405L3.88805 2.14399L3.87205 2.15999L3.84005 2.19199L3.82405 2.20799L0.864049 6.15999C0.864049 6.17599 0.848049 6.17599 0.848049 6.19199C0.848049 6.20799 0.832049 6.20799 0.832049 6.22399V6.28799C0.832049 6.30399 0.832049 6.31999 0.816049 6.31999V6.38399C0.800049 6.38399 0.800049 6.39999 0.800049 6.39999C0.800049 6.41599 0.800049 6.43199 0.816049 6.44799C0.816049 6.46399 0.816049 6.46399 0.832049 6.47999V6.49599C0.832049 6.51199 0.848049 6.52799 0.864049 6.52799C0.864049 6.54399 0.880049 6.54399 0.880049 6.55999L7.74405 14.448L7.76005 14.464C7.77605 14.48 7.79205 14.496 7.80805 14.496L7.82405 14.512C7.84005 14.528 7.85605 14.528 7.87205 14.528H7.88805C7.92005 14.528 7.93605 14.544 7.96805 14.544C8.00005 14.544 8.01605 14.544 8.04805 14.528H8.06405C8.08005 14.528 8.09605 14.512 8.11205 14.512L8.12805 14.496C8.14405 14.48 8.16005 14.48 8.17605 14.464L8.19205 14.448L15.12 6.55999C15.136 6.54399 15.152 6.52799 15.168 6.49599V6.49599ZM7.05605 3.34399L7.98405 2.35199L10.064 4.59199L11.392 6.03199H4.57605L7.05605 3.34399V3.34399ZM8.81605 2.31999L11.616 2.68799L11.76 5.48799L8.81605 2.31999V2.31999ZM11.6 6.67199L7.98405 13.552L4.36805 6.67199H11.6V6.67199ZM12.32 6.67199H14.176L9.53605 11.984L12.32 6.67199V6.67199ZM12.432 6.03199L12.288 3.43999L14.24 6.03199H12.432V6.03199ZM7.15205 2.31999L4.20805 5.47199L4.38405 2.67199L4.78405 2.62399L7.15205 2.31999V2.31999ZM3.69605 3.43999L3.53605 6.03199H1.76005L3.23205 4.06399L3.69605 3.43999V3.43999ZM3.64805 6.67199L6.43205 11.968L1.82405 6.67199H3.64805V6.67199Z" fill="#525252"/>
</g>
<defs>
<clipPath id="clip0_3_1698">
<rect width="16" height="16" fill="white"/>
</clipPath>
</defs>
</svg>
