<?xml version="1.0" encoding="UTF-8"?>
<svg width="16px" height="16px" viewBox="0 0 16 16" version="1.1" xmlns="http://www.w3.org/2000/svg" xmlns:xlink="http://www.w3.org/1999/xlink">
    <title>16-web-component</title>
    <g id="Page-1" stroke="none" stroke-width="1" fill="none" fill-rule="evenodd">
        <g id="16-web-component" transform="translate(1.000000, 2.000000)">
            <polygon id="Path" points="4.78041667 9.80769231 4.78041667 9.80769231 2.55908333 6"></polygon>
            <polygon id="Path" points="4.78041667 9.80769231 9.219875 9.80769231 11.4409167 6 9.219875 2.19230769 4.78041667 2.19230769 2.55908333 6"></polygon>
            <polygon id="Path" points="2.55908333 6 4.78041667 2.19230769 4.78041667 2.19230769"></polygon>
            <polygon id="Path" fill="#000000" fill-rule="nonzero" points="14 6 10.5 0 6.52575 0 5.24708333 2.19230769 9.219875 2.19230769 11.4409167 6 9.219875 9.80769231 5.24708333 9.80769231 6.52575 12 10.5 12"></polygon>
            <polygon id="Path" fill="#000000" fill-rule="nonzero" points="4.78041667 9.80769231 2.55908333 6 4.78041667 2.19230769 4.78041667 2.19230769 6.05908333 0 3.5 0 0 6 3.5 12 6.05908333 12 4.78041667 9.80769231"></polygon>
        </g>
    </g>
</svg>