<svg width="24px" height="24px" viewBox="0 0 24 24" version="1.1" xmlns="http://www.w3.org/2000/svg" xmlns:xlink="http://www.w3.org/1999/xlink">
    <g id="Page-1" stroke="none" stroke-width="1" fill="none" fill-rule="evenodd">
        <g id="xlg-1312px-16-column" transform="translate(-1225.000000, -1061.000000)">
            <rect fill="none" x="0" y="0" width="1312" height="3393"></rect>
            <g id="Brand-/-IBM-/-ibm-cloud-/-20-Copy-6" transform="translate(1225.000000, 1061.000000)" fill="#000000">
                <path d="M18.2714286,10.2375 C16.8126917,7.36875692 13.7225443,5.85919646 10.6930683,6.53541346 C7.66359231,7.21163046 5.42548979,9.91052306 5.20428571,13.15425 C2.65840739,13.4428292 0.771477614,15.7707255 0.907110331,18.4556549 C1.04274305,21.1405843 3.15361857,23.2458259 5.71428571,23.2500047 L17.1428571,23.2500047 C20.3763771,23.2540436 23.0784448,20.6665994 23.3716962,17.2853923 C23.6649476,13.9041852 21.4524537,10.8468126 18.2714286,10.2375 L18.2714286,10.2375 Z M17.1428571,22.1250384 L5.71428571,22.1250384 C3.73927754,22.1340876 2.09783006,20.5294272 1.96557542,18.4603034 C1.83332079,16.3911797 3.25583331,14.5706026 5.21428571,14.3025 C5.28980852,15.2953554 5.55817901,16.2614527 6.00285714,17.14125 C6.09344949,17.3183644 6.26715019,17.4312779 6.45852787,17.4374571 C6.64990556,17.4436363 6.8298854,17.3421424 6.93067074,17.1712071 C7.03145607,17.0002719 7.03773521,16.7858644 6.94714286,16.60875 C5.47902612,13.7238615 6.4029531,10.1375258 9.05594923,8.42315994 C11.7089454,6.70879407 15.1744344,7.45868948 16.9657143,10.13475 C15.2352874,10.1848464 13.6020708,10.9859372 12.455,12.34725 C12.3206254,12.496643 12.2745284,12.7110857 12.3347613,12.9065997 C12.3949941,13.1021138 12.5519704,13.2475822 12.7442164,13.2860379 C12.9364624,13.3244936 13.1333812,13.2498161 13.2578571,13.09125 C14.8346411,11.2136545 17.4285271,10.709007 19.5413021,11.8687887 C21.654077,13.0285705 22.7397455,15.5530642 22.171232,17.9841373 C21.6027184,20.4152104 19.5269413,22.1246112 17.1428571,22.1250384 L17.1428571,22.1250384 Z M23.4985714,7.69125 C23.4268383,7.56049164 23.3085375,7.46504314 23.1697337,7.42593423 C23.0309299,7.38682532 22.8830125,7.40726504 22.7585714,7.48275 L20.6014286,8.79075 C20.4259442,8.8881269 20.3151669,9.07840997 20.3126425,9.2868001 C20.3101181,9.49519022 20.4162502,9.68837023 20.5893189,9.79040224 C20.7623876,9.89243425 20.974723,9.8870055 21.1428571,9.77625 L23.3,8.46825 C23.559003,8.31112093 23.6478624,7.96341865 23.4985714,7.69125 L23.4985714,7.69125 Z M16.9114286,5.9025 C17.0359338,5.97822338 17.1840242,5.99879654 17.3230004,5.9596768 C17.4619767,5.92055706 17.5804076,5.82496214 17.6521429,5.694 L18.8978571,3.429 C19.0341054,3.15829761 18.9420196,2.82292609 18.6894336,2.66993275 C18.4368475,2.51693941 18.1142532,2.60113594 17.9592857,2.8605 L16.7135714,5.1255 C16.5641604,5.39747244 16.6526848,5.74511426 16.9114286,5.9025 L16.9114286,5.9025 Z M12.1428571,4.56075 C12.2866424,4.56075 12.4245385,4.50077562 12.52621,4.39402054 C12.6278815,4.28726545 12.685,4.14247449 12.685,3.9915 L12.685,1.37625 C12.685,1.06186191 12.4422744,0.807 12.1428571,0.807 C11.8434399,0.807 11.6007138,1.06186191 11.6007138,1.37625 L11.6007138,3.9915 C11.6005247,4.14260439 11.6575594,4.28758811 11.7592515,4.39450546 C11.8609436,4.50142281 11.9989481,4.5615 12.1428571,4.5615 L12.1428571,4.56075 Z M6.63357143,5.694 C6.78725821,5.95688248 7.11239235,6.04340833 7.3667759,5.88912296 C7.62115944,5.7348376 7.71222791,5.39588202 7.57214286,5.12475 L6.32642857,2.85975 C6.23023031,2.68206971 6.05069694,2.57217722 5.85604552,2.57182741 C5.66139411,2.57147927 5.48150438,2.68072737 5.38472881,2.85806168 C5.28795324,3.035396 5.28914725,3.25359505 5.38785714,3.42975 L6.63357143,5.694 Z M3.685,8.79075 L1.52785714,7.48275 C1.36009052,7.37910461 1.1522819,7.3778509 0.983392079,7.47946525 C0.814502255,7.5810796 0.710456443,7.76996381 0.71078801,7.9743478 C0.711121165,8.17873178 0.815780679,8.36724183 0.985,8.46825 L3.14285714,9.77625 C3.31087269,9.88454364 3.52163303,9.88853446 3.69325799,9.78667202 C3.86488295,9.68480959 3.97031794,9.49315129 3.96862221,9.28615615 C3.96688521,9.07916102 3.85828806,8.88945934 3.685,8.79075 Z" id="Fill"></path>
            </g>
        </g>
    </g>
</svg>