<svg width="18px" height="24px" viewBox="0 0 18 24" version="1.1" xmlns="http://www.w3.org/2000/svg" xmlns:xlink="http://www.w3.org/1999/xlink">
    <g id="Page-1" stroke="none" stroke-width="1" fill="none" fill-rule="evenodd">
        <g id="card-spec" transform="translate(-1230.000000, -1418.000000)">
            <rect fill="none" x="0" y="0" width="1312" height="1749"></rect>
            <g id="Planning-/-Travel-/-earth--filled-/-20-Copy-48" transform="translate(1227.000000, 1418.000000)" fill="#000000">
                <path d="M10.125,23.11125 C9.99540042,23.11125 9.86801846,23.0776196 9.75525,23.01375 L3.38025,19.4025 C3.14525221,19.2693391 3,19.0201033 3,18.75 L3,11.25 C3,10.9798967 3.14525221,10.7306609 3.38025,10.5975 L9.75525,6.98625 C9.98465708,6.85642851 10.2653429,6.85642851 10.49475,6.98625 L16.86975,10.5975 C17.1047478,10.7306609 17.25,10.9798967 17.25,11.25 L17.25,18.75 C17.25,19.0201033 17.1047478,19.2693391 16.86975,19.4025 L10.49475,23.01375 C10.3819815,23.0776196 10.2545996,23.11125 10.125,23.11125 Z M4.5,18.31275 L10.125,21.49875 L15.75,18.31275 L15.75,11.68725 L10.125,8.50125 L4.5,11.6865 L4.5,18.31275 Z M21,12.75 L19.5,12.75 L19.5,5.68725 L13.875,2.50125 L7.86975,5.9025 L7.13025,4.5975 L13.50525,0.98625 C13.7346571,0.856428512 14.0153429,0.856428512 14.24475,0.98625 L20.61975,4.5975 C20.8547478,4.73066093 21,4.9798967 21,5.25 L21,12.75 Z" id="Fill"></path>
            </g>
        </g>
    </g>
</svg>