<svg width="24px" height="24px" viewBox="0 0 24 24" version="1.1" xmlns="http://www.w3.org/2000/svg" xmlns:xlink="http://www.w3.org/1999/xlink">
    <g id="Page-1" stroke="none" stroke-width="1" fill="none" fill-rule="evenodd">
        <path d="M18.4319143,10.4024571 L23.5747714,13.4024571 C23.8380969,13.5560755 24,13.8379983 24,14.1428571 L24,20.1428571 C24,20.447716 23.8380969,20.7296387 23.5747714,20.8832571 L18.4319143,23.8832571 C18.3008284,23.9597498 18.1517717,24 18,24 C17.8482283,24 17.6991716,23.9597498 17.5680857,23.8832571 L12.4252286,20.8832571 C12.1619031,20.7296387 12,20.447716 12,20.1428571 L12,14.1428571 C12,13.8379983 12.1619031,13.5560755 12.4252286,13.4024571 L17.5680857,10.4024571 C17.8349804,10.2467566 18.1650196,10.2467566 18.4319143,10.4024571 Z M18,12.1351714 L13.7142857,14.6350286 L13.7142857,19.6506857 L18,22.1505428 L22.2857143,19.6506857 L22.2857143,14.6350286 L18,12.1351714 Z M22.2857143,0 C23.2320378,0.00108639905 23.9989136,0.767962223 24,1.71428571 L24,1.71428571 L24,10.2857143 L22.2857143,10.2857143 L22.2857143,6.85714285 L1.71428571,6.85714285 L1.71428571,18.8571428 L9.42857143,18.8571428 L9.42857143,20.5714285 L1.71428571,20.5714285 C0.767962224,20.5703421 0.00108639905,19.8034663 0,18.8571428 L0,18.8571428 L0,1.71428571 C0.00108639905,0.767962223 0.767962224,0.00108639905 1.71428571,0 L1.71428571,0 Z M22.2857143,1.71428571 L1.71428571,1.71428571 L1.71428571,5.14285714 L22.2857143,5.14285714 L22.2857143,1.71428571 Z M3.42857143,2.57142857 C3.90195836,2.57142857 4.28571429,2.9551845 4.28571429,3.42857142 C4.28571429,3.90195835 3.90195836,4.28571428 3.42857143,4.28571428 C2.9551845,4.28571428 2.57142857,3.90195835 2.57142857,3.42857142 C2.57142857,2.9551845 2.9551845,2.57142857 3.42857143,2.57142857 Z M6,2.57142857 C6.47338693,2.57142857 6.85714286,2.9551845 6.85714286,3.42857142 C6.85714286,3.90195835 6.47338693,4.28571428 6,4.28571428 C5.52661307,4.28571428 5.14285714,3.90195835 5.14285714,3.42857142 C5.14285714,2.9551845 5.52661307,2.57142857 6,2.57142857 Z" id="32-carbon-for-ibm-dotcom" fill="#000000" fill-rule="nonzero"></path>
    </g>
</svg>