<svg width="23px" height="24px" viewBox="0 0 23 24" version="1.1" xmlns="http://www.w3.org/2000/svg" xmlns:xlink="http://www.w3.org/1999/xlink">
    <g id="Page-1" stroke="none" stroke-width="1" fill="none" fill-rule="evenodd">
        <path d="M7.20563319,3.99565792 L8.06503335,5.34597241 L3.20958249,8.43573203 L3.20958249,15.3455814 C4.3650103,15.7398541 5.03011434,16.9491436 4.74433994,18.1360713 L4.74433994,18.1360713 L11.2114462,22.2515098 L16.0059228,19.1991989 L16.8664433,20.5499935 L11.6412263,23.8750079 C11.3789403,24.041664 11.043952,24.041664 10.7816661,23.8750079 L10.7816661,23.8750079 L3.87909842,19.4825449 C3.13321723,20.0733795 2.10816305,20.1661886 1.26829213,19.718929 C0.428421204,19.2716695 -0.0666808233,18.3693262 0.0072705011,17.4206663 C0.0812218255,16.4720065 0.710174854,15.6572871 1.60920975,15.3455814 L1.60920975,15.3455814 L1.60920975,7.99658976 C1.60928277,7.72303985 1.74895218,7.46844265 1.97961602,7.3213925 L1.97961602,7.3213925 L7.20563319,3.99565792 Z M9.71312936,0.523651567 C10.5099061,-0.112186107 11.6215927,-0.174771385 12.4847009,0.367618771 C13.347809,0.910008927 13.7736561,1.93880356 13.54639,2.93253031 L13.54639,2.93253031 L20.4432763,7.3213925 C20.6739402,7.46844265 20.8136096,7.72303985 20.8136826,7.99658976 L20.8136826,7.99658976 L20.8136826,15.3455814 C21.9159767,15.7353012 22.577191,16.8624677 22.3794838,18.0147895 C22.1817766,19.1671113 21.1826556,20.0094093 20.0134962,20.0094093 C18.8443368,20.0094093 17.8452158,19.1671113 17.6475086,18.0147895 C17.4498015,16.8624677 18.1110158,15.7353012 19.2133099,15.3455814 L19.2133099,15.3455814 L19.2133099,8.43573203 L12.6813085,4.27932398 C12.2633112,4.61176597 11.7455201,4.79372152 11.2114462,4.79584428 C10.1920633,4.7969588 9.28339849,4.15345867 8.94603311,3.19151931 C8.60866773,2.22957995 8.91635261,1.15948924 9.71312936,0.523651567 Z M11.6232221,6.35028632 L16.4243403,9.23095725 C16.665306,9.37557652 16.8127507,9.63600463 16.8127507,9.91703704 L16.8127507,15.6783789 C16.8127507,15.9594398 16.6653305,16.2199047 16.4243403,16.3645387 L11.6232221,19.2452096 C11.4988359,19.319839 11.3565029,19.3592362 11.2114462,19.3592362 C11.0663819,19.3592362 10.9240484,19.319787 10.7996703,19.2451296 L5.99855206,16.3644587 C5.75758634,16.2198394 5.61014159,15.9594113 5.61014159,15.6783789 L5.61014159,9.91703704 C5.61014159,9.63600463 5.75758634,9.37557652 5.99855206,9.23095725 L10.7996703,6.35028632 C11.0531166,6.19817662 11.3697758,6.19817662 11.6232221,6.35028632 Z M20.0134962,16.7986398 C19.5715655,16.7986398 19.2133099,17.1568954 19.2133099,17.5988262 C19.2133099,18.0407569 19.5715655,18.3990125 20.0134962,18.3990125 C20.4552624,18.3986155 20.8132855,18.0405923 20.8136826,17.5988262 C20.8136826,17.1568954 20.4554269,16.7986398 20.0134962,16.7986398 Z M2.40939612,16.7986398 C1.96746539,16.7986398 1.60920975,17.1568954 1.60920975,17.5988262 C1.60920975,18.0407569 1.96746539,18.3990125 2.40939612,18.3990125 C2.85116228,18.3986155 3.20918544,18.0405923 3.20958249,17.5988262 C3.20958249,17.1568954 2.85132685,16.7986398 2.40939612,16.7986398 Z M11.2114462,7.96938342 L7.21051433,10.3699425 L7.21051433,15.2254734 L11.2114462,17.6260325 L15.212378,15.2254734 L15.212378,10.3699425 L11.2114462,7.96938342 Z M11.2114462,10.3971489 C12.5372384,10.3971489 13.6120053,11.4719158 13.6120053,12.797708 C13.61055,14.1228969 12.5366351,15.1968118 11.2114462,15.1982671 C9.88565399,15.1982671 8.81088707,14.1235001 8.81088707,12.797708 C8.81088707,11.4719158 9.88565399,10.3971489 11.2114462,10.3971489 Z M11.2114462,11.9975216 C10.7695154,11.9975216 10.4112598,12.3557772 10.4112598,12.797708 C10.4112598,13.2396387 10.7695154,13.5978943 11.2114462,13.5978943 C11.6533769,13.5978943 12.0116325,13.2396387 12.0116325,12.797708 C12.0111474,12.3559783 11.6531758,11.9980067 11.2114462,11.9975216 Z M11.2114462,1.59509881 C10.7695154,1.59509881 10.4112598,1.95335445 10.4112598,2.39528518 C10.4112598,2.83721591 10.7695154,3.19547155 11.2114462,3.19547155 C11.6532123,3.19507449 12.0112355,2.83705134 12.0116325,2.39528518 C12.0116325,1.95335445 11.6533769,1.59509881 11.2114462,1.59509881 Z" id="32-carbon-for-ibm-products" fill="#000000" fill-rule="nonzero"></path>
    </g>
</svg>