<?xml version="1.0" encoding="UTF-8"?>
<svg width="32px" height="32px" viewBox="0 0 32 32" version="1.1" xmlns="http://www.w3.org/2000/svg" xmlns:xlink="http://www.w3.org/1999/xlink">
    <title>32-adobe-xd</title>
    <g id="Page-1" stroke="none" stroke-width="1" fill="none" fill-rule="evenodd">
        <g id="32-adobe-xd" fill-rule="nonzero">
            <rect id="Rectangle" fill="#FFFFFF" x="0" y="0" width="32" height="32"></rect>
            <polygon id="Path" fill="#000000" points="2 25.6968 5.52226 25.6968 9.38697 18.9255 9.46035 18.9255 13.374 25.6968 17.1408 25.6968 11.5639 16.6516 16.8962 8.06117 13.374 8.06117 9.70495 14.3271 9.63157 14.3271 6.01147 8.06117 2.2446 8.06117 7.528 16.6516"></polygon>
            <path d="M26.8691,25.6968 L30,25.6968 L30,7 L26.8691,7 L26.8691,14.6809 L26.7468,14.6809 C26.3065,13.1649 24.9123,12.2048 23.2245,12.2048 C20.0203,12.2048 18.2347,14.6809 18.2347,19.0771 C18.2347,23.4987 20.0203,26 23.2245,26 C24.9123,26 26.2821,24.9894 26.7468,23.4987 L26.8691,23.4987 L26.8691,25.6968 Z M24.2274,23.3218 C22.613,23.3218 21.5123,22.109 21.5123,20.2394 L21.5123,17.9654 C21.5123,16.0957 22.613,14.8577 24.2274,14.8577 C25.7195,14.8577 26.8691,15.6915 26.8691,16.9801 L26.8691,21.1742 C26.8691,22.5386 25.7195,23.3218 24.2274,23.3218 Z" id="Shape" fill="#000000"></path>
        </g>
    </g>
</svg>