<svg width="32" height="32" viewBox="0 0 32 32" fill="none" xmlns="http://www.w3.org/2000/svg">
<rect width="32" height="32" fill="white"/>
<path fill-rule="evenodd" clip-rule="evenodd" d="M26.9314 2.74117C26.7132 2.27705 26.2452 2.00036 25.6796 2.00036H23.4943C22.8595 2.00036 22.3851 2.25598 22.1352 2.71618L18.8963 7.44848L21.7317 11.3261L26.6822 4.22495C27.2255 3.56482 27.0374 2.96717 26.9314 2.74117" fill="black"/>
<path fill-rule="evenodd" clip-rule="evenodd" d="M9.85617 2.66227L9.85331 2.65799C9.35955 2 8.70264 2 8.48664 2H6.34916C5.80149 2 5.35308 2.2517 5.11887 2.68976C4.87788 3.13854 4.92894 3.67764 5.26239 4.17711L13.1807 15.154L4.0753 27.854C3.7572 28.3316 3.71257 28.8625 3.95285 29.311C4.18848 29.749 4.63725 30 5.18385 30H7.36881C7.93076 30 8.42488 29.7083 8.67193 29.2488L18.8638 15.2047L9.85617 2.66227Z" fill="black"/>
<path fill-rule="evenodd" clip-rule="evenodd" d="M28.0185 27.965L21.6657 19.2466L18.8713 23.0988L23.8953 29.804L24.0259 29.8611C24.2253 29.9507 24.4411 29.9979 24.6596 29.9996H26.7964C27.3127 29.9996 27.7507 29.7704 27.9989 29.3699C28.253 28.9593 28.2602 28.4477 28.0185 27.965" fill="black"/>
</svg>
