<?xml version="1.0" encoding="UTF-8"?>
<svg width="32px" height="32px" viewBox="0 0 32 32" version="1.1" xmlns="http://www.w3.org/2000/svg" xmlns:xlink="http://www.w3.org/1999/xlink">
    <title>32-axure-black</title>
    <g id="Page-1" stroke="none" stroke-width="1" fill="none" fill-rule="evenodd">
        <g id="32-axure" transform="translate(3.800000, 2.000000)" fill="#000000">
            <path d="M23.1313997,0.74117 C22.9131997,0.27705 22.4451997,0.00036 21.8795997,0.00036 L19.6942997,0.00036 C19.0594997,0.00036 18.5850997,0.25598 18.3351997,0.71618 L15.0962997,5.44848 L17.9316997,9.3261 L22.8821997,2.22495 C23.4254997,1.56482 23.2373997,0.96717 23.1313997,0.74117" id="Path"></path>
            <path d="M6.05616967,0.66227 L6.05330967,0.65799 C5.55954967,0 4.90263967,0 4.68663967,0 L2.54915967,0 C2.00148967,0 1.55307967,0.2517 1.31886967,0.68976 C1.07787967,1.13854 1.12893967,1.67764 1.46238967,2.17711 L9.38069967,13.154 L0.275299673,25.854 C-0.0428003275,26.3316 -0.0874303275,26.8625 0.152849673,27.311 C0.388479673,27.749 0.837249673,28 1.38384967,28 L3.56880967,28 C4.13075967,28 4.62487967,27.7083 4.87192967,27.2488 L15.0637997,13.2047 L6.05616967,0.66227 Z" id="Path"></path>
            <path d="M24.2184997,25.965 L17.8656997,17.2466 L15.0712997,21.0988 L20.0952997,27.804 L20.2258997,27.8611 C20.4252997,27.9507 20.6410997,27.9979 20.8595997,27.9996 L22.9963997,27.9996 C23.5126997,27.9996 23.9506997,27.7704 24.1988997,27.3699 C24.4529997,26.9593 24.4601997,26.4477 24.2184997,25.965" id="Path"></path>
        </g>
    </g>
</svg>