<svg width="21" height="24" viewBox="0 0 21 24" fill="none" xmlns="http://www.w3.org/2000/svg">
<path d="M19.823 0.647727C19.6265 0.254679 19.2315 0 18.7542 0H16.8692C16.3337 0 15.9126 0.224599 15.7161 0.619652L12.9307 4.67045L15.3511 7.99131L19.6005 1.9131C20.0757 1.3516 19.9073 0.846257 19.823 0.647727Z" fill="#74BB11"/>
<path d="M5.19021 0.591823C4.76909 0.0283203 4.20559 0.0283203 4.00906 0.0283203H2.18019C1.70091 0.0283203 1.33593 0.252919 1.13941 0.619898C0.942886 1.01295 0.970961 1.46415 1.25171 1.88527L8.0338 11.2823L0.239009 22.1714C-0.0417398 22.5925 -0.0698147 23.0437 0.126709 23.4087C0.323233 23.7736 0.718287 24.0002 1.16748 24.0002H3.05251C3.53179 24.0002 3.95291 23.7476 4.17751 23.3525L12.9008 11.3104L5.19021 0.591823Z" fill="#009CD9"/>
<path d="M20.7517 22.2574L15.2932 14.7734L12.9008 18.0662L17.2063 23.8055L17.3186 23.8616C17.5151 23.9459 17.6835 23.9739 17.854 23.9739H19.6829C20.1341 23.9739 20.499 23.7774 20.7236 23.4385C20.9763 23.1297 20.9763 22.6805 20.7517 22.2574Z" fill="#EB2084"/>
</svg>
