<?xml version="1.0" encoding="UTF-8"?>
<svg width="32px" height="32px" viewBox="0 0 32 32" version="1.1" xmlns="http://www.w3.org/2000/svg" xmlns:xlink="http://www.w3.org/1999/xlink">
    <title>32-adobe-xd</title>
    <g id="Page-1" stroke="none" stroke-width="1" fill="none" fill-rule="evenodd">
        <g id="32-adobe-xd" transform="translate(2.000000, 7.000000)" fill="#000000" fill-rule="nonzero">
            <polygon id="Path" points="0 18.6968 3.52226 18.6968 7.38697 11.9255 7.46035 11.9255 11.374 18.6968 15.1408 18.6968 9.5639 9.6516 14.8962 1.06117 11.374 1.06117 7.70495 7.3271 7.63157 7.3271 4.01147 1.06117 0.2446 1.06117 5.528 9.6516"></polygon>
            <path d="M24.8691,18.6968 L28,18.6968 L28,0 L24.8691,0 L24.8691,7.6809 L24.7468,7.6809 C24.3065,6.1649 22.9123,5.2048 21.2245,5.2048 C18.0203,5.2048 16.2347,7.6809 16.2347,12.0771 C16.2347,16.4987 18.0203,19 21.2245,19 C22.9123,19 24.2821,17.9894 24.7468,16.4987 L24.8691,16.4987 L24.8691,18.6968 Z M22.2274,16.3218 C20.613,16.3218 19.5123,15.109 19.5123,13.2394 L19.5123,10.9654 C19.5123,9.0957 20.613,7.8577 22.2274,7.8577 C23.7195,7.8577 24.8691,8.6915 24.8691,9.9801 L24.8691,14.1742 C24.8691,15.5386 23.7195,16.3218 22.2274,16.3218 Z" id="Shape"></path>
        </g>
    </g>
</svg>