<?xml version="1.0" encoding="UTF-8"?>
<svg width="32px" height="32px" viewBox="0 0 32 32" version="1.1" xmlns="http://www.w3.org/2000/svg" xmlns:xlink="http://www.w3.org/1999/xlink">
    <title>32-carbon-for-ibm-dotcom</title>
    <g id="Page-1" stroke="none" stroke-width="1" fill="none" fill-rule="evenodd">
        <path d="M23.5039,14.1362 L29.5039,17.6362 C29.8111131,17.8154214 30,18.1443313 30,18.5 L30,25.5 C30,25.8556687 29.8111131,26.1845786 29.5039,26.3638 L23.5039,29.8638 C23.3509664,29.9530415 23.177067,30 23,30 C22.822933,30 22.6490336,29.9530415 22.4961,29.8638 L16.4961,26.3638 C16.1888869,26.1845786 16,25.8556687 16,25.5 L16,18.5 C16,18.1443313 16.1888869,17.8154214 16.4961,17.6362 L22.4961,14.1362 C22.8074771,13.9545493 23.1925229,13.9545493 23.5039,14.1362 Z M23,16.1577 L18,19.0742 L18,24.9258 L23,27.8423 L28,24.9258 L28,19.0742 L23,16.1577 Z M28,2 C29.1040441,2.00126747 29.9987325,2.89595593 30,4 L30,4 L30,14 L28,14 L28,10 L4,10 L4,24 L13,24 L13,26 L4,26 C2.89595593,25.9987325 2.00126747,25.1040441 2,24 L2,24 L2,4 C2.00126747,2.89595593 2.89595593,2.00126747 4,2 L4,2 Z M28,4 L4,4 L4,8 L28,8 L28,4 Z M6,5 C6.55228475,5 7,5.44771525 7,6 C7,6.55228475 6.55228475,7 6,7 C5.44771525,7 5,6.55228475 5,6 C5,5.44771525 5.44771525,5 6,5 Z M9,5 C9.55228475,5 10,5.44771525 10,6 C10,6.55228475 9.55228475,7 9,7 C8.44771525,7 8,6.55228475 8,6 C8,5.44771525 8.44771525,5 9,5 Z" id="carbon-for-ibm-dotcom" fill="#000000" fill-rule="nonzero"></path>
    </g>
</svg>