<?xml version="1.0" encoding="UTF-8"?>
<svg width="32px" height="32px" viewBox="0 0 32 32" version="1.1" xmlns="http://www.w3.org/2000/svg" xmlns:xlink="http://www.w3.org/1999/xlink">
    <title>32-carbon-for-ibm-products</title>
    <g id="Page-1" stroke="none" stroke-width="1" fill="none" fill-rule="evenodd">
        <path d="M10.9939,6 L12.0679,7.6875 L6,11.5488 L6,20.1841 C7.44394838,20.6768261 8.27513479,22.1880859 7.918,23.6714 L7.918,23.6714 L16,28.8145 L21.9917,25 L23.0671,26.6881 L16.5371,30.8434 C16.2093189,31.0516716 15.7906811,31.0516716 15.4629,30.8434 L15.4629,30.8434 L6.8367,25.3541 C5.90456566,26.0924712 4.62354636,26.2084555 3.57395222,25.6495114 C2.52435808,25.0905672 1.90562468,23.9629007 1.99804231,22.7773521 C2.09045994,21.5918035 2.87646811,20.5736415 4,20.1841 L4,20.1841 L4,11 C4.00009125,10.6581423 4.17463734,10.3399699 4.4629,10.1562 L4.4629,10.1562 L10.9939,6 Z M14.1275402,1.66100288 C15.1232792,0.866390899 16.5125638,0.788177521 17.5911977,1.46600731 C18.6698316,2.1438371 19.2020164,3.42953087 18.918,4.6714 L18.918,4.6714 L27.5371,10.1562 C27.8253627,10.3399699 27.9999087,10.6581423 28,11 L28,11 L28,20.1841 C29.3775467,20.6711363 30.2038721,22.0797662 29.9567957,23.5198331 C29.7097193,24.9598999 28.4611089,26.0125271 27,26.0125271 C25.5388911,26.0125271 24.2902807,24.9598999 24.0432043,23.5198331 C23.7961279,22.0797662 24.6224533,20.6711363 26,20.1841 L26,20.1841 L26,11.5488 L17.8369,6.3545 C17.314525,6.7699557 16.6674369,6.99734717 16,7 C14.7260682,7.00139283 13.5905017,6.197205 13.1688932,4.99506086 C12.7472847,3.79291671 13.1318012,2.45561486 14.1275402,1.66100288 Z M16.5146,8.9426 L22.5146,12.5426 C22.815737,12.723332 23,13.0487913 23,13.4 L23,20.6 C23,20.9512443 22.8157676,21.2767497 22.5146,21.4575 L16.5146,25.0575 C16.3591535,25.150765 16.1812787,25.2 16,25.2 C15.8187119,25.2 15.6408364,25.1507 15.4854,25.0574 L9.4854,21.4574 C9.184263,21.276668 9,20.9512087 9,20.6 L9,13.4 C9,13.0487913 9.184263,12.723332 9.4854,12.5426 L15.4854,8.9426 C15.8021341,8.75250716 16.1978659,8.75250716 16.5146,8.9426 Z M27,22 C26.4477153,22 26,22.4477153 26,23 C26,23.5522847 26.4477153,24 27,24 C27.5520791,23.9995038 27.9995038,23.5520791 28,23 C28,22.4477153 27.5522847,22 27,22 Z M5,22 C4.44771525,22 4,22.4477153 4,23 C4,23.5522847 4.44771525,24 5,24 C5.55207909,23.9995038 5.9995038,23.5520791 6,23 C6,22.4477153 5.55228475,22 5,22 Z M16,10.966 L11,13.966 L11,20.034 L16,23.034 L21,20.034 L21,13.966 L16,10.966 Z M16,14 C17.6568542,14 19,15.3431458 19,17 C18.9981813,18.6561003 17.6561003,19.9981813 16,20 C14.3431458,20 13,18.6568542 13,17 C13,15.3431458 14.3431458,14 16,14 Z M16,16 C15.4477153,16 15,16.4477153 15,17 C15,17.5522847 15.4477153,18 16,18 C16.5522847,18 17,17.5522847 17,17 C16.9993938,16.4479666 16.5520334,16.0006062 16,16 Z M16,3 C15.4477153,3 15,3.44771525 15,4 C15,4.55228475 15.4477153,5 16,5 C16.5520791,4.9995038 16.9995038,4.55207909 17,4 C17,3.44771525 16.5522847,3 16,3 Z" id="carbon-for-ibm-products" fill="#000000" fill-rule="nonzero"></path>
    </g>
</svg>