<svg width="32" height="32" viewBox="0 0 32 32" fill="none" xmlns="http://www.w3.org/2000/svg">
<g clip-path="url(#clip0_36_4)">
<rect width="32" height="32" fill="white"/>
<path d="M26.4 6.4C24.5 5.5 22.4 4.9 20.3 4.5H20.2C19.9 5 19.6 5.6 19.4 6.1C17.1 5.8 14.8 5.8 12.5 6.1C12.3 5.6 12 5 11.7 4.5C11.7 4.5 11.6 4.4 11.6 4.5C9.49999 4.9 7.39999 5.5 5.49999 6.4C1.59999 12.2 0.499991 17.9 1.09999 23.5V23.6C3.69999 25.5 6.19999 26.6 8.59999 27.4H8.69999C9.29999 26.6 9.79999 25.8 10.2 24.9C10.2 24.8 10.2 24.8 10.1 24.8C9.29999 24.5 8.49999 24.1 7.79999 23.7C7.69999 23.7 7.69999 23.6 7.79999 23.5C7.99999 23.4 8.09999 23.3 8.29999 23.1H8.39999C13.3 25.3 18.6 25.3 23.5 23.1H23.6C23.8 23.2 23.9 23.3 24.1 23.5C24.2 23.5 24.2 23.6 24.1 23.7C23.4 24.1 22.6 24.5 21.8 24.8C21.7 24.8 21.7 24.9 21.7 24.9C22.2 25.8 22.7 26.6 23.2 27.4H23.3C25.8 26.6 28.2 25.5 30.8 23.6C30.8 23.6 30.8 23.6 30.8 23.5C31.5 17.1 29.8 11.5 26.4 6.4C26.4 6.5 26.4 6.5 26.4 6.4ZM11 20.2C9.49999 20.2 8.29999 18.8 8.29999 17.2C8.29999 15.5 9.49999 14.2 11 14.2C12.5 14.2 13.7 15.6 13.7 17.2C13.7 18.8 12.5 20.2 11 20.2ZM21 20.2C19.5 20.2 18.3 18.8 18.3 17.2C18.3 15.5 19.5 14.2 21 14.2C22.5 14.2 23.7 15.6 23.7 17.2C23.7 18.8 22.5 20.2 21 20.2Z" fill="#5865F2"/>
</g>
<defs>
<clipPath id="clip0_36_4">
<rect width="32" height="32" fill="white"/>
</clipPath>
</defs>
</svg>
