<?xml version="1.0" encoding="UTF-8"?>
<svg width="32px" height="32px" viewBox="0 0 32 32" version="1.1" xmlns="http://www.w3.org/2000/svg" xmlns:xlink="http://www.w3.org/1999/xlink">
    <title>32-figma</title>
    <g id="Page-1" stroke="none" stroke-width="1" fill="none" fill-rule="evenodd">
        <g id="32-figma" transform="translate(5.989789, 1.989789)" fill="#000000" fill-rule="nonzero">
            <path d="M14.2261302,0 L8.8182531,0 L8.8182531,10.5896338 L14.2261302,10.5896338 C17.1503841,10.5896338 19.5209527,8.21906516 19.5209527,5.29481123 C19.5209527,2.37056647 17.150382,0 14.2261302,0 Z M10.702584,8.70518727 L10.702584,1.88438402 L14.2261302,1.88438402 C16.1096317,1.88438402 17.6365062,3.41131829 17.6365062,5.29481123 C17.6365062,7.1783141 16.109633,8.70518727 14.2261302,8.70518727 L10.702584,8.70518727 Z" id="Rectangle-55"></path>
            <path d="M10.7026996,0 L5.29482253,0 C2.37057072,0 0,2.37056647 0,5.29481123 C0,8.21906516 2.3705686,10.5896338 5.29482253,10.5896338 L10.7026996,10.5896338 L10.7026996,0 Z M8.81813747,8.70518727 L5.29482253,8.70518727 C3.41131966,8.70518727 1.88444649,7.1783141 1.88444649,5.29481123 L1.88490339,5.2384146 C1.91501965,3.38093354 3.43015604,1.88438402 5.29482253,1.88438402 L8.81813747,1.88438402 L8.81813747,8.70518727 Z" id="Rectangle-55_2"></path>
            <path d="M10.7026996,8.70531163 L5.29482253,8.70531163 C2.3705672,8.70531163 0,11.0758703 0,14.0001229 C0,16.9243768 2.3705686,19.2949454 5.29482253,19.2949454 L10.7026996,19.2949454 L10.7026996,8.70531163 Z M8.81813747,17.4104188 L5.29482253,17.4104989 C3.41131966,17.4104989 1.88444649,15.8836257 1.88444649,14.0001229 L1.88490338,13.943726 C1.91501956,12.0862383 3.4301518,10.5897496 5.29482253,10.5897496 L8.81813747,10.5897496 L8.81813747,17.4104188 Z" id="Rectangle-55_3"></path>
            <path d="M10.7026996,17.4103858 L5.29482253,17.4103858 C2.3705686,17.4103858 0,19.7809544 0,22.7052084 C0,25.593551 2.34404192,27.9524521 5.2356475,27.999324 L5.31527312,28 C8.28193334,28 10.7026996,25.6006446 10.7026996,22.6486811 L10.7026996,17.4103858 Z M8.81813747,19.2947403 L8.8182531,22.6486811 C8.8182531,24.556133 7.24490608,26.1155844 5.32290528,26.1155844 L5.25855076,26.1150322 C3.39916809,26.0848613 1.88444649,24.5605377 1.88444649,22.7052084 C1.88444649,20.8217055 3.41131966,19.2948323 5.29482253,19.2948323 L8.81813747,19.2947403 Z" id="Rectangle-55_4"></path>
            <path d="M14.2261302,8.70531163 L14.1130756,8.70531163 C11.1888203,8.70531163 8.8182531,11.0758703 8.8182531,14.0001229 C8.8182531,16.9243768 11.1888217,19.2949454 14.1130756,19.2949454 L14.2261302,19.2949454 C17.1178041,19.2949454 19.4734276,16.9749963 19.5202458,14.0873758 L19.5209218,14.0077559 C19.5209218,11.0758703 17.1503855,8.70531163 14.2261302,8.70531163 Z M14.2261302,10.5897581 C16.109636,10.5897581 17.6365062,12.1166229 17.6365062,14.0001229 L17.635954,14.0644681 C17.6059011,15.9161412 16.0885643,17.4104989 14.2261302,17.4104989 L14.1130756,17.4104989 C12.2295728,17.4104989 10.7026996,15.8836257 10.7026996,14.0001229 C10.7026996,12.1166229 12.2295698,10.5897581 14.1130756,10.5897581 L14.2261302,10.5897581 Z" id="Rectangle-55_5"></path>
        </g>
    </g>
</svg>