<?xml version="1.0" encoding="UTF-8"?>
<svg width="32px" height="32px" viewBox="0 0 32 32" version="1.1" xmlns="http://www.w3.org/2000/svg" xmlns:xlink="http://www.w3.org/1999/xlink">
    <title>32-figma</title>
    <g id="Page-1" stroke="none" stroke-width="1" fill="none" fill-rule="evenodd">
        <g id="32-figma" transform="translate(7.000000, 2.000000)" fill="#000000" fill-rule="nonzero">
            <path d="M13.5,9.33333333 C15.9852814,9.33333333 18,7.2439955 18,4.66666667 C18,2.08933783 15.9852814,0 13.5,0 L4.5,0 C2.01471863,0 0,2.08933783 0,4.66666667 C0,7.2439955 2.01471863,9.33333333 4.5,9.33333333 C2.01471863,9.33333333 0,11.4226712 0,14 C0,16.5773288 2.01471863,18.6666667 4.5,18.6666667 C2.01471863,18.6666667 0,20.7560045 0,23.3333333 C0,25.9106622 2.01471863,28 4.5,28 C6.98528137,28 9,25.9106622 9,23.3333333 L9,9.33333333 L13.5,9.33333333 Z" id="Path"></path>
            <circle id="Oval" cx="13" cy="14" r="5"></circle>
        </g>
    </g>
</svg>