<?xml version="1.0" encoding="UTF-8"?>
<svg width="32px" height="32px" viewBox="0 0 32 32" version="1.1" xmlns="http://www.w3.org/2000/svg" xmlns:xlink="http://www.w3.org/1999/xlink">
    <title>32-github</title>
    <g id="Page-1" stroke="none" stroke-width="1" fill="none" fill-rule="evenodd">
        <path d="M16,2 C8.26875,2 2,8.43124732 2,16.356244 C2,22.6999914 6.0125,28.0749891 11.575,29.9749883 C11.6530216,29.9919357 11.7326597,30.0003186 11.8125,30 C12.33125,30 12.53125,29.6187385 12.53125,29.2874886 C12.53125,28.9437388 12.51875,28.0437391 12.5125,26.8437396 C12.0494004,26.9523041 11.5756413,27.0089036 11.1,27.0124896 C8.40625,27.0124896 7.79375,24.9187404 7.79375,24.9187404 C7.15625,23.2624911 6.2375,22.8187413 6.2375,22.8187413 C5.01875,21.9624917 6.23125,21.9374917 6.325,21.9374917 L6.33125,21.9374917 C7.7375,22.0624916 8.475,23.4249911 8.475,23.4249911 C9.175,24.6499906 10.1125,24.9937404 10.95,24.9937404 C11.5037724,24.9826667 12.0489784,24.8548841 12.55,24.6187406 C12.675,23.693741 13.0375,23.0624912 13.4375,22.6999914 C10.33125,22.3374915 7.0625,21.106242 7.0625,15.6062443 C7.0625,14.037495 7.60625,12.7562455 8.5,11.7562459 C8.35625,11.3937461 7.875,9.93124669 8.6375,7.95624752 C8.7397787,7.93177372 8.84490032,7.92126156 8.95,7.92499753 C9.45625,7.92499753 10.6,8.11874745 12.4875,9.4312469 C14.7809622,8.78956679 17.2065378,8.78956679 19.5,9.4312469 C21.3875,8.11874745 22.53125,7.92499753 23.0375,7.92499753 C23.1425997,7.92126156 23.2477213,7.93177372 23.35,7.95624752 C24.1125,9.93124669 23.63125,11.3937461 23.4875,11.7562459 C24.38125,12.7624955 24.925,14.043745 24.925,15.6062443 C24.925,21.118742 21.65,22.3312415 18.53125,22.6874914 C19.03125,23.1312412 19.48125,24.0062408 19.48125,25.3437403 C19.48125,27.2624895 19.4625,28.8124888 19.4625,29.2812386 C19.4625,29.6187385 19.65625,30 20.175,30 C20.2589753,30.0003573 20.3427606,29.9919788 20.425,29.9749883 C25.99375,28.0749891 30,22.6937414 30,16.356244 C30,8.43124732 23.73125,2 16,2 Z" id="32-github" fill="#000000" fill-rule="nonzero"></path>
    </g>
</svg>