<?xml version="1.0" encoding="UTF-8"?>
<svg width="32px" height="32px" viewBox="0 0 32 32" version="1.1" xmlns="http://www.w3.org/2000/svg" xmlns:xlink="http://www.w3.org/1999/xlink">
    <title>32-github</title>
    <g id="Page-1" stroke="none" stroke-width="1" fill="none" fill-rule="evenodd">
        <path d="M16,0 C7.16428571,0 0,7.34999694 0,16.407136 C0,23.657133 4.58571429,29.7999876 10.9428571,31.9714152 C11.0320247,31.9907836 11.1230396,32.0003642 11.2142857,32 C11.8071429,32 12.0357143,31.5642726 12.0357143,31.1857013 C12.0357143,30.7928443 12.0214286,29.7642733 12.0142857,28.3928453 C11.485029,28.5169189 10.94359,28.5816041 10.4,28.5857024 C7.32142857,28.5857024 6.62142857,26.1928462 6.62142857,26.1928462 C5.89285714,24.2999899 4.84285714,23.7928472 4.84285714,23.7928472 C3.45,22.8142762 4.83571429,22.7857048 4.94285714,22.7857048 L4.95,22.7857048 C6.55714286,22.9285619 7.4,24.4857041 7.4,24.4857041 C8.2,25.8857035 9.27142857,26.2785605 10.2285714,26.2785605 C10.8614542,26.2659048 11.4845467,26.1198676 12.0571429,25.8499892 C12.2,24.7928468 12.6142857,24.0714185 13.0714286,23.657133 C9.52142857,23.2428475 5.78571429,21.8357052 5.78571429,15.5499935 C5.78571429,13.7571371 6.40714286,12.292852 7.42857143,11.1499954 C7.26428571,10.7357098 6.71428571,9.06428194 7.58571429,6.80714002 C7.70260423,6.77916996 7.82274322,6.76715607 7.94285714,6.77142575 C8.52142857,6.77142575 9.82857143,6.99285423 11.9857143,8.4928536 C14.6068139,7.7595049 17.3789004,7.7595049 20,8.4928536 C22.1571429,6.99285423 23.4642857,6.77142575 24.0428571,6.77142575 C24.1629711,6.76715607 24.2831101,6.77916996 24.4,6.80714002 C25.2714286,9.06428194 24.7214286,10.7357098 24.5571429,11.1499954 C25.5785714,12.2999949 26.2,13.76428 26.2,15.5499935 C26.2,21.8499909 22.4571429,23.2357046 18.8928571,23.6428473 C19.4642857,24.1499899 19.9785714,25.1499895 19.9785714,26.6785603 C19.9785714,28.8714165 19.9571429,30.6428444 19.9571429,31.1785584 C19.9571429,31.5642726 20.1785714,32 20.7714286,32 C20.8674003,32.0004083 20.963155,31.9908329 21.0571429,31.9714152 C27.4214286,29.7999876 32,23.6499901 32,16.407136 C32,7.34999694 24.8357143,0 16,0 Z" id="Path" fill="#000000" fill-rule="nonzero"></path>
    </g>
</svg>