<?xml version="1.0" encoding="UTF-8"?>
<svg width="32px" height="32px" viewBox="0 0 32 32" version="1.1" xmlns="http://www.w3.org/2000/svg" xmlns:xlink="http://www.w3.org/1999/xlink">
    <title>32-invision</title>
    <g id="Page-1" stroke="none" stroke-width="1" fill="none" fill-rule="evenodd">
        <g id="32-invision" transform="translate(2.000000, 2.000000)" fill-rule="nonzero">
            <rect id="Rectangle" fill="#000000" x="0" y="0" width="28" height="28"></rect>
            <path d="M9.52784,9.0104 C10.4135319,8.99745531 11.1222826,8.27125364 11.1136842,7.38550884 C11.1050857,6.49976403 10.3823707,5.78745844 9.49659432,5.79169147 C8.61081798,5.79596238 7.89497459,6.51517347 7.89488,7.40096 C7.89634615,7.83144666 8.06961687,8.24353322 8.3762187,8.54571898 C8.68282053,8.84790473 9.09737737,9.01517908 9.52784,9.0104 L9.52784,9.0104 Z" id="Path" fill="#FFFFFF"></path>
            <path d="M6.14208,17.62656 C6.04936323,18.0228016 6.00090665,18.4281089 5.9976,18.83504 C5.9976,20.25184 6.76592,21.19264 8.39888,21.19264 C9.75296,21.19264 10.85168,20.38848 11.64128,19.08928 L11.15856,21.02688 L13.84656,21.02688 L15.38432,14.86688 C15.76848,13.3056 16.51216,12.49584 17.64112,12.49584 C18.52928,12.49584 19.08144,13.048 19.08144,13.9608 C19.085822,14.2534384 19.0454078,14.5450248 18.9616,14.82544 L18.16976,17.65792 C18.0564658,18.0480045 17.9998861,18.4523605 18.00176,18.85856 C18.00176,20.20256 18.7936,21.18816 20.45008,21.18816 C21.86688,21.18816 22.99584,20.27648 23.61968,18.09136 L22.56352,17.68256 C22.03488,19.14752 21.57904,19.41184 21.21952,19.41184 C20.86,19.41184 20.66624,19.17216 20.66624,18.69168 C20.6766166,18.4395502 20.7168439,18.1895392 20.78608,17.94688 L21.55552,15.18608 C21.7282614,14.6185128 21.8173051,14.0287869 21.81984,13.43552 C21.81984,11.37024 20.57104,10.2928 19.05792,10.2928 C17.64112,10.2928 16.2008,11.57072 15.48064,12.91584 L16.00816,10.50112 L11.90336,10.50112 L11.32656,12.62912 L13.24848,12.62912 L12.06576,17.36 C11.13616,19.42528 9.42928,19.45888 9.21536,19.41072 C8.86368,19.3312 8.63968,19.19792 8.63968,18.73872 C8.64993566,18.3669335 8.70636835,17.9978636 8.80768,17.64 L10.60864,10.49552 L6.048,10.49552 L5.47232,12.62352 L7.36848,12.62352 L6.14208,17.62656 Z" id="Path" fill="#FFFFFF"></path>
        </g>
    </g>
</svg>