<?xml version="1.0" encoding="UTF-8"?>
<svg width="32px" height="32px" viewBox="0 0 32 32" version="1.1" xmlns="http://www.w3.org/2000/svg" xmlns:xlink="http://www.w3.org/1999/xlink">
    <title>32-library</title>
    <g id="Page-1" stroke="none" stroke-width="1" fill="none" fill-rule="evenodd">
        <path d="M15.99976,24.0004857 C15.83426,24.0004857 15.67126,23.959185 15.52566,23.880485 L2.52568,16.880485 L3.47388,15.120485 L15.99976,21.864785 L28.52566,15.120485 L29.47386,16.881185 L16.47386,23.881185 C16.32816,23.959685 16.16526,24.000685 15.99976,24.0004857 Z M15.99976,30.0004857 C15.83426,30.0004857 15.67126,29.959185 15.52566,29.880485 L2.52568,22.880485 L3.47388,21.120485 L15.99976,27.864785 L28.52566,21.120485 L29.47386,22.881185 L16.47386,29.881185 C16.32816,29.959685 16.16526,30.000685 15.99976,30.0004857 L15.99976,30.0004857 Z M15.52566,17.880485 C15.67126,17.959185 15.83426,18.000485 15.99976,18.000485 C16.16536,18.000485 16.32826,17.959185 16.47386,17.880485 L29.47386,10.880485 C29.79766,10.705985 29.99956,10.367885 29.99956,10.000115 C29.99956,9.632325 29.79766,9.294225 29.47386,9.119775 L16.47386,2.119775 C16.17796,1.960075 15.82156,1.960075 15.52566,2.119775 L2.52568,9.119775 C2.20189,9.294225 2,9.632325 2,10.000115 C2,10.367885 2.20189,10.705985 2.52568,10.880485 L15.52566,17.880485 Z M15.99976,15.864785 L5.10918,10.000475 L15.99976,4.136275 L26.89036,10.000475 L15.99976,15.864785 Z" id="32-library" fill="#000000"></path>
    </g>
</svg>
