<svg width="32" height="32" viewBox="0 0 32 32" fill="none" xmlns="http://www.w3.org/2000/svg">
<g clip-path="url(#clip0_106_4)">
<rect width="32" height="32" fill="white"/>
<path d="M7.88274 19.6938C7.88274 21.3127 6.56026 22.6352 4.94137 22.6352C3.32248 22.6352 2 21.3127 2 19.6938C2 18.0749 3.32248 16.7524 4.94137 16.7524H7.88274V19.6938Z" fill="#E01E5A"/>
<path d="M9.36481 19.6938C9.36481 18.0749 10.6873 16.7524 12.3062 16.7524C13.9251 16.7524 15.2475 18.0749 15.2475 19.6938V27.0586C15.2475 28.6775 13.9251 30 12.3062 30C10.6873 30 9.36481 28.6775 9.36481 27.0586V19.6938Z" fill="#E01E5A"/>
<path d="M12.3062 7.88274C10.6873 7.88274 9.36481 6.56026 9.36481 4.94137C9.36481 3.32248 10.6873 2 12.3062 2C13.9251 2 15.2475 3.32248 15.2475 4.94137V7.88274H12.3062Z" fill="#36C5F0"/>
<path d="M12.3062 9.36481C13.9251 9.36481 15.2476 10.6873 15.2476 12.3062C15.2476 13.9251 13.9251 15.2475 12.3062 15.2475H4.94137C3.32248 15.2475 2 13.9251 2 12.3062C2 10.6873 3.32248 9.36481 4.94137 9.36481H12.3062Z" fill="#36C5F0"/>
<path d="M24.1173 12.3062C24.1173 10.6873 25.4398 9.36481 27.0586 9.36481C28.6775 9.36481 30 10.6873 30 12.3062C30 13.9251 28.6775 15.2475 27.0586 15.2475H24.1173V12.3062Z" fill="#2EB67D"/>
<path d="M22.6352 12.3062C22.6352 13.9251 21.3127 15.2476 19.6938 15.2476C18.0749 15.2476 16.7524 13.9251 16.7524 12.3062V4.94137C16.7524 3.32248 18.0749 2 19.6938 2C21.3127 2 22.6352 3.32248 22.6352 4.94137V12.3062Z" fill="#2EB67D"/>
<path d="M19.6938 24.1172C21.3127 24.1172 22.6352 25.4397 22.6352 27.0586C22.6352 28.6775 21.3127 30 19.6938 30C18.0749 30 16.7524 28.6775 16.7524 27.0586V24.1172H19.6938Z" fill="#ECB22E"/>
<path d="M19.6938 22.6352C18.0749 22.6352 16.7524 21.3127 16.7524 19.6938C16.7524 18.0749 18.0749 16.7524 19.6938 16.7524H27.0586C28.6775 16.7524 30 18.0749 30 19.6938C30 21.3127 28.6775 22.6352 27.0586 22.6352H19.6938Z" fill="#ECB22E"/>
</g>
<defs>
<clipPath id="clip0_106_4">
<rect width="32" height="32" fill="white"/>
</clipPath>
</defs>
</svg>
