<?xml version="1.0" encoding="UTF-8"?>
<svg width="32px" height="32px" viewBox="0 0 32 32" version="1.1" xmlns="http://www.w3.org/2000/svg" xmlns:xlink="http://www.w3.org/1999/xlink">
    <title>32-sketch</title>
    <g id="Page-1" stroke="none" stroke-width="1" fill="none" fill-rule="evenodd">
        <g id="Sketch-Symbol-Light" transform="translate(2.000000, 3.000000)" fill="#000000" fill-rule="nonzero">
            <path d="M14.0660473,0.00371289228 L21.7543485,0.870865055 C21.916617,0.889167158 22.0640038,0.973980198 22.1613229,1.10505677 L27.8839632,8.81273123 C28.0474899,9.0329809 28.0372228,9.3369215 27.8592058,9.54564353 L14.2241321,25.5325409 C14.118601,25.6562743 13.9327038,25.6710657 13.808919,25.5655784 C13.7970437,25.5554585 13.785992,25.5444112 13.7758678,25.5325409 L0.140794226,9.54564353 C-0.0372228569,9.3369215 -0.0474898318,9.0329809 0.116036775,8.81273123 L5.8386771,1.10505677 C5.93599621,0.973980198 6.08338297,0.889167158 6.24565152,0.870865055 L13.9339526,0.00371289228 C13.977845,-0.00123763076 14.022155,-0.00123763076 14.0660473,0.00371289228 Z M15.6620559,1.66660603 C15.6170016,1.62132709 15.5450323,1.61731913 15.4952251,1.65731527 C15.4463219,1.69658543 15.4347891,1.76512099 15.4655645,1.8176565 L15.4760713,1.83289187 L19.8116709,7.22754014 C19.8536855,7.27981762 19.8765873,7.34486586 19.8765873,7.41192332 C19.8765873,7.56638978 19.7575792,7.69307201 19.6062145,7.70535401 L19.5820586,7.70632995 L8.41794138,7.70632995 C8.35085612,7.70632995 8.28578091,7.68343773 8.23348179,7.64144053 C8.11371553,7.54526582 8.08903,7.37463126 8.17247781,7.24918441 L8.18832904,7.22754014 L12.5239287,1.83289187 C12.5639414,1.78310538 12.5599318,1.71116582 12.5146341,1.66613026 C12.4701587,1.62191207 12.4007379,1.61806825 12.3519243,1.65447618 L12.3379441,1.66660603 L6.46447012,7.5693637 C6.41751398,7.61655398 6.35277513,7.64168191 6.28626394,7.63853302 C6.16392486,7.63274107 6.06780784,7.53467833 6.06205601,7.4148369 L6.06205218,7.39212864 L6.26464215,3.11652713 C6.26734606,3.05946186 6.2286851,3.00868762 6.1729387,2.99609132 C6.11476314,2.98294608 6.05691238,3.01529494 6.03662435,3.06964108 L6.03205056,3.08499048 L4.91916114,8.00611776 C4.88109174,8.17445819 4.75429439,8.30761382 4.58999531,8.35489508 L4.5587623,8.36274154 L1.80325578,8.95615115 C1.74899705,8.96783602 1.71025668,9.01579174 1.71025668,9.07127237 C1.71025668,9.13089106 1.754578,9.18016215 1.81208184,9.18796 L1.82806816,9.18903507 L4.57677191,9.18903507 C4.7366074,9.18903507 4.88475752,9.2699377 4.97134781,9.40253799 L4.9878303,9.42973873 L11.581658,21.1867923 C11.6269908,21.2676226 11.7271048,21.2996969 11.810998,21.2602676 C11.8934322,21.2215243 11.9319728,21.1272822 11.9029813,21.0431093 L11.8957266,21.0252502 L6.56507338,9.69264708 C6.54295201,9.64561844 6.53148247,9.59429068 6.53148247,9.54232309 C6.53148247,9.35569081 6.67625971,9.20285901 6.85967611,9.18992211 L6.8849169,9.18903507 L21.1150831,9.18903507 C21.1670723,9.18903507 21.2184213,9.20049987 21.2654694,9.22261208 C21.4344339,9.30202413 21.5111948,9.49801709 21.4448635,9.66943715 L21.4349266,9.69264708 L16.1042734,21.0252502 C16.0648278,21.1091086 16.0969154,21.2091812 16.1777792,21.2544952 C16.2572366,21.2990212 16.3563556,21.2755848 16.4080216,21.2030745 L16.418342,21.1867923 L23.0121697,9.42973873 C23.0903304,9.29037521 23.2333758,9.20076231 23.3914316,9.19010515 L23.4232281,9.18903507 L26.1719318,9.18903507 C26.2274355,9.18903507 26.2754111,9.15031077 26.2871008,9.09607451 C26.2996623,9.03779308 26.2667165,8.9802964 26.2121455,8.96056755 L26.1967442,8.95615115 L23.4412377,8.36274154 C23.272451,8.3263927 23.1379645,8.2010012 23.0890042,8.03725688 L23.0808389,8.00611776 L21.9679495,3.08499048 C21.9553479,3.02926721 21.9045527,2.99062215 21.8474637,2.99332498 C21.7878871,2.9961455 21.7407476,3.04272991 21.7356758,3.10051451 L21.7353578,3.11652713 L21.9379478,7.39212864 C21.941098,7.45861227 21.9159597,7.52332424 21.8687499,7.57026098 C21.7822523,7.65625813 21.6457242,7.66127982 21.5533814,7.58557992 L21.5355299,7.5693637 L15.6620559,1.66660603 Z" id="Symbol"></path>
        </g>
    </g>
</svg>