<svg width="32px" height="30px" viewBox="0 0 32 30" version="1.1" xmlns="http://www.w3.org/2000/svg" xmlns:xlink="http://www.w3.org/1999/xlink">
    <g id="Page-1" stroke="none" stroke-width="1" fill="none" fill-rule="evenodd">
        <g id="xlg-1312px-16-column" transform="translate(-1217.000000, -2207.000000)">
            <rect fill="#FFFFFF" x="0" y="0" width="1312" height="3381"></rect>
            <g id="Brand-/-IBM-/-ibm-cloud-/-20-Copy-8" transform="translate(1217.000000, 2206.000000)" fill="#000000">
                <path d="M24.3619048,13.65 C22.4169223,9.82500923 18.2967258,7.81226195 14.2574244,8.71388462 C10.2181231,9.61550728 7.23398639,13.2140307 6.93904762,17.539 C3.54454318,17.9237722 1.02863682,21.027634 1.20948044,24.6075399 C1.39032406,28.1874457 4.20482477,30.9944346 7.61904762,31.0000063 L22.8571429,31.0000063 C27.1685028,31.0053914 30.7712597,27.5554658 31.1622616,23.0471897 C31.5532634,18.5389137 28.6032716,14.4624169 24.3619048,13.65 L24.3619048,13.65 Z M22.8571429,29.5000512 L7.61904762,29.5000512 C4.98570339,29.5121168 2.79710674,27.3725695 2.62076723,24.6137379 C2.44442772,21.8549062 4.34111108,19.4274701 6.95238095,19.07 C7.05307803,20.3938072 7.41090534,21.6819369 8.00380952,22.855 C8.12459931,23.0911526 8.35620025,23.2417039 8.6113705,23.2499428 C8.86654074,23.2581817 9.10651387,23.1228565 9.24089432,22.8949428 C9.37527476,22.6670291 9.38364695,22.3811526 9.26285714,22.145 C7.30536816,18.298482 8.5372708,13.5167011 12.074599,11.2308799 C15.6119272,8.94505876 20.2325792,9.94491931 22.6209524,13.513 C20.3137165,13.5797952 18.1360944,14.6479162 16.6066667,16.463 C16.4275005,16.6621907 16.3660379,16.9481142 16.4463484,17.2087996 C16.5266589,17.469485 16.7359606,17.6634429 16.9922886,17.7147172 C17.2486166,17.7659914 17.511175,17.6664214 17.6771429,17.455 C19.7795215,14.9515394 23.2380362,14.2786759 26.0550694,15.8250516 C28.8721027,17.3714273 30.3196607,20.7374189 29.5616426,23.9788497 C28.8036246,27.2202806 26.0359218,29.4994816 22.8571429,29.5000512 L22.8571429,29.5000512 Z M31.3314286,10.255 C31.2357844,10.0806555 31.07805,9.95339086 30.8929782,9.90124564 C30.7079065,9.84910043 30.5106833,9.87635338 30.3447619,9.977 L27.4685714,11.721 C27.2345923,11.8508359 27.0868893,12.1045466 27.0835234,12.3824001 C27.0801575,12.6602536 27.221667,12.917827 27.4524252,13.0538697 C27.6831835,13.1899123 27.9662973,13.182674 28.1904762,13.035 L31.0666667,11.291 C31.412004,11.0814946 31.5304832,10.6178915 31.3314286,10.255 L31.3314286,10.255 Z M22.5485714,7.87 C22.7145784,7.97096451 22.9120322,7.99839539 23.0973339,7.94623573 C23.2826356,7.89407608 23.4405435,7.76661618 23.5361905,7.592 L25.1971429,4.572 C25.3788073,4.21106348 25.2560262,3.76390145 24.9192447,3.55991033 C24.5824633,3.35591921 24.1523375,3.46818125 23.9457143,3.814 L22.2847619,6.834 C22.0855472,7.19662992 22.2035797,7.66015235 22.5485714,7.87 L22.5485714,7.87 Z M16.1904762,6.081 C16.3821898,6.081 16.5660514,6.00103416 16.7016134,5.85869405 C16.8371754,5.71635394 16.9133333,5.52329932 16.9133333,5.322 L16.9133333,1.835 C16.9133333,1.41581587 16.5896992,1.076 16.1904762,1.076 C15.7912532,1.076 15.4676184,1.41581587 15.4676184,1.835 L15.4676184,5.322 C15.4673662,5.52347252 15.5434126,5.71678414 15.679002,5.85934061 C15.8145914,6.00189708 15.9985974,6.082 16.1904762,6.082 L16.1904762,6.081 Z M8.8447619,7.592 C9.04967762,7.94250997 9.4831898,8.05787777 9.82236786,7.85216395 C10.1615459,7.64645014 10.2829706,7.19450936 10.0961905,6.833 L8.4352381,3.813 C8.30697375,3.57609295 8.06759592,3.42956963 7.8080607,3.42910321 C7.54852548,3.42863902 7.3086725,3.57430316 7.17963841,3.81074891 C7.05060432,4.04719467 7.05219633,4.33812673 7.18380952,4.573 L8.8447619,7.592 Z M4.91333333,11.721 L2.03714286,9.977 C1.81345403,9.83880614 1.53637587,9.83713453 1.31118944,9.97262033 C1.08600301,10.1081061 0.947275258,10.3599518 0.947717347,10.6324637 C0.948161553,10.9049757 1.08770757,11.1563224 1.31333333,11.291 L4.19047619,13.035 C4.41449692,13.1793915 4.6955107,13.1847126 4.92434398,13.048896 C5.15317726,12.9130795 5.29375725,12.657535 5.29149628,12.3815415 C5.28918028,12.105548 5.14438408,11.8526124 4.91333333,11.721 Z" id="Fill"></path>
            </g>
        </g>
    </g>
</svg>