<?xml version="1.0" encoding="UTF-8"?>
<svg width="48px" height="48px" viewBox="0 0 48 48" version="1.1" xmlns="http://www.w3.org/2000/svg" xmlns:xlink="http://www.w3.org/1999/xlink">
    <title>48-components</title>
    <g id="Page-1" stroke="none" stroke-width="1" fill="none" fill-rule="evenodd">
        <g id="components_blue">
            <rect id="Rectangle" fill="#D0E2FF" fill-rule="nonzero" x="3" y="7.695" width="41.85" height="5.85"></rect>
            <rect id="Rectangle" fill="#D0E2FF" fill-rule="nonzero" x="3" y="22.575" width="41.85" height="5.85"></rect>
            <rect id="Rectangle" fill="#D0E2FF" fill-rule="nonzero" x="3" y="37.575" width="41.85" height="5.85"></rect>
            <path d="M45,44.04 L3,44.04 C2.70176624,44.04 2.46,43.7982338 2.46,43.5 L2.46,37.5 C2.46,37.2017662 2.70176624,36.96 3,36.96 L45,36.96 C45.2982338,36.96 45.54,37.2017662 45.54,37.5 L45.54,43.5 C45.54,43.6432169 45.4831073,43.780568 45.3818377,43.8818377 C45.280568,43.9831073 45.1432169,44.04 45,44.04 L45,44.04 Z M3.54,42.96 L44.46,42.96 L44.46,38.04 L3.54,38.04 L3.54,42.96 Z M21,35.04 L3,35.04 L3,33.96 L21,33.96 L21,35.04 Z M45,29.04 L3,29.04 C2.70176624,29.04 2.46,28.7982338 2.46,28.5 L2.46,22.5 C2.46,22.2017662 2.70176624,21.96 3,21.96 L45,21.96 C45.2982338,21.96 45.54,22.2017662 45.54,22.5 L45.54,28.5 C45.54,28.7982338 45.2982338,29.04 45,29.04 L45,29.04 Z M3.54,27.96 L44.46,27.96 L44.46,23.04 L3.54,23.04 L3.54,27.96 Z M21,20.04 L3,20.04 L3,18.96 L21,18.96 L21,20.04 Z M45,14.04 L3,14.04 C2.70176624,14.04 2.46,13.7982338 2.46,13.5 L2.46,7.5 C2.46,7.20176624 2.70176624,6.96 3,6.96 L45,6.96 C45.2982338,6.96 45.54,7.20176624 45.54,7.5 L45.54,13.5 C45.54,13.7982338 45.2982338,14.04 45,14.04 L45,14.04 Z M3.54,12.96 L44.46,12.96 L44.46,8.04 L3.54,8.04 L3.54,12.96 Z M21,5.04 L3,5.04 L3,3.96 L21,3.96 L21,5.04 Z" id="Shape" fill="#0F62FE" fill-rule="nonzero"></path>
            <rect id="Rectangle" x="0" y="0" width="48" height="48"></rect>
        </g>
    </g>
</svg>