<?xml version="1.0" encoding="UTF-8"?>
<svg width="48px" height="48px" viewBox="0 0 48 48" version="1.1" xmlns="http://www.w3.org/2000/svg" xmlns:xlink="http://www.w3.org/1999/xlink">
    <title>48-functions</title>
    <g id="Page-1" stroke="none" stroke-width="1" fill="none" fill-rule="evenodd">
        <g id="functions_green">
            <rect id="Rectangle" fill="#A7F0BA" fill-rule="nonzero" x="1.53" y="7.53" width="44.97" height="37.455"></rect>
            <path d="M43.5,5.25 C43.5,5.66421356 43.1642136,6 42.75,6 C42.3357864,6 42,5.66421356 42,5.25 C42,4.83578644 42.3357864,4.5 42.75,4.5 C43.1642136,4.5 43.5,4.83578644 43.5,5.25 Z M39.75,4.5 C39.3357864,4.5 39,4.83578644 39,5.25 C39,5.66421356 39.3357864,6 39.75,6 C40.1642136,6 40.5,5.66421356 40.5,5.25 C40.5,4.83578644 40.1642136,4.5 39.75,4.5 Z M36.75,4.5 C36.3357864,4.5 36,4.83578644 36,5.25 C36,5.66421356 36.3357864,6 36.75,6 C37.1642136,6 37.5,5.66421356 37.5,5.25 C37.5,4.83578644 37.1642136,4.5 36.75,4.5 Z M46.5,45.54 L1.5,45.54 C1.20176624,45.54 0.96,45.2982338 0.96,45 L0.96,3 C0.96,2.70176624 1.20176624,2.46 1.5,2.46 L46.5,2.46 C46.7982338,2.46 47.04,2.70176624 47.04,3 L47.04,45 C47.04,45.2982338 46.7982338,45.54 46.5,45.54 Z M2.04,44.46 L45.96,44.46 L45.96,8.04 L2.04,8.04 L2.04,44.46 Z M2.04,6.96 L45.96,6.96 L45.96,3.54 L2.04,3.54 L2.04,6.96 Z M20.25,36.21 L19.26,35.79 L28.26,14.79 L29.25,15.21 L20.25,36.21 Z M32.13,31.875 L31.365,31.11 L36.99,25.5 L31.365,19.875 L32.13,19.11 L38.13,25.11 C38.2355388,25.2092228 38.2953908,25.3476428 38.2953908,25.4925 C38.2953908,25.6373572 38.2355388,25.7757772 38.13,25.875 L32.13,31.875 Z M16.365,31.875 L10.365,25.875 C10.2642171,25.7762533 10.2074235,25.6410961 10.2074235,25.5 C10.2074235,25.3589039 10.2642171,25.2237467 10.365,25.125 L16.365,19.125 L17.13,19.875 L11.52,25.5 L17.13,31.11 L16.365,31.875 Z" id="Shape" fill="#198038" fill-rule="nonzero"></path>
            <rect id="Rectangle" x="0" y="0" width="48" height="48"></rect>
        </g>
    </g>
</svg>