<?xml version="1.0" encoding="UTF-8"?>
<svg width="48px" height="48px" viewBox="0 0 48 48" version="1.1" xmlns="http://www.w3.org/2000/svg" xmlns:xlink="http://www.w3.org/1999/xlink">
    <title>48-patterns</title>
    <g id="Page-1" stroke="none" stroke-width="1" fill="none" fill-rule="evenodd">
        <g id="Pattern-purple">
            <path d="M17.04,32.04 L17.04,43.5 C17.0481888,44.8552141 18.1447859,45.9518112 19.5,45.96 L43.5,45.96 C44.8552141,45.9518112 45.9518112,44.8552141 45.96,43.5 L45.96,19.5 C45.9518112,18.1447859 44.8552141,17.0481888 43.5,17.04 L32.04,17.04 L32.04,28.5 C32.04,30.455088 30.455088,32.04 28.5,32.04 L17.04,32.04 Z" id="Path" fill="#E8DAFF" fill-rule="nonzero"></path>
            <rect id="Rectangle" fill="#E8DAFF" fill-rule="nonzero" x="27.54" y="27.54" width="3.42" height="3.42" rx="0.96"></rect>
            <rect id="Rectangle" fill="#E8DAFF" fill-rule="nonzero" x="2.04" y="2.04" width="3.42" height="3.42" rx="0.96"></rect>
            <path d="M43.5,47.04 L19.5,47.04 C17.544912,47.04 15.96,45.455088 15.96,43.5 L15.96,32.04 L4.5,32.04 C2.54491199,32.04 0.96,30.455088 0.96,28.5 L0.96,4.5 C0.96,2.54491199 2.54491199,0.96 4.5,0.96 L28.5,0.96 C30.455088,0.96 32.04,2.54491199 32.04,4.5 L32.04,15.96 L43.5,15.96 C45.455088,15.96 47.04,17.544912 47.04,19.5 L47.04,43.5 C47.04,45.455088 45.455088,47.04 43.5,47.04 Z M17.04,32.04 L17.04,43.5 C17.0481888,44.8552141 18.1447859,45.9518112 19.5,45.96 L43.5,45.96 C44.8552141,45.9518112 45.9518112,44.8552141 45.96,43.5 L45.96,19.5 C45.9518112,18.1447859 44.8552141,17.0481888 43.5,17.04 L32.04,17.04 L32.04,28.5 C32.04,30.455088 30.455088,32.04 28.5,32.04 L17.04,32.04 Z M28.5,27.54 C27.9698066,27.54 27.54,27.9698066 27.54,28.5 L27.54,30 C27.54,30.5301934 27.9698066,30.96 28.5,30.96 C29.8552141,30.9518112 30.9518112,29.8552141 30.96,28.5 C30.96,27.9698066 30.5301934,27.54 30,27.54 L28.5,27.54 Z M16.5,30.96 L26.7,30.96 C26.5435651,30.6641087 26.4612121,30.334697 26.46,30 L26.46,28.5 C26.46,27.3733391 27.3733391,26.46 28.5,26.46 L30,26.46 C30.334697,26.4612121 30.6641087,26.5435651 30.96,26.7 L30.96,15.3 C30.6641087,15.4564349 30.334697,15.5387879 30,15.54 L28.5,15.54 C27.3733391,15.54 26.46,14.6266609 26.46,13.5 L26.46,12 C26.46,10.8733391 27.3733391,9.96 28.5,9.96 L30,9.96 C30.334697,9.96121213 30.6641087,10.0435651 30.96,10.2 L30.96,4.5 C30.9518112,3.14478593 29.8552141,2.04818883 28.5,2.04 L22.8,2.04 C22.9564349,2.33589127 23.0387879,2.66530303 23.04,3 L23.04,4.5 C23.04,5.04104164 22.825072,5.55992362 22.4424978,5.94249783 C22.0599236,6.32507205 21.5410416,6.54 21,6.54 L19.5,6.54 C18.3733391,6.54 17.46,5.62666089 17.46,4.5 L17.46,3 C17.4612121,2.66530303 17.5435651,2.33589127 17.7,2.04 L6.3,2.04 C6.45643493,2.33589127 6.53878787,2.66530303 6.54,3 L6.54,4.5 C6.54,5.04104164 6.32507205,5.55992362 5.94249783,5.94249783 C5.55992362,6.32507205 5.04104164,6.54 4.5,6.54 L3,6.54 C2.66530303,6.53878787 2.33589127,6.45643493 2.04,6.3 L2.04,17.7 C2.33589127,17.5435651 2.66530303,17.4612121 3,17.46 L4.5,17.46 C5.04104164,17.46 5.55992362,17.674928 5.94249783,18.0575022 C6.32507205,18.4400764 6.54,18.9589584 6.54,19.5 L6.54,21 C6.54,21.5410416 6.32507205,22.0599236 5.94249783,22.4424978 C5.55992362,22.825072 5.04104164,23.04 4.5,23.04 L3,23.04 C2.66530303,23.0387879 2.33589127,22.9564349 2.04,22.8 L2.04,28.5 C2.04818883,29.8552141 3.14478593,30.9518112 4.5,30.96 L10.2,30.96 C10.0435651,30.6641087 9.96121213,30.334697 9.96,30 L9.96,28.5 C9.96,27.3733391 10.8733391,26.46 12,26.46 L13.5,26.46 C14.6266609,26.46 15.54,27.3733391 15.54,28.5 L15.54,30 C15.5387879,30.334697 15.4564349,30.6641087 15.3,30.96 L16.5,30.96 Z M12,27.54 C11.4698066,27.54 11.04,27.9698066 11.04,28.5 L11.04,30 C11.04,30.5301934 11.4698066,30.96 12,30.96 L13.5,30.96 C14.0301934,30.96 14.46,30.5301934 14.46,30 L14.46,28.5 C14.46,27.9698066 14.0301934,27.54 13.5,27.54 L12,27.54 Z M2.04,21 C2.04,21.5301934 2.46980664,21.96 3,21.96 L4.5,21.96 C5.03019336,21.96 5.46,21.5301934 5.46,21 L5.46,19.5 C5.46,18.9698066 5.03019336,18.54 4.5,18.54 L3,18.54 C2.46980664,18.54 2.04,18.9698066 2.04,19.5 L2.04,21 Z M28.5,11.04 C27.9698066,11.04 27.54,11.4698066 27.54,12 L27.54,13.5 C27.54,14.0301934 27.9698066,14.46 28.5,14.46 L30,14.46 C30.5301934,14.46 30.96,14.0301934 30.96,13.5 L30.96,12 C30.96,11.4698066 30.5301934,11.04 30,11.04 L28.5,11.04 Z M19.5,2.04 C18.9698066,2.04 18.54,2.46980664 18.54,3 L18.54,4.5 C18.54,5.03019336 18.9698066,5.46 19.5,5.46 L21,5.46 C21.5301934,5.46 21.96,5.03019336 21.96,4.5 L21.96,3 C21.96,2.46980664 21.5301934,2.04 21,2.04 L19.5,2.04 Z M2.04,4.5 C2.04,5.03019336 2.46980664,5.46 3,5.46 L4.5,5.46 C5.03019336,5.46 5.46,5.03019336 5.46,4.5 L5.46,3 C5.46,2.46980664 5.03019336,2.04 4.5,2.04 C3.14478593,2.04818883 2.04818883,3.14478593 2.04,4.5 L2.04,4.5 Z M21,23.04 L19.5,23.04 C18.3733391,23.04 17.46,22.1266609 17.46,21 L17.46,19.5 C17.46,18.3733391 18.3733391,17.46 19.5,17.46 L21,17.46 C22.1266609,17.46 23.04,18.3733391 23.04,19.5 L23.04,21 C23.04,22.1266609 22.1266609,23.04 21,23.04 Z M19.5,18.54 C18.9698066,18.54 18.54,18.9698066 18.54,19.5 L18.54,21 C18.54,21.5301934 18.9698066,21.96 19.5,21.96 L21,21.96 C21.5301934,21.96 21.96,21.5301934 21.96,21 L21.96,19.5 C21.96,18.9698066 21.5301934,18.54 21,18.54 L19.5,18.54 Z M13.5,15.54 L12,15.54 C10.8733391,15.54 9.96,14.6266609 9.96,13.5 L9.96,12 C9.96,10.8733391 10.8733391,9.96 12,9.96 L13.5,9.96 C14.6266609,9.96 15.54,10.8733391 15.54,12 L15.54,13.5 C15.54,14.6266609 14.6266609,15.54 13.5,15.54 Z M12,11.04 C11.4698066,11.04 11.04,11.4698066 11.04,12 L11.04,13.5 C11.04,14.0301934 11.4698066,14.46 12,14.46 L13.5,14.46 C14.0301934,14.46 14.46,14.0301934 14.46,13.5 L14.46,12 C14.46,11.4698066 14.0301934,11.04 13.5,11.04 L12,11.04 Z" id="Shape" fill="#8A3FFC" fill-rule="nonzero"></path>
            <rect id="Rectangle" x="0" y="0" width="48" height="48"></rect>
            <rect id="Rectangle" fill="#E8DAFF" fill-rule="nonzero" x="18.54" y="18.54" width="3.42" height="3.42" rx="0.96"></rect>
            <rect id="Rectangle" fill="#E8DAFF" fill-rule="nonzero" x="11.04" y="11.04" width="3.42" height="3.42" rx="0.96"></rect>
            <rect id="Rectangle" fill="#E8DAFF" fill-rule="nonzero" x="27.54" y="11.04" width="3.42" height="3.42" rx="0.96"></rect>
            <rect id="Rectangle" fill="#E8DAFF" fill-rule="nonzero" x="18.54" y="2.04" width="3.42" height="3.42" rx="0.96"></rect>
            <rect id="Rectangle" fill="#E8DAFF" fill-rule="nonzero" x="2.04" y="18.54" width="3.42" height="3.42" rx="0.96"></rect>
            <rect id="Rectangle" fill="#E8DAFF" fill-rule="nonzero" x="11.04" y="27.54" width="3.42" height="3.42" rx="0.96"></rect>
        </g>
    </g>
</svg>