<?xml version="1.0" encoding="UTF-8"?>
<svg width="48px" height="48px" viewBox="0 0 48 48" version="1.1" xmlns="http://www.w3.org/2000/svg" xmlns:xlink="http://www.w3.org/1999/xlink">
    <title>48-templates</title>
    <g id="Page-1" stroke="none" stroke-width="1" fill="none" fill-rule="evenodd">
        <g id="templates-magenta">
            <rect id="Rectangle" fill="#FFD6E8" fill-rule="nonzero" x="1.485" y="17.985" width="44.91" height="28.425"></rect>
            <path d="M46.5,47.04 L1.5,47.04 C1.20176624,47.04 0.96,46.7982338 0.96,46.5 L0.96,1.5 C0.96,1.20176624 1.20176624,0.96 1.5,0.96 L46.5,0.96 C46.7982338,0.96 47.04,1.20176624 47.04,1.5 L47.04,46.5 C47.04,46.7982338 46.7982338,47.04 46.5,47.04 Z M2.04,45.96 L45.96,45.96 L45.96,18.54 L2.04,18.54 L2.04,45.96 Z M20.04,17.46 L45.96,17.46 L45.96,2.04 L20.04,2.04 L20.04,17.46 Z M2.04,17.46 L18.96,17.46 L18.96,2.04 L2.04,2.04 L2.04,17.46 Z M13.5,41.04 C9.06305436,41.0317452 5.4682548,37.4369456 5.46,33 L6.54,33 C6.54,36.8439019 9.65609814,39.96 13.5,39.96 C17.3439019,39.96 20.46,36.8439019 20.46,33 C20.46,29.1560981 17.3439019,26.04 13.5,26.04 L13.5,24.96 C17.9403693,24.96 21.5399997,28.5596307 21.5399997,33 C21.5399997,37.4403693 17.9403693,41.04 13.5,41.04 L13.5,41.04 Z M41.04,40.5 L39.96,40.5 L39.96,24 L41.04,24 L41.04,40.5 Z M35.04,40.5 L33.96,40.5 L33.96,28.5 L35.04,28.5 L35.04,40.5 Z M29.04,40.5 L27.96,40.5 L27.96,36 L29.04,36 L29.04,40.5 Z" id="Shape" fill="#D02670" fill-rule="nonzero"></path>
            <rect id="Rectangle" x="0" y="0" width="48" height="48"></rect>
        </g>
    </g>
</svg>