<svg width="64" height="64" viewBox="0 0 64 64" fill="none" xmlns="http://www.w3.org/2000/svg">
<g clip-path="url(#clip0_28_4)">
<path d="M17.6 54.2C17 54.2 16.6 54 16 53.8C15.4 53.4 14.8 52.8 14.6 52C14.4 51.2 14.6 50.4 15 49.8L26.2 31.8V23.6H15.2C13.6 23.6 12.2 22.2 12.2 20.6C12.2 19 13.6 17.6 15.2 17.6H48.8C50.4 17.6 51.8 19 51.8 20.6C51.8 22.2 50.4 23.6 48.8 23.6H37.8V24V24.2V31.6L48.6 49.6C49.4 51 49 52.8 47.6 53.6C46.2 54.4 44.4 54 43.6 52.6L34.6 38.6C34.6 38.6 33.6 36.6 32 36.6C30.4 36.6 29.4 38.4 29.4 38.6L20 52.8C19.6 53.8 18.6 54.2 17.6 54.2ZM15.2 19.2C14.4 19.2 13.8 19.8 13.8 20.6C13.8 21.4 14.4 22 15.2 22H27C27.4 22 27.8 22.4 27.8 22.8V32C27.8 32.2 27.8 32.2 27.6 32.4L16.4 50.6C16 50.8 16 51.2 16.2 51.6C16.4 52 16.6 52.4 16.8 52.6C17.6 53 18.4 52.8 18.8 52L28 37.8C28 37.8 29.2 35.2 31.8 35.2C34.4 35.2 35.6 38 35.8 38L44.8 52C45.2 52.8 46.2 53 46.8 52.6C47.2 52.4 47.4 52 47.4 51.6C47.4 51.2 47.4 50.8 47.2 50.4L36.2 32.2C36.2 32 36 32 36 31.8V24.2V22.8C36 22.4 36.4 22 36.8 22H48.6C49.4 22 50 21.4 50 20.6C50 19.8 49.4 19.2 48.6 19.2H15.2V19.2Z" fill="black"/>
<path d="M32 3.4C45.4 3.4 57.2 13 60 26C61.6 33.4 60.2 41 56 47.4C51.8 53.8 45.4 58.2 38 59.8C36 60.2 34 60.4 32 60.4C18.6 60.6 6.8 51 4 38C2.4 30.6 3.8 23 8 16.6C12.2 10 18.6 5.6 26 4C28 3.6 30 3.4 32 3.4ZM32 2C30 2 27.8 2.2 25.8 2.6C9.6 6.2 -0.800003 22 2.6 38.2C5.6 52.4 18.2 62 32 62C34 62 36.2 61.8 38.2 61.4C54.4 58 64.8 42 61.4 25.8C58.4 11.6 45.8 2 32 2Z" fill="black"/>
<path d="M32 7.00001C34.2 7.00001 35.8 8.80001 35.8 10.8C35.8 13 34 14.6 32 14.6C29.8 14.6 28.2 12.8 28.2 10.8C28.2 8.60001 29.8 7.00001 32 7.00001ZM32 5.60001C29 5.60001 26.8 8.00001 26.8 10.8C26.8 13.6 29 16 32 16C35 16 37.2 13.6 37.2 10.8C37.2 8.00001 35 5.60001 32 5.60001Z" fill="black"/>
</g>
<defs>
<clipPath id="clip0_28_4">
<rect width="64" height="64" fill="white"/>
</clipPath>
</defs>
</svg>
