<?xml version="1.0" encoding="UTF-8"?>
<svg width="64px" height="64px" viewBox="0 0 64 64" version="1.1" xmlns="http://www.w3.org/2000/svg" xmlns:xlink="http://www.w3.org/1999/xlink">
    <title>64-backup</title>
    <g id="Page-1" stroke="none" stroke-width="1" fill="none" fill-rule="evenodd">
        <path d="M53.95,39.2393 L60.65,43.0973 C60.874,43.2253 61.012,43.4633 61.012,43.7213 C61.012,43.9793 60.874,44.2173 60.65,44.3453 L32.366,60.6293 C32.254,60.6933 32.13,60.7253 32.006,60.7253 C31.882,60.7253 31.758,60.6933 31.646,60.6293 L3.362,44.3453 C3.138,44.2173 3,43.9793 3,43.7213 C3,43.4633 3.138,43.2253 3.362,43.0973 L10.062,39.2393 C10.406,39.0453 10.848,39.1593 11.046,39.5053 C11.244,39.8493 11.126,40.2893 10.782,40.4873 L5.164,43.7213 L32.006,59.1753 L58.848,43.7213 L53.23,40.4873 C52.886,40.2893 52.768,39.8493 52.966,39.5033 C53.166,39.1573 53.61,39.0413 53.95,39.2393 Z M53.702,27.3815 L60.65,31.3815 C60.874,31.5095 61.012,31.7475 61.012,32.0055 C61.012,32.2635 60.874,32.5015 60.65,32.6295 L32.366,48.9135 C32.254,48.9775 32.13,49.0095 32.006,49.0095 C31.882,49.0095 31.758,48.9775 31.646,48.9135 L3.362,32.6295 C3.138,32.5015 3,32.2635 3,32.0055 C3,31.7475 3.138,31.5095 3.362,31.3815 L10.31,27.3815 C10.652,27.1835 11.096,27.3015 11.294,27.6455 C11.492,27.9915 11.374,28.4315 11.03,28.6295 L5.164,32.0055 L32.006,47.4595 L58.848,32.0055 L52.982,28.6295 C52.638,28.4315 52.52,27.9915 52.718,27.6455 C52.918,27.3015 53.362,27.1835 53.702,27.3815 Z M32.3662,3.0975 L60.6502,19.3815 C60.8722,19.5095 61.0122,19.7475 61.0122,20.0055 C61.0122,20.2635 60.8722,20.5015 60.6502,20.6295 L32.3662,36.9135 C32.2542,36.9775 32.1302,37.0095 32.0062,37.0095 C31.8802,37.0095 31.7582,36.9775 31.6462,36.9135 L3.3622,20.6295 C3.1382,20.5015 3.0002,20.2635 3.0002,20.0055 C3.0002,19.7475 3.1382,19.5095 3.3622,19.3815 L31.6462,3.0975 C31.8702,2.9675 32.1422,2.9675 32.3662,3.0975 Z M32.0062,4.5515 L5.1642,20.0055 L32.0062,35.4595 L58.8482,20.0055 L32.0062,4.5515 Z" id="Fill-8" fill="#000000" fill-rule="nonzero"></path>
    </g>
</svg>