<?xml version="1.0" encoding="UTF-8"?>
<svg width="64px" height="64px" viewBox="0 0 64 64" version="1.1" xmlns="http://www.w3.org/2000/svg" xmlns:xlink="http://www.w3.org/1999/xlink">
    <title>64-carbon-for-ibm-products</title>
    <g id="Page-1" stroke="none" stroke-width="1" fill="none" fill-rule="evenodd">
        <g id="64-carbon-for-ibm-products" transform="translate(3.000000, 1.000000)" fill="#000000" fill-rule="nonzero">
            <path d="M28.4006969,52.1419142 C28.2020906,52.1419142 28.2020906,52.1419142 28.0034843,52.1419142 L12.1149826,42.8811881 C11.9163763,42.679868 11.71777,42.4785479 11.71777,42.2772277 L11.71777,23.7557756 C11.71777,23.5544554 11.9163763,23.3531353 12.1149826,23.1518152 L28.0034843,13.8910891 C28.2020906,13.689769 28.4006969,13.689769 28.7979094,13.8910891 L44.6864111,23.1518152 C44.8850174,23.3531353 45.0836237,23.5544554 45.0836237,23.7557756 L45.0836237,42.2772277 C45.0836237,42.4785479 44.8850174,42.679868 44.6864111,42.8811881 L28.7979094,52.1419142 C28.7979094,52.1419142 28.5993031,52.1419142 28.4006969,52.1419142 Z M13.3066202,41.8745875 L28.5993031,50.7326733 L43.8919861,41.8745875 L43.8919861,24.1584158 L28.4006969,15.0990099 L13.1080139,23.9570957 L13.1080139,41.8745875 L13.3066202,41.8745875 Z" id="Shape"></path>
            <g id="Group">
                <path d="M52.630662,18.1188119 L32.7700348,6.64356436 C32.9686411,6.03960396 33.1672474,5.43564356 33.1672474,4.83168317 C33.1672474,2.21452145 30.9825784,0 28.4006969,0 C25.8188153,0 23.8327526,2.21452145 23.8327526,4.83168317 C23.8327526,7.44884488 26.0174216,9.66336634 28.5993031,9.66336634 C29.989547,9.66336634 31.3797909,9.05940594 32.174216,7.85148515 L51.6376307,19.1254125 L51.6376307,39.0561056 L53.0278746,39.0561056 L53.0278746,18.7227723 C53.0278746,18.5214521 52.8292683,18.320132 52.630662,18.1188119 Z M28.5993031,8.05280528 C26.8118467,8.05280528 25.4216028,6.64356436 25.4216028,4.83168317 C25.4216028,3.01980198 26.8118467,1.61056106 28.5993031,1.61056106 C30.3867596,1.61056106 31.7770035,3.01980198 31.7770035,4.83168317 C31.7770035,6.64356436 30.3867596,8.05280528 28.5993031,8.05280528 Z" id="Shape"></path>
                <path d="M5.36236934,42.4785479 L5.36236934,19.1254125 L21.8466899,9.4620462 L21.0522648,8.25412541 L4.36933798,18.1188119 C4.17073171,18.320132 3.97212544,18.5214521 3.97212544,18.7227723 L3.97212544,42.4785479 C1.78745645,42.8811881 0,44.8943894 0,47.1089109 C0,49.7260726 2.18466899,51.9405941 4.76655052,51.9405941 C7.34843206,51.9405941 9.53310105,49.7260726 9.53310105,47.1089109 C9.33449477,44.6930693 7.54703833,42.679868 5.36236934,42.4785479 Z M4.76655052,50.330033 C2.97909408,50.330033 1.58885017,48.9207921 1.58885017,47.1089109 C1.58885017,45.2970297 2.97909408,43.8877888 4.76655052,43.8877888 C6.55400697,43.8877888 7.94425087,45.2970297 7.94425087,47.1089109 C7.94425087,48.9207921 6.55400697,50.330033 4.76655052,50.330033 Z" id="Shape"></path>
                <path d="M52.4320557,42.2772277 C49.8501742,42.2772277 47.6655052,44.4917492 47.6655052,47.1089109 C47.6655052,47.5115512 47.6655052,47.9141914 47.8641115,48.3168317 L28.4006969,59.5907591 L11.9163763,49.9273927 L11.1219512,51.1353135 L28.0034843,61 C28.2020906,61 28.2020906,61 28.4006969,61 C28.5993031,61 28.5993031,61 28.7979094,61 L48.261324,49.5247525 C49.0557491,50.9339934 50.6445993,51.7392739 52.2334495,51.7392739 C54.815331,51.7392739 57,49.5247525 57,46.9075908 C57,44.290429 55.0139373,42.2772277 52.4320557,42.2772277 Z M52.4320557,50.330033 C50.6445993,50.330033 49.2543554,48.9207921 49.2543554,47.1089109 C49.2543554,45.2970297 50.6445993,43.8877888 52.4320557,43.8877888 C54.2195122,43.8877888 55.6097561,45.2970297 55.6097561,47.1089109 C55.6097561,48.9207921 54.2195122,50.330033 52.4320557,50.330033 Z" id="Shape"></path>
            </g>
        </g>
    </g>
</svg>