<?xml version="1.0" encoding="UTF-8"?>
<svg width="64px" height="64px" viewBox="0 0 64 64" version="1.1" xmlns="http://www.w3.org/2000/svg" xmlns:xlink="http://www.w3.org/1999/xlink">
    <title>64-community</title>
    <g id="Page-1" stroke="none" stroke-width="1" fill="none" fill-rule="evenodd">
        <g id="64-community">
            <path d="M48.8,62 L47.4,62 L47.4,47 C47.4,39.8 42.6,33.8 35.6,32.2 C35.4,32.2 35,31.8 35,31.6 C35,31.2 35.2,31 35.4,30.8 C38.4,29.4 40.4,26.4 40.4,23.2 C40.4,18.6 36.6,14.8 32,14.8 C27.4,14.8 23.6,18.6 23.6,23.2 C23.6,26.6 25.6,29.6 28.6,30.8 C28.8,31 29,31.2 29,31.6 C29,32 28.8,32.2 28.4,32.2 C21.4,33.8 16.6,40 16.6,47 L16.6,62 L15.2,62 L15.2,47 C15.2,39.8 19.8,33.6 26.4,31.2 C23.8,29.4 22.2,26.4 22.2,23 C22.2,19 24.6,15.6 27.8,14 C28.2,13 28.4,12 28.4,11 C28.4,6.4 24.6,2.6 20,2.6 C15.2,2.6 11.6,6.2 11.6,10.8 C11.6,14.2 13.6,17.2 16.6,18.6 C16.8,18.8 17,19 17,19.4 C17,19.8 16.8,20 16.4,20 C9.4,21.6 4.6,27.8 4.6,34.8 L4.6,50 L3.2,50 L3.2,35 C3.2,27.8 7.8,21.6 14.4,19.2 C11.8,17.4 10.2,14.2 10.2,11 C10.2,5.6 14.6,1.2 20,1.2 C25.4,1.2 29.8,5.6 29.8,11 C29.8,11.8 29.6,12.6 29.4,13.4 C31,13 32.8,13 34.4,13.4 C34.2,12.6 34,11.8 34,11 C34,5.6 38.4,1.2 43.8,1.2 C49.2,1.2 53.6,5.4 53.6,11 C53.6,14.4 52,17.4 49.4,19.2 C56,21.6 60.6,27.8 60.6,35 L60.6,50 L59.2,50 L59.2,35 C59.2,27.8 54.4,21.8 47.4,20.2 C47.2,20.2 46.8,19.8 46.8,19.6 C46.8,19.2 47,19 47.2,18.8 C50.2,17.4 52,14.4 52,11 C52,6.4 48.4,2.8 43.8,2.8 C39.2,2.8 35.4,6.6 35.4,11.2 C35.4,12.2 35.6,13.4 36,14.2 C39.4,15.8 41.6,19.2 41.6,23.2 C41.6,26.4 40,29.6 37.4,31.4 C44,33.8 48.6,40 48.6,47.2 L48.8,62 L48.8,62 Z" id="anonymous--users_1_" fill="#000000" fill-rule="nonzero"></path>
            <rect id="_Transparent_Rectangle" x="0" y="0" width="64" height="64"></rect>
        </g>
    </g>
</svg>