<?xml version="1.0" encoding="UTF-8"?>
<svg width="64px" height="64px" viewBox="0 0 64 64" version="1.1" xmlns="http://www.w3.org/2000/svg" xmlns:xlink="http://www.w3.org/1999/xlink">
    <title>64-cloud</title>
    <g id="Page-1" stroke="none" stroke-width="1" fill="none" fill-rule="evenodd">
        <g id="64-cloud">
            <path d="M46,60.72 L15,60.72 C7.434,60.72 1.28,54.564 1.28,47 C1.28,40.688 5.648,35.156 11.736,33.67 C13.732,24.318 22.06,17.28 32,17.28 C39.454,17.28 46.338,21.294 50.022,27.768 C57.306,29.574 62.722,36.166 62.722,44 C62.72,53.218 55.218,60.72 46,60.72 Z M11.464,35.236 C6.338,36.776 2.72,41.564 2.72,47 C2.72,53.772 8.228,59.28 15,59.28 L46,59.28 C54.426,59.28 61.28,52.426 61.28,44 C61.28,35.574 54.426,28.72 46,28.72 C41.46,28.72 37.188,30.718 34.274,34.202 C34.018,34.51 33.564,34.546 33.26,34.294 C32.956,34.038 32.914,33.584 33.17,33.28 C36.358,29.468 41.034,27.282 46.002,27.282 C46.718,27.282 47.424,27.326 48.118,27.414 C44.564,22.016 38.516,18.72 32,18.72 C21.37,18.72 12.72,27.37 12.72,38 C12.72,41.382 13.61,44.712 15.292,47.626 C15.49,47.97 15.372,48.412 15.028,48.608 C14.68,48.81 14.242,48.692 14.044,48.344 C12.236,45.212 11.28,41.636 11.28,38 C11.28,37.062 11.342,36.14 11.464,35.236 Z M56.054,25.47 C55.806,25.47 55.564,25.342 55.43,25.11 C55.23,24.766 55.348,24.324 55.694,24.126 L61.64,20.694 C61.984,20.5 62.426,20.612 62.622,20.958 C62.822,21.302 62.704,21.744 62.358,21.942 L56.412,25.374 C56.3,25.44 56.178,25.47 56.054,25.47 Z M7.944,25.47 C7.822,25.47 7.698,25.44 7.584,25.374 L1.64,21.944 C1.296,21.744 1.178,21.304 1.376,20.96 C1.576,20.618 2.012,20.496 2.36,20.696 L8.306,24.128 C8.65,24.328 8.768,24.768 8.57,25.112 C8.436,25.342 8.194,25.47 7.944,25.47 Z M18.114,15.306 C17.864,15.306 17.622,15.178 17.49,14.946 L14.056,9 C13.858,8.656 13.976,8.216 14.32,8.018 C14.664,7.816 15.106,7.938 15.304,8.28 L18.736,14.226 C18.934,14.57 18.816,15.012 18.472,15.21 C18.36,15.276 18.236,15.306 18.114,15.306 Z M45.886,15.306 C45.762,15.306 45.64,15.276 45.526,15.21 C45.18,15.01 45.064,14.57 45.262,14.226 L48.694,8.28 C48.894,7.936 49.336,7.822 49.676,8.016 C50.022,8.216 50.138,8.656 49.94,9 L46.508,14.946 C46.376,15.176 46.134,15.306 45.886,15.306 Z M32,11.584 C31.602,11.584 31.28,11.262 31.28,10.864 L31.28,4 C31.28,3.602 31.602,3.28 32,3.28 C32.398,3.28 32.72,3.602 32.72,4 L32.72,10.866 C32.72,11.262 32.398,11.584 32,11.584 Z" id="ibm--cloud_1_" fill="#000000" fill-rule="nonzero"></path>
            <rect id="_Transparent_Rectangle" x="0" y="0" width="64" height="64"></rect>
        </g>
    </g>
</svg>