<?xml version="1.0" encoding="UTF-8"?>
<svg width="64px" height="64px" viewBox="0 0 64 64" version="1.1" xmlns="http://www.w3.org/2000/svg" xmlns:xlink="http://www.w3.org/1999/xlink">
    <title>64-components</title>
    <g id="Page-1" stroke="none" stroke-width="1" fill="none" fill-rule="evenodd">
        <g id="components_blue">
            <rect id="Rectangle" fill="#D0E2FF" fill-rule="nonzero" x="4" y="10.26" width="55.8" height="7.8"></rect>
            <rect id="Rectangle" fill="#D0E2FF" fill-rule="nonzero" x="4" y="30.1" width="55.8" height="7.8"></rect>
            <rect id="Rectangle" fill="#D0E2FF" fill-rule="nonzero" x="4" y="50.1" width="55.8" height="7.8"></rect>
            <path d="M60,58.72 L4,58.72 C3.60235498,58.72 3.28,58.397645 3.28,58 L3.28,50 C3.28,49.602355 3.60235498,49.28 4,49.28 L60,49.28 C60.397645,49.28 60.72,49.602355 60.72,50 L60.72,58 C60.72,58.1909559 60.6441431,58.3740907 60.5091169,58.5091169 C60.3740907,58.6441431 60.1909559,58.72 60,58.72 L60,58.72 Z M4.72,57.28 L59.28,57.28 L59.28,50.72 L4.72,50.72 L4.72,57.28 Z M28,46.72 L4,46.72 L4,45.28 L28,45.28 L28,46.72 Z M60,38.72 L4,38.72 C3.60235498,38.72 3.28,38.397645 3.28,38 L3.28,30 C3.28,29.602355 3.60235498,29.28 4,29.28 L60,29.28 C60.397645,29.28 60.72,29.602355 60.72,30 L60.72,38 C60.72,38.397645 60.397645,38.72 60,38.72 L60,38.72 Z M4.72,37.28 L59.28,37.28 L59.28,30.72 L4.72,30.72 L4.72,37.28 Z M28,26.72 L4,26.72 L4,25.28 L28,25.28 L28,26.72 Z M60,18.72 L4,18.72 C3.60235498,18.72 3.28,18.397645 3.28,18 L3.28,10 C3.28,9.60235498 3.60235498,9.28 4,9.28 L60,9.28 C60.397645,9.28 60.72,9.60235498 60.72,10 L60.72,18 C60.72,18.397645 60.397645,18.72 60,18.72 L60,18.72 Z M4.72,17.28 L59.28,17.28 L59.28,10.72 L4.72,10.72 L4.72,17.28 Z M28,6.72 L4,6.72 L4,5.28 L28,5.28 L28,6.72 Z" id="Shape" fill="#0F62FE" fill-rule="nonzero"></path>
            <rect id="Rectangle" x="0" y="0" width="64" height="64"></rect>
        </g>
    </g>
</svg>