<?xml version="1.0" encoding="UTF-8"?>
<svg width="62px" height="62px" viewBox="0 0 62 62" version="1.1" xmlns="http://www.w3.org/2000/svg" xmlns:xlink="http://www.w3.org/1999/xlink">
    <title>64-carbon-for-ibm-dotcom</title>
    <g id="Page-1" stroke="none" stroke-width="1" fill="none" fill-rule="evenodd">
        <g id="64-carbon-for-ibm-dotcom" fill="#000000" fill-rule="nonzero">
            <path d="M46.0974026,62 C45.8961039,62 45.8961039,62 45.6948052,62 L30.5974026,53.1428571 C30.3961039,52.9415584 30.1948052,52.7402597 30.1948052,52.538961 L30.1948052,35.2272727 C30.1948052,35.025974 30.3961039,34.8246753 30.5974026,34.6233766 L45.6948052,25.9675325 C45.8961039,25.7662338 46.0974026,25.7662338 46.5,25.9675325 L61.5974026,34.6233766 C61.7987013,34.8246753 62,35.025974 62,35.2272727 L62,52.538961 C62,52.7402597 61.7987013,52.9415584 61.5974026,53.1428571 L46.5,61.7987013 C46.2987013,61.7987013 46.2987013,62 46.0974026,62 Z M31.8051948,52.1363636 L46.0974026,60.3896104 L60.3896104,52.1363636 L60.3896104,35.6298701 L46.0974026,27.3766234 L31.8051948,35.6298701 L31.8051948,52.1363636 Z" id="Shape"></path>
            <path d="M61.1948052,0 L0.805194805,0 C0.402597403,0 0,0.402597403 0,0.805194805 L0,45.0909091 C0,45.4935065 0.402597403,45.8961039 0.805194805,45.8961039 L24.961039,45.8961039 L24.961039,44.487013 L1.61038961,44.487013 L1.61038961,7.44805195 L60.5909091,7.44805195 L60.5909091,28.987013 L62,28.987013 L62,0.805194805 C62,0.402597403 61.5974026,0 61.1948052,0 Z M1.61038961,5.83766234 L1.61038961,1.61038961 L60.5909091,1.61038961 L60.5909091,6.03896104 L1.61038961,6.03896104 L1.61038961,5.83766234 Z" id="Shape"></path>
            <circle id="Oval" cx="5.83766234" cy="3.82467532" r="1.00649351"></circle>
            <circle id="Oval" cx="9.86363636" cy="3.82467532" r="1.00649351"></circle>
            <circle id="Oval" cx="13.8896104" cy="3.82467532" r="1.00649351"></circle>
        </g>
    </g>
</svg>