<?xml version="1.0" encoding="UTF-8"?>
<svg width="64px" height="64px" viewBox="0 0 64 64" version="1.1" xmlns="http://www.w3.org/2000/svg" xmlns:xlink="http://www.w3.org/1999/xlink">
    <title>64-functions</title>
    <g id="Page-1" stroke="none" stroke-width="1" fill="none" fill-rule="evenodd">
        <g id="functions_green">
            <rect id="Rectangle" fill="#A7F0BA" fill-rule="nonzero" x="2.04" y="10.04" width="59.96" height="49.94"></rect>
            <path d="M58,7 C58,7.55228475 57.5522847,8 57,8 C56.4477153,8 56,7.55228475 56,7 C56,6.44771525 56.4477153,6 57,6 C57.5522847,6 58,6.44771525 58,7 Z M53,6 C52.4477153,6 52,6.44771525 52,7 C52,7.55228475 52.4477153,8 53,8 C53.5522847,8 54,7.55228475 54,7 C54,6.44771525 53.5522847,6 53,6 Z M49,6 C48.4477153,6 48,6.44771525 48,7 C48,7.55228475 48.4477153,8 49,8 C49.5522847,8 50,7.55228475 50,7 C50,6.44771525 49.5522847,6 49,6 Z M62,60.72 L2,60.72 C1.60235498,60.72 1.28,60.397645 1.28,60 L1.28,4 C1.28,3.60235498 1.60235498,3.28 2,3.28 L62,3.28 C62.397645,3.28 62.72,3.60235498 62.72,4 L62.72,60 C62.72,60.397645 62.397645,60.72 62,60.72 Z M2.72,59.28 L61.28,59.28 L61.28,10.72 L2.72,10.72 L2.72,59.28 Z M2.72,9.28 L61.28,9.28 L61.28,4.72 L2.72,4.72 L2.72,9.28 Z M27,48.28 L25.68,47.72 L37.68,19.72 L39,20.28 L27,48.28 Z M42.84,42.5 L41.82,41.48 L49.32,34 L41.82,26.5 L42.84,25.48 L50.84,33.48 C50.9807184,33.6122971 51.0605211,33.7968571 51.0605211,33.99 C51.0605211,34.1831429 50.9807184,34.3677029 50.84,34.5 L42.84,42.5 Z M21.82,42.5 L13.82,34.5 C13.6856228,34.3683377 13.6098979,34.1881281 13.6098979,34 C13.6098979,33.8118719 13.6856228,33.6316623 13.82,33.5 L21.82,25.5 L22.84,26.5 L15.36,34 L22.84,41.48 L21.82,42.5 Z" id="Shape" fill="#198038" fill-rule="nonzero"></path>
            <rect id="Rectangle" x="0" y="0" width="64" height="64"></rect>
        </g>
    </g>
</svg>