<?xml version="1.0" encoding="UTF-8"?>
<svg width="64px" height="77px" viewBox="0 0 64 77" version="1.1" xmlns="http://www.w3.org/2000/svg" xmlns:xlink="http://www.w3.org/1999/xlink">
    <title>64-filing-cabinet</title>
    <defs>
        <linearGradient x1="0%" y1="50%" x2="100%" y2="50%" id="linearGradient-1">
            <stop stop-color="#666666" offset="0%"></stop>
            <stop stop-color="#333333" offset="100%"></stop>
        </linearGradient>
        <linearGradient x1="0%" y1="49.994227%" x2="100%" y2="49.994227%" id="linearGradient-2">
            <stop stop-color="#8C8C8C" offset="0%"></stop>
            <stop stop-color="#7B7B7B" offset="17%"></stop>
            <stop stop-color="#676767" offset="46%"></stop>
            <stop stop-color="#5A5A5A" offset="73%"></stop>
            <stop stop-color="#565656" offset="100%"></stop>
        </linearGradient>
        <linearGradient x1="37.7990106%" y1="62.0797645%" x2="62.2009894%" y2="37.9202355%" id="linearGradient-3">
            <stop stop-color="#F3F3F3" offset="0%"></stop>
            <stop stop-color="#B7B7B7" offset="20%"></stop>
            <stop stop-color="#6B6B6B" offset="47%"></stop>
            <stop stop-color="#3A3A3A" offset="66%"></stop>
            <stop stop-color="#282828" offset="76%"></stop>
        </linearGradient>
        <linearGradient x1="0%" y1="50%" x2="100%" y2="50%" id="linearGradient-4">
            <stop stop-color="#8C8C8C" offset="0%"></stop>
            <stop stop-color="#282828" offset="100%"></stop>
        </linearGradient>
        <linearGradient x1="0%" y1="50%" x2="100%" y2="50%" id="linearGradient-5">
            <stop stop-color="#3D3D3D" offset="0%"></stop>
            <stop stop-color="#171717" offset="100%"></stop>
        </linearGradient>
        <linearGradient x1="38.2086369%" y1="61.6671084%" x2="61.7913631%" y2="38.3328916%" id="linearGradient-6">
            <stop stop-color="#F3F3F3" offset="0%"></stop>
            <stop stop-color="#E0E0E0" offset="4%"></stop>
            <stop stop-color="#B5B5B5" offset="16%"></stop>
            <stop stop-color="#909090" offset="27%"></stop>
            <stop stop-color="#727272" offset="39%"></stop>
            <stop stop-color="#5A5A5A" offset="52%"></stop>
            <stop stop-color="#4A4A4A" offset="66%"></stop>
            <stop stop-color="#404040" offset="81%"></stop>
            <stop stop-color="#3D3D3D" offset="100%"></stop>
        </linearGradient>
        <linearGradient x1="0%" y1="50.005773%" x2="100%" y2="50.005773%" id="linearGradient-7">
            <stop stop-color="#8C8C8C" offset="0%"></stop>
            <stop stop-color="#7B7B7B" offset="7%"></stop>
            <stop stop-color="#6A6A6A" offset="18%"></stop>
            <stop stop-color="#5F5F5F" offset="31%"></stop>
            <stop stop-color="#585858" offset="49%"></stop>
            <stop stop-color="#565656" offset="100%"></stop>
        </linearGradient>
        <linearGradient x1="37.7922342%" y1="62.0797645%" x2="62.2009894%" y2="37.9202355%" id="linearGradient-8">
            <stop stop-color="#F3F3F3" offset="0%"></stop>
            <stop stop-color="#EAEAEA" offset="2%"></stop>
            <stop stop-color="#B0B0B0" offset="17%"></stop>
            <stop stop-color="#7F7F7F" offset="31%"></stop>
            <stop stop-color="#595959" offset="44%"></stop>
            <stop stop-color="#3E3E3E" offset="57%"></stop>
            <stop stop-color="#2E2E2E" offset="68%"></stop>
            <stop stop-color="#282828" offset="76%"></stop>
        </linearGradient>
        <linearGradient x1="0%" y1="50%" x2="99.9846555%" y2="50%" id="linearGradient-9">
            <stop stop-color="#8C8C8C" offset="0%"></stop>
            <stop stop-color="#494949" offset="55%"></stop>
            <stop stop-color="#171717" offset="100%"></stop>
        </linearGradient>
        <linearGradient x1="38.2154284%" y1="61.6814141%" x2="61.8023462%" y2="38.3287436%" id="linearGradient-10">
            <stop stop-color="#F3F3F3" offset="0%"></stop>
            <stop stop-color="#E0E0E0" offset="4%"></stop>
            <stop stop-color="#B5B5B5" offset="16%"></stop>
            <stop stop-color="#909090" offset="27%"></stop>
            <stop stop-color="#727272" offset="39%"></stop>
            <stop stop-color="#5A5A5A" offset="52%"></stop>
            <stop stop-color="#4A4A4A" offset="66%"></stop>
            <stop stop-color="#404040" offset="81%"></stop>
            <stop stop-color="#3D3D3D" offset="100%"></stop>
        </linearGradient>
        <linearGradient x1="0%" y1="50%" x2="100%" y2="50%" id="linearGradient-11">
            <stop stop-color="#DCDCDC" offset="0%"></stop>
            <stop stop-color="#BEBEBE" offset="100%"></stop>
        </linearGradient>
        <linearGradient x1="0%" y1="50%" x2="100%" y2="50%" id="linearGradient-12">
            <stop stop-color="#A4A4A4" offset="0%"></stop>
            <stop stop-color="#BEBEBE" offset="100%"></stop>
        </linearGradient>
        <linearGradient x1="37.4976704%" y1="62.3740581%" x2="62.5023296%" y2="37.6223918%" id="linearGradient-13">
            <stop stop-color="#F3F3F3" offset="0%"></stop>
            <stop stop-color="#DCDCDC" offset="100%"></stop>
        </linearGradient>
        <linearGradient x1="0%" y1="50.0046198%" x2="100%" y2="50.0046198%" id="linearGradient-14">
            <stop stop-color="#DCDCDC" offset="0%"></stop>
            <stop stop-color="#BEBEBE" offset="100%"></stop>
        </linearGradient>
    </defs>
    <g id="Page-1" stroke="none" stroke-width="1" fill="none" fill-rule="evenodd">
        <g id="64-filing-cabinet" fill-rule="nonzero">
            <g id="LightTheme_FilingCabinetEmpty" transform="translate(32.000000, 38.500000) scale(-1, 1) translate(-32.000000, -38.500000) ">
                <polygon id="Path" fill="#A1A1A1" points="10.8745875 15.258806 37.4323432 30.5143284 37.4323432 71.1979104 10.8745875 55.9391045"></polygon>
                <polygon id="Path" fill="url(#linearGradient-1)" points="11.6864687 16.9728358 36.6171617 31.2925373 36.6171617 69.4838806 11.6864687 55.1608955"></polygon>
                <polygon id="Path" fill="url(#linearGradient-2)" points="26.4290429 75.3385075 50.2013201 61.6820895 50.2013201 46.899403 26.4290429 60.5591045"></polygon>
                <polygon id="Path" fill="url(#linearGradient-3)" points="50.2013201 46.899403 25.270627 32.5797015 1.49834983 46.2361194 26.4290429 60.5525373"></polygon>
                <polygon id="Path" fill="url(#linearGradient-4)" points="25.3234323 48.6265671 25.3234323 33.8438806 3.81518151 46.1967164 16.5643565 53.6570149"></polygon>
                <polygon id="Path" fill="url(#linearGradient-5)" points="48.0033003 46.8698507 35.1353135 54.261194 25.3234323 48.6265671 25.3234323 33.8438806"></polygon>
                <polygon id="Path" fill="url(#linearGradient-6)" points="35.1353135 54.261194 26.3762376 59.2916418 16.5643565 53.6570149 25.3234323 48.6265671"></polygon>
                <polygon id="Path" fill="url(#linearGradient-7)" points="31.5247525 52.0349253 55.2970297 38.3785075 55.2970297 23.5958209 31.5247525 37.258806"></polygon>
                <polygon id="Path" fill="url(#linearGradient-8)" points="55.2970297 23.5958209 30.3663366 9.27940299 6.5940594 22.9325373 31.5247525 37.2522388"></polygon>
                <polygon id="Path" fill="url(#linearGradient-9)" points="30.4191419 25.3229851 30.4191419 10.5402985 8.91089108 22.8964179 21.660066 30.3534328"></polygon>
                <polygon id="Path" fill="#898989" points="53.0990099 23.5662687 40.2277227 30.957612 30.4191419 25.3229851 30.4191419 10.5402985"></polygon>
                <polygon id="Path" fill="url(#linearGradient-10)" points="40.2277227 30.957612 31.4719472 35.9880597 21.660066 30.3534328 30.4191419 25.3229851"></polygon>
                <polygon id="Path" fill="#BBBBBB" points="5.77227722 18.598209 12.580858 22.5089552 15.0066006 26.337612 23.1089108 30.9871642 25.5346534 29.9462687 32.3432343 33.8570149 32.3432343 53.3122388 5.77227722 38.0534328"></polygon>
                <polygon id="Path" fill="url(#linearGradient-11)" points="5.09570957 18.9856716 11.9042904 22.8964179 14.330033 26.7217911 22.4290429 31.3746268 24.8547855 30.3337313 31.6633664 34.2444776 31.6633664 53.6997015 5.09570957 38.4408956"></polygon>
                <polygon id="Path" fill="#A4A4A4" points="32.3432343 33.8537314 31.6633664 34.2444776 31.6633664 53.6997015 32.3432343 53.3089552"></polygon>
                <polygon id="Path" fill="#F3F3F3" points="15.0066006 26.337612 14.330033 26.7217911 22.4290429 31.3746268 23.1089108 30.9871642"></polygon>
                <polygon id="Path" fill="#F3F3F3" points="5.77227722 18.598209 5.09570957 18.9856716 11.9042904 22.8964179 12.580858 22.5089552"></polygon>
                <polygon id="Path" fill="#F3F3F3" points="32.3432343 33.8570149 25.5346534 29.9462687 24.8547855 30.3337313 31.6633664 34.2444776"></polygon>
                <polygon id="Path" fill="#DCDCDC" points="12.580858 22.5089552 11.9042904 22.8964179 14.330033 26.7217911 15.0066006 26.337612"></polygon>
                <polygon id="Path" fill="#D9D9D9" points="23.1089108 30.9871642 25.5346534 29.9462687 24.8547855 30.3337313 22.4290429 31.3746268"></polygon>
                <polygon id="Path" fill="#BBBBBB" points="0.679867986 41.8985074 7.48844884 45.8092538 9.91419138 49.6379104 18.0132013 54.2907462 20.4389439 53.2498508 27.2475247 57.1573134 27.2475247 76.6125373 0.679867986 61.3537314"></polygon>
                <polygon id="Path" fill="url(#linearGradient-11)" points="0 42.2859702 6.80858085 46.1967164 9.23432343 50.0253731 17.3333333 54.6749254 19.7590759 53.6340299 26.5676568 57.5447761 26.5676568 77 0 61.741194"></polygon>
                <polygon id="Path" fill="#A4A4A4" points="27.2475247 57.1540298 26.5676568 57.5447761 26.5676568 77 27.2475247 76.6092538"></polygon>
                <polygon id="Path" fill="#F3F3F3" points="9.91419138 49.6379104 9.23432343 50.0253731 17.3333333 54.6749254 18.0132013 54.2907462"></polygon>
                <polygon id="Path" fill="#F3F3F3" points="0.679867986 41.8985074 0 42.2859702 6.80858085 46.1967164 7.48844884 45.8092538"></polygon>
                <polygon id="Path" fill="#F3F3F3" points="27.2475247 57.1573134 20.4389439 53.2498508 19.7590759 53.6340299 26.5676568 57.5447761"></polygon>
                <polygon id="Path" fill="#DCDCDC" points="7.48844884 45.8092538 6.80858085 46.1967164 9.23432343 50.0253731 9.91419138 49.6379104"></polygon>
                <polygon id="Path" fill="#D9D9D9" points="18.0132013 54.2907462 20.4389439 53.2498508 19.7590759 53.6340299 17.3333333 54.6749254"></polygon>
                <polygon id="Path" fill="url(#linearGradient-12)" points="64 55.9358209 37.4323432 71.1979104 37.4323432 30.5143284 64 15.2522388"></polygon>
                <polygon id="Path" fill="#BEBEBE" points="36.6171617 50.718209 36.6171617 69.4838806 37.4323432 71.1979104 37.4356435 50.4128358 36.7557756 50.7970149"></polygon>
                <polygon id="Path" fill="url(#linearGradient-13)" points="37.4323432 0 10.8745875 15.258806 37.4323432 30.5143284 64 15.2522388"></polygon>
                <polygon id="Path" fill="url(#linearGradient-14)" points="11.6864687 16.9728358 36.6171617 31.2925373 36.6171617 50.718209 36.7557756 50.7970149 37.4356435 50.4128358 37.4323432 30.5143284 10.8745875 15.258806 10.8745875 20.4731343 11.6864687 20.0068656"></polygon>
            </g>
        </g>
    </g>
</svg>