<?xml version="1.0" encoding="UTF-8"?>
<svg width="64px" height="64px" viewBox="0 0 64 64" version="1.1" xmlns="http://www.w3.org/2000/svg" xmlns:xlink="http://www.w3.org/1999/xlink">
    <title>64-patterns</title>
    <g id="Page-1" stroke="none" stroke-width="1" fill="none" fill-rule="evenodd">
        <g id="Pattern-purple">
            <path d="M22.72,42.72 L22.72,58 C22.7309184,59.8069521 24.1930479,61.2690816 26,61.28 L58,61.28 C59.8069521,61.2690816 61.2690816,59.8069521 61.28,58 L61.28,26 C61.2690816,24.1930479 59.8069521,22.7309184 58,22.72 L42.72,22.72 L42.72,38 C42.72,40.606784 40.606784,42.72 38,42.72 L22.72,42.72 Z" id="Path" fill="#E8DAFF" fill-rule="nonzero"></path>
            <rect id="Rectangle" fill="#E8DAFF" fill-rule="nonzero" x="36.72" y="36.72" width="4.56" height="4.56" rx="1.28"></rect>
            <rect id="Rectangle" fill="#E8DAFF" fill-rule="nonzero" x="2.72" y="2.72" width="4.56" height="4.56" rx="1.28"></rect>
            <path d="M58,62.72 L26,62.72 C23.393216,62.72 21.28,60.606784 21.28,58 L21.28,42.72 L6,42.72 C3.39321598,42.72 1.28,40.606784 1.28,38 L1.28,6 C1.28,3.39321598 3.39321598,1.28 6,1.28 L38,1.28 C40.606784,1.28 42.72,3.39321598 42.72,6 L42.72,21.28 L58,21.28 C60.606784,21.28 62.72,23.393216 62.72,26 L62.72,58 C62.72,60.606784 60.606784,62.72 58,62.72 Z M22.72,42.72 L22.72,58 C22.7309184,59.8069521 24.1930479,61.2690816 26,61.28 L58,61.28 C59.8069521,61.2690816 61.2690816,59.8069521 61.28,58 L61.28,26 C61.2690816,24.1930479 59.8069521,22.7309184 58,22.72 L42.72,22.72 L42.72,38 C42.72,40.606784 40.606784,42.72 38,42.72 L22.72,42.72 Z M38,36.72 C37.2930755,36.72 36.72,37.2930755 36.72,38 L36.72,40 C36.72,40.7069245 37.2930755,41.28 38,41.28 C39.8069521,41.2690816 41.2690816,39.8069521 41.28,38 C41.28,37.2930755 40.7069245,36.72 40,36.72 L38,36.72 Z M22,41.28 L35.6,41.28 C35.3914201,40.8854783 35.2816162,40.4462626 35.28,40 L35.28,38 C35.28,36.4977855 36.4977855,35.28 38,35.28 L40,35.28 C40.4462626,35.2816162 40.8854783,35.3914201 41.28,35.6 L41.28,20.4 C40.8854783,20.6085799 40.4462626,20.7183838 40,20.72 L38,20.72 C36.4977855,20.72 35.28,19.5022145 35.28,18 L35.28,16 C35.28,14.4977855 36.4977855,13.28 38,13.28 L40,13.28 C40.4462626,13.2816162 40.8854783,13.3914201 41.28,13.6 L41.28,6 C41.2690816,4.19304791 39.8069521,2.73091844 38,2.72 L30.4,2.72 C30.6085799,3.11452169 30.7183838,3.55373738 30.72,4 L30.72,6 C30.72,6.72138885 30.4334294,7.4132315 29.9233304,7.92333044 C29.4132315,8.43342939 28.7213889,8.72 28,8.72 L26,8.72 C24.4977855,8.72 23.28,7.50221452 23.28,6 L23.28,4 C23.2816162,3.55373738 23.3914201,3.11452169 23.6,2.72 L8.4,2.72 C8.60857991,3.11452169 8.71838383,3.55373738 8.72,4 L8.72,6 C8.72,6.72138885 8.43342939,7.4132315 7.92333044,7.92333044 C7.4132315,8.43342939 6.72138885,8.72 6,8.72 L4,8.72 C3.55373738,8.71838383 3.11452169,8.60857991 2.72,8.4 L2.72,23.6 C3.11452169,23.3914201 3.55373738,23.2816162 4,23.28 L6,23.28 C6.72138885,23.28 7.4132315,23.5665706 7.92333044,24.0766696 C8.43342939,24.5867685 8.72,25.2786111 8.72,26 L8.72,28 C8.72,28.7213889 8.43342939,29.4132315 7.92333044,29.9233304 C7.4132315,30.4334294 6.72138885,30.72 6,30.72 L4,30.72 C3.55373738,30.7183838 3.11452169,30.6085799 2.72,30.4 L2.72,38 C2.73091844,39.8069521 4.19304791,41.2690816 6,41.28 L13.6,41.28 C13.3914201,40.8854783 13.2816162,40.4462626 13.28,40 L13.28,38 C13.28,36.4977855 14.4977855,35.28 16,35.28 L18,35.28 C19.5022145,35.28 20.72,36.4977855 20.72,38 L20.72,40 C20.7183838,40.4462626 20.6085799,40.8854783 20.4,41.28 L22,41.28 Z M16,36.72 C15.2930755,36.72 14.72,37.2930755 14.72,38 L14.72,40 C14.72,40.7069245 15.2930755,41.28 16,41.28 L18,41.28 C18.7069245,41.28 19.28,40.7069245 19.28,40 L19.28,38 C19.28,37.2930755 18.7069245,36.72 18,36.72 L16,36.72 Z M2.72,28 C2.72,28.7069245 3.29307552,29.28 4,29.28 L6,29.28 C6.70692448,29.28 7.28,28.7069245 7.28,28 L7.28,26 C7.28,25.2930755 6.70692448,24.72 6,24.72 L4,24.72 C3.29307552,24.72 2.72,25.2930755 2.72,26 L2.72,28 Z M38,14.72 C37.2930755,14.72 36.72,15.2930755 36.72,16 L36.72,18 C36.72,18.7069245 37.2930755,19.28 38,19.28 L40,19.28 C40.7069245,19.28 41.28,18.7069245 41.28,18 L41.28,16 C41.28,15.2930755 40.7069245,14.72 40,14.72 L38,14.72 Z M26,2.72 C25.2930755,2.72 24.72,3.29307552 24.72,4 L24.72,6 C24.72,6.70692448 25.2930755,7.28 26,7.28 L28,7.28 C28.7069245,7.28 29.28,6.70692448 29.28,6 L29.28,4 C29.28,3.29307552 28.7069245,2.72 28,2.72 L26,2.72 Z M2.72,6 C2.72,6.70692448 3.29307552,7.28 4,7.28 L6,7.28 C6.70692448,7.28 7.28,6.70692448 7.28,6 L7.28,4 C7.28,3.29307552 6.70692448,2.72 6,2.72 C4.19304791,2.73091844 2.73091844,4.19304791 2.72,6 L2.72,6 Z M28,30.72 L26,30.72 C24.4977855,30.72 23.28,29.5022145 23.28,28 L23.28,26 C23.28,24.4977855 24.4977855,23.28 26,23.28 L28,23.28 C29.5022145,23.28 30.72,24.4977855 30.72,26 L30.72,28 C30.72,29.5022145 29.5022145,30.72 28,30.72 Z M26,24.72 C25.2930755,24.72 24.72,25.2930755 24.72,26 L24.72,28 C24.72,28.7069245 25.2930755,29.28 26,29.28 L28,29.28 C28.7069245,29.28 29.28,28.7069245 29.28,28 L29.28,26 C29.28,25.2930755 28.7069245,24.72 28,24.72 L26,24.72 Z M18,20.72 L16,20.72 C14.4977855,20.72 13.28,19.5022145 13.28,18 L13.28,16 C13.28,14.4977855 14.4977855,13.28 16,13.28 L18,13.28 C19.5022145,13.28 20.72,14.4977855 20.72,16 L20.72,18 C20.72,19.5022145 19.5022145,20.72 18,20.72 Z M16,14.72 C15.2930755,14.72 14.72,15.2930755 14.72,16 L14.72,18 C14.72,18.7069245 15.2930755,19.28 16,19.28 L18,19.28 C18.7069245,19.28 19.28,18.7069245 19.28,18 L19.28,16 C19.28,15.2930755 18.7069245,14.72 18,14.72 L16,14.72 Z" id="Shape" fill="#8A3FFC" fill-rule="nonzero"></path>
            <rect id="Rectangle" x="0" y="0" width="64" height="64"></rect>
            <rect id="Rectangle" fill="#E8DAFF" fill-rule="nonzero" x="24.72" y="24.72" width="4.56" height="4.56" rx="1.28"></rect>
            <rect id="Rectangle" fill="#E8DAFF" fill-rule="nonzero" x="14.72" y="14.72" width="4.56" height="4.56" rx="1.28"></rect>
            <rect id="Rectangle" fill="#E8DAFF" fill-rule="nonzero" x="36.72" y="14.72" width="4.56" height="4.56" rx="1.28"></rect>
            <rect id="Rectangle" fill="#E8DAFF" fill-rule="nonzero" x="24.72" y="2.72" width="4.56" height="4.56" rx="1.28"></rect>
            <rect id="Rectangle" fill="#E8DAFF" fill-rule="nonzero" x="2.72" y="24.72" width="4.56" height="4.56" rx="1.28"></rect>
            <rect id="Rectangle" fill="#E8DAFF" fill-rule="nonzero" x="14.72" y="36.72" width="4.56" height="4.56" rx="1.28"></rect>
        </g>
    </g>
</svg>
