<?xml version="1.0" encoding="UTF-8"?>
<svg width="64px" height="64px" viewBox="0 0 64 64" version="1.1" xmlns="http://www.w3.org/2000/svg" xmlns:xlink="http://www.w3.org/1999/xlink">
    <title>64-security</title>
    <g id="Page-1" stroke="none" stroke-width="1" fill="none" fill-rule="evenodd">
        <g id="64-security">
            <path d="M32,1.18 L9.28,13.572 L9.28,40 C9.28,52.316 19.684,62.72 32,62.72 C44.316,62.72 54.72,52.316 54.72,40 L54.72,13.572 L32,1.18 Z M51.68,47.914 L32,37.184 L32,38.826 L51.072,49.222 C49.674,52.036 47.684,54.524 45.254,56.494 L32,49.27 L32,50.912 L43.99,57.448 C40.548,59.848 36.408,61.28 32,61.28 C20.464,61.28 10.72,51.536 10.72,40 L10.72,14.428 L32,2.82 L53.28,14.428 L53.28,24.788 L32,13.184 L32,14.824 L53.28,26.426 L53.28,36.7 L32,25.098 L32,26.738 L53.28,38.342 L53.28,40 C53.28,42.78 52.702,45.452 51.68,47.914 Z" id="security--shield_1_" fill="#000000" fill-rule="nonzero"></path>
            <rect id="_Transparent_Rectangle" x="0" y="0" width="64" height="64"></rect>
        </g>
    </g>
</svg>
