<?xml version="1.0" encoding="UTF-8"?>
<svg width="64px" height="64px" viewBox="0 0 64 64" version="1.1" xmlns="http://www.w3.org/2000/svg" xmlns:xlink="http://www.w3.org/1999/xlink">
    <title>64-templates</title>
    <g id="Page-1" stroke="none" stroke-width="1" fill="none" fill-rule="evenodd">
        <g id="templates-magenta">
            <rect id="Rectangle" fill="#FFD6E8" fill-rule="nonzero" x="1.98" y="23.98" width="59.88" height="37.9"></rect>
            <path d="M62,62.72 L2,62.72 C1.60235498,62.72 1.28,62.397645 1.28,62 L1.28,2 C1.28,1.60235498 1.60235498,1.28 2,1.28 L62,1.28 C62.397645,1.28 62.72,1.60235498 62.72,2 L62.72,62 C62.72,62.397645 62.397645,62.72 62,62.72 Z M2.72,61.28 L61.28,61.28 L61.28,24.72 L2.72,24.72 L2.72,61.28 Z M26.72,23.28 L61.28,23.28 L61.28,2.72 L26.72,2.72 L26.72,23.28 Z M2.72,23.28 L25.28,23.28 L25.28,2.72 L2.72,2.72 L2.72,23.28 Z M18,54.72 C12.0840725,54.7089936 7.29100641,49.9159275 7.28,44 L8.72,44 C8.72,49.1252025 12.8747975,53.28 18,53.28 C23.1252025,53.28 27.28,49.1252025 27.28,44 C27.28,38.8747975 23.1252025,34.72 18,34.72 L18,33.28 C23.9204924,33.28 28.7199996,38.0795076 28.7199996,44 C28.7199996,49.9204924 23.9204924,54.72 18,54.72 L18,54.72 Z M54.72,54 L53.28,54 L53.28,32 L54.72,32 L54.72,54 Z M46.72,54 L45.28,54 L45.28,38 L46.72,38 L46.72,54 Z M38.72,54 L37.28,54 L37.28,48 L38.72,48 L38.72,54 Z" id="Shape" fill="#D02670" fill-rule="nonzero"></path>
            <rect id="Rectangle" x="0" y="0" width="64" height="64"></rect>
        </g>
    </g>
</svg>