<?xml version="1.0" encoding="UTF-8"?>
<svg width="64px" height="64px" viewBox="0 0 64 64" version="1.1" xmlns="http://www.w3.org/2000/svg" xmlns:xlink="http://www.w3.org/1999/xlink">
    <title>64-watson</title>
    <g id="Page-1" stroke="none" stroke-width="1" fill="none" fill-rule="evenodd">
        <g id="64-watson">
            <path d="M31.648,60.726 C27.868,60.726 24.138,59.734 20.776,57.794 C20.776,57.792 20.776,57.792 20.776,57.792 C15.54,54.77 11.878,49.864 10.468,43.982 C10.376,43.596 10.614,43.206 11,43.114 C11.39,43.02 11.776,43.258 11.868,43.646 C12.856,47.764 15.022,51.366 18.102,54.102 C17.484,52.024 17.476,49.336 18.05,46.308 C16.088,44.39 14.482,42.286 13.33,40.096 C11.02,35.7 10.798,31.46 12.706,28.156 C14.914,24.33 19.628,22.364 25.676,22.762 C26.072,22.788 26.374,23.132 26.346,23.528 C26.318,23.926 25.964,24.212 25.58,24.198 C20.118,23.832 15.878,25.542 13.952,28.876 C12.302,31.736 12.534,35.482 14.606,39.426 C15.562,41.244 16.854,43.002 18.418,44.636 C19.26,41.264 20.768,37.558 22.914,33.84 C25.78,28.876 29.346,24.7 32.956,22.08 C34.758,20.772 36.48,19.922 38.052,19.544 C34.342,18.316 30.354,18.184 26.492,19.202 C26.112,19.306 25.714,19.076 25.612,18.69 C25.51,18.306 25.74,17.912 26.124,17.81 C31.724,16.336 37.574,17.116 42.588,20.012 C42.59,20.012 42.59,20.014 42.592,20.014 C47.636,22.928 51.244,27.632 52.752,33.26 C54.262,38.888 53.486,44.768 50.572,49.812 C47.66,54.858 42.954,58.468 37.326,59.976 C35.45,60.476 33.542,60.726 31.648,60.726 Z M21.544,56.574 C26.248,59.276 31.716,59.99 36.958,58.582 C39.906,57.792 42.582,56.384 44.846,54.468 C43.36,55.004 41.674,55.318 39.826,55.39 C35.002,55.598 29.568,54.1 24.572,51.216 C22.668,50.116 20.908,48.86 19.336,47.492 C18.66,51.866 19.332,55.292 21.498,56.544 C21.512,56.554 21.528,56.564 21.544,56.574 Z M19.644,45.838 C21.302,47.368 23.204,48.766 25.292,49.97 C30.054,52.718 35.206,54.118 39.77,53.952 C44.222,53.774 47.582,52.102 49.232,49.244 C49.248,49.216 49.264,49.192 49.28,49.168 C49.296,49.142 49.312,49.116 49.326,49.09 C52.046,44.376 52.77,38.884 51.362,33.628 C49.962,28.396 46.616,24.02 41.938,21.296 C41.912,21.286 41.89,21.274 41.868,21.26 C39.978,20.17 37.038,20.894 33.802,23.244 C30.352,25.748 26.926,29.766 24.16,34.56 C21.934,38.416 20.406,42.356 19.644,45.838 Z M56.054,25.47 C55.806,25.47 55.564,25.342 55.43,25.11 C55.23,24.766 55.348,24.324 55.694,24.126 L61.64,20.694 C61.984,20.5 62.426,20.612 62.622,20.958 C62.822,21.302 62.704,21.744 62.358,21.942 L56.412,25.374 C56.3,25.44 56.178,25.47 56.054,25.47 Z M7.944,25.47 C7.822,25.47 7.698,25.44 7.584,25.374 L1.64,21.944 C1.296,21.744 1.178,21.304 1.376,20.96 C1.576,20.618 2.012,20.496 2.36,20.696 L8.306,24.128 C8.65,24.328 8.768,24.768 8.57,25.112 C8.436,25.342 8.194,25.47 7.944,25.47 Z M45.886,15.306 C45.762,15.306 45.64,15.276 45.526,15.21 C45.18,15.01 45.064,14.57 45.262,14.226 L48.694,8.28 C48.894,7.936 49.336,7.822 49.676,8.016 C50.022,8.216 50.138,8.656 49.94,9 L46.508,14.946 C46.376,15.176 46.134,15.306 45.886,15.306 Z M18.114,15.306 C17.864,15.306 17.622,15.178 17.49,14.946 L14.056,9 C13.858,8.656 13.976,8.216 14.32,8.016 C14.664,7.818 15.106,7.936 15.304,8.28 L18.736,14.226 C18.934,14.57 18.816,15.012 18.472,15.21 C18.36,15.276 18.236,15.306 18.114,15.306 Z M32,11.584 C31.602,11.584 31.28,11.262 31.28,10.864 L31.28,4 C31.28,3.602 31.602,3.28 32,3.28 C32.398,3.28 32.72,3.602 32.72,4 L32.72,10.866 C32.72,11.262 32.398,11.584 32,11.584 Z" id="watson--logo_1_" fill="#000000" fill-rule="nonzero"></path>
            <rect id="_Transparent_Rectangle" x="0" y="0" width="64" height="64"></rect>
        </g>
    </g>
</svg>