<?xml version="1.0" encoding="UTF-8"?>
<svg width="32px" height="32px" viewBox="0 0 32 32" version="1.1" xmlns="http://www.w3.org/2000/svg" xmlns:xlink="http://www.w3.org/1999/xlink">
    <title>axure</title>
    <g id="Page-1" stroke="none" stroke-width="1" fill="none" fill-rule="evenodd">
        <g id="axure" transform="translate(4.000000, 2.000000)" fill-rule="nonzero">
            <g id="XMLID_7_" transform="translate(15.000000, 0.000000)" fill="#74BB11">
                <path d="M7.88669499,0.810535757 C7.66182433,0.318693731 7.20977618,4.1678447e-16 6.66365127,4.1678447e-16 L4.50668717,4.1678447e-16 C3.89401189,4.1678447e-16 3.41213966,0.281053015 3.18725984,0.775404755 L-2.03262024e-16,5.84439488 L2.76964029,10 L7.63199109,2.39396255 C8.17582748,1.69133251 7.98307859,1.05896849 7.88669499,0.810535757 Z" id="Path"></path>
            </g>
            <g id="XMLID_8_" fill="#009CD9">
                <path d="M6.03476153,0.65818989 C5.54511702,0 4.88991983,0 4.66141286,0 L2.53494739,0 C1.9776791,0 1.55331432,0.262339101 1.32481665,0.690981693 C1.09630968,1.15007909 1.12895885,1.67709523 1.45538542,2.16897695 L9.34108982,13.1450598 L0.27790013,25.8638092 C-0.0485320252,26.355691 -0.0811746826,26.8827071 0.14732764,27.3089921 C0.375829963,27.7352772 0.835162838,28 1.35745652,28 L3.54921102,28 C4.10647931,28 4.59613312,27.7048149 4.85727066,27.2433955 L15,13.1778581 L6.03476153,0.65818989 Z" id="Path"></path>
            </g>
            <g id="XMLID_9_" transform="translate(14.000000, 17.000000)" fill="#EB2084">
                <path d="M9.7940814,8.94767547 L2.98449729,0 L0,3.93678568 L5.37108475,10.7985685 L5.511184,10.8657124 C5.75634272,10.9664281 5.96648162,11 6.1791255,11 L8.46065349,11 C9.02352554,11 9.47881318,10.7649966 9.7590516,10.3598382 C10.07422,9.99064282 10.07422,9.4535879 9.7940814,8.94767547 Z" id="Path"></path>
            </g>
        </g>
    </g>
</svg>