
<svg width="67px" height="80px" viewBox="0 0 67 80" version="1.1" xmlns="http://www.w3.org/2000/svg" xmlns:xlink="http://www.w3.org/1999/xlink">
    <defs>
        <linearGradient x1="0%" y1="50%" x2="100%" y2="50%" id="linearGradient-0nr0zjh-t7-1">
            <stop stop-color="#666666" offset="0%"></stop>
            <stop stop-color="#333333" offset="100%"></stop>
        </linearGradient>
        <linearGradient x1="0%" y1="49.994227%" x2="100%" y2="49.994227%" id="linearGradient-0nr0zjh-t7-2">
            <stop stop-color="#8C8C8C" offset="0%"></stop>
            <stop stop-color="#7B7B7B" offset="17%"></stop>
            <stop stop-color="#676767" offset="46%"></stop>
            <stop stop-color="#5A5A5A" offset="73%"></stop>
            <stop stop-color="#565656" offset="100%"></stop>
        </linearGradient>
        <linearGradient x1="37.7990106%" y1="62.2033047%" x2="62.2009894%" y2="37.7966953%" id="linearGradient-0nr0zjh-t7-3">
            <stop stop-color="#F3F3F3" offset="0%"></stop>
            <stop stop-color="#B7B7B7" offset="20%"></stop>
            <stop stop-color="#6B6B6B" offset="47%"></stop>
            <stop stop-color="#3A3A3A" offset="66%"></stop>
            <stop stop-color="#282828" offset="76%"></stop>
        </linearGradient>
        <linearGradient x1="0%" y1="50%" x2="100%" y2="50%" id="linearGradient-0nr0zjh-t7-4">
            <stop stop-color="#8C8C8C" offset="0%"></stop>
            <stop stop-color="#282828" offset="100%"></stop>
        </linearGradient>
        <linearGradient x1="0%" y1="50%" x2="100%" y2="50%" id="linearGradient-0nr0zjh-t7-5">
            <stop stop-color="#3D3D3D" offset="0%"></stop>
            <stop stop-color="#171717" offset="100%"></stop>
        </linearGradient>
        <linearGradient x1="38.2086369%" y1="61.7864283%" x2="61.7913631%" y2="38.2135717%" id="linearGradient-0nr0zjh-t7-6">
            <stop stop-color="#F3F3F3" offset="0%"></stop>
            <stop stop-color="#E0E0E0" offset="4%"></stop>
            <stop stop-color="#B5B5B5" offset="16%"></stop>
            <stop stop-color="#909090" offset="27%"></stop>
            <stop stop-color="#727272" offset="39%"></stop>
            <stop stop-color="#5A5A5A" offset="52%"></stop>
            <stop stop-color="#4A4A4A" offset="66%"></stop>
            <stop stop-color="#404040" offset="81%"></stop>
            <stop stop-color="#3D3D3D" offset="100%"></stop>
        </linearGradient>
        <linearGradient x1="0%" y1="50.005773%" x2="100%" y2="50.005773%" id="linearGradient-0nr0zjh-t7-7">
            <stop stop-color="#8C8C8C" offset="0%"></stop>
            <stop stop-color="#7B7B7B" offset="7%"></stop>
            <stop stop-color="#6A6A6A" offset="18%"></stop>
            <stop stop-color="#5F5F5F" offset="31%"></stop>
            <stop stop-color="#585858" offset="49%"></stop>
            <stop stop-color="#565656" offset="100%"></stop>
        </linearGradient>
        <linearGradient x1="37.7922342%" y1="62.2033047%" x2="62.2009894%" y2="37.7966953%" id="linearGradient-0nr0zjh-t7-8">
            <stop stop-color="#F3F3F3" offset="0%"></stop>
            <stop stop-color="#EAEAEA" offset="2%"></stop>
            <stop stop-color="#B0B0B0" offset="17%"></stop>
            <stop stop-color="#7F7F7F" offset="31%"></stop>
            <stop stop-color="#595959" offset="44%"></stop>
            <stop stop-color="#3E3E3E" offset="57%"></stop>
            <stop stop-color="#2E2E2E" offset="68%"></stop>
            <stop stop-color="#282828" offset="76%"></stop>
        </linearGradient>
        <linearGradient x1="0%" y1="50%" x2="99.9846555%" y2="50%" id="linearGradient-0nr0zjh-t7-9">
            <stop stop-color="#8C8C8C" offset="0%"></stop>
            <stop stop-color="#494949" offset="55%"></stop>
            <stop stop-color="#171717" offset="100%"></stop>
        </linearGradient>
        <linearGradient x1="38.2154284%" y1="61.8008803%" x2="61.8023462%" y2="38.2093813%" id="linearGradient-0nr0zjh-t7-10">
            <stop stop-color="#F3F3F3" offset="0%"></stop>
            <stop stop-color="#E0E0E0" offset="4%"></stop>
            <stop stop-color="#B5B5B5" offset="16%"></stop>
            <stop stop-color="#909090" offset="27%"></stop>
            <stop stop-color="#727272" offset="39%"></stop>
            <stop stop-color="#5A5A5A" offset="52%"></stop>
            <stop stop-color="#4A4A4A" offset="66%"></stop>
            <stop stop-color="#404040" offset="81%"></stop>
            <stop stop-color="#3D3D3D" offset="100%"></stop>
        </linearGradient>
        <linearGradient x1="0%" y1="50%" x2="100%" y2="50%" id="linearGradient-0nr0zjh-t7-11">
            <stop stop-color="#DCDCDC" offset="0%"></stop>
            <stop stop-color="#BEBEBE" offset="100%"></stop>
        </linearGradient>
        <linearGradient x1="0%" y1="50%" x2="100%" y2="50%" id="linearGradient-0nr0zjh-t7-12">
            <stop stop-color="#A4A4A4" offset="0%"></stop>
            <stop stop-color="#BEBEBE" offset="100%"></stop>
        </linearGradient>
        <linearGradient x1="37.4976704%" y1="62.500608%" x2="62.5023296%" y2="37.4958056%" id="linearGradient-0nr0zjh-t7-13">
            <stop stop-color="#F3F3F3" offset="0%"></stop>
            <stop stop-color="#DCDCDC" offset="100%"></stop>
        </linearGradient>
        <linearGradient x1="0%" y1="50.0046198%" x2="100%" y2="50.0046198%" id="linearGradient-0nr0zjh-t7-14">
            <stop stop-color="#DCDCDC" offset="0%"></stop>
            <stop stop-color="#BEBEBE" offset="100%"></stop>
        </linearGradient>
    </defs>
    <g id="FINAL---side-nav" stroke="none" stroke-width="1" fill="none" fill-rule="evenodd">
        <g id="lg-1056px-16-column-copy-3" transform="translate(-369.000000, -923.000000)" fill-rule="nonzero">
            <g id="LightTheme_FilingCabinetEmpty" transform="translate(402.078038, 963.000000) scale(-1, 1) translate(-402.078038, -963.000000) translate(369.000000, 923.000000)">
                <polygon id="Path" fill="#A1A1A1" points="11.2409382 15.8533049 38.6933902 31.7031983 38.6933902 73.971855 11.2409382 58.1185501"></polygon>
                <polygon id="Path" fill="url(#linearGradient-0nr0zjh-t7-1)" points="12.0801706 17.6341151 37.8507463 32.5117271 37.8507463 72.1910448 12.0801706 57.3100213"></polygon>
                <polygon id="Path" fill="url(#linearGradient-0nr0zjh-t7-2)" points="27.319403 78.273774 51.8925373 64.0852878 51.8925373 48.7266525 27.319403 62.9185501"></polygon>
                <polygon id="Path" fill="url(#linearGradient-0nr0zjh-t7-3)" points="51.8925373 48.7266525 26.1219616 33.8490405 1.54882729 48.0375267 27.319403 62.9117271"></polygon>
                <polygon id="Path" fill="url(#linearGradient-0nr0zjh-t7-4)" points="26.1765458 50.5211087 26.1765458 35.1624733 3.94371002 47.9965885 17.1223881 55.747548"></polygon>
                <polygon id="Path" fill="url(#linearGradient-0nr0zjh-t7-5)" points="49.6204691 48.6959488 36.3189765 56.3752665 26.1765458 50.5211087 26.1765458 35.1624733"></polygon>
                <polygon id="Path" fill="url(#linearGradient-0nr0zjh-t7-6)" points="36.3189765 56.3752665 27.2648188 61.6017058 17.1223881 55.747548 26.1765458 50.5211087"></polygon>
                <polygon id="Path" fill="url(#linearGradient-0nr0zjh-t7-7)" points="32.5867804 54.0622601 57.1599147 39.873774 57.1599147 24.5151386 32.5867804 38.7104478"></polygon>
                <polygon id="Path" fill="url(#linearGradient-0nr0zjh-t7-8)" points="57.1599147 24.5151386 31.389339 9.64093817 6.81620469 23.8260128 32.5867804 38.7036247"></polygon>
                <polygon id="Path" fill="url(#linearGradient-0nr0zjh-t7-9)" points="31.4439232 26.3095949 31.4439232 10.9509595 9.21108742 23.7884861 22.3897655 31.5360341"></polygon>
                <polygon id="Path" fill="#898989" points="54.8878465 24.484435 41.5829424 32.1637527 31.4439232 26.3095949 31.4439232 10.9509595"></polygon>
                <polygon id="Path" fill="url(#linearGradient-0nr0zjh-t7-10)" points="41.5829424 32.1637527 32.5321962 37.3901919 22.3897655 31.5360341 31.4439232 26.3095949"></polygon>
                <polygon id="Path" fill="#BBBBBB" points="5.96673774 19.3228145 13.0046908 23.3859275 15.5121535 27.3637527 23.88742 32.1944563 26.3948827 31.1130064 33.4328358 35.1761194 33.4328358 55.389339 5.96673774 39.5360341"></polygon>
                <polygon id="Path" fill="url(#linearGradient-0nr0zjh-t7-11)" points="5.2673774 19.7253731 12.3053305 23.7884861 14.8127932 27.7628998 23.1846482 32.5970149 25.6921109 31.515565 32.730064 35.578678 32.730064 55.7918977 5.2673774 39.9385928"></polygon>
                <polygon id="Path" fill="#A4A4A4" points="33.4328358 35.1727079 32.730064 35.578678 32.730064 55.7918977 33.4328358 55.3859275"></polygon>
                <polygon id="Path" fill="#F3F3F3" points="15.5121535 27.3637527 14.8127932 27.7628998 23.1846482 32.5970149 23.88742 32.1944563"></polygon>
                <polygon id="Path" fill="#F3F3F3" points="5.96673774 19.3228145 5.2673774 19.7253731 12.3053305 23.7884861 13.0046908 23.3859275"></polygon>
                <polygon id="Path" fill="#F3F3F3" points="33.4328358 35.1761194 26.3948827 31.1130064 25.6921109 31.515565 32.730064 35.578678"></polygon>
                <polygon id="Path" fill="#DCDCDC" points="13.0046908 23.3859275 12.3053305 23.7884861 14.8127932 27.7628998 15.5121535 27.3637527"></polygon>
                <polygon id="Path" fill="#D9D9D9" points="23.88742 32.1944563 26.3948827 31.1130064 25.6921109 31.515565 23.1846482 32.5970149"></polygon>
                <polygon id="Path" fill="#BBBBBB" points="0.702771855 43.5309168 7.74072495 47.5940299 10.2481876 51.571855 18.6200426 56.4059701 21.1275053 55.3245203 28.1654584 59.3842217 28.1654584 79.5974414 0.702771855 63.7441365"></polygon>
                <polygon id="Path" fill="url(#linearGradient-0nr0zjh-t7-11)" points="-9.69610556e-15 43.9334755 7.03795309 47.9965885 9.54541578 51.9744136 17.9172708 56.8051173 20.4247335 55.7236674 27.4626866 59.7867804 27.4626866 80 -9.69610556e-15 64.1466951"></polygon>
                <polygon id="Path" fill="#A4A4A4" points="28.1654584 59.3808102 27.4626866 59.7867804 27.4626866 80 28.1654584 79.5940299"></polygon>
                <polygon id="Path" fill="#F3F3F3" points="10.2481876 51.571855 9.54541578 51.9744136 17.9172708 56.8051173 18.6200426 56.4059701"></polygon>
                <polygon id="Path" fill="#F3F3F3" points="0.702771855 43.5309168 -9.69610556e-15 43.9334755 7.03795309 47.9965885 7.74072495 47.5940299"></polygon>
                <polygon id="Path" fill="#F3F3F3" points="28.1654584 59.3842217 21.1275053 55.3245203 20.4247335 55.7236674 27.4626866 59.7867804"></polygon>
                <polygon id="Path" fill="#DCDCDC" points="7.74072495 47.5940299 7.03795309 47.9965885 9.54541578 51.9744136 10.2481876 51.571855"></polygon>
                <polygon id="Path" fill="#D9D9D9" points="18.6200426 56.4059701 21.1275053 55.3245203 20.4247335 55.7236674 17.9172708 56.8051173"></polygon>
                <polygon id="Path" fill="url(#linearGradient-0nr0zjh-t7-12)" points="66.1560768 58.1151386 38.6933902 73.971855 38.6933902 31.7031983 66.1560768 15.8464819"></polygon>
                <polygon id="Path" fill="#BEBEBE" points="37.8507463 52.6942431 37.8507463 72.1910448 38.6933902 73.971855 38.6968017 52.3769723 37.9940299 52.7761194"></polygon>
                <polygon id="Path" fill="url(#linearGradient-0nr0zjh-t7-13)" points="38.6933902 0 11.2409382 15.8533049 38.6933902 31.7031983 66.1560768 15.8464819"></polygon>
                <polygon id="Path" fill="url(#linearGradient-0nr0zjh-t7-14)" points="12.0801706 17.6341151 37.8507463 32.5117271 37.8507463 52.6942431 37.9940299 52.7761194 38.6968017 52.3769723 38.6933902 31.7031983 11.2409382 15.8533049 11.2409382 21.2707889 12.0801706 20.7863539"></polygon>
            </g>
        </g>
    </g>
</svg>
