<?xml version="1.0" encoding="UTF-8"?>
<svg width="32px" height="32px" viewBox="0 0 32 32" version="1.1" xmlns="http://www.w3.org/2000/svg" xmlns:xlink="http://www.w3.org/1999/xlink">
    <title>invision</title>
    <g id="Page-1" stroke="none" stroke-width="1" fill="none" fill-rule="evenodd">
        <g id="InVision-icon-pink" transform="translate(2.000000, 2.000000)" fill-rule="nonzero">
            <rect id="Rectangle" fill="#FF0066" x="0" y="0" width="28" height="28"></rect>
            <path d="M10.5219199,9.99990711 C11.3473855,9.98784238 12.0079416,9.31100646 11.9999278,8.48547283 C11.9919141,7.65993919 11.3183431,6.99605472 10.4927989,7 C9.66725473,7.00398058 9.00008816,7.67430112 9,8.49987365 C9.00136646,8.90109668 9.16285489,9.28517042 9.44860803,9.56681419 C9.73436116,9.84845795 10.1207284,10.0043613 10.5219199,9.99990711 L10.5219199,9.99990711 Z" id="Path" fill="#FFFFFF"></path>
            <path d="M6.62741468,17.4011508 C6.54055989,17.8010336 6.49516696,18.2100653 6.49206937,18.6207357 C6.49206937,20.0505549 7.21181263,21 8.74152935,21 C10.0099981,21 11.039252,20.1884505 11.7789298,18.877312 L11.3267296,20.8327168 L13.8447818,20.8327168 L15.2853175,14.6161118 C15.6451892,13.040485 16.3418503,12.223284 17.3994322,12.223284 C18.2314386,12.223284 18.7486885,12.7805179 18.7486885,13.7017057 C18.7527934,13.9970332 18.7149344,14.2912991 18.6364254,14.574291 L17.8946491,17.432799 C17.7885179,17.8264681 17.7355155,18.2345398 17.7372709,18.6444718 C17.7372709,20.000822 18.4790471,20.9954788 20.0307968,20.9954788 C21.3580201,20.9954788 22.415602,20.0754213 23,17.8702219 L22.0106153,17.4576654 C21.5153984,18.9360871 21.0883787,19.202836 20.7515892,19.202836 C20.4147997,19.202836 20.2332901,18.9609536 20.2332901,18.4760584 C20.2430107,18.2216117 20.2806947,17.9693033 20.3455533,17.7244143 L21.0663457,14.938245 C21.2281656,14.3654624 21.3115795,13.7703174 21.3139542,13.1715988 C21.3139542,11.0873407 20.1441091,10 18.7266556,10 C17.3994322,10 16.0501759,11.289663 15.3755477,12.6471434 L15.8697155,10.2102343 L12.0244399,10.2102343 L11.4841079,12.3577887 L13.2845152,12.3577887 L12.1765722,17.1321414 C11.3057458,19.2163995 9.70678269,19.2503083 9.50638771,19.2017057 C9.17694254,19.121455 8.96710486,18.9869503 8.96710486,18.5235306 C8.97671211,18.1483277 9.02957687,17.7758664 9.12448312,17.4147143 L10.8115781,10.2045828 L6.53928285,10.2045828 L6,12.3521373 L7.776276,12.3521373 L6.62741468,17.4011508 Z" id="Path" fill="#FFFFFF"></path>
        </g>
    </g>
</svg>