<svg xmlns="http://www.w3.org/2000/svg" viewBox="0 0 256 256"><path d="M0,0H256V256H0Z" style="fill:#f7df1e"/><path d="M67.31,213.93,86.9,202.08c3.78,6.7,7.22,12.37,15.47,12.37,7.9,0,12.89-3.09,12.89-15.12v-81.8h24v82.14c0,24.91-14.6,36.26-35.91,36.26-19.25,0-30.42-10-36.09-22m85.07-2.58L172,200c5.16,8.42,11.86,14.61,23.71,14.61,10,0,16.33-5,16.33-11.86,0-8.25-6.53-11.17-17.53-16l-6-2.58c-17.36-7.38-28.87-16.66-28.87-36.26,0-18,13.74-31.79,35.23-31.79,15.29,0,26.29,5.33,34.19,19.25l-18.73,12c-4.13-7.39-8.59-10.31-15.47-10.31-7,0-11.51,4.47-11.51,10.31,0,7.22,4.47,10.14,14.78,14.61l6,2.57c20.45,8.77,32,17.7,32,37.81,0,21.65-17,33.51-39.87,33.51-22.34,0-36.78-10.66-43.82-24.58"/></svg>