<svg width="25" height="30" fill="none" xmlns="http://www.w3.org/2000/svg"><path d="m17.925.303-.15 3.387a.224.224 0 0 0 .362.188l1.325-1 1.125.875a.225.225 0 0 0 .35-.175l-.125-3.45 1.662-.125a1.5 1.5 0 0 1 1.6 1.5v26.995a1.5 1.5 0 0 1-1.575 1.5l-20.122-.9a1.5 1.5 0 0 1-1.437-1.45L.003 2.903a1.5 1.5 0 0 1 1.412-1.587L17.912.278l.013.025Zm-3.837 11.323c0 .588 3.95.3 4.487-.1 0-3.999-2.15-6.111-6.074-6.111-3.937 0-6.124 2.15-6.124 5.362 0 5.561 7.498 5.661 7.498 8.698 0 .875-.4 1.375-1.312 1.375-1.2 0-1.687-.613-1.625-2.7 0-.45-4.561-.6-4.711 0-.338 5.037 2.787 6.5 6.373 6.5 3.487 0 6.212-1.863 6.212-5.225 0-5.962-7.624-5.799-7.624-8.748 0-1.213.9-1.375 1.412-1.375.563 0 1.563.087 1.488 2.337v-.013Z" fill="#FF4785"/></svg>